<?xml version="1.0" encoding="UTF-8" standalone="no"?>
<!-- Created with Inkscape (http://www.inkscape.org/) -->

<svg
   xmlns:dc="http://purl.org/dc/elements/1.1/"
   xmlns:cc="http://creativecommons.org/ns#"
   xmlns:rdf="http://www.w3.org/1999/02/22-rdf-syntax-ns#"
   xmlns:svg="http://www.w3.org/2000/svg"
   xmlns="http://www.w3.org/2000/svg"
   xmlns:sodipodi="http://sodipodi.sourceforge.net/DTD/sodipodi-0.dtd"
   xmlns:inkscape="http://www.inkscape.org/namespaces/inkscape"
   width="1000"
   height="1200"
   id="svg2"
   version="1.1"
   inkscape:version="0.47 r22583"
   sodipodi:docname="1909_Taiwan.svg">
  <defs
     id="defs4">
    <inkscape:perspective
       sodipodi:type="inkscape:persp3d"
       inkscape:vp_x="0 : 526.18109 : 1"
       inkscape:vp_y="0 : 1000 : 0"
       inkscape:vp_z="744.09448 : 526.18109 : 1"
       inkscape:persp3d-origin="372.04724 : 350.78739 : 1"
       id="perspective10" />
    <inkscape:perspective
       id="perspective2824"
       inkscape:persp3d-origin="0.5 : 0.33333333 : 1"
       inkscape:vp_z="1 : 0.5 : 1"
       inkscape:vp_y="0 : 1000 : 0"
       inkscape:vp_x="0 : 0.5 : 1"
       sodipodi:type="inkscape:persp3d" />
    <inkscape:perspective
       id="perspective3655"
       inkscape:persp3d-origin="0.5 : 0.33333333 : 1"
       inkscape:vp_z="1 : 0.5 : 1"
       inkscape:vp_y="0 : 1000 : 0"
       inkscape:vp_x="0 : 0.5 : 1"
       sodipodi:type="inkscape:persp3d" />
    <inkscape:perspective
       id="perspective3678"
       inkscape:persp3d-origin="0.5 : 0.33333333 : 1"
       inkscape:vp_z="1 : 0.5 : 1"
       inkscape:vp_y="0 : 1000 : 0"
       inkscape:vp_x="0 : 0.5 : 1"
       sodipodi:type="inkscape:persp3d" />
    <inkscape:perspective
       id="perspective3724"
       inkscape:persp3d-origin="0.5 : 0.33333333 : 1"
       inkscape:vp_z="1 : 0.5 : 1"
       inkscape:vp_y="0 : 1000 : 0"
       inkscape:vp_x="0 : 0.5 : 1"
       sodipodi:type="inkscape:persp3d" />
    <inkscape:perspective
       id="perspective3750"
       inkscape:persp3d-origin="0.5 : 0.33333333 : 1"
       inkscape:vp_z="1 : 0.5 : 1"
       inkscape:vp_y="0 : 1000 : 0"
       inkscape:vp_x="0 : 0.5 : 1"
       sodipodi:type="inkscape:persp3d" />
    <inkscape:perspective
       id="perspective3773"
       inkscape:persp3d-origin="0.5 : 0.33333333 : 1"
       inkscape:vp_z="1 : 0.5 : 1"
       inkscape:vp_y="0 : 1000 : 0"
       inkscape:vp_x="0 : 0.5 : 1"
       sodipodi:type="inkscape:persp3d" />
    <inkscape:perspective
       id="perspective3796"
       inkscape:persp3d-origin="0.5 : 0.33333333 : 1"
       inkscape:vp_z="1 : 0.5 : 1"
       inkscape:vp_y="0 : 1000 : 0"
       inkscape:vp_x="0 : 0.5 : 1"
       sodipodi:type="inkscape:persp3d" />
    <inkscape:perspective
       id="perspective3839"
       inkscape:persp3d-origin="0.5 : 0.33333333 : 1"
       inkscape:vp_z="1 : 0.5 : 1"
       inkscape:vp_y="0 : 1000 : 0"
       inkscape:vp_x="0 : 0.5 : 1"
       sodipodi:type="inkscape:persp3d" />
    <inkscape:perspective
       id="perspective3862"
       inkscape:persp3d-origin="0.5 : 0.33333333 : 1"
       inkscape:vp_z="1 : 0.5 : 1"
       inkscape:vp_y="0 : 1000 : 0"
       inkscape:vp_x="0 : 0.5 : 1"
       sodipodi:type="inkscape:persp3d" />
    <inkscape:perspective
       id="perspective3901"
       inkscape:persp3d-origin="0.5 : 0.33333333 : 1"
       inkscape:vp_z="1 : 0.5 : 1"
       inkscape:vp_y="0 : 1000 : 0"
       inkscape:vp_x="0 : 0.5 : 1"
       sodipodi:type="inkscape:persp3d" />
    <inkscape:perspective
       id="perspective3924"
       inkscape:persp3d-origin="0.5 : 0.33333333 : 1"
       inkscape:vp_z="1 : 0.5 : 1"
       inkscape:vp_y="0 : 1000 : 0"
       inkscape:vp_x="0 : 0.5 : 1"
       sodipodi:type="inkscape:persp3d" />
    <inkscape:perspective
       id="perspective3947"
       inkscape:persp3d-origin="0.5 : 0.33333333 : 1"
       inkscape:vp_z="1 : 0.5 : 1"
       inkscape:vp_y="0 : 1000 : 0"
       inkscape:vp_x="0 : 0.5 : 1"
       sodipodi:type="inkscape:persp3d" />
    <inkscape:perspective
       id="perspective3972"
       inkscape:persp3d-origin="0.5 : 0.33333333 : 1"
       inkscape:vp_z="1 : 0.5 : 1"
       inkscape:vp_y="0 : 1000 : 0"
       inkscape:vp_x="0 : 0.5 : 1"
       sodipodi:type="inkscape:persp3d" />
    <inkscape:perspective
       id="perspective3995"
       inkscape:persp3d-origin="0.5 : 0.33333333 : 1"
       inkscape:vp_z="1 : 0.5 : 1"
       inkscape:vp_y="0 : 1000 : 0"
       inkscape:vp_x="0 : 0.5 : 1"
       sodipodi:type="inkscape:persp3d" />
    <inkscape:perspective
       id="perspective4018"
       inkscape:persp3d-origin="0.5 : 0.33333333 : 1"
       inkscape:vp_z="1 : 0.5 : 1"
       inkscape:vp_y="0 : 1000 : 0"
       inkscape:vp_x="0 : 0.5 : 1"
       sodipodi:type="inkscape:persp3d" />
    <inkscape:perspective
       id="perspective4041"
       inkscape:persp3d-origin="0.5 : 0.33333333 : 1"
       inkscape:vp_z="1 : 0.5 : 1"
       inkscape:vp_y="0 : 1000 : 0"
       inkscape:vp_x="0 : 0.5 : 1"
       sodipodi:type="inkscape:persp3d" />
    <inkscape:perspective
       id="perspective4066"
       inkscape:persp3d-origin="0.5 : 0.33333333 : 1"
       inkscape:vp_z="1 : 0.5 : 1"
       inkscape:vp_y="0 : 1000 : 0"
       inkscape:vp_x="0 : 0.5 : 1"
       sodipodi:type="inkscape:persp3d" />
    <inkscape:perspective
       id="perspective4090"
       inkscape:persp3d-origin="0.5 : 0.33333333 : 1"
       inkscape:vp_z="1 : 0.5 : 1"
       inkscape:vp_y="0 : 1000 : 0"
       inkscape:vp_x="0 : 0.5 : 1"
       sodipodi:type="inkscape:persp3d" />
    <inkscape:perspective
       id="perspective4113"
       inkscape:persp3d-origin="0.5 : 0.33333333 : 1"
       inkscape:vp_z="1 : 0.5 : 1"
       inkscape:vp_y="0 : 1000 : 0"
       inkscape:vp_x="0 : 0.5 : 1"
       sodipodi:type="inkscape:persp3d" />
    <inkscape:perspective
       id="perspective4136"
       inkscape:persp3d-origin="0.5 : 0.33333333 : 1"
       inkscape:vp_z="1 : 0.5 : 1"
       inkscape:vp_y="0 : 1000 : 0"
       inkscape:vp_x="0 : 0.5 : 1"
       sodipodi:type="inkscape:persp3d" />
    <inkscape:perspective
       id="perspective4161"
       inkscape:persp3d-origin="0.5 : 0.33333333 : 1"
       inkscape:vp_z="1 : 0.5 : 1"
       inkscape:vp_y="0 : 1000 : 0"
       inkscape:vp_x="0 : 0.5 : 1"
       sodipodi:type="inkscape:persp3d" />
    <inkscape:perspective
       id="perspective4184"
       inkscape:persp3d-origin="0.5 : 0.33333333 : 1"
       inkscape:vp_z="1 : 0.5 : 1"
       inkscape:vp_y="0 : 1000 : 0"
       inkscape:vp_x="0 : 0.5 : 1"
       sodipodi:type="inkscape:persp3d" />
    <inkscape:perspective
       id="perspective4216"
       inkscape:persp3d-origin="0.5 : 0.33333333 : 1"
       inkscape:vp_z="1 : 0.5 : 1"
       inkscape:vp_y="0 : 1000 : 0"
       inkscape:vp_x="0 : 0.5 : 1"
       sodipodi:type="inkscape:persp3d" />
    <inkscape:perspective
       id="perspective4240"
       inkscape:persp3d-origin="0.5 : 0.33333333 : 1"
       inkscape:vp_z="1 : 0.5 : 1"
       inkscape:vp_y="0 : 1000 : 0"
       inkscape:vp_x="0 : 0.5 : 1"
       sodipodi:type="inkscape:persp3d" />
    <inkscape:perspective
       id="perspective4263"
       inkscape:persp3d-origin="0.5 : 0.33333333 : 1"
       inkscape:vp_z="1 : 0.5 : 1"
       inkscape:vp_y="0 : 1000 : 0"
       inkscape:vp_x="0 : 0.5 : 1"
       sodipodi:type="inkscape:persp3d" />
    <inkscape:perspective
       id="perspective4307"
       inkscape:persp3d-origin="0.5 : 0.33333333 : 1"
       inkscape:vp_z="1 : 0.5 : 1"
       inkscape:vp_y="0 : 1000 : 0"
       inkscape:vp_x="0 : 0.5 : 1"
       sodipodi:type="inkscape:persp3d" />
    <inkscape:perspective
       id="perspective4332"
       inkscape:persp3d-origin="0.5 : 0.33333333 : 1"
       inkscape:vp_z="1 : 0.5 : 1"
       inkscape:vp_y="0 : 1000 : 0"
       inkscape:vp_x="0 : 0.5 : 1"
       sodipodi:type="inkscape:persp3d" />
    <inkscape:perspective
       id="perspective4355"
       inkscape:persp3d-origin="0.5 : 0.33333333 : 1"
       inkscape:vp_z="1 : 0.5 : 1"
       inkscape:vp_y="0 : 1000 : 0"
       inkscape:vp_x="0 : 0.5 : 1"
       sodipodi:type="inkscape:persp3d" />
    <inkscape:perspective
       id="perspective4378"
       inkscape:persp3d-origin="0.5 : 0.33333333 : 1"
       inkscape:vp_z="1 : 0.5 : 1"
       inkscape:vp_y="0 : 1000 : 0"
       inkscape:vp_x="0 : 0.5 : 1"
       sodipodi:type="inkscape:persp3d" />
    <inkscape:perspective
       id="perspective4401"
       inkscape:persp3d-origin="0.5 : 0.33333333 : 1"
       inkscape:vp_z="1 : 0.5 : 1"
       inkscape:vp_y="0 : 1000 : 0"
       inkscape:vp_x="0 : 0.5 : 1"
       sodipodi:type="inkscape:persp3d" />
    <inkscape:perspective
       id="perspective4424"
       inkscape:persp3d-origin="0.5 : 0.33333333 : 1"
       inkscape:vp_z="1 : 0.5 : 1"
       inkscape:vp_y="0 : 1000 : 0"
       inkscape:vp_x="0 : 0.5 : 1"
       sodipodi:type="inkscape:persp3d" />
    <inkscape:perspective
       id="perspective4460"
       inkscape:persp3d-origin="0.5 : 0.33333333 : 1"
       inkscape:vp_z="1 : 0.5 : 1"
       inkscape:vp_y="0 : 1000 : 0"
       inkscape:vp_x="0 : 0.5 : 1"
       sodipodi:type="inkscape:persp3d" />
    <inkscape:perspective
       id="perspective4485"
       inkscape:persp3d-origin="0.5 : 0.33333333 : 1"
       inkscape:vp_z="1 : 0.5 : 1"
       inkscape:vp_y="0 : 1000 : 0"
       inkscape:vp_x="0 : 0.5 : 1"
       sodipodi:type="inkscape:persp3d" />
    <inkscape:perspective
       id="perspective4508"
       inkscape:persp3d-origin="0.5 : 0.33333333 : 1"
       inkscape:vp_z="1 : 0.5 : 1"
       inkscape:vp_y="0 : 1000 : 0"
       inkscape:vp_x="0 : 0.5 : 1"
       sodipodi:type="inkscape:persp3d" />
    <inkscape:perspective
       id="perspective4532"
       inkscape:persp3d-origin="0.5 : 0.33333333 : 1"
       inkscape:vp_z="1 : 0.5 : 1"
       inkscape:vp_y="0 : 1000 : 0"
       inkscape:vp_x="0 : 0.5 : 1"
       sodipodi:type="inkscape:persp3d" />
    <inkscape:perspective
       id="perspective4557"
       inkscape:persp3d-origin="0.5 : 0.33333333 : 1"
       inkscape:vp_z="1 : 0.5 : 1"
       inkscape:vp_y="0 : 1000 : 0"
       inkscape:vp_x="0 : 0.5 : 1"
       sodipodi:type="inkscape:persp3d" />
    <inkscape:perspective
       id="perspective4580"
       inkscape:persp3d-origin="0.5 : 0.33333333 : 1"
       inkscape:vp_z="1 : 0.5 : 1"
       inkscape:vp_y="0 : 1000 : 0"
       inkscape:vp_x="0 : 0.5 : 1"
       sodipodi:type="inkscape:persp3d" />
    <inkscape:perspective
       id="perspective4603"
       inkscape:persp3d-origin="0.5 : 0.33333333 : 1"
       inkscape:vp_z="1 : 0.5 : 1"
       inkscape:vp_y="0 : 1000 : 0"
       inkscape:vp_x="0 : 0.5 : 1"
       sodipodi:type="inkscape:persp3d" />
    <inkscape:perspective
       id="perspective4640"
       inkscape:persp3d-origin="0.5 : 0.33333333 : 1"
       inkscape:vp_z="1 : 0.5 : 1"
       inkscape:vp_y="0 : 1000 : 0"
       inkscape:vp_x="0 : 0.5 : 1"
       sodipodi:type="inkscape:persp3d" />
    <inkscape:perspective
       id="perspective4665"
       inkscape:persp3d-origin="0.5 : 0.33333333 : 1"
       inkscape:vp_z="1 : 0.5 : 1"
       inkscape:vp_y="0 : 1000 : 0"
       inkscape:vp_x="0 : 0.5 : 1"
       sodipodi:type="inkscape:persp3d" />
  </defs>
  <sodipodi:namedview
     id="base"
     pagecolor="#000000"
     bordercolor="#666666"
     borderopacity="1.0"
     inkscape:pageopacity="0"
     inkscape:pageshadow="2"
     inkscape:zoom="0.49497475"
     inkscape:cx="499.50633"
     inkscape:cy="654.66035"
     inkscape:document-units="px"
     inkscape:current-layer="layer2"
     showgrid="false"
     borderlayer="true"
     inkscape:showpageshadow="false"
     inkscape:window-width="1360"
     inkscape:window-height="716"
     inkscape:window-x="-4"
     inkscape:window-y="-4"
     inkscape:window-maximized="1" />
  <metadata
     id="metadata7">
    <rdf:RDF>
      <cc:Work
         rdf:about="">
        <dc:format>image/svg+xml</dc:format>
        <dc:type
           rdf:resource="http://purl.org/dc/dcmitype/StillImage" />
        <dc:title></dc:title>
      </cc:Work>
    </rdf:RDF>
  </metadata>
  <g
     inkscape:groupmode="layer"
     id="layer2"
     inkscape:label="圖層"
     style="display:inline"
     sodipodi:insensitive="true">
    <path
       style="fill:#000000;fill-opacity:1;stroke:#ffffff;stroke-width:2;stroke-linecap:butt;stroke-linejoin:miter;stroke-miterlimit:0;stroke-opacity:1;stroke-dasharray:none"
       d="m 812.65625,34.28125 -12.625,1 -10.09375,3.5625 -11.125,5.53125 -2.5,5.5625 -7.09375,0 -2,8.59375 -9.09375,10.09375 -0.5,9.09375 -9.59375,8.59375 -13.15625,6.0625 -20.1875,2 -10.09375,-1 -13.65625,4.5625 -18.6875,8.5625 -17.65625,5.5625 -23.75,14.65625 -7.59375,10.59375 0,8.09375 -14.625,13.125 -2.53125,8.09375 -4.5625,5.03125 L 598,181.25 l -6.0625,3.03125 -1.5,9.09375 -1,16.6875 -5.5625,10.59375 -12.125,4.53125 0,8.09375 -8.59375,8.59375 -1.5,4.53125 -11.125,-0.5 -5.5625,1.53125 -7.0625,9.59375 1,7.0625 -4.03125,1.5 -7.0625,-1 -4.5625,5.5625 -9.59375,16.65625 L 510.125,304 l -18.6875,17.15625 -12.625,15.15625 -1.5,13.125 -5.0625,5.0625 -4.5625,4.5625 -1.5,11.59375 -4.5625,6.0625 -1,7.0625 -4.03125,2.53125 -1.53125,6.0625 -0.5,6.5625 -10.09375,5.0625 -0.5,8.09375 -8.59375,7.5625 -5.0625,19.1875 -29.78125,26.28125 -1.53125,7.0625 3.53125,1.5 -11.09375,15.15625 -14.15625,26.28125 -8.0625,2.53125 -0.5,8.5625 -8.59375,6.0625 1,7.59375 -10.09375,8.5625 -3.53125,12.125 -0.5,9.59375 -7.59375,-0.5 -10.59375,19.71875 -1.53125,9.09375 2.53125,4.53125 -2.03125,25.75 4.5625,6.0625 -1.53125,17.6875 3.03125,2.53125 -2.5,4.03125 0,9.09375 5.03125,2.53125 -6.0625,6.0625 -2,13.125 -10.125,6.5625 -1.5,12.625 -4.5625,3.53125 -3.53125,6.0625 2.53125,5.5625 -10.09375,16.65625 0,7.09375 -8.09375,19.1875 1.53125,9.09375 12.125,3.53125 6.5625,7.0625 2.53125,10.09375 6.03125,2.03125 8.09375,5.0625 8.09375,11.59375 2,7.09375 1.53125,15.15625 12.125,33.8125 10.09375,21.21875 7.5625,11.625 2.53125,3.53125 -3.53125,6.5625 -5.5625,4.5625 1.03125,6.0625 4.53125,4.53125 1,6.5625 26.28125,31.3125 17.6875,14.15625 13.625,0 3.03125,6.0625 5.0625,5.03125 9.0625,5.0625 25.78125,12.62505 10.59375,9.0937 3.53125,7.0625 6.5625,4.0625 5.0625,7.5625 2.03125,18.1875 9.59375,8.5937 8.59375,27.25 6.5625,16.1876 -7.59375,4.0312 4.03125,8.0625 -5.03125,3.0313 -4.03125,10.625 4.03125,7.5624 8.0625,4.5626 -3.03125,15.1562 5.5625,7.0625 5.0625,0 1,-8.5937 7.0625,-5.0313 7.59375,4.5313 5.5625,1.5 6.0625,1.5312 4.53125,8.0938 3.53125,1.5 1.53125,4.0312 4.53125,0 -1,-7.5625 -6.5625,-11.625 1,-13.625 7.59375,-1.0313 0,-6.5624 7.5625,-9.5938 1,-11.0938 2.03125,-6.5624 -4.5625,-7.5938 0,-5.0312 3.5625,-3.0313 0,-11.125 1,-19.6875 -1.53125,-11.625 0,-22.2188 6.59375,-8.0937 1,-9.0937 8.0625,-16.1563 3.03125,-14.65625 10.625,-30.28125 6.5625,-3.03125 3.53125,-2.53125 1,-9.59375 1.53125,-13.65625 7.0625,-5.03125 5.5625,-1.53125 6.5625,-8.0625 16.15625,-7.59375 15.65625,-14.125 2.03125,-7.09375 5.5625,-5.53125 -2.53125,-12.125 2.03125,-6.0625 5.53125,-4.5625 6.0625,0 8.09375,-4.53125 1,-5.5625 10.625,-7.5625 -4.5625,-7.09375 10.09375,-6.0625 6.0625,-6.0625 0.53125,-10.09375 12.09375,-28.78125 8.09375,-2.03125 8.09375,-6.0625 -1.03125,-3.03125 -2,-4.53125 1.5,-7.59375 -1.5,-6.0625 -1.03125,-8.5625 7.59375,-3.53125 -1.03125,-8.59375 3.5625,-10.625 6.5625,-13.125 6.5625,-1.5 0,-8.59375 3.53125,-12.625 8.59375,-27.78125 5.5625,-6.0625 -3.5625,-5.0625 0,-16.15625 6.0625,-9.59375 2.03125,-20.1875 6.0625,-11.625 -1.53125,-15.15625 2.53125,-4.53125 -1,-4.0625 6.0625,-8.59375 3.03125,-18.15625 3.03125,-7.59375 7.0625,-9.59375 1,-17.15625 2.03125,-4.5625 -3.03125,-6.5625 1.53125,-5.5625 6.5625,-6.5625 6.0625,-6.5625 -8.59375,-6.5625 -2.53125,-6.5625 1.53125,-13.125 3.53125,-4.0625 6.5625,-4.03125 5.5625,-5.5625 -0.53125,-8.59375 -0.5,-10.59375 5.5625,-6.5625 9.59375,-6.5625 0,-6.0625 7.0625,0 6.0625,-6.0625 -1.5,-5.5625 9.09375,-7.5625 -0.5,-13.65625 4.03125,-8.59375 2.03125,-10.09375 3.03125,-11.625 L 895,314.59375 906.625,308.53125 900.5625,304 l -1.03125,-4.5625 1.03125,-5.53125 9.59375,-1.53125 1,-13.125 -3.53125,-4.03125 -1.53125,-5.5625 5.5625,0 -3.03125,-5.0625 -9.09375,-15.15625 -0.5,-14.125 -5.03125,-9.59375 -1.53125,-14.15625 0,-17.15625 L 897,180.75 l 8.09375,-12.125 9.59375,-4.03125 0.5,-8.59375 9.09375,-6.0625 4.5625,-5.03125 4.53125,-1.53125 9.59375,-3.03125 11.625,-7.5625 -2.03125,-4.0625 -7.0625,-3.03125 -9.59375,1.03125 -6.5625,-4.5625 1,-9.09375 -6.0625,-7.5625 4.0625,-6.5625 -2.53125,-6.5625 -29.8125,1 -8.0625,-7.0625 -9.625,-4.03125 -15.65625,-2.53125 -6.5625,0.5 0.5,-4.03125 -8.5625,-4.5625 3.03125,-6.5625 -9.09375,-1 -6.0625,-4.0625 0.5,-3.03125 -6.5625,-3.53125 0.5,-7.5625 -9.09375,-6.5625 -8.59375,-5.0625 z M 145,577.5 l -11.4375,2.15625 -1.78125,3.90625 2.15625,3.59375 6.0625,-1.4375 1.78125,2.5 5.375,3.5625 0.34375,5.375 L 156.4375,595 159.28125,588.5625 152.5,579.65625 145,577.5 z m -26.4375,10 -2.84375,6.0625 -1.0625,11.78125 -0.375,5.71875 -6.0625,2.875 L 105,617.5 l 15,-1.0625 4.28125,-5.375 -0.71875,-7.84375 -1.40625,-7.5 7.125,-5 -4.625,-0.71875 -6.09375,-2.5 z m 41.78125,11.78125 -10.6875,2.875 -2.875,2.5 -2.125,5 -6.8125,-0.71875 -2.5,4.625 3.59375,6.78125 6.0625,0 1.78125,4.3125 -5.71875,2.5 -5.34375,0 -1.0625,-4.65625 -3.59375,-1.78125 -1.40625,7.125 2.125,1.4375 7.15625,2.5 2.125,3.5625 10.71875,-0.6875 0.375,-6.09375 2.5,-4.28125 8.90625,-7.125 4.65625,-0.375 6.0625,2.15625 6.78125,-0.71875 -3.5625,-6.4375 -1.4375,-8.21875 -7.125,-2.5 -5.71875,1.09375 -2.875,-2.875 z m -47.84375,73.5625 -0.34375,7.5 -3.9375,5.375 7.84375,0.71875 5,-5 0,-5.375 -8.5625,-3.21875 z m -21.78125,57.875 -6.78125,2.84375 3.21875,4.65625 -1.09375,3.5625 3.59375,2.15625 5,-5 L 95,731.0625 90.71875,730.71875 z M 783.875,913.125 l -5.0625,1.25 -4.78125,-0.5 -0.25,3.28125 3.53125,3.03125 0,4.03125 3.78125,0.25 2.78125,4.5625 5.3125,-1 -2.53125,-3.8125 0,-3.28125 3.03125,-3.03125 -0.25,-4.53125 -5.5625,-0.25 z m -375.28125,108.3438 -2.75,0.75 -1.78125,2.7812 -1,2.5312 -2.78125,1 0,3.2813 2,2.0313 3.28125,-2.2813 5.5625,-4.0313 1.78125,-3.5624 -4.3125,-2.5 z m 380.84375,89.125 0,5.5624 2.53125,7.0626 2.53125,2.5312 2.5,3.0312 5.5625,1.5313 6.5625,2.5 2.53125,5.5625 6.0625,1.0312 3.03125,-3.0312 0,-5.0625 -5.0625,-2.0313 -4.53125,-2 -1.53125,-3.5624 2.03125,-5.0313 -1.5,-7.5937 -11.625,1.0312 -9.09375,-1.5312 z m 31.75,43.1874 0.0625,1.2813 0.375,1.3125 1.59375,2.0312 2.65625,0.375 0.5625,-1.4062 0.6875,-1.1875 -1.5625,-1.9063 -1.34375,-0.5 -3.03125,0 z"
       id="path2831" />
  </g>
  <g
     inkscape:groupmode="layer"
     id="layer3"
     inkscape:label="圖層2"
     style="display:inline"
     sodipodi:insensitive="true">
    <path
       style="fill:#89ff89;fill-opacity:1;stroke:none;display:inline"
       d="m 145.0005,577.4995 -11.4375,2.15625 -1.78125,3.90625 2.15625,3.59375 6.0625,-1.4375 1.78125,2.5 5.375,3.5625 0.34375,5.375 8.9375,-2.15625 2.84375,-6.4375 -6.78125,-8.90625 -7.5,-2.15625 z m -26.4375,10 -2.84375,6.0625 -1.0625,11.78125 -0.375,5.71875 -6.0625,2.875 -3.21875,3.5625 15,-1.0625 4.28125,-5.375 -0.71875,-7.84375 -1.40625,-7.5 7.125,-5 -4.625,-0.71875 -6.09375,-2.5 z m 41.78125,11.78125 -10.6875,2.875 -2.875,2.5 -2.125,5 -6.8125,-0.71875 -2.5,4.625 3.59375,6.78125 6.0625,0 1.78125,4.3125 -5.71875,2.5 -5.34375,0 -1.0625,-4.65625 -3.59375,-1.78125 -1.40625,7.125 2.125,1.4375 7.15625,2.5 2.125,3.5625 10.71875,-0.6875 0.375,-6.09375 2.5,-4.28125 8.90625,-7.125 4.65625,-0.375 6.0625,2.15625 6.78125,-0.71875 -3.5625,-6.4375 -1.4375,-8.21875 -7.125,-2.5 -5.71875,1.09375 -2.875,-2.875 z m -47.84375,73.5625 -0.34375,7.5 -3.9375,5.375 7.84375,0.71875 5,-5 0,-5.375 -8.5625,-3.21875 z m -21.78125,57.875 -6.78125,2.84375 3.21875,4.65625 -1.09375,3.5625 3.59375,2.15625 5,-5 0.34375,-7.875 -4.28125,-0.34375 z"
       id="rect4654" />
    <path
       style="fill:#c4c4c4;fill-opacity:1;stroke:none;display:inline"
       d="m 484.37525,727.37506 -4.3125,0.5 -2.75,5.3125 -1.65625,3.15625 -4.53125,12.375 -5.4375,7.4375 -0.375,3.15625 -0.125,9.625 -2.34375,4.46875 0.375,2.3125 4.09375,4.28125 -1.40625,2.84375 -2.875,2.15625 -3.03125,2.15625 -14.28125,12.5 -3.03125,4.4375 -5.375,0.1875 -1.40625,4.8125 -4.3125,4.125 -5.15625,11.59375 -2.15625,5.1875 -1.25,4.09375 -5.34375,0.375 -0.90625,-2.15625 -6.25,0.1875 -7.3125,6.96875 -3.03125,4.28125 2.3125,5 -4.46875,3.9375 -1.0625,3.75 1.25,3.90625 1.0625,8.59375 5.71875,3.75 5,-0.90625 3.5625,-3.5625 3.59375,-0.375 4.4375,1.4375 5,7.6875 0.1875,4.28125 6.96875,1.4375 2.5,10.875 -1.25,15.71875 -2.3125,7.5 -0.375,12.15625 1.78125,8.5625 -0.53125,8.9375 -2.65625,5.875 -5.1875,6.25 -0.90625,6.625 0,8.5625 1.78125,3.9375 -0.15625,4.09375 -0.0312,0.0312 2.40625,0 3.03125,6.0625 5.0625,5.03125 9.0625,5.0625 25.78125,12.62504 10.59375,9.0938 3.53125,7.0625 6.5625,4.0625 5.0625,7.5625 2.03125,18.1875 9.59375,8.5936 8.59375,27.25 6.5625,16.1876 -7.59375,4.0312 4.03125,8.0625 -5.03125,3.0313 -4.03125,10.625 4.03125,7.5624 8.0625,4.5626 -3.03125,15.1562 5.5625,7.0625 5.0625,0 1,-8.5937 7.0625,-5.0313 7.59375,4.5313 5.5625,1.5 6.0625,1.5312 4.53125,8.0938 3.53125,1.5 1.53125,4.0312 4.53125,0 -1,-7.5625 -6.5625,-11.625 1,-13.625 7.59375,-1.0313 0,-6.5624 7.5625,-9.5938 1,-11.0938 2.03125,-6.5624 -4.5625,-7.5938 0,-5.0312 0.9375,-0.8126 -3.3125,-0.9687 -5.9375,-0.125 -4.03125,-3.5313 -3.8125,0.375 -3.03125,4.2813 3.8125,4.0625 -0.53125,4.4062 -6.3125,1.5313 -4.90625,2.875 -3.78125,0 -5.0625,-1.25 -5.6875,-4.0313 -3.40625,0.5 -4.40625,9.3438 -2.40625,0.625 -2.28125,-1.625 0.25,-5.3125 -4.15625,-9.4687 -4.9375,-12.875 -1,-6.1876 1.25,-3.6562 3.9375,-1.6562 4.28125,-2.0313 -6.1875,-0.625 -5.6875,0.375 -1.75,-3.9063 -3.3125,-5.3124 -2.375,-3.4063 -1.40625,-4.5313 -3.53125,-4.1874 -0.75,-6.9376 -0.625,-5.5624 -2.78125,-2.375 -1.40625,-2.5313 -2.4375,-3.9375 -1.25,-3.0312 5.71875,-1.625 -2.5,-2.3126 -4.46875,-1.5937 -0.53125,-8.75 4.09375,-2.6875 -1.59375,-2.8438 -1.4375,-6.09369 4.125,-3.03125 -3.21875,-2.5 -3.75,-3.03125 -0.375,-6.96875 1.4375,-2.3125 1.0625,-9.46875 1.96875,-2.3125 2.15625,-2.875 -2.5,-3.5625 -0.71875,-7.5 1.96875,-2.5 1.0625,-5.1875 -2.6875,-2.65625 0,-3.40625 2.15625,-5 -0.34375,-19.65625 2.84375,-6.78125 4.8125,-3.21875 -0.53125,-4.28125 -6.25,-3.375 3.21875,-3.40625 -2.84375,-1.78125 -0.1875,-6.0625 2.3125,-1.625 1.0625,-2.65625 -3.90625,-3.59375 0,-3.75 -0.53125,-23.21875 4.625,-5 -0.53125,-9.4375 1.0625,-4.84375 2.5,-4.625 -2.84375,-6.96875 3.21875,-2.3125 3.375,-2.6875 0.1875,-3.9375 -1.4375,-3.75 0.375,-2.6875 2.84375,-1.25 1.625,-7.65625 4.8125,-3.03125 -0.1875,-8.21875 -2.3125,-5.1875 3.9375,-3.75 -1.625,-4.09375 3.21875,-4.125 5.53125,-1.25 -1.0625,-6.25 -7.15625,-4.09375 -1.96875,-2.875 0.90625,-3.75 0.1875,-7.5 -1.4375,-1.78125 -6.0625,0.53125 -4.65625,-1.78125 -1.25,-2.5 1.625,-3.5625 1.15625,-4.96875 -0.28125,0.15625 -4.78125,0.75 -4.3125,-1.90625 -2.75,1.53125 -3.03125,0.625 -2.53125,-3.28125 z m -75.78125,294.09384 -2.75,0.75 -1.78125,2.7812 -1,2.5312 -2.78125,1 0,3.2813 2,2.0313 3.28125,-2.2813 5.5625,-4.0313 1.78125,-3.5624 -4.3125,-2.5 z"
       id="rect4546" />
    <path
       style="fill:#89feff;fill-opacity:1;stroke:none;display:inline"
       d="m 323.3755,693.53078 -5.3125,4.0625 -1.375,11.46875 -4.5625,3.53125 -3.53125,6.0625 2.53125,5.5625 -10.09375,16.65625 0,7.09375 -8.09375,19.1875 1.53125,9.09375 12.125,3.53125 6.5625,7.0625 2.53125,10.09375 6.03125,2.03125 8.09375,5.0625 8.09375,11.59375 2,7.09375 1.53125,15.15625 12.125,33.8125 10.09375,21.21875 7.5625,11.625 2.53125,3.53125 -3.53125,6.56247 -5.5625,4.5625 1.03125,6.0625 4.53125,4.5313 1,6.5625 26.28125,31.3125 17.6875,14.1562 11.21875,0 0.0312,-0.031 0.15625,-4.0937 -1.78125,-3.9375 0,-8.5625 0.90625,-6.625 5.1875,-6.25 2.65625,-5.875 0.53125,-8.9375 -1.78125,-8.5625 0.375,-12.1563 2.3125,-7.49997 1.25,-15.71875 -2.5,-10.875 -6.96875,-1.4375 -0.1875,-4.28125 -5,-7.6875 -4.4375,-1.4375 -3.59375,0.375 -3.5625,3.5625 -5,0.90625 -5.71875,-3.75 -1.0625,-8.59375 -1.25,-3.90625 1.0625,-3.75 4.46875,-3.9375 -2.3125,-5 3.03125,-4.28125 7.3125,-6.96875 6.25,-0.1875 0.90625,2.15625 5.34375,-0.375 1.25,-4.09375 2.15625,-5.1875 5.15625,-11.59375 4.3125,-4.125 1.40625,-4.8125 5.375,-0.1875 3.03125,-4.4375 14.28125,-12.5 3.03125,-2.15625 2.875,-2.15625 1.40625,-2.84375 -4.09375,-4.28125 -0.375,-2.3125 2.34375,-4.46875 0.125,-9.625 0.375,-3.15625 5.4375,-7.4375 4.53125,-12.375 1.65625,-3.15625 -8.71875,-0.75 -6.3125,-3.15625 -4.6875,-3.15625 -2.78125,0.375 -4.03125,2 -5.0625,2.65625 -11.2187,-2.12505 -5.8125,-3.03125 -5.1875,-1.78125 -2.90625,2.15625 -4.15625,2.65625 -8.59375,-3.9375 -4.53125,0 -7.96875,-5.9375 -7.9375,-1.75 -11.875,0.25 -5.0625,3.40625 -5.3125,1.25 -3.65625,-0.875 -2.125,-0.875 -2.90625,-3.40625 -2.53125,-0.125 -4.3125,1.875 -2.625,-1.5 0,-2.53125 1.5,-2.15625 3.78125,-0.25 1.40625,-2.125 -1.03125,-3.8125 -6.3125,-2 -1.25,3.03125 -2.78125,0.625 -3.40625,-5.1875 -3.15625,-0.875 -5.3125,-4.5625 -7.0625,-4.03125 z"
       id="rect4474" />
    <path
       style="fill:#ff8989;fill-opacity:1;stroke:none;display:inline"
       d="m 368.71925,525.9995 0,0.21875 -8.59375,6.0625 1,7.59375 -10.09375,8.5625 -3.53125,12.125 -0.5,9.59375 -7.59375,-0.5 -10.59375,19.71875 -1.53125,9.09375 2.53125,4.53125 -2.03125,25.75 4.5625,6.0625 -1.53125,17.6875 3.03125,2.53125 -2.5,4.03125 0,9.09375 5.03125,2.53125 -6.0625,6.0625 -2,13.125 -10.125,6.5625 -0.125,1.15625 5.3125,-4.0625 7.0625,4.03125 5.3125,4.5625 3.15625,0.875 3.40625,5.1875 2.78125,-0.625 1.25,-3.03125 6.3125,2 1.03125,3.8125 -1.40625,2.125 -3.78125,0.25 -1.5,2.15625 0,2.53125 2.625,1.5 4.3125,-1.875 2.53125,0.125 2.90625,3.40625 2.125,0.875 3.65625,0.875 5.3125,-1.25 5.0625,-3.40625 11.875,-0.25 7.9375,1.75 7.96875,5.9375 4.53125,0 8.59375,3.9375 4.15625,-2.65625 2.90625,-2.15625 5.1875,1.78125 5.8125,3.03125 11.21875,2.125 5.0625,-2.65625 4.03125,-2 2.78125,-0.375 4.6875,3.15625 6.3125,3.15625 8.71875,0.75 2.75,-5.3125 4.3125,-0.5 2.53125,3.28125 3.03125,-0.625 2.75,-1.53125 4.3125,1.90625 4.78125,-0.75 0.28125,-0.15625 0.0937,-0.40625 -4.84375,-11.78125 0.71875,-10 3.03125,-1.78125 1.4375,-4.46875 0.71875,-10.875 -4.125,-9.65625 -1.78125,-4.09375 3.40625,-8.40625 0.53125,-5.53125 2.5,-2.5 3.9375,-2.3125 2.5,-4.46875 4.28125,-4.65625 4.09375,-0.875 1.4375,-7.875 3.5625,-3.5625 4.28125,-12.84375 3.9375,-5.5625 -7.84375,-3.5625 -0.90625,-2.5 4.65625,-4.28125 -1.4375,-2.6875 0.34375,-5.90625 -9.4375,-1.0625 -6.8125,2.875 -7.84375,0 -0.71875,-5.375 -2.84375,-1.40625 -2.875,4.28125 -2.5,-1.0625 -1.0625,-3.59375 4.65625,-10.34375 2.5,-6.0625 -2.15625,-7.5 0,-8.59375 5.71875,-0.71875 -0.7187,-6.40625 -2.5,-6.4375 -2.03125,-5.375 -6.90625,-2.125 -17.5,0.34375 -8.21875,-2.125 -10.6875,0.34375 -8.40625,-2.65625 -8.03125,-4.3125 -18.75,-4.625 -8.75,-0.53125 -6.0625,1.0625 -7.875,2.3125 -9.46875,0.375 -9.09375,-0.90625 -9.28125,-3.21875 -0.21875,-0.0625 z"
       id="rect4321" />
    <path
       style="fill:#feff89;fill-opacity:1;stroke:none;display:inline"
       d="m 491.344,321.25 -12.53125,15.0625 -1.5,13.125 -5.0625,5.0625 -4.5625,4.5625 -1.5,11.59375 -4.5625,6.0625 -1,7.0625 -4.03125,2.53125 -1.53125,6.0625 -0.5,6.5625 L 444.469,404 l -0.5,8.09375 -8.59375,7.5625 -5.0625,19.1875 -29.78125,26.28125 -1.53125,7.0625 3.53125,1.5 -11.09375,15.15625 -14.15625,26.28125 -8.0625,2.53125 -0.5,8.34375 0.21875,0.0625 9.28125,3.21875 9.09375,0.90625 9.46875,-0.375 7.875,-2.3125 6.0625,-1.0625 8.75,0.53125 18.75,4.625 8.03125,4.3125 8.40625,2.65625 10.6875,-0.34375 8.21875,2.125 17.5,-0.34375 6.90625,2.125 -0.125,-0.34375 3.21875,-1.0625 5.71875,-2.875 2.15625,-3.5625 -0.71875,-2.5 -8.21875,0.375 -7.15625,-6.4375 -0.6875,-11.4375 3.5625,-7.5 -0.375,-7.125 0.71875,-13.59375 4.28125,-2.84375 -1.40625,-3.9375 3.5625,-3.5625 -7.15625,-4.28125 0,-2.5 3.21875,-3.21875 5.71875,2.84375 5,-2.5 7.5,2.15625 4.28125,-2.15625 5.375,-0.34375 4.28125,4.625 4.625,0.375 6.09375,-3.21875 8.5625,-10.71875 1.78125,-8.21875 6.78125,-2.5 7.875,1.4375 6.78125,2.15625 3.375,-0.8125 -0.3125,-6.46875 -6.0625,-5.8125 -0.5,-9.34375 5.8125,-3.03125 1.78125,-5.28125 4.03125,-2.53125 2.28125,-3.53125 -4.3125,-2.78125 2.28125,-8.59375 2.28125,-6.5625 -7.34375,-5.3125 1.28125,-10.09375 9.84375,-8.78125 -0.15625,-0.0937 -11.96875,0.96875 -8.375,1.8125 -5.71875,-1.09375 -8.9375,-7.65625 -7.84375,-0.375 -2.5,-2.3125 1.59375,-4.125 -2.6875,-4.4375 -6.59375,-3.9375 -11.0625,0.71875 -5.90625,-1.09375 -17.3125,-16.40625 -8.75,-10.71875 -0.0937,-0.71875 z"
       id="rect4150" />
    <path
       style="fill:#8989ff;fill-opacity:1;stroke:none"
       d="m 495.35714,471.42857 0,-2.5 3.21429,-3.21429 5.71429,2.85715 5,-2.5 7.5,2.14285 4.28571,-2.14285 5.35714,-0.35715 4.28572,4.64286 4.64285,0.35714 L 541.42857,467.5 550,456.78571 l 1.78572,-8.21428 6.78571,-2.5 7.85714,1.42857 6.78572,2.14286 6.07143,-1.42858 11.42857,2.14286 -0.71429,2.85714 9.64286,7.85715 10.71428,1.07143 -1.42857,6.42857 8.21429,7.5 -2.14286,5.35714 1.78572,5.71429 -1.07143,7.14285 -5.71429,-3.92857 -2.5,3.21429 -3.57143,8.21428 4.28572,2.85715 -0.35715,7.14285 L 602.5,510 l -5.71428,3.92857 -1.42858,21.78571 2.85715,5 -5,0 -5,-2.85714 -2.85715,4.28572 -10.71428,0.35714 -2.85714,3.92857 -3.92858,12.85714 0,6.07143 -8.57142,6.07143 -7.14286,0.35714 1.42857,12.85715 2.5,12.85714 3.57143,4.28571 -6.42857,4.64286 -4.64286,0 L 540,597.5 532.85714,596.07143 530,599.28571 l -12.85714,-1.42857 -6.78572,2.85714 -7.85714,0 -0.71428,-5.35714 -2.85715,-1.42857 -2.85714,4.28571 -2.5,-1.07142 -1.07143,-3.57143 4.64286,-10.35715 2.5,-6.07142 -2.14286,-7.5 0,-8.57143 5.71429,-0.71429 L 502.5,553.92857 500,547.5 l -2.14286,-5.71429 3.21429,-1.07143 5.71429,-2.85714 2.14285,-3.57143 -0.71428,-2.5 -8.21429,0.35715 -7.14286,-6.42858 -0.71428,-11.42857 3.57143,-7.5 -0.35715,-7.14285 0.71429,-13.57143 4.28571,-2.85715 -1.42857,-3.92857 3.57143,-3.57143 -7.14286,-4.28571 z"
       id="path2861" />
    <path
       style="fill:none;stroke:#ffffff;stroke-width:2.5;stroke-linecap:butt;stroke-linejoin:miter;stroke-miterlimit:0;stroke-opacity:1;stroke-dasharray:none;display:inline"
       d="m 495.35728,471.429 0,-2.5 3.21429,-3.21429 5.71429,2.85715 5,-2.5 7.5,2.14285 4.28571,-2.14285 5.35714,-0.35715 4.28572,4.64286 4.64285,0.35714 6.07143,-3.21428 8.57143,-10.71429 1.78572,-8.21428 6.78571,-2.5 7.85714,1.42857 6.78572,2.14286 6.07143,-1.42858 11.42857,2.14286 -0.71429,2.85714 9.64286,7.85715 10.71428,1.07143 -1.42857,6.42857 8.21429,7.5 -2.14286,5.35714 1.78572,5.71429 -1.07143,7.14285 -5.71429,-3.92857 -2.5,3.21429 -3.57143,8.21428 4.28572,2.85715 -0.35715,7.14285 -5.35714,-1.78571 -5.71428,3.92857 -1.42858,21.78571 2.85715,5 -5,0 -5,-2.85714 -2.85715,4.28572 -10.71428,0.35714 -2.85714,3.92857 -3.92858,12.85714 0,6.07143 -8.57142,6.07143 -7.14286,0.35714 1.42857,12.85715 2.5,12.85714 3.57143,4.28571 -6.42857,4.64286 -4.64286,0 -8.57143,-8.92857 -7.14286,-1.42857 -2.85714,3.21428 -12.85714,-1.42857 -6.78572,2.85714 -7.85714,0 -0.71428,-5.35714 -2.85715,-1.42857 -2.85714,4.28571 -2.5,-1.07142 -1.07143,-3.57143 4.64286,-10.35715 2.5,-6.07142 -2.14286,-7.5 0,-8.57143 5.71429,-0.71429 -0.71429,-6.42857 -2.5,-6.42857 -2.14286,-5.71429 3.21429,-1.07143 5.71429,-2.85714 2.14285,-3.57143 -0.71428,-2.5 -8.21429,0.35715 -7.14286,-6.42858 -0.71428,-11.42857 3.57143,-7.5 -0.35715,-7.14285 0.71429,-13.57143 4.28571,-2.85715 -1.42857,-3.92857 3.57143,-3.57143 -7.14286,-4.28571 z"
       id="path2861-3" />
    <path
       style="fill:#89ffdc;fill-opacity:1;stroke:none;display:inline"
       d="m 628.7505,152.49975 -8.40625,1.78125 -5.875,-0.875 -0.15625,0 -5.6875,5.125 -2.53125,8.09375 -4.5625,5.03125 -3.53125,9.59375 -6.0625,3.03125 -1.5,9.09375 -1,16.6875 -5.5625,10.59375 -12.125,4.53125 0,8.09375 -8.59375,8.59375 -1.5,4.53125 -11.125,-0.5 -5.5625,1.53125 -7.0625,9.59375 1,7.0625 -4.03125,1.5 -7.0625,-1 -4.5625,5.5625 -9.59375,16.65625 -3.53125,17.1875 -18.6875,17.15625 -1.25,1.5 1.25,-0.6875 8.75,10.71875 17.3125,16.40625 5.90625,1.09375 11.0625,-0.71875 6.59375,3.9375 2.6875,4.4375 -1.59375,4.125 2.5,2.3125 7.84375,0.375 8.9375,7.65625 5.71875,1.09375 8.375,-1.8125 11.96875,-0.96875 0.0625,0.15625 2.375,-2.125 -4.8125,-5.8125 -7.5625,0 -2.78125,-2.53125 -5.8125,-0.25 -6.0625,-2.28125 -1,-5.03125 3.53125,-5.0625 -0.75,-4.28125 6.0625,0 6.5625,-3.03125 -1.53125,-2.03125 0.75,-6.0625 4.3125,-0.75 -4.3125,-7.59375 8.59375,-7.8125 1.03125,-4.8125 5.78125,-2 -1,-6.3125 2.53125,-5.0625 6.5625,-7.84375 2.78125,2.53125 4.03125,-0.75 1.28125,-5.5625 7.3125,0 0.25,-3.78125 7.5625,-0.25 0.78125,-6.3125 7.8125,-8.09375 4.8125,-6.3125 11.34375,-6.8125 13.40625,-5.0625 5.28125,-6.0625 1.53125,-5.28125 10.84375,-5.0625 -0.75,-5.0625 5.5625,-3.28125 -0.28125,-2.21875 -1.0625,-0.375 -17.34375,-9.125 -6.09375,0.1875 -3.03125,-3.0625 -1.0625,-5 0.34375,-6.59375 -1.25,-4.46875 -1.40625,-3.9375 4.625,-0.15625 5.53125,-1.625 5.1875,-0.34375 2.6875,-4.65625 0.34375,-7.3125 -3.21875,-1.78125 -10.53125,-0.1875 -4.28125,-5.34375 -8.75,-0.1875 -6.96875,-3.03125 0.53125,-9.125 -9.09375,-4.09375 z"
       id="rect4055" />
    <path
       style="fill:#ffc389;fill-opacity:1;stroke:none"
       d="m 702.46925,94.094053 -11.53125,3.84375 -18.6875,8.562497 -17.65625,5.5625 -23.75,14.65625 -7.59375,10.59375 0,8.09375 -8.8125,7.90625 0.0312,0.0937 5.875,0.875 8.40625,-1.78125 9.09375,4.09375 -0.53125,9.125 6.96875,3.03125 8.75,0.1875 4.28125,5.34375 10.53125,0.1875 3.21875,1.78125 -0.34375,7.3125 -2.6875,4.65625 -5.1875,0.34375 -5.53125,1.625 -4.625,0.15625 1.40625,3.9375 1.25,4.46875 -0.34375,6.59375 1.0625,5 3.03125,3.0625 6.09375,-0.1875 17.34375,9.125 1,-0.0312 -0.65625,-4.9375 5.78125,-3.78125 -0.75,-4.5625 6.8125,-4.28125 1.03125,-4.03125 9.09375,-4.5625 10.34375,-5.03125 5.8125,-0.53125 3.03125,-3.53125 0.25,-8.59375 14.65625,-7.8125 5.8125,-0.75 4.78125,-5.0625 6.5625,-3.28125 6.8125,1 7.71875,-0.625 7.34375,-2.65625 -1.65625,-0.75 -7.59375,-5.8125 -5.8125,3.03125 -4.78125,0 -2.78125,-3.03125 0,-5.5625 3.53125,-1.25 3.78125,-2.03125 -2.25,-4.03125 1,-2.28125 0.5,-5.03125 -4.8125,-4.8125 -5.53125,0.75 -1.53125,3.03125 1.78125,1.28125 1.25,2.78125 -6.0625,1 -3.28125,-0.25 -2.28125,-2.28125 0.78125,-3.53125 3.78125,-2.53125 1.75,-5.28125 -1,-3.5625 -5.8125,-7.0625 -8.84375,0 -3.53125,2.53125 -3.03125,0.75 -4.78125,-3.03125 -2.03125,-3.28125 -4.78125,-3.28125 -3.28125,3.03125 -3.8125,-0.25 -2.5,-5.0625 -1.875,-9.374997 z"
       id="rect3961" />
    <path
       style="fill:#97c7f1;fill-opacity:1;stroke:none"
       d="m 812.6565,34.281503 -12.625,1 -10.09375,3.5625 -11.125,5.53125 -2.5,5.5625 -7.09375,0 -2,8.59375 -9.09375,10.09375 -0.5,9.09375 -9.59375,8.59375 -13.15625,6.0625 -20.1875,2 -10.09375,-1 -2.125,0.71875 1.875,9.374997 2.5,5.0625 3.8125,0.25 3.28125,-3.03125 4.78125,3.28125 2.03125,3.28125 4.78125,3.03125 3.03125,-0.75 3.53125,-2.53125 8.84375,0 5.8125,7.0625 1,3.5625 -1.75,5.28125 -3.78125,2.53125 -0.78125,3.53125 2.28125,2.28125 3.28125,0.25 6.0625,-1 -1.25,-2.78125 -1.78125,-1.28125 1.53125,-3.03125 5.53125,-0.75 4.8125,4.8125 -0.5,5.03125 -1,2.28125 2.25,4.03125 -3.78125,2.03125 -3.53125,1.25 0,5.5625 2.78125,3.03125 4.78125,0 5.8125,-3.03125 7.59375,5.8125 5.53125,2.53125 2.53125,3.53125 -1.5,3.78125 -4.3125,3.78125 2.78125,3.03125 6.0625,2.28125 7.09375,-4.28125 6.03125,-4.5625 11.625,-4.78125 6.5625,0.25 1.28125,-3.28125 4.53125,1.75 3.53125,-5.03125 5.0625,3.03125 9.96875,0 -1.125,-6.3125 -0.25,-4.0625 5.53125,-0.5 10.125,-5.03125 6.8125,-2.78125 8.84375,0.5 4.78125,-1.53125 6.5625,0.25 -1.5,6.0625 -1.25,8.59375 -4.0625,4.5625 6.0625,8.0625 3.53125,-0.25 2.78125,-2.28125 7.0625,1.03125 5.3125,-5.3125 1.03125,-3.78125 -2.53125,-3.78125 1.25,-4.8125 4.03125,-3.28125 3.8125,1.78125 6.3125,0.25 6.4375,-5.9375 5.6875,-1.53125 18.3125,-2.53125 7.9375,-5.15625 -2.03125,-4.0625 -7.0625,-3.03125 -9.59375,1.03125 -6.5625,-4.5625 1,-9.09375 -6.0625,-7.5625 4.0625,-6.562497 -2.53125,-6.5625 -29.8125,1 -8.0625,-7.0625 -9.625,-4.03125 -15.65625,-2.53125 -6.5625,0.5 0.5,-4.03125 -8.5625,-4.5625 3.03125,-6.5625 -9.09375,-1 -6.0625,-4.0625 0.5,-3.03125 -6.5625,-3.53125 0.5,-7.5625 -9.09375,-6.5625 -8.59375,-5.0625 z"
       id="rect3876" />
    <path
       style="fill:#c989ff;fill-opacity:1;stroke:none"
       d="m 946.65625,137.937 -18.3125,2.53125 -5.6875,1.53125 -6.4375,5.9375 -6.3125,-0.25 -3.8125,-1.78125 -4.03125,3.28125 -1.25,4.8125 2.53125,3.78125 -1.03125,3.78125 -5.3125,5.3125 -7.0625,-1.03125 -2.78125,2.28125 -3.53125,0.25 -6.0625,-8.0625 4.0625,-4.5625 1.25,-8.59375 1.5,-6.0625 -6.5625,-0.25 -4.78125,1.53125 -8.84375,-0.5 -6.8125,2.78125 -10.125,5.03125 -5.53125,0.5 0.25,4.0625 1.25,7.0625 14.40625,8.84375 7.5625,0.25 4.3125,4.78125 7.0625,5.0625 -3.28125,2.03125 -5.5625,0.5 -2.28125,9.59375 2.53125,3.53125 -11.09375,5.8125 -4.3125,7.0625 2.28125,4.5625 -3.28125,3.53125 -6.3125,-0.75 -4.03125,2.5 8.5625,6.3125 -3.53125,2.53125 -0.25,3.78125 -6.8125,4.8125 -7.84375,0 -2.78125,4.28125 -7.8125,5.3125 0.25,3.53125 3.53125,1.03125 7.59375,-2.28125 7.5625,-0.25 5.0625,3.53125 6.8125,-4.03125 15.15625,10.59375 13.375,2.53125 12.375,6.0625 8.09375,8.5625 6.5625,-0.75 0.21875,0.0312 -1.25,-4.5625 5.5625,0 -3.03125,-5.0625 -9.09375,-15.15625 -0.5,-14.125 -5.03125,-9.5937 -1.53125,-14.15625 0,-17.15625 L 897,180.7495 l 8.09375,-12.125 9.59375,-4.03125 0.5,-8.59375 9.09375,-6.0625 4.5625,-5.03125 4.53125,-1.53125 9.59375,-3.03125 3.6875,-2.40625 z"
       id="rect3828" />
    <path
       style="fill:#89ff89;fill-opacity:1;stroke:none"
       d="m 731.344,660.59355 -0.8125,0.25 -8.75,8.4375 -3.5625,11.4375 -1.0625,12.84375 -5.375,10 -5.71875,5.71875 -2.5,9.65625 -5.71875,10.34375 -6.0625,8.21875 -1.4375,7.84375 -10.6875,10.375 2.5,12.5 1.40625,6.4375 -3.5625,9.28125 -10.34375,9.28125 -6.09375,6.0625 -3.21875,18.21875 -1.0625,7.5 -0.34375,14.28125 -2.5,8.5625 -5,9.3125 -1.4375,8.1875 2.84375,6.09375 2.15625,6.78125 -2.5,5 -6.0625,3.5625 -3.9375,2.15625 -2.15625,4.625 -6.78125,5.71875 -7.84375,3.9375 -5.375,6.78125 -3.5625,11.78125 -5.71875,17.875 -4.625,10 -7.5,6.78125 -4.65625,5 -1.4375,13.5625 -5.34375,16.4375 -7.5,19.625 -4.28125,12.1563 -0.375,15 1.4375,11.0624 1.4375,13.2188 0,9.6562 0,7.125 -1.0625,10.7188 0,3.2188 3.1875,2.0937 0.34375,-0.094 2.6875,-2.2813 0,-11.125 1,-19.6875 -1.53125,-11.625 0,-22.2188 6.59375,-8.0937 1,-9.0937 8.0625,-16.1563 3.03125,-14.65625 10.625,-30.28125 6.5625,-3.03125 3.53125,-2.53125 1,-9.59375 1.53125,-13.65625 7.0625,-5.03125 5.5625,-1.53125 6.5625,-8.0625 16.15625,-7.59375 15.65625,-14.125 2.03125,-7.09375 5.5625,-5.53125 -2.53125,-12.125 2.03125,-6.0625 5.53125,-4.5625 6.0625,0 8.09375,-4.53125 1,-5.5625 10.625,-7.5625 -4.5625,-7.09375 10.09375,-6.0625 6.0625,-6.0625 0.53125,-10.09375 12.09375,-28.78125 8.09375,-2.03125 8.09375,-6.0625 -1.03125,-3.03125 -2,-4.53125 1.5,-7.59375 -1.5,-6.0625 -1.03125,-8.5625 7.59375,-3.53125 -1.03125,-8.59375 3.5625,-10.625 6.5625,-13.125 6.5625,-1.5 0,-8.59375 3.53125,-12.625 1.96875,-6.375 -0.3125,-0.1875 -7.71875,-2.28125 -8.34375,-1.25 -11.71875,-3.15595 -11.625,-1.28125 -8.21875,-2.125 z m 52.53125,252.53125 -5.0625,1.25 -4.78125,-0.5 -0.25,3.28125 3.53125,3.03125 0,4.03125 3.78125,0.25 2.78125,4.5625 5.3125,-1 -2.53125,-3.8125 0,-3.28125 3.03125,-3.03125 -0.25,-4.53125 -5.5625,-0.25 z m 5.5625,197.4688 0,5.5624 2.53125,7.0626 2.53125,2.5312 2.5,3.0312 5.5625,1.5313 6.5625,2.5 2.53125,5.5625 6.0625,1.0312 3.03125,-3.0312 0,-5.0625 -5.0625,-2.0313 -4.53125,-2 -1.53125,-3.5624 2.03125,-5.0313 -1.5,-7.5937 -11.625,1.0312 -9.09375,-1.5312 z m 31.75,43.1874 0.0625,1.2813 0.375,1.3125 1.59375,2.0312 2.65625,0.375 0.5625,-1.4062 0.6875,-1.1875 -1.5625,-1.9063 -1.34375,-0.5 -3.03125,0 z"
       id="rect3738" />
    <path
       style="fill:#ff89ff;fill-opacity:1;stroke:none"
       d="m 825.28175,444.15575 -7.4375,4.8125 -7.5,7.46875 -2.125,7.5 -1.0625,12.5 -3.9375,10.71875 -8.9375,5.6875 -5.34375,2.875 -4.65625,3.5625 -0.71875,5.71875 0.71875,17.5 -2.125,4.65625 -1.4375,10 -5.71875,9.28125 -6.78125,7.84375 -3.5625,8.21875 -1.4375,12.84375 -5.71875,5 -8.9375,10 -1.78125,7.5 -10,7.875 -2.84375,3.5625 3.21875,9.65625 1.40625,6.40625 2.875,5.375 -4.65625,8.9375 -5.71875,8.90625 0,8.3125 0.28125,3.71875 8.21875,2.125 11.625,1.28125 11.71875,3.15625 8.34375,1.25 7.71875,2.28125 0.5,-0.4375 6.4375,-20.78125 5.5625,-6.0625 -3.5625,-5.0625 0,-16.15625 6.0625,-9.59375 2.03125,-20.1875 6.0625,-11.625 -1.53125,-15.15625 2.53125,-4.53125 -1,-4.0625 6.0625,-8.59375 3.03125,-18.15625 3.03125,-7.59375 7.0625,-9.59375 1,-17.15625 2.03125,-4.5625 -3.03125,-6.5625 1.53125,-5.5625 6.5625,-6.5625 6.0625,-6.5625 -8.59375,-6.5625 -2.53125,-6.5625 1.03125,-8.84375 -0.0312,0 z"
       id="rect3643" />
    <path
       style="fill:none;stroke:#ffffff;stroke-width:2.5;stroke-linecap:butt;stroke-linejoin:miter;stroke-miterlimit:0;stroke-opacity:1;stroke-dasharray:none"
       d="m 825.26786,444.15178 -7.41071,4.82143 -7.50001,7.45536 -2.14285,7.5 -1.07143,12.5 -3.92857,10.71429 -8.92857,5.71428 -5.35715,2.85714 -4.64285,3.57143 -0.71429,5.71429 0.71429,17.5 -2.14286,4.64286 -1.42857,10 -5.71429,9.28571 -6.78571,7.85714 -3.57143,8.21429 -1.42857,12.85714 -5.71429,5 -8.92857,10 -1.78571,7.5 -10,7.85714 -2.85715,3.57143 3.21429,9.64286 1.42857,6.42857 2.85714,5.35714 -4.64285,8.92858 -5.71429,8.92857 0,11.78571 -9.28571,8.92857 -3.57143,11.42857 -1.07143,12.85715 -5.35714,10 -5.71429,5.71428 -2.5,9.64286 -5.71429,10.35714 -6.07142,8.21429 -1.42858,7.85714 -10.71428,10.35715 2.5,12.5 1.42857,6.42857 -3.57143,9.28571 -10.35714,9.28572 -6.07143,6.07142 -3.21429,18.21429 -1.07142,7.5 -0.35715,14.28571 -2.5,8.57143 -5,9.28572 -1.42857,8.21428 2.85714,6.07143 2.14286,6.78572 -2.5,5 -6.07143,3.57142 -3.92857,2.14286 -2.14286,4.64286 -6.78571,5.71428 -7.85714,3.92858 -5.35715,6.78571 -3.57142,11.78571 -5.71429,17.85715 -4.64286,10 -7.5,6.78571 -4.64285,5 L 592.85714,975 587.5,991.42857 l -7.5,19.64283 -4.28571,12.1429 -0.35715,15 1.42858,11.0714 1.42857,13.2143 0,9.6429 0,7.1428 -1.07143,10.7143 0,3.2143 3.18978,2.1086 1.51523,-0.3788"
       id="path3637"
       sodipodi:nodetypes="cccccccccccccccccccccccccccccccccccccccccccccccccccccccccccccccccccccccccccc" />
    <path
       style="fill:none;stroke:#ffffff;stroke-width:2.5;stroke-linecap:butt;stroke-linejoin:miter;stroke-miterlimit:0;stroke-opacity:1;stroke-dasharray:none"
       d="m 731.35044,660.57854 8.20749,2.14657 11.61676,1.26269 11.74302,3.15673 8.33376,1.26269 7.70241,2.27285"
       id="path3639" />
    <path
       style="fill:none;stroke:#ffffff;stroke-width:2.5;stroke-linecap:butt;stroke-linejoin:miter;stroke-miterlimit:0;stroke-opacity:1;stroke-dasharray:none"
       d="m 946.76547,137.95087 -18.43528,2.52538 -5.68211,1.51523 -6.43972,5.93464 -6.31345,-0.25254 -3.78808,-1.76776 -4.04061,3.28299 -1.26269,4.79823 2.52538,3.78807 -1.01015,3.78807 -5.3033,5.3033 -7.07107,-1.01015 -2.77792,2.27284 -3.53553,0.25254 -6.06092,-8.08122 4.04061,-4.54568 1.2627,-8.5863 1.51522,-6.06092 -6.56599,-0.25253 -4.79822,1.51522 -8.83884,-0.50507 -6.81853,2.77792 -10.10152,5.05076 -5.55584,0.50508 0.25254,4.04061 1.26269,7.07106 14.39467,8.83884 7.57615,0.25254 4.29314,4.79822 7.07107,5.05076 -3.28299,2.02031 -5.55584,0.50508 -2.27285,9.59644 2.52539,3.53554 -11.11168,5.80838 -4.29315,7.07106 2.27284,4.54569 -3.28299,3.53553 -6.31346,-0.75761 -4.04061,2.52538 8.5863,6.31345 -3.53553,2.52539 -0.25254,3.78807 -6.81853,4.79822 -7.82868,0 -2.77792,4.29315 -7.82869,5.3033 0.25254,3.53554 3.53554,1.01015 7.57614,-2.27284 7.57614,-0.25254 5.05077,3.53553 6.81853,-4.04061 15.15228,10.6066 13.38453,2.52538 12.37436,6.06092 8.08123,8.5863 6.56599,-0.75762"
       id="path3810" />
    <path
       style="fill:none;stroke:#ffffff;stroke-width:2.5;stroke-linecap:butt;stroke-linejoin:miter;stroke-miterlimit:0;stroke-opacity:1;stroke-dasharray:none"
       d="m 702.43483,94.00923 1.89403,9.47018 2.52538,5.05076 3.78808,0.25254 3.28299,-3.03046 4.79823,3.283 2.0203,3.283 4.79823,3.03045 3.03045,-0.75761 3.53554,-2.52538 8.83883,0 5.80838,7.07107 1.01015,3.53553 -1.76776,5.3033 -3.78808,2.52538 -0.75761,3.53554 2.27284,2.27284 3.283,0.25254 6.06091,-1.01016 -1.26269,-2.77792 -1.76776,-1.26269 1.51522,-3.03045 5.55584,-0.75762 4.79823,4.79823 -0.50508,5.05076 -1.01015,2.27284 2.27284,4.04061 -3.78807,2.02031 -3.53553,1.26269 0,5.55584 2.77792,3.03046 4.79822,0 5.80838,-3.03046 7.57614,5.80837 5.55584,2.52539 2.52538,3.53553 -1.51523,3.78807 -4.29314,3.78807 2.77791,3.03046 6.06092,2.27284 7.07107,-4.29314 6.06091,-4.54569 11.61676,-4.79822 6.56599,0.25253 1.26269,-3.28299 4.54569,1.76776 3.53553,-5.05076 5.05076,3.03046 10.10153,0"
       id="path3812" />
    <path
       style="fill:none;stroke:#ffffff;stroke-width:2.5;stroke-linecap:butt;stroke-linejoin:miter;stroke-miterlimit:0;stroke-opacity:1;stroke-dasharray:none"
       d="m 778.32254,159.16407 -7.70242,2.77792 -7.70241,0.63134 -6.81853,-1.01015 -6.56599,3.283 -4.79823,5.05076 -5.80837,0.75762 -14.64721,7.82868 -0.25254,8.58629 -3.03046,3.53554 -5.80838,0.50507 -10.35406,5.05077 -9.09137,4.54568 -1.01016,4.04061 -6.81853,4.29315 0.75762,4.54569 -5.80838,3.78807 1.01015,7.57614 -5.55584,3.283 0.75762,5.05076 -10.85914,5.05077 -1.51523,5.3033 -5.3033,6.06091 -13.38452,5.05076 -11.36422,6.81853 -4.79822,6.31346 -7.82868,8.08122 -0.75762,6.31345 -7.57614,0.25254 -0.25254,3.78807 -7.32361,0 -1.26269,5.55584 -4.04061,0.75762 -2.77792,-2.52539 -6.56599,7.82869 -2.52538,5.05076 1.01015,6.31345 -5.80837,2.02031 -1.01016,4.79822 -8.58629,7.82868 4.29314,7.57615 -4.29314,0.75761 -0.75762,6.06092 1.51523,2.0203 -6.56599,3.03046 -6.06092,0 0.75762,4.29315 -3.53554,5.05076 1.01016,5.05076 6.06091,2.27285 5.80838,0.25254 2.77792,2.52538 7.57614,0 4.79823,5.80837 -12.12183,10.85914 -1.26269,10.10153 7.3236,5.3033 -2.27284,6.56599 -2.27284,8.5863 4.29314,2.77792 -2.27284,3.53553 -4.04061,2.52538 -1.76777,5.3033 -5.80837,3.03046 0.50507,9.34391 6.06092,5.80838 0.31511,6.45369"
       id="path3814" />
    <path
       style="fill:none;stroke:#ffffff;stroke-width:2.5;stroke-linecap:butt;stroke-linejoin:miter;stroke-miterlimit:0;stroke-opacity:1;stroke-dasharray:none"
       d="m 614.46429,153.39285 5.89285,0.89286 8.39286,-1.78571 9.10714,4.10714 -0.53571,9.10714 6.96429,3.03572 8.75,0.17857 4.28571,5.35714 10.53571,0.17857 3.21429,1.78572 -0.35714,7.32143 -2.67857,4.64285 -5.17858,0.35715 -5.53571,1.60714 -4.64286,0.17857 1.42857,3.92857 1.25,4.46429 -0.35714,6.60714 1.07143,5 3.03571,3.03572 6.07143,-0.17858 17.35492,9.14063"
       id="path3816" />
    <path
       style="fill:none;stroke:#ffffff;stroke-width:2.5;stroke-linecap:butt;stroke-linejoin:miter;stroke-miterlimit:0;stroke-opacity:1;stroke-dasharray:none"
       d="m 491.42857,321.96428 8.75,10.71429 17.32143,16.42857 5.89286,1.07143 11.07143,-0.71429 6.60714,3.92858 2.67857,4.46428 -1.60714,4.10714 2.5,2.32143 7.85714,0.35715 8.92857,7.67857 5.71429,1.07143 8.39286,-1.78572 L 587.5,370.625"
       id="path3818" />
    <path
       style="fill:none;stroke:#ffffff;stroke-width:2.5;stroke-linecap:butt;stroke-linejoin:miter;stroke-miterlimit:0;stroke-opacity:1;stroke-dasharray:none"
       d="m 368.92857,526.07143 9.28572,3.21428 9.10714,0.89286 9.46429,-0.35714 7.85714,-2.32143 6.07143,-1.07143 8.75,0.53571 18.75,4.64286 8.03571,4.28572 8.39286,2.67857 10.71428,-0.35715 8.21429,2.14286 17.5,-0.35714 6.96429,2.14286"
       id="path3820" />
    <path
       style="fill:none;stroke:#ffffff;stroke-width:2.5;stroke-linecap:butt;stroke-linejoin:miter;stroke-miterlimit:0;stroke-opacity:1;stroke-dasharray:none"
       d="m 526.60714,598.75 -0.35714,6.07143 1.42857,2.67857 -4.64285,4.28571 0.89285,2.5 7.85715,3.57143 -3.92858,5.53572 -4.28571,12.85714 -3.57143,3.57143 -1.42857,7.85714 -4.10714,0.89286 -4.28572,4.64285 -2.5,4.46429 L 503.75,660 l -2.5,2.5 -0.53571,5.53571 -3.39286,8.39286 1.78571,4.10714 4.10715,9.64286 -0.71429,10.89286 -1.42857,4.46428 -3.03571,1.78572 -0.71429,10 4.82143,11.78571 -1.25,5.35714 -1.60714,3.57143 1.25,2.5 4.64285,1.78572 6.07143,-0.53572 1.42857,1.78572 -0.17857,7.5 -0.89286,3.75 1.96429,2.85714 7.14286,4.10714 1.07143,6.25 -5.53572,1.25 -3.21428,4.10715 1.60714,4.10714 -3.92857,3.75 2.32143,5.17857 0.17857,8.21429 -4.82143,3.03571 -1.60714,7.67857 -2.85715,1.25 -0.35714,2.67857 1.42857,3.75 -0.17857,3.92857 -3.39286,2.67858 -3.21428,2.32142 2.85714,6.96429 -2.5,4.64286 -1.07143,4.82143 0.53572,9.46428 -4.64286,5 0.53571,23.21429 0,3.75 3.92857,3.57143 -1.07142,2.67857 -2.32143,1.60714 0.17857,6.07143 2.85714,1.78571 -3.21428,3.39286 6.25,3.39286 0.53571,4.28571 -4.82143,3.21429 -2.85714,6.78571 0.35714,19.64286 -2.14286,5 0,3.39286 2.67858,2.67857 -1.07143,5.17857 -1.96429,2.5 0.71429,7.5 2.5,3.57143 -2.14286,2.85714 -1.96429,2.32143 -1.07142,9.46429 -1.42858,2.32142 0.35715,6.96429 3.75,3.03571 3.21428,2.5 -4.10714,3.03572 1.42857,6.07147 1.60714,2.8571 -4.10714,2.6786 0.53572,8.75 4.46428,1.6071 2.5,2.3214 -5.71428,1.6072 1.25,3.0357 2.4441,3.9308 1.38896,2.5254 2.77792,2.3991 0.63135,5.5558 0.75761,6.9448 3.53554,4.1669 1.38896,4.5457 2.39911,3.4093 3.283,5.3033 1.76776,3.9143 5.68211,-0.3788 6.18718,0.6313 -4.29314,2.0203 -3.91435,1.6415 -1.26269,3.6618 1.01016,6.1872 4.92449,12.8795 4.16688,9.4702 -0.25254,5.3033 2.27284,1.6415 2.39912,-0.6314 4.41941,-9.3439 3.40927,-0.5051 5.68211,4.0406 5.05076,1.2627 3.78807,0 4.9245,-2.9042 6.31345,-1.5152 0.50508,-4.4194 -3.78808,-4.0406 3.03046,-4.2932 3.78807,-0.3788 4.04061,3.5356 5.93465,0.1262"
       id="path3822" />
    <path
       style="fill:none;stroke:#ffffff;stroke-width:2.5;stroke-linecap:butt;stroke-linejoin:miter;stroke-miterlimit:0;stroke-opacity:1;stroke-dasharray:none"
       d="m 323.37508,693.53477 7.07107,4.04061 5.3033,4.54568 3.15673,0.88389 3.40926,5.17703 2.77792,-0.63135 1.26269,-3.03045 6.31346,2.0203 1.01015,3.78807 -1.38896,2.14658 -3.78807,0.25254 -1.51523,2.14657 0,2.52538 2.65165,1.51523 4.29315,-1.89404 2.52538,0.12627 2.90419,3.40927 2.14657,0.88388 3.66181,0.88388 5.3033,-1.26269 5.05076,-3.40926 11.86929,-0.25254 7.95495,1.76777 7.95495,5.93464 4.54569,0 8.5863,3.91434 4.16688,-2.65165 2.90419,-2.14657 5.17703,1.76777 5.80837,3.03045 11.23795,2.14658 5.05076,-2.65165 4.04061,-2.02031 2.77792,-0.3788 4.67196,3.15672 6.31345,3.15673 8.83884,0.75761"
       id="path3824" />
    <path
       style="fill:none;stroke:#ffffff;stroke-width:2.5;stroke-linecap:butt;stroke-linejoin:miter;stroke-miterlimit:0;stroke-opacity:1;stroke-dasharray:none"
       d="m 501.79328,729.64772 -4.79823,0.75761 -4.29315,-1.89403 -2.77791,1.51523 -3.03046,0.63134 -2.52538,-3.28299 -4.29315,0.50507 -4.41942,8.46003 -4.54569,12.37437 -5.42957,7.44987 -0.3788,3.15673 -0.12295,9.60762 -2.32143,4.46429 0.35715,2.32142 4.10714,4.28572 -1.42857,2.85714 L 463.03572,785 460,787.14286 l -14.28571,12.5 -3.03572,4.46428 -5.35714,0.17857 -1.42857,4.82143 -4.28572,4.10714 -5.17857,11.60715 -2.14285,5.17857 -1.25,4.10714 -5.35715,0.35714 -0.89285,-2.14285 -6.25,0.17857 -7.32143,6.96428 -3.03572,4.28572 2.32143,5 -4.46428,3.92857 -1.07143,3.75 1.25,3.92857 1.07143,8.57143 5.71428,3.75 5,-0.89286 3.57143,-3.57142 3.57143,-0.35715 4.46428,1.42857 5,7.67858 0.17858,4.28571 6.96428,1.42857 2.5,10.89286 -1.25,15.71428 -2.32143,7.5 -0.35714,12.14286 1.78571,8.57143 -0.53571,8.92857 -2.67857,5.89286 -5.17857,6.25 -0.89286,6.60714 0,8.57143 1.78571,3.92857 -0.17857,4.10714"
       id="path3826" />
  </g>
</svg>
