<!DOCTYPE svg PUBLIC "-//W3C//DTD SVG 20010904//EN" "http://www.w3.org/TR/2001/REC-SVG-20010904/DTD/svg10.dtd">
<svg version="1.0" xmlns="http://www.w3.org/2000/svg" width="220px" height="275px" viewBox="0 0 2200 2750" preserveAspectRatio="xMidYMid meet">
<g id="layer101" fill="#000000" stroke="none">
<path d="M1211 2650 c-25 -21 -51 -26 -51 -10 0 6 -7 10 -15 10 -8 0 -15 -9 -15 -20 0 -10 -5 -31 -12 -45 -8 -18 -8 -31 0 -49 8 -19 7 -34 -6 -70 -10 -25 -21 -48 -25 -52 -4 -4 -7 -15 -7 -25 0 -27 -57 -87 -104 -111 -23 -11 -45 -27 -49 -34 -4 -8 -16 -14 -26 -14 -11 0 -42 -25 -70 -56 -40 -44 -51 -63 -51 -89 0 -18 -14 -67 -30 -108 -17 -42 -30 -84 -30 -94 0 -20 -34 -63 -50 -63 -6 0 -10 -7 -10 -15 0 -9 -11 -21 -25 -27 -19 -8 -24 -17 -19 -32 18 -64 40 -127 61 -173 22 -47 24 -62 19 -142 -6 -85 -4 -91 19 -119 14 -17 25 -35 25 -42 0 -6 9 -23 20 -37 11 -14 20 -31 20 -38 0 -7 7 -19 16 -26 9 -7 20 -22 25 -34 5 -11 13 -27 18 -35 5 -8 12 -23 15 -33 3 -10 19 -25 36 -35 16 -9 30 -24 30 -32 0 -8 9 -28 21 -45 11 -16 36 -64 56 -105 19 -41 50 -91 68 -110 17 -19 40 -57 49 -83 12 -31 23 -47 31 -43 8 3 16 -5 19 -19 4 -16 14 -25 33 -27 14 -2 31 -12 37 -22 6 -11 19 -28 29 -38 9 -10 17 -28 18 -41 0 -12 14 -42 30 -67 16 -25 33 -54 38 -65 5 -11 22 -29 37 -40 39 -28 139 -65 174 -65 48 0 78 -17 99 -57 19 -38 38 -52 95 -73 22 -8 34 -7 52 5 13 8 24 21 24 28 0 34 125 97 191 97 24 0 28 4 27 29 -1 34 8 52 25 46 7 -3 18 -1 26 4 12 8 12 12 2 25 -8 9 -19 16 -25 16 -20 0 -95 79 -102 107 -7 25 3 89 26 170 7 24 9 51 6 60 -4 10 -7 20 -6 21 1 2 -9 16 -22 30 -14 15 -33 53 -43 85 -12 40 -28 69 -51 89 -19 18 -34 41 -34 53 0 13 -7 28 -15 35 -18 15 -19 42 -4 57 9 9 8 21 -5 46 -9 19 -16 45 -16 56 0 12 -6 32 -14 44 -7 12 -19 54 -26 92 -6 39 -16 85 -22 102 -5 18 -11 48 -13 66 -1 19 -8 43 -14 55 -6 11 -11 34 -11 51 0 17 -5 31 -10 31 -6 0 -19 19 -29 41 -14 31 -17 49 -10 73 5 17 9 31 9 32 0 1 -9 4 -20 7 -12 3 -30 26 -43 54 -35 73 -64 116 -88 128 -14 8 -23 23 -24 45 -3 31 -44 79 -70 80 -16 0 -65 49 -65 65 0 8 -9 29 -20 47 -11 18 -20 40 -20 48 0 8 -6 27 -14 42 -20 38 -26 72 -27 168 -1 94 -14 160 -30 160 -7 0 -8 14 -4 40 8 45 1 48 -34 20z"/>
</g>
<g id="layer102" fill="#2e2e2e" stroke="none">
<path d="M1211 2650 c-25 -21 -51 -26 -51 -10 0 6 -7 10 -15 10 -8 0 -15 -9 -15 -20 0 -10 -5 -31 -12 -45 -8 -18 -8 -31 0 -49 8 -19 7 -34 -6 -70 -10 -25 -21 -48 -25 -52 -4 -4 -7 -15 -7 -25 0 -27 -57 -87 -104 -111 -23 -11 -45 -27 -49 -34 -4 -8 -16 -14 -26 -14 -11 0 -42 -25 -70 -56 -40 -44 -51 -63 -51 -89 0 -18 -14 -67 -30 -108 -17 -42 -30 -84 -30 -94 0 -20 -34 -63 -50 -63 -6 0 -10 -7 -10 -15 0 -9 -11 -21 -25 -27 -19 -8 -24 -17 -19 -32 18 -64 40 -127 61 -173 22 -47 24 -62 19 -142 -6 -85 -4 -91 19 -119 14 -17 25 -35 25 -42 0 -6 9 -23 20 -37 11 -14 20 -31 20 -38 0 -7 7 -19 16 -26 9 -7 20 -22 25 -34 5 -11 13 -27 18 -35 5 -8 12 -23 15 -33 3 -10 19 -25 36 -35 16 -9 30 -24 30 -32 0 -8 9 -28 21 -45 11 -16 36 -64 56 -105 19 -41 50 -91 68 -110 17 -19 40 -57 49 -83 12 -31 23 -47 31 -43 8 3 16 -5 19 -19 4 -16 14 -25 33 -27 14 -2 31 -12 37 -22 6 -11 19 -28 29 -38 9 -10 17 -28 18 -41 0 -12 14 -42 30 -67 16 -25 33 -54 38 -65 5 -11 22 -29 37 -40 39 -28 139 -65 174 -65 48 0 78 -17 99 -57 19 -38 38 -52 95 -73 22 -8 34 -7 52 5 13 8 24 21 24 28 0 34 125 97 191 97 24 0 28 4 27 29 -1 34 8 52 25 46 7 -3 18 -1 26 4 12 8 12 12 2 25 -8 9 -19 16 -25 16 -20 0 -95 79 -102 107 -7 25 3 89 26 170 7 24 9 51 6 60 -4 10 -7 20 -6 21 1 2 -9 16 -22 30 -14 15 -33 53 -43 85 -12 40 -28 69 -51 89 -19 18 -34 41 -34 53 0 13 -7 28 -15 35 -18 15 -19 42 -4 57 9 9 8 21 -5 46 -9 19 -16 45 -16 56 0 12 -6 32 -14 44 -7 12 -19 54 -26 92 -6 39 -16 85 -22 102 -5 18 -11 48 -13 66 -1 19 -8 43 -14 55 -6 11 -11 34 -11 51 0 17 -5 31 -10 31 -6 0 -19 19 -29 41 -14 31 -17 49 -10 73 5 17 9 31 9 32 0 1 -9 4 -20 7 -12 3 -30 26 -43 54 -35 73 -64 116 -88 128 -14 8 -23 23 -24 45 -3 31 -44 79 -70 80 -16 0 -65 49 -65 65 0 8 -9 29 -20 47 -11 18 -20 40 -20 48 0 8 -6 27 -14 42 -20 38 -26 72 -27 168 -1 94 -14 160 -30 160 -7 0 -8 14 -4 40 8 45 1 48 -34 20z m6 -171 c4 -13 11 -18 21 -14 13 5 14 -4 8 -64 -5 -60 -2 -82 20 -148 14 -43 32 -85 40 -94 8 -9 20 -34 25 -55 6 -20 28 -54 48 -75 36 -34 39 -43 49 -125 9 -70 16 -92 32 -103 14 -9 20 -25 20 -52 0 -21 5 -41 11 -45 12 -7 79 -142 79 -160 0 -6 11 -31 23 -55 16 -30 21 -51 16 -64 -12 -30 -12 -30 26 -75 19 -23 35 -53 35 -66 0 -13 4 -24 8 -24 14 0 32 -48 32 -84 0 -24 7 -38 30 -54 22 -16 30 -31 30 -52 0 -19 7 -34 20 -42 11 -7 20 -18 20 -24 0 -7 7 -15 16 -18 10 -4 14 -14 11 -26 -3 -14 5 -28 26 -48 36 -31 52 -59 66 -117 6 -23 19 -50 29 -60 9 -11 16 -28 14 -37 -2 -11 3 -18 12 -18 9 0 16 -4 16 -10 0 -13 -71 -60 -90 -60 -9 0 -21 -5 -28 -12 -7 -7 -31 -11 -53 -9 -48 3 -50 -15 -6 -37 15 -7 27 -21 27 -31 0 -10 7 -24 15 -31 8 -7 21 -25 29 -40 13 -27 13 -28 -23 -45 -36 -16 -40 -15 -99 4 -75 26 -76 26 -69 1 4 -17 1 -18 -27 -13 -35 7 -86 33 -86 45 0 5 -16 16 -35 25 -20 9 -41 30 -50 49 -8 17 -31 45 -50 61 -20 15 -55 44 -78 64 -23 20 -52 42 -65 48 -12 7 -20 16 -17 20 2 5 -2 14 -10 21 -8 7 -15 21 -15 31 0 11 -9 27 -19 36 -23 19 -19 33 9 33 27 0 34 19 15 40 -10 11 -14 24 -9 32 15 23 12 53 -6 73 -22 24 -13 40 40 69 43 24 50 33 50 69 0 18 -5 27 -16 27 -8 0 -12 5 -9 10 4 6 2 16 -3 23 -6 7 -12 26 -14 42 -1 17 -9 31 -15 31 -7 1 -20 2 -28 3 -8 0 -17 12 -21 25 -3 14 -13 27 -21 30 -12 5 -14 15 -9 46 5 35 4 40 -13 40 -11 0 -23 -4 -26 -10 -12 -20 -25 -10 -23 18 2 30 -14 65 -45 99 -15 17 -18 30 -14 59 4 21 2 43 -3 49 -11 13 -2 75 11 75 15 0 40 63 29 74 -5 5 -10 19 -10 30 0 12 -7 30 -15 40 -8 11 -15 39 -15 62 0 24 -4 45 -9 49 -6 3 -8 15 -6 27 6 31 7 88 2 231 -4 120 -3 132 19 178 13 27 29 49 35 49 5 0 7 5 4 10 -4 6 -4 23 0 38 5 23 11 27 41 29 29 1 37 -2 41 -18z"/>
</g>
<g id="layer103" fill="#404141" stroke="none">
<path d="M1211 2650 c-25 -21 -51 -26 -51 -10 0 6 -7 10 -15 10 -8 0 -15 -9 -15 -20 0 -10 -5 -31 -12 -45 -8 -18 -8 -31 0 -49 8 -19 7 -34 -6 -70 -10 -25 -21 -48 -25 -52 -4 -4 -7 -15 -7 -25 0 -27 -57 -87 -104 -111 -23 -11 -45 -27 -49 -34 -4 -8 -16 -14 -26 -14 -11 0 -42 -25 -70 -56 -40 -44 -51 -63 -51 -89 0 -18 -14 -67 -30 -108 -17 -42 -30 -84 -30 -94 0 -20 -34 -63 -50 -63 -6 0 -10 -7 -10 -15 0 -9 -11 -21 -25 -27 -19 -8 -24 -17 -19 -32 18 -64 40 -127 61 -173 22 -47 24 -62 19 -142 -6 -85 -4 -91 19 -119 14 -17 25 -35 25 -42 0 -6 9 -23 20 -37 11 -14 20 -31 20 -38 0 -7 7 -19 16 -26 9 -7 20 -22 25 -34 5 -11 13 -27 18 -35 5 -8 12 -23 15 -33 3 -10 19 -25 36 -35 16 -9 30 -24 30 -32 0 -8 9 -28 21 -45 11 -16 36 -64 56 -105 19 -41 50 -91 68 -110 17 -19 40 -57 49 -83 12 -31 23 -47 31 -43 8 3 16 -5 19 -19 4 -16 14 -25 33 -27 14 -2 31 -12 37 -22 6 -11 19 -28 29 -38 9 -10 17 -28 18 -41 0 -12 14 -42 30 -67 16 -25 33 -54 38 -65 5 -11 22 -29 37 -40 39 -28 139 -65 174 -65 48 0 78 -17 99 -57 19 -38 38 -52 95 -73 22 -8 34 -7 52 5 13 8 24 21 24 28 0 34 125 97 191 97 24 0 28 4 27 29 -1 34 8 52 25 46 7 -3 18 -1 26 4 12 8 12 12 2 25 -8 9 -19 16 -25 16 -20 0 -95 79 -102 107 -7 25 3 89 26 170 7 24 9 51 6 60 -4 10 -7 20 -6 21 1 2 -9 16 -22 30 -14 15 -33 53 -43 85 -12 40 -28 69 -51 89 -19 18 -34 41 -34 53 0 13 -7 28 -15 35 -18 15 -19 42 -4 57 9 9 8 21 -5 46 -9 19 -16 45 -16 56 0 12 -6 32 -14 44 -7 12 -19 54 -26 92 -6 39 -16 85 -22 102 -5 18 -11 48 -13 66 -1 19 -8 43 -14 55 -6 11 -11 34 -11 51 0 17 -5 31 -10 31 -6 0 -19 19 -29 41 -14 31 -17 49 -10 73 5 17 9 31 9 32 0 1 -9 4 -20 7 -12 3 -30 26 -43 54 -35 73 -64 116 -88 128 -14 8 -23 23 -24 45 -3 31 -44 79 -70 80 -16 0 -65 49 -65 65 0 8 -9 29 -20 47 -11 18 -20 40 -20 48 0 8 -6 27 -14 42 -20 38 -26 72 -27 168 -1 94 -14 160 -30 160 -7 0 -8 14 -4 40 8 45 1 48 -34 20z m10 -171 c5 -11 15 -17 20 -13 7 4 10 -22 8 -77 -2 -68 2 -96 22 -149 13 -36 31 -76 40 -90 9 -14 20 -38 23 -53 4 -16 24 -45 45 -65 36 -35 39 -42 50 -127 9 -72 15 -93 33 -106 15 -12 21 -27 20 -50 0 -19 5 -41 13 -49 22 -25 75 -136 75 -158 0 -12 5 -24 10 -27 19 -12 37 -70 33 -105 -4 -29 1 -40 26 -64 18 -17 31 -40 31 -53 0 -13 9 -33 20 -45 13 -14 20 -36 20 -60 0 -29 7 -44 30 -65 17 -15 30 -36 30 -50 0 -14 15 -39 36 -61 22 -22 33 -43 31 -54 -3 -11 7 -28 26 -46 36 -31 50 -57 68 -119 7 -24 20 -50 30 -59 10 -9 15 -22 12 -30 -3 -8 2 -17 11 -20 30 -12 16 -30 -51 -66 -51 -26 -76 -34 -100 -31 -41 6 -46 -18 -8 -35 14 -7 25 -20 25 -31 0 -11 12 -29 26 -40 15 -12 24 -21 20 -21 -4 0 -2 -8 3 -18 8 -15 4 -21 -24 -36 -35 -19 -76 -16 -128 11 -30 15 -51 9 -43 -13 8 -22 -37 -17 -78 7 -20 12 -36 25 -36 30 0 5 -16 15 -35 24 -23 9 -41 26 -50 47 -17 39 -61 83 -93 92 -12 4 -27 16 -32 27 -6 11 -29 31 -51 45 -22 13 -37 28 -35 33 3 5 -3 16 -14 26 -11 10 -17 22 -14 27 3 5 -4 20 -16 33 l-23 24 27 10 c27 11 33 30 15 48 -6 6 -8 17 -3 24 14 22 9 57 -10 78 -15 17 -16 23 -6 36 7 8 19 15 26 15 8 0 14 3 14 8 0 4 14 15 30 24 23 13 30 24 30 48 0 20 -5 30 -15 30 -8 0 -12 6 -9 14 3 7 -2 16 -12 20 -12 5 -15 14 -11 35 5 26 3 29 -23 35 -20 4 -31 13 -36 30 -3 13 -13 27 -21 30 -12 5 -14 15 -9 46 5 35 4 40 -13 40 -11 0 -23 -4 -26 -10 -12 -20 -25 -10 -23 18 2 29 -14 65 -42 97 -22 25 -26 43 -16 73 5 14 3 28 -4 37 -12 15 -3 64 15 80 19 16 35 64 25 70 -6 4 -10 17 -10 29 0 13 -6 29 -14 35 -7 6 -16 32 -19 59 -4 26 -8 56 -11 67 -2 11 0 41 3 67 4 26 4 51 0 55 -9 9 -15 171 -6 179 3 3 2 17 -3 30 -6 14 -6 26 1 29 5 4 7 10 4 15 -3 5 -1 11 5 15 5 3 10 15 10 26 0 11 10 30 23 43 13 13 21 28 19 35 -2 6 -1 22 2 34 7 31 71 35 87 6z"/>
</g>
<g id="layer104" fill="#5f5e60" stroke="none">
<path d="M1211 2650 c-25 -21 -51 -26 -51 -10 0 6 -7 10 -15 10 -8 0 -15 -9 -15 -20 0 -10 -5 -31 -12 -45 -8 -18 -8 -31 0 -49 8 -19 7 -34 -6 -70 -10 -25 -21 -48 -25 -52 -4 -4 -7 -15 -7 -25 0 -27 -57 -87 -104 -111 -23 -11 -45 -27 -49 -34 -4 -8 -16 -14 -26 -14 -11 0 -42 -25 -70 -56 -40 -44 -51 -63 -51 -89 0 -18 -14 -67 -30 -108 -17 -42 -30 -84 -30 -94 0 -20 -34 -63 -50 -63 -6 0 -10 -7 -10 -15 0 -9 -11 -21 -25 -27 -19 -8 -24 -17 -19 -32 18 -64 40 -127 61 -173 22 -47 24 -62 19 -142 -6 -85 -4 -91 19 -119 14 -17 25 -35 25 -42 0 -6 9 -23 20 -37 11 -14 20 -31 20 -38 0 -7 7 -19 16 -26 9 -7 20 -22 25 -34 5 -11 13 -27 18 -35 5 -8 12 -23 15 -33 3 -10 19 -25 36 -35 16 -9 30 -24 30 -32 0 -8 9 -28 21 -45 11 -16 36 -64 56 -105 19 -41 50 -91 68 -110 17 -19 40 -57 49 -83 12 -31 23 -47 31 -43 8 3 16 -5 19 -19 4 -16 14 -25 33 -27 14 -2 31 -12 37 -22 6 -11 19 -28 29 -38 9 -10 17 -28 18 -41 0 -12 14 -42 30 -67 16 -25 33 -54 38 -65 5 -11 22 -29 37 -40 39 -28 139 -65 174 -65 48 0 78 -17 99 -57 19 -38 38 -52 95 -73 22 -8 34 -7 52 5 13 8 24 21 24 28 0 34 125 97 191 97 24 0 28 4 27 29 -1 34 8 52 25 46 7 -3 18 -1 26 4 12 8 12 12 2 25 -8 9 -19 16 -25 16 -20 0 -95 79 -102 107 -7 25 3 89 26 170 7 24 9 51 6 60 -4 10 -7 20 -6 21 1 2 -9 16 -22 30 -14 15 -33 53 -43 85 -12 40 -28 69 -51 89 -19 18 -34 41 -34 53 0 13 -7 28 -15 35 -18 15 -19 42 -4 57 9 9 8 21 -5 46 -9 19 -16 45 -16 56 0 12 -6 32 -14 44 -7 12 -19 54 -26 92 -6 39 -16 85 -22 102 -5 18 -11 48 -13 66 -1 19 -8 43 -14 55 -6 11 -11 34 -11 51 0 17 -5 31 -10 31 -6 0 -19 19 -29 41 -14 31 -17 49 -10 73 5 17 9 31 9 32 0 1 -9 4 -20 7 -12 3 -30 26 -43 54 -35 73 -64 116 -88 128 -14 8 -23 23 -24 45 -3 31 -44 79 -70 80 -16 0 -65 49 -65 65 0 8 -9 29 -20 47 -11 18 -20 40 -20 48 0 8 -6 27 -14 42 -20 38 -26 72 -27 168 -1 94 -14 160 -30 160 -7 0 -8 14 -4 40 8 45 1 48 -34 20z m-23 -153 c15 3 24 0 28 -11 3 -9 13 -16 21 -16 12 0 14 -16 13 -82 -2 -85 22 -178 61 -238 9 -14 20 -38 23 -53 4 -16 24 -45 45 -65 36 -35 39 -42 50 -126 10 -75 17 -94 38 -113 19 -18 23 -30 18 -50 -4 -16 -1 -31 8 -42 27 -30 77 -131 77 -156 0 -13 5 -27 10 -30 19 -12 37 -70 33 -105 -4 -29 1 -40 26 -64 17 -17 31 -38 31 -49 0 -10 9 -30 20 -44 12 -15 20 -41 20 -62 0 -28 7 -44 30 -66 17 -16 30 -39 30 -52 0 -14 15 -40 36 -61 21 -22 33 -43 31 -54 -3 -10 9 -30 33 -52 27 -24 43 -52 55 -93 10 -32 26 -67 35 -78 10 -11 15 -26 13 -32 -3 -7 2 -16 11 -19 32 -12 15 -34 -52 -67 -49 -24 -77 -33 -100 -29 -25 3 -32 1 -32 -12 0 -8 11 -18 25 -22 18 -4 25 -13 25 -29 0 -14 11 -33 26 -44 15 -12 23 -21 18 -21 -4 0 -3 -5 4 -12 19 -19 15 -26 -23 -43 -37 -18 -77 -14 -128 12 -31 15 -49 10 -40 -12 4 -11 -2 -15 -20 -15 -28 0 -97 36 -97 51 0 5 -16 15 -35 23 -21 9 -40 26 -47 43 -15 35 -69 93 -85 93 -7 0 -31 18 -54 40 -22 21 -50 42 -60 45 -12 4 -18 13 -15 20 2 7 -4 21 -14 30 -10 9 -17 22 -14 29 3 7 -4 21 -16 31 -26 24 -25 31 5 39 27 7 32 25 14 43 -7 7 -8 17 -3 25 14 22 10 52 -8 72 -10 11 -18 23 -18 28 0 5 25 24 55 43 43 28 55 41 55 61 0 13 -6 27 -14 30 -8 3 -13 11 -10 19 3 7 -2 15 -12 19 -12 5 -15 14 -11 35 5 26 3 29 -23 35 -20 4 -31 13 -36 30 -3 13 -13 27 -21 30 -12 5 -14 15 -10 42 6 38 -14 57 -36 35 -19 -19 -27 -12 -27 22 0 17 -10 47 -23 66 -43 67 -46 74 -36 93 6 12 6 25 -1 38 -12 22 -4 69 14 85 19 17 36 64 26 70 -6 4 -10 16 -10 27 0 12 -7 29 -15 38 -8 9 -17 34 -19 56 -2 21 -7 50 -10 64 -4 14 -3 46 2 72 5 26 6 50 1 55 -9 9 -15 171 -6 179 3 3 2 17 -3 30 -6 14 -6 26 1 29 5 4 7 10 4 15 -3 5 -1 11 5 15 5 3 10 15 10 26 0 11 11 31 24 44 13 13 22 26 19 29 -3 3 -2 21 1 41 6 28 10 34 20 26 6 -6 22 -8 34 -4z"/>
</g>
<g id="layer105" fill="#80807e" stroke="none">
<path d="M1211 2650 c-25 -21 -51 -26 -51 -10 0 6 -7 10 -15 10 -8 0 -15 -9 -15 -20 0 -10 -5 -31 -12 -45 -8 -18 -8 -31 0 -49 8 -19 7 -34 -6 -70 -10 -25 -21 -48 -25 -52 -4 -4 -7 -15 -7 -25 0 -27 -57 -87 -104 -111 -23 -11 -45 -27 -49 -34 -4 -8 -16 -14 -26 -14 -11 0 -42 -25 -70 -56 -40 -44 -51 -63 -51 -89 0 -18 -14 -67 -30 -108 -17 -42 -30 -84 -30 -94 0 -20 -34 -63 -50 -63 -6 0 -10 -7 -10 -15 0 -9 -11 -21 -25 -27 -19 -8 -24 -17 -19 -32 18 -64 40 -127 61 -173 22 -47 24 -62 19 -142 -6 -85 -4 -91 19 -119 14 -17 25 -35 25 -42 0 -6 9 -23 20 -37 11 -14 20 -31 20 -38 0 -7 7 -19 16 -26 9 -7 20 -22 25 -34 5 -11 13 -27 18 -35 5 -8 12 -23 15 -33 3 -10 19 -25 36 -35 16 -9 30 -24 30 -32 0 -8 9 -28 21 -45 11 -16 36 -64 56 -105 19 -41 50 -91 68 -110 17 -19 40 -57 49 -83 12 -31 23 -47 31 -43 8 3 16 -5 19 -19 4 -16 14 -25 33 -27 14 -2 31 -12 37 -22 6 -11 19 -28 29 -38 9 -10 17 -28 18 -41 0 -12 14 -42 30 -67 16 -25 33 -54 38 -65 5 -11 22 -29 37 -40 39 -28 139 -65 174 -65 48 0 78 -17 99 -57 19 -38 38 -52 95 -73 22 -8 34 -7 52 5 13 8 24 21 24 28 0 34 125 97 191 97 24 0 28 4 27 29 -1 34 8 52 25 46 7 -3 18 -1 26 4 12 8 12 12 2 25 -8 9 -19 16 -25 16 -20 0 -95 79 -102 107 -7 25 3 89 26 170 7 24 9 51 6 60 -4 10 -7 20 -6 21 1 2 -9 16 -22 30 -14 15 -33 53 -43 85 -12 40 -28 69 -51 89 -19 18 -34 41 -34 53 0 13 -7 28 -15 35 -18 15 -19 42 -4 57 9 9 8 21 -5 46 -9 19 -16 45 -16 56 0 12 -6 32 -14 44 -7 12 -19 54 -26 92 -6 39 -16 85 -22 102 -5 18 -11 48 -13 66 -1 19 -8 43 -14 55 -6 11 -11 34 -11 51 0 17 -5 31 -10 31 -6 0 -19 19 -29 41 -14 31 -17 49 -10 73 5 17 9 31 9 32 0 1 -9 4 -20 7 -12 3 -30 26 -43 54 -35 73 -64 116 -88 128 -14 8 -23 23 -24 45 -3 31 -44 79 -70 80 -16 0 -65 49 -65 65 0 8 -9 29 -20 47 -11 18 -20 40 -20 48 0 8 -6 27 -14 42 -20 38 -26 72 -27 168 -1 94 -14 160 -30 160 -7 0 -8 14 -4 40 8 45 1 48 -34 20z m-23 -153 c15 3 24 0 28 -11 3 -9 12 -16 20 -16 11 0 14 -19 14 -82 1 -86 27 -187 63 -238 9 -13 17 -30 17 -36 0 -22 32 -69 64 -93 24 -18 31 -32 33 -60 3 -94 16 -146 40 -169 18 -16 23 -29 19 -46 -4 -15 1 -32 13 -47 22 -28 71 -128 71 -144 0 -7 11 -33 25 -59 17 -33 23 -55 18 -76 -4 -25 1 -39 26 -70 17 -21 31 -46 31 -55 0 -9 9 -28 20 -42 12 -15 20 -41 20 -62 0 -28 7 -43 30 -63 20 -17 30 -36 30 -53 0 -19 12 -39 35 -61 21 -20 35 -42 35 -57 0 -16 12 -33 33 -50 25 -19 38 -40 52 -89 10 -34 27 -73 38 -85 11 -13 17 -26 14 -29 -4 -4 1 -12 10 -19 23 -17 12 -37 -33 -59 -22 -10 -50 -24 -64 -31 -14 -7 -40 -10 -57 -8 -26 4 -33 2 -33 -11 0 -8 11 -18 25 -22 18 -4 25 -13 25 -29 0 -13 11 -32 25 -43 13 -11 22 -22 19 -24 -2 -3 3 -11 11 -18 14 -12 12 -16 -21 -32 -48 -23 -80 -23 -127 2 -40 22 -60 19 -50 -5 4 -11 -2 -15 -23 -15 -30 0 -94 33 -94 48 0 5 -16 16 -35 25 -19 9 -42 31 -51 49 -21 41 -50 71 -89 91 -16 8 -40 27 -53 41 -12 15 -34 31 -47 36 -15 6 -25 17 -25 29 0 10 -7 24 -15 31 -8 7 -12 16 -10 21 3 4 -3 17 -15 29 -23 23 -26 40 -7 40 6 0 18 4 26 9 12 8 12 12 2 25 -8 9 -10 23 -6 33 14 33 11 62 -7 75 -28 19 -22 35 25 65 23 16 48 34 55 40 17 16 11 59 -7 55 -9 -2 -12 4 -8 17 3 12 -1 22 -10 25 -10 4 -14 16 -11 35 4 25 1 30 -24 35 -18 4 -29 13 -34 30 -3 13 -12 27 -21 30 -10 4 -14 17 -11 43 3 40 -12 53 -38 32 -13 -10 -17 -10 -24 1 -4 7 -6 18 -4 25 7 18 -14 65 -37 84 -17 14 -21 28 -21 81 -1 109 1 120 18 120 10 0 14 6 11 15 -4 8 -2 17 4 20 13 8 1 75 -18 96 -21 25 -37 176 -23 215 5 12 5 25 0 30 -11 12 -19 184 -9 184 5 0 4 11 -1 24 -5 13 -6 27 -2 31 4 4 7 10 8 13 0 4 4 16 8 27 4 11 12 32 18 48 6 15 17 27 25 27 8 0 11 5 8 11 -4 6 -4 26 0 45 5 27 9 33 19 25 6 -6 22 -8 34 -4z"/>
</g>
<g id="layer106" fill="#98969c" stroke="none">
<path d="M1211 2650 c-25 -21 -51 -26 -51 -10 0 6 -7 10 -15 10 -8 0 -15 -9 -15 -20 0 -10 -5 -31 -12 -45 -8 -18 -8 -31 0 -49 8 -19 7 -34 -6 -70 -10 -25 -21 -48 -25 -52 -4 -4 -7 -15 -7 -25 0 -27 -57 -87 -104 -111 -23 -11 -45 -27 -49 -34 -4 -8 -16 -14 -26 -14 -11 0 -42 -25 -70 -56 -40 -44 -51 -63 -51 -89 0 -18 -14 -67 -30 -108 -17 -42 -30 -84 -30 -94 0 -20 -34 -63 -50 -63 -6 0 -10 -7 -10 -15 0 -9 -11 -21 -25 -27 -19 -8 -24 -17 -19 -32 18 -64 40 -127 61 -173 22 -47 24 -62 19 -142 -6 -85 -4 -91 19 -119 14 -17 25 -35 25 -42 0 -6 9 -23 20 -37 11 -14 20 -31 20 -38 0 -7 7 -19 16 -26 9 -7 20 -22 25 -34 5 -11 13 -27 18 -35 5 -8 12 -23 15 -33 3 -10 19 -25 36 -35 16 -9 30 -24 30 -32 0 -8 9 -28 21 -45 11 -16 36 -64 56 -105 19 -41 50 -91 68 -110 17 -19 40 -57 49 -83 12 -31 23 -47 31 -43 8 3 16 -5 19 -19 4 -16 14 -25 33 -27 14 -2 31 -12 37 -22 6 -11 19 -28 29 -38 9 -10 17 -28 18 -41 0 -12 14 -42 30 -67 16 -25 33 -54 38 -65 5 -11 22 -29 37 -40 39 -28 139 -65 174 -65 48 0 78 -17 99 -57 19 -38 38 -52 95 -73 22 -8 34 -7 52 5 13 8 24 21 24 28 0 34 125 97 191 97 24 0 28 4 27 29 -1 34 8 52 25 46 7 -3 18 -1 26 4 12 8 12 12 2 25 -8 9 -19 16 -25 16 -20 0 -95 79 -102 107 -7 25 3 89 26 170 7 24 9 51 6 60 -4 10 -7 20 -6 21 1 2 -9 16 -23 30 -13 15 -27 40 -31 56 -9 36 -16 31 -9 -6 3 -15 16 -39 28 -52 13 -14 21 -27 18 -29 -2 -3 2 -15 9 -26 12 -20 10 -24 -12 -42 -14 -11 -37 -22 -52 -25 -15 -4 -33 -13 -39 -20 -8 -10 -23 -12 -51 -7 -32 5 -40 3 -36 -8 2 -8 14 -18 26 -24 12 -5 22 -18 22 -28 0 -10 10 -28 23 -41 12 -13 27 -32 34 -43 10 -18 7 -22 -23 -37 -46 -21 -81 -20 -127 4 -40 22 -60 19 -50 -5 9 -25 -50 -18 -88 10 -19 14 -49 34 -67 46 -18 12 -40 35 -49 53 -19 36 -53 70 -91 90 -15 8 -37 26 -50 40 -12 15 -34 31 -47 36 -15 6 -25 17 -25 29 0 10 -7 24 -15 31 -8 7 -12 16 -10 21 3 4 -3 17 -15 29 -26 26 -25 36 5 44 26 7 32 20 15 31 -5 3 -7 25 -4 48 5 32 2 46 -10 56 -26 21 -19 39 27 68 44 29 59 47 64 76 2 10 -3 17 -13 17 -11 0 -15 6 -11 19 3 12 -1 22 -10 25 -10 4 -14 16 -11 36 4 26 1 30 -19 30 -16 0 -27 9 -36 27 -6 16 -19 34 -29 41 -13 9 -15 19 -8 42 10 35 -1 46 -31 29 -23 -12 -42 2 -33 26 7 18 -14 65 -38 84 -19 16 -21 28 -22 105 0 48 4 90 9 94 24 17 35 52 24 73 -6 11 -8 23 -5 27 3 3 -1 17 -11 31 -20 31 -22 49 -27 206 -3 66 -7 144 -11 173 -4 35 -3 52 5 52 8 0 8 6 0 20 -6 11 -7 26 -3 33 4 6 8 14 8 17 1 26 40 100 52 100 11 0 13 4 6 13 -7 8 -6 23 2 46 7 22 14 30 19 23 5 -8 13 -9 24 -3 22 11 42 3 42 -16 0 -9 6 -13 15 -9 13 4 15 -8 15 -77 0 -57 6 -100 20 -140 11 -31 20 -63 20 -70 0 -8 8 -22 19 -31 10 -9 21 -31 25 -48 3 -17 25 -50 49 -73 31 -32 42 -52 44 -76 3 -80 17 -135 39 -162 15 -18 24 -42 24 -62 0 -19 5 -37 11 -40 12 -8 69 -123 69 -140 0 -7 11 -33 25 -59 17 -32 23 -55 19 -76 -5 -23 0 -37 25 -69 17 -21 31 -47 31 -56 0 -9 9 -28 20 -42 12 -15 20 -41 20 -62 0 -28 7 -43 30 -63 20 -17 30 -36 30 -53 0 -19 12 -39 35 -61 21 -19 35 -42 35 -56 0 -15 11 -33 31 -47 16 -12 34 -34 40 -48 5 -14 12 -23 15 -20 9 9 -16 48 -47 75 -16 13 -29 34 -29 47 0 12 -7 28 -15 35 -18 15 -19 42 -4 57 9 9 8 21 -5 46 -9 19 -16 45 -16 56 0 12 -6 32 -14 44 -7 12 -19 54 -26 92 -6 39 -16 85 -22 102 -5 18 -11 48 -13 66 -1 19 -8 43 -14 55 -6 11 -11 34 -11 51 0 17 -5 31 -10 31 -6 0 -19 19 -29 41 -14 31 -17 49 -10 73 5 17 9 31 9 32 0 1 -9 4 -20 7 -12 3 -30 26 -43 54 -35 73 -64 116 -88 128 -14 8 -23 23 -24 45 -3 31 -44 79 -70 80 -16 0 -65 49 -65 65 0 8 -9 29 -20 47 -11 18 -20 40 -20 48 0 8 -6 27 -14 42 -20 38 -26 72 -27 168 -1 94 -14 160 -30 160 -7 0 -8 14 -4 40 8 45 1 48 -34 20z"/>
</g>
<g id="layer107" fill="#8989ff" stroke="none">
<path d="M1211 2650 c-25 -21 -51 -26 -51 -10 0 6 -7 10 -15 10 -8 0 -15 -9 -15 -20 0 -10 -5 -31 -12 -45 -8 -18 -8 -31 0 -49 8 -19 7 -34 -6 -70 -10 -25 -21 -48 -25 -52 -4 -4 -7 -15 -7 -25 0 -27 -57 -87 -104 -111 -23 -11 -45 -27 -49 -34 -4 -8 -16 -14 -26 -14 -11 0 -42 -25 -70 -56 -40 -44 -51 -63 -51 -89 0 -18 -14 -67 -30 -108 -17 -42 -30 -84 -30 -94 0 -20 -34 -63 -50 -63 -6 0 -10 -7 -10 -15 0 -9 -11 -21 -25 -27 -19 -8 -24 -17 -19 -32 18 -64 40 -127 61 -173 22 -47 24 -62 19 -142 -6 -85 -4 -91 19 -119 14 -17 25 -35 25 -42 0 -6 9 -23 20 -37 11 -14 20 -31 20 -38 0 -7 7 -19 16 -26 9 -7 20 -22 25 -34 5 -11 13 -27 18 -35 5 -8 12 -23 15 -33 3 -10 19 -25 36 -35 16 -9 30 -24 30 -32 0 -8 9 -28 21 -45 11 -16 36 -64 56 -105 19 -41 50 -91 68 -110 17 -19 40 -57 49 -83 12 -31 23 -47 31 -43 8 3 16 -5 19 -19 4 -16 14 -25 33 -27 14 -2 31 -12 37 -22 6 -11 19 -28 29 -38 9 -10 17 -28 18 -41 0 -12 14 -42 30 -67 16 -25 33 -54 38 -65 5 -11 22 -29 37 -40 39 -28 139 -65 174 -65 48 0 78 -17 99 -57 19 -38 38 -52 95 -73 22 -8 34 -7 52 5 13 8 24 21 24 28 0 34 125 97 191 97 24 0 28 4 27 29 -1 34 8 52 25 46 7 -3 18 -1 26 4 12 8 12 12 2 25 -8 9 -19 16 -25 16 -20 0 -95 79 -102 107 -7 25 3 89 26 170 7 24 9 51 6 60 -4 10 -7 20 -6 21 1 2 -9 16 -23 30 -13 15 -27 40 -31 56 -9 36 -16 31 -9 -7 3 -15 16 -37 28 -49 13 -12 21 -28 18 -35 -3 -7 0 -13 6 -13 6 0 11 -9 11 -19 0 -20 -55 -61 -82 -61 -9 0 -21 -7 -28 -15 -9 -11 -23 -13 -52 -8 -32 5 -40 3 -36 -8 3 -8 15 -19 29 -26 13 -7 24 -19 24 -27 0 -8 9 -25 20 -38 46 -55 46 -64 9 -82 -45 -21 -79 -20 -129 4 -42 20 -58 18 -48 -5 13 -36 -96 -4 -125 36 -7 11 -19 19 -26 19 -15 0 -56 42 -56 57 0 14 -71 83 -85 83 -6 0 -29 18 -50 40 -21 22 -45 40 -52 40 -12 0 -42 55 -49 90 -2 8 -10 20 -18 26 -23 16 -20 31 9 38 26 7 32 20 15 31 -5 3 -7 25 -4 48 5 32 2 46 -10 56 -9 7 -16 19 -16 26 0 12 61 65 76 65 4 0 12 8 19 17 13 18 9 53 -7 53 -6 0 -8 9 -5 19 3 12 -1 22 -9 25 -8 3 -14 19 -14 35 0 23 -5 30 -22 33 -12 2 -28 13 -34 25 -6 13 -18 31 -28 42 -13 14 -14 24 -7 44 13 33 -3 46 -27 23 -24 -21 -37 -8 -38 37 -1 27 -9 46 -29 67 -26 28 -28 35 -29 115 0 48 4 89 9 93 24 17 35 52 24 73 -6 11 -8 23 -5 27 3 3 -1 17 -11 31 -20 31 -22 50 -28 206 -2 66 -6 144 -10 173 -4 35 -3 52 5 52 8 0 8 6 0 20 -6 11 -7 26 -3 33 4 6 8 17 8 22 2 29 39 95 54 95 11 0 12 3 4 8 -9 6 -10 17 -3 42 10 37 8 36 87 31 7 -1 10 -8 6 -18 -5 -12 -2 -15 10 -10 19 7 20 2 17 -93 -1 -59 31 -176 60 -220 10 -14 20 -38 24 -54 4 -16 26 -48 49 -70 30 -31 41 -50 43 -76 6 -94 17 -139 40 -161 14 -13 24 -34 24 -50 0 -16 13 -50 29 -77 16 -27 34 -66 41 -88 7 -21 16 -46 21 -54 5 -8 12 -22 15 -30 3 -8 10 -23 15 -33 6 -10 7 -32 4 -48 -5 -23 0 -37 24 -68 17 -21 31 -44 31 -51 0 -6 11 -30 25 -53 15 -27 22 -51 19 -65 -5 -16 2 -29 25 -49 22 -19 31 -36 31 -58 0 -23 10 -38 43 -64 23 -19 34 -26 25 -15 -21 24 -23 45 -7 61 9 9 8 21 -5 46 -9 19 -16 45 -16 56 0 12 -6 32 -14 44 -7 12 -19 54 -26 92 -6 39 -16 85 -22 102 -5 18 -11 48 -13 66 -1 19 -8 43 -14 55 -6 11 -11 34 -11 51 0 17 -5 31 -10 31 -6 0 -19 19 -29 41 -14 31 -17 49 -10 73 5 17 9 31 9 32 0 1 -9 4 -20 7 -12 3 -30 26 -43 54 -35 73 -64 116 -88 128 -14 8 -23 23 -24 45 -3 31 -44 79 -70 80 -16 0 -65 49 -65 65 0 8 -9 29 -20 47 -11 18 -20 40 -20 48 0 8 -6 27 -14 42 -20 38 -26 72 -27 168 -1 94 -14 160 -30 160 -7 0 -8 14 -4 40 8 45 1 48 -34 20z"/>
<path d="M1746 2555 c-25 -23 -32 -48 -13 -46 4 1 18 1 32 1 18 0 25 5 25 20 0 11 5 20 10 20 6 0 10 7 10 15 0 23 -34 18 -64 -10z"/>
<path d="M1700 2095 c-9 -11 -10 -19 -3 -26 14 -14 43 0 43 22 0 23 -23 25 -40 4z"/>
</g>
<g id="layer108" fill="#ff8a8a" stroke="none">
<path d="M1211 2650 c-25 -21 -51 -26 -51 -10 0 6 -7 10 -15 10 -8 0 -15 -9 -15 -20 0 -10 -5 -31 -12 -45 -8 -18 -8 -31 0 -49 8 -19 7 -34 -6 -70 -10 -25 -21 -48 -25 -52 -4 -4 -7 -15 -7 -25 0 -27 -57 -87 -104 -111 -23 -11 -45 -27 -49 -34 -4 -8 -16 -14 -26 -14 -11 0 -42 -25 -70 -56 -40 -44 -51 -63 -51 -89 0 -18 -14 -67 -30 -108 -17 -42 -30 -84 -30 -94 0 -20 -34 -63 -50 -63 -6 0 -10 -7 -10 -15 0 -9 -11 -21 -25 -27 -19 -8 -24 -17 -19 -32 18 -64 40 -127 61 -173 22 -47 24 -62 19 -142 -6 -85 -4 -91 19 -119 14 -17 25 -35 25 -42 0 -6 9 -23 20 -37 11 -14 20 -31 20 -38 0 -6 9 -20 20 -30 11 -10 20 -13 20 -7 0 6 -8 16 -17 21 -28 17 4 33 52 26 23 -3 61 1 90 10 28 8 72 15 99 15 42 0 47 -2 33 -13 -12 -8 -16 -25 -15 -57 1 -25 -5 -60 -13 -78 -12 -28 -12 -34 0 -42 12 -7 12 -11 2 -24 -8 -9 -22 -16 -32 -16 -11 0 -25 -13 -35 -32 l-17 -32 -18 23 c-11 13 -19 31 -19 40 0 9 -16 29 -35 44 -19 15 -35 33 -35 40 -1 16 -39 66 -40 51 0 -6 6 -17 14 -24 8 -6 16 -21 18 -33 2 -12 17 -31 35 -42 18 -11 32 -27 33 -35 0 -8 9 -28 21 -45 11 -16 36 -64 56 -105 19 -41 50 -91 68 -110 17 -19 40 -57 49 -83 12 -31 23 -47 31 -43 8 3 16 -5 19 -19 4 -16 14 -25 33 -27 14 -2 31 -12 37 -22 6 -11 19 -28 29 -38 9 -10 17 -28 18 -41 0 -12 14 -42 30 -67 16 -25 33 -54 38 -65 5 -11 22 -29 37 -40 39 -28 139 -65 172 -64 l27 1 -24 7 -24 7 27 17 c14 10 31 15 35 12 14 -8 41 6 41 21 0 8 7 14 16 14 12 0 15 7 12 30 -3 16 -3 30 -1 30 9 0 68 -34 81 -46 7 -8 24 -14 38 -14 20 0 24 -5 24 -30 0 -16 -4 -30 -10 -30 -5 0 -10 -8 -10 -18 0 -10 -7 -27 -15 -40 -11 -15 -13 -27 -7 -39 12 -23 5 -43 -16 -44 -11 0 -9 -3 7 -10 27 -10 71 11 71 34 0 34 125 97 191 97 24 0 28 4 27 29 -1 34 8 52 25 46 7 -3 18 -1 26 4 12 8 12 12 2 25 -8 9 -19 16 -25 16 -20 0 -95 79 -102 107 -7 25 3 89 26 170 7 24 9 51 6 60 -4 10 -7 20 -6 21 1 2 -9 16 -23 30 -13 15 -27 40 -31 56 -9 36 -16 31 -9 -7 3 -15 16 -37 28 -49 13 -12 21 -28 18 -35 -3 -7 0 -13 6 -13 6 0 11 -9 11 -19 0 -20 -55 -61 -82 -61 -9 0 -21 -7 -28 -15 -9 -11 -23 -13 -52 -8 -32 5 -40 3 -36 -8 3 -8 15 -19 29 -26 13 -7 24 -19 24 -27 0 -8 9 -25 20 -38 46 -55 46 -64 9 -82 -45 -21 -79 -20 -129 4 -42 20 -58 18 -48 -5 13 -36 -96 -4 -125 36 -7 11 -19 19 -26 19 -15 0 -56 42 -56 57 0 14 -71 83 -85 83 -6 0 -29 18 -50 40 -21 22 -45 40 -52 40 -12 0 -42 55 -49 90 -2 8 -10 20 -18 26 -23 16 -20 31 9 38 26 7 32 20 15 31 -5 3 -7 25 -4 48 5 32 2 46 -10 56 -9 7 -16 19 -16 26 0 12 61 65 76 65 4 0 12 8 19 17 13 18 9 53 -7 53 -6 0 -8 9 -5 19 3 12 -1 22 -9 25 -8 3 -14 19 -14 35 0 23 -5 30 -22 33 -12 2 -28 13 -34 25 -6 13 -18 31 -28 42 -13 14 -14 24 -7 44 13 33 -3 46 -27 23 -24 -21 -37 -8 -38 37 -1 27 -9 46 -29 67 -26 28 -28 35 -29 115 0 48 4 89 9 93 24 17 35 52 24 73 -6 11 -8 23 -5 27 3 3 -1 17 -11 31 -20 31 -22 50 -28 206 -2 66 -6 144 -10 173 -4 35 -3 52 5 52 8 0 8 6 0 20 -6 11 -7 26 -3 33 4 6 8 17 8 22 2 29 39 95 54 95 11 0 12 3 4 8 -9 6 -10 17 -3 42 10 37 8 36 87 31 7 -1 10 -8 6 -18 -5 -12 -2 -15 10 -10 13 5 17 1 18 -16 0 -21 1 -21 9 -2 6 14 9 -3 10 -55 1 -41 6 -84 11 -95 7 -16 8 -14 4 10 -3 17 -5 68 -6 115 -1 94 -14 160 -30 160 -7 0 -8 14 -4 40 8 45 1 48 -34 20z"/>
</g>
<g id="layer109" fill="#8aff8a" stroke="none">
<path d="M1934 807 c3 -10 6 -25 6 -32 0 -7 11 -23 24 -36 13 -13 22 -29 19 -36 -3 -7 0 -13 6 -13 6 0 11 -9 11 -19 0 -20 -55 -61 -82 -61 -9 0 -21 -7 -28 -15 -9 -11 -23 -13 -52 -8 -32 5 -40 3 -36 -8 3 -8 15 -19 29 -26 13 -7 24 -19 24 -27 0 -8 9 -25 20 -38 46 -55 46 -64 9 -82 -45 -21 -79 -20 -129 4 -42 20 -58 18 -48 -5 13 -36 -96 -4 -125 36 -7 11 -19 19 -26 19 -15 0 -50 38 -60 65 -4 11 -10 15 -14 9 -4 -5 -19 -17 -34 -27 -33 -20 -37 -53 -8 -62 31 -10 24 -23 -16 -31 -22 -4 -38 -14 -41 -24 -7 -26 -51 -13 -68 21 -8 15 -19 30 -24 34 -6 3 2 -15 17 -41 46 -79 56 -93 82 -112 34 -25 136 -62 168 -61 l27 1 -24 7 -24 7 27 17 c14 10 31 15 35 12 14 -8 41 6 41 21 0 8 7 14 16 14 12 0 15 7 12 30 -3 16 -3 30 -1 30 9 0 68 -34 81 -46 7 -8 24 -14 38 -14 20 0 24 -5 24 -30 0 -16 -4 -30 -10 -30 -5 0 -10 -8 -10 -18 0 -10 -7 -27 -15 -40 -11 -15 -13 -27 -7 -39 12 -23 5 -43 -16 -44 -11 0 -9 -3 7 -10 27 -10 71 11 71 34 0 34 125 97 191 97 24 0 28 4 27 29 -1 34 8 52 25 46 7 -3 18 -1 26 4 12 8 12 12 2 25 -8 9 -19 16 -25 16 -20 0 -95 79 -102 107 -7 25 3 89 26 170 7 24 9 51 5 60 -5 10 -8 21 -7 24 1 4 -10 17 -23 29 -14 13 -25 31 -25 39 0 9 -5 23 -11 31 -9 12 -10 12 -5 -3z"/>
</g>
<g id="layer110" fill="#b1b0b2" stroke="none">
<path d="M1211 2650 c-25 -21 -51 -26 -51 -10 0 6 -7 10 -15 10 -8 0 -15 -9 -15 -20 0 -10 -5 -31 -12 -45 -8 -18 -8 -31 0 -49 8 -19 7 -34 -6 -70 -10 -25 -21 -48 -25 -52 -4 -4 -7 -15 -7 -25 0 -27 -57 -87 -104 -111 -23 -11 -45 -27 -49 -34 -4 -8 -16 -14 -26 -14 -11 0 -42 -25 -70 -56 -40 -44 -51 -63 -51 -89 0 -18 -14 -67 -30 -108 -17 -42 -30 -84 -30 -94 0 -20 -34 -63 -50 -63 -6 0 -10 -7 -10 -15 0 -9 -11 -21 -25 -27 -27 -12 -27 -10 2 -103 20 -61 64 -158 69 -152 3 2 0 16 -5 30 -8 19 -7 27 4 31 8 3 17 -4 21 -17 4 -12 12 -25 18 -29 7 -5 4 -8 -6 -8 -22 0 -23 -7 -4 -26 17 -16 36 -19 36 -4 0 6 9 10 19 10 11 0 23 4 26 10 7 11 59 4 92 -12 28 -14 51 -5 62 25 5 12 16 29 24 36 11 8 13 19 8 34 -15 43 -4 56 45 53 37 -3 44 -1 44 15 0 11 3 19 8 19 16 0 31 52 21 72 -6 11 -8 22 -5 26 3 3 -1 17 -11 31 -20 31 -22 50 -28 206 -2 66 -6 144 -10 173 -4 35 -3 52 5 52 8 0 8 6 0 20 -6 11 -7 26 -3 33 4 6 8 17 8 22 2 29 39 95 54 95 11 0 12 3 4 8 -9 6 -10 17 -3 42 10 37 8 36 87 31 7 -1 10 -8 6 -18 -5 -12 -2 -15 10 -10 13 5 17 1 18 -16 0 -21 1 -21 9 -2 6 14 9 -3 10 -55 1 -41 6 -84 11 -95 7 -16 8 -14 4 10 -3 17 -5 68 -6 115 -1 94 -14 160 -30 160 -7 0 -8 14 -4 40 8 45 1 48 -34 20z"/>
<path d="M1251 2370 c0 -36 3 -71 7 -78 5 -7 7 16 5 50 -6 91 -11 103 -12 28z"/>
<path d="M857 2344 c-11 -11 5 -34 24 -34 22 0 24 11 7 28 -13 13 -22 15 -31 6z"/>
<path d="M1281 2232 c-1 -17 28 -80 40 -88 5 -3 1 12 -10 33 -10 21 -21 45 -24 53 -4 11 -6 11 -6 2z"/>
<path d="M1330 2122 c0 -7 6 -25 14 -40 17 -32 70 -85 61 -60 -4 9 -13 19 -21 22 -8 3 -24 25 -34 48 -11 24 -20 37 -20 30z"/>
<path d="M1421 1959 c0 -13 4 -33 9 -44 7 -14 8 -8 3 20 -7 46 -13 59 -12 24z"/>
<path d="M1441 1844 c0 -11 10 -31 24 -44 14 -13 25 -19 25 -14 0 5 -9 15 -19 21 -11 7 -21 23 -24 35 -4 21 -4 21 -6 2z"/>
<path d="M1076 1576 c2 -57 7 -73 28 -95 14 -15 27 -38 28 -51 3 -22 0 -25 -24 -22 -16 2 -28 0 -28 -5 0 -5 -18 -8 -39 -8 -25 0 -47 -8 -60 -19 -20 -18 -23 -18 -73 -2 -28 9 -67 28 -85 42 -18 14 -33 21 -33 17 0 -4 -5 -1 -10 8 -7 12 -18 14 -47 10 l-38 -6 -2 -53 c-1 -42 3 -58 23 -81 13 -16 24 -34 24 -41 0 -6 9 -23 20 -37 11 -14 20 -31 20 -38 0 -6 9 -20 20 -30 11 -10 20 -13 20 -7 0 6 -8 16 -17 21 -28 17 4 33 52 26 23 -3 61 1 90 10 28 8 72 15 99 15 42 0 47 -2 33 -12 -12 -9 -16 -26 -15 -58 1 -25 -5 -60 -13 -78 -12 -28 -12 -34 0 -42 12 -7 12 -11 2 -24 -8 -9 -22 -16 -32 -16 -11 0 -25 -13 -35 -32 l-17 -32 -18 23 c-11 13 -19 31 -19 40 0 9 -16 29 -35 44 -19 15 -35 33 -35 40 -1 16 -39 66 -40 51 0 -6 6 -17 14 -24 8 -6 16 -21 18 -33 2 -12 17 -31 35 -42 18 -11 32 -27 33 -35 0 -8 9 -28 21 -45 11 -16 36 -64 56 -105 19 -41 50 -91 68 -110 17 -19 40 -57 49 -83 12 -31 23 -47 31 -43 8 3 16 -5 19 -20 5 -17 13 -24 29 -24 13 0 29 -6 36 -13 8 -8 11 -8 9 -1 -4 15 39 54 75 66 15 6 27 15 27 21 0 6 15 -2 33 -19 23 -21 21 -17 -8 14 -21 23 -45 42 -52 42 -12 0 -42 55 -49 90 -2 8 -10 20 -18 26 -23 16 -20 31 9 38 26 7 32 20 15 31 -5 3 -7 25 -4 48 5 32 2 46 -10 56 -9 7 -16 19 -16 26 0 12 61 65 76 65 4 0 12 8 19 17 13 18 9 53 -7 53 -6 0 -8 9 -5 19 3 12 -1 22 -9 25 -8 3 -14 19 -14 35 0 23 -5 30 -22 33 -12 2 -28 13 -34 25 -6 13 -18 31 -28 42 -13 14 -14 24 -7 44 13 33 -3 46 -27 23 -24 -21 -37 -8 -38 37 -1 27 -9 46 -30 68 -23 24 -28 37 -26 74 1 24 -2 55 -7 67 -5 15 -7 -1 -5 -46z"/>
<path d="M1568 1560 c2 -16 12 -35 21 -42 13 -10 14 -10 4 2 -7 8 -13 24 -13 36 0 13 -4 25 -8 28 -5 3 -6 -8 -4 -24z"/>
<path d="M1600 1494 c0 -7 7 -25 15 -40 8 -16 15 -24 15 -18 0 7 -7 25 -15 40 -8 16 -15 24 -15 18z"/>
<path d="M1611 1406 c0 -10 12 -35 28 -55 16 -20 31 -45 34 -56 4 -18 5 -18 6 -1 0 10 -12 35 -28 55 -16 20 -31 45 -34 56 -4 18 -5 18 -6 1z"/>
<path d="M1696 1245 c24 -39 24 -40 24 -28 0 6 -9 21 -21 34 l-20 24 17 -30z"/>
<path d="M1743 1130 c19 -15 27 -31 27 -53 0 -25 9 -39 43 -66 23 -19 34 -26 25 -15 -21 24 -23 45 -7 61 13 13 -9 75 -24 66 -4 -3 -1 -16 8 -29 12 -19 13 -28 3 -43 -17 -27 -38 -14 -38 24 0 30 -16 53 -50 69 -8 4 -3 -2 13 -14z"/>
<path d="M1840 946 c0 -11 59 -62 63 -54 2 1 -12 17 -30 35 -18 17 -33 26 -33 19z"/>
<path d="M1934 807 c3 -10 6 -25 6 -32 0 -7 11 -23 24 -36 13 -13 22 -29 19 -36 -3 -7 0 -13 6 -13 6 0 11 -9 11 -19 0 -20 -55 -61 -82 -61 -9 0 -22 -7 -29 -17 -13 -14 -12 -15 6 -6 11 6 41 20 68 33 37 17 47 27 47 45 0 13 -5 27 -10 30 -6 4 -8 10 -5 14 2 5 -7 19 -20 31 -14 13 -25 31 -25 39 0 9 -5 23 -11 31 -9 12 -10 12 -5 -3z"/>
<path d="M1438 575 c17 -14 33 -25 37 -25 3 0 -7 11 -23 25 -17 14 -33 25 -37 25 -3 0 7 -11 23 -25z"/>
<path d="M1800 581 c0 -11 19 -26 43 -34 11 -4 16 -3 12 3 -3 6 -12 10 -20 10 -8 0 -17 5 -21 12 -5 8 2 9 27 5 24 -5 30 -4 19 3 -19 12 -60 13 -60 1z"/>
<path d="M1480 533 c0 -4 -14 -16 -30 -25 -35 -20 -40 -53 -10 -63 31 -10 24 -23 -16 -31 -22 -4 -38 -14 -41 -24 -7 -26 -51 -13 -68 21 -8 15 -19 30 -24 34 -6 3 2 -15 17 -41 46 -79 56 -93 82 -112 34 -25 136 -62 168 -61 l27 1 -24 7 -24 7 27 17 c14 10 31 15 35 12 14 -8 41 6 41 21 0 8 7 14 16 14 12 0 15 7 12 30 -3 17 -3 30 -1 30 9 0 68 -34 81 -46 7 -8 24 -14 38 -14 20 0 24 -5 24 -30 0 -16 -4 -30 -10 -30 -5 0 -10 -8 -10 -18 0 -10 -7 -27 -15 -40 -11 -15 -13 -27 -7 -39 12 -23 5 -43 -16 -44 -11 0 -9 -3 7 -10 27 -10 71 11 71 34 0 34 125 97 191 97 24 0 28 4 27 29 -1 34 8 52 25 46 7 -3 18 -1 26 4 22 14 -5 44 -32 35 -11 -4 -17 -2 -14 3 4 6 -8 23 -26 39 -18 16 -38 38 -45 49 -9 15 -11 16 -12 4 0 -8 16 -30 36 -47 20 -18 35 -35 32 -37 -10 -10 -47 9 -51 27 -3 11 -15 22 -26 25 -12 3 -21 9 -21 14 0 4 -10 14 -22 20 -20 11 -21 10 -11 -3 11 -12 7 -17 -23 -31 -45 -22 -79 -21 -129 3 -42 20 -58 18 -48 -5 13 -36 -96 -4 -125 36 -7 11 -19 19 -26 19 -15 0 -56 42 -56 58 0 6 -4 14 -10 17 -5 3 -10 3 -10 -2z"/>
</g>
<g id="layer111" fill="#b5b2d4" stroke="none">
<path d="M1211 2650 c-25 -21 -51 -26 -51 -10 0 6 -7 10 -15 10 -8 0 -15 -9 -15 -20 0 -10 -5 -31 -12 -45 -8 -18 -8 -31 0 -49 8 -19 7 -34 -6 -70 -10 -25 -21 -48 -25 -52 -4 -4 -7 -15 -7 -24 0 -10 -9 -29 -20 -42 -10 -14 -16 -29 -12 -32 4 -4 0 -6 -8 -4 -8 2 -14 -4 -15 -12 0 -8 -7 -15 -15 -15 -27 -1 -60 -16 -55 -26 3 -5 -1 -6 -10 -3 -12 5 -16 2 -13 -12 2 -15 -2 -18 -23 -16 -39 4 -129 -96 -129 -143 0 -18 -14 -67 -30 -108 -17 -42 -30 -84 -30 -94 0 -20 -34 -63 -50 -63 -6 0 -10 -7 -10 -15 0 -9 -11 -21 -25 -27 -27 -12 -27 -10 2 -103 20 -61 64 -158 69 -152 3 2 0 16 -5 30 -8 19 -7 27 4 31 8 3 17 -4 21 -17 4 -12 12 -25 18 -29 7 -5 4 -8 -6 -8 -22 0 -23 -7 -4 -26 17 -16 36 -19 36 -4 0 6 9 10 19 10 11 0 23 4 26 10 7 11 59 4 92 -12 28 -14 51 -5 62 25 5 12 16 29 24 36 11 8 13 19 8 34 -15 43 -4 56 45 52 35 -2 44 1 40 11 -3 7 0 17 7 21 27 18 36 49 24 84 -7 19 -16 40 -20 47 -11 17 -17 67 -22 180 -2 51 -6 128 -9 172 -5 60 -3 80 6 80 9 0 9 3 0 12 -16 16 -15 33 2 71 7 18 18 44 24 60 7 15 19 27 29 27 14 0 15 2 4 9 -11 7 -11 15 -2 43 11 32 14 35 49 32 20 -1 40 -2 44 -3 4 -1 4 -9 1 -18 -5 -12 -2 -15 10 -10 12 4 17 1 17 -11 0 -15 2 -15 10 -2 7 10 10 -8 11 -60 0 -41 5 -84 10 -95 7 -16 8 -14 4 10 -3 17 -5 68 -6 115 -1 94 -14 160 -30 160 -7 0 -8 14 -4 40 8 45 1 48 -34 20z"/>
<path d="M1800 2615 c0 -8 5 -15 10 -15 6 0 10 7 10 15 0 8 -4 15 -10 15 -5 0 -10 -7 -10 -15z"/>
<path d="M1793 2573 c4 -3 3 -11 -2 -17 -14 -19 -21 -46 -11 -46 6 0 10 9 10 20 0 11 5 20 10 20 6 0 10 7 10 15 0 8 -5 15 -12 15 -6 0 -8 -3 -5 -7z"/>
<path d="M1729 2539 c-8 -16 -8 -24 2 -33 9 -8 10 -8 5 1 -4 7 -2 22 4 33 6 11 8 20 6 20 -3 0 -10 -9 -17 -21z"/>
<path d="M1251 2355 c0 -27 3 -56 8 -63 5 -8 6 8 4 40 -6 73 -11 83 -12 23z"/>
<path d="M1290 2200 c0 -8 10 -26 21 -40 11 -14 18 -19 14 -12 -30 57 -35 65 -35 52z"/>
<path d="M1320 2193 c0 -6 9 -21 21 -34 l20 -24 -17 30 c-24 39 -24 40 -24 28z"/>
<path d="M1360 2101 c0 -11 53 -51 67 -51 14 0 50 -41 63 -70 10 -24 10 -24 5 5 -6 29 -48 74 -70 75 -6 0 -23 11 -38 25 -15 14 -27 21 -27 16z"/>
<path d="M1700 2095 c-9 -11 -10 -19 -3 -26 14 -14 43 0 43 22 0 23 -23 25 -40 4z m30 -4 c0 -12 -20 -25 -27 -18 -7 7 6 27 18 27 5 0 9 -4 9 -9z"/>
<path d="M1340 2093 c0 -6 9 -21 21 -34 l20 -24 -17 30 c-24 39 -24 40 -24 28z"/>
<path d="M1540 1910 c15 -29 50 -76 50 -67 0 6 -47 78 -57 87 -3 3 0 -6 7 -20z"/>
<path d="M1441 1844 c0 -12 7 -28 17 -35 15 -12 16 -12 6 1 -7 8 -14 24 -17 35 -4 19 -5 19 -6 -1z"/>
<path d="M1590 1824 c0 -11 38 -74 45 -74 2 0 -5 17 -17 38 -27 46 -28 48 -28 36z"/>
<path d="M1650 1718 c0 -36 4 -35 14 5 4 16 2 27 -4 27 -5 0 -10 -14 -10 -32z"/>
<path d="M1525 1660 c9 -16 18 -30 21 -30 2 0 -2 14 -11 30 -9 17 -18 30 -21 30 -2 0 2 -13 11 -30z"/>
<path d="M1650 1672 c0 -15 29 -75 40 -82 5 -3 10 -16 13 -30 4 -21 4 -20 6 8 0 17 -4 32 -9 32 -6 0 -20 19 -30 43 -11 23 -20 36 -20 29z"/>
<path d="M1712 1525 c0 -5 6 -26 13 -45 7 -19 14 -28 14 -20 0 8 -6 29 -14 45 -7 17 -13 26 -13 20z"/>
<path d="M730 1451 c-27 -5 -36 -11 -38 -28 -2 -13 1 -23 7 -23 6 0 11 -7 11 -16 0 -8 -4 -12 -10 -9 -20 12 -10 -34 13 -57 15 -16 17 -17 7 -3 -15 20 -15 20 7 1 16 -13 21 -26 17 -41 -3 -14 1 -27 13 -36 17 -13 17 -13 3 6 -14 18 -14 19 1 7 9 -7 17 -24 17 -38 0 -14 9 -36 21 -47 11 -12 21 -16 21 -10 0 7 -8 17 -17 22 -28 17 4 33 52 26 23 -3 61 1 90 10 28 8 72 15 99 15 42 0 47 -2 33 -12 -12 -9 -16 -26 -15 -58 1 -25 -5 -60 -13 -78 -12 -28 -12 -34 0 -42 12 -7 12 -11 2 -24 -8 -9 -22 -16 -32 -16 -11 0 -25 -13 -35 -32 l-17 -32 -18 23 c-11 13 -19 31 -19 40 0 9 -16 29 -35 44 -19 15 -35 33 -35 40 -1 16 -39 66 -40 51 0 -6 6 -17 14 -24 8 -6 16 -21 18 -33 2 -12 17 -31 35 -42 18 -11 32 -27 33 -35 0 -8 9 -28 21 -45 11 -16 36 -64 56 -105 19 -41 50 -91 68 -110 17 -19 40 -57 49 -83 12 -31 23 -47 31 -43 8 3 16 -5 19 -20 5 -17 13 -24 29 -24 13 0 29 -6 36 -13 8 -8 11 -8 9 -1 -4 15 39 54 75 66 15 6 27 15 27 21 0 6 15 -2 33 -19 23 -21 21 -17 -8 14 -21 23 -45 42 -52 42 -8 0 -16 8 -20 18 -3 9 -13 25 -20 34 -8 9 -12 21 -9 26 3 5 -3 17 -14 27 -27 24 -25 43 5 51 26 6 32 18 15 29 -5 3 -7 25 -5 49 3 31 0 48 -10 56 -8 7 -15 18 -15 25 0 12 61 65 76 65 4 0 12 8 19 17 13 18 9 53 -7 53 -6 0 -8 9 -5 19 3 12 -1 22 -9 25 -8 3 -14 19 -14 36 0 16 -3 29 -7 28 -20 -5 -53 15 -53 32 0 11 -9 24 -21 31 -17 9 -20 17 -15 43 8 40 -2 51 -25 30 -24 -21 -42 -8 -36 25 3 15 1 33 -4 41 -7 11 -8 9 -7 -10 3 -22 0 -25 -24 -22 -16 2 -28 0 -28 -5 0 -5 -18 -8 -39 -8 -25 0 -47 -8 -60 -19 -20 -18 -23 -18 -73 -2 -28 9 -67 28 -85 42 -18 14 -33 22 -33 18 0 -4 -6 -1 -12 7 -9 11 -24 13 -48 10z"/>
<path d="M1611 1405 c0 -11 15 -38 35 -60 l36 -40 -30 40 c-16 22 -32 49 -35 60 l-5 20 -1 -20z"/>
<path d="M1760 1294 c0 -16 5 -36 11 -44 7 -11 8 -4 3 25 -8 50 -14 58 -14 19z"/>
<path d="M1780 1219 c0 -2 7 -22 15 -44 11 -32 14 -35 14 -15 0 14 -6 34 -14 44 -8 11 -15 18 -15 15z"/>
<path d="M1743 1130 c18 -15 27 -32 28 -53 2 -31 2 -31 6 -4 5 31 -8 52 -41 68 -13 6 -11 2 7 -11z"/>
<path d="M1807 1123 c-4 -3 0 -17 9 -31 11 -17 13 -27 5 -35 -17 -17 -13 -42 12 -63 22 -19 22 -19 5 2 -21 24 -23 45 -7 61 9 9 8 20 -3 43 -8 16 -18 27 -21 23z"/>
<path d="M1480 533 c0 -4 -14 -16 -30 -25 -35 -20 -40 -53 -10 -63 31 -10 24 -23 -16 -31 -22 -4 -38 -14 -41 -24 -7 -26 -51 -13 -68 21 -8 15 -19 31 -25 34 -6 3 3 -15 19 -42 15 -26 33 -47 39 -46 5 1 8 -6 5 -16 -5 -20 33 -55 49 -45 5 3 7 0 6 -8 -2 -8 5 -12 20 -11 15 2 21 -1 16 -8 -4 -8 1 -9 16 -4 14 4 20 3 16 -3 -8 -13 19 -23 41 -15 11 4 14 3 9 -5 -5 -8 3 -12 26 -11 29 1 30 2 9 8 l-24 7 27 17 c14 10 31 15 35 12 14 -8 41 6 41 21 0 8 7 14 16 14 12 0 15 7 12 30 -3 17 -3 30 -1 30 9 0 68 -34 81 -46 7 -8 24 -14 38 -14 20 0 24 -5 24 -30 0 -16 -4 -30 -10 -30 -5 0 -10 -8 -10 -18 0 -10 -7 -27 -15 -40 -11 -15 -13 -27 -7 -39 12 -23 5 -43 -16 -44 -11 0 -9 -3 7 -10 27 -10 71 11 71 34 0 34 125 97 191 97 24 0 28 4 27 29 -1 34 8 52 25 46 7 -3 18 -1 26 4 22 14 -5 44 -32 35 -11 -4 -17 -2 -14 3 4 6 -8 23 -26 39 -18 16 -38 38 -45 49 -9 15 -11 16 -12 4 0 -8 16 -30 36 -47 20 -18 35 -35 32 -37 -10 -10 -47 8 -51 26 -3 10 -13 22 -24 26 -10 4 -23 14 -30 22 -7 10 -12 11 -13 4 0 -16 -57 -43 -92 -43 -16 0 -45 7 -65 15 -19 8 -42 15 -50 15 -13 0 -13 -3 -3 -15 14 -16 10 -18 -34 -15 -28 2 -61 19 -96 48 -8 7 -30 24 -47 38 -18 14 -33 32 -33 39 0 8 -4 17 -10 20 -5 3 -10 3 -10 -2z"/>
<path d="M1652 182 c21 -36 55 -71 70 -72 4 0 -8 16 -27 36 -19 20 -35 42 -35 49 0 7 -6 15 -14 18 -11 4 -9 -5 6 -31z"/>
</g>
<g id="layer112" fill="#e7b8a2" stroke="none">
<path d="M1211 2650 c-25 -21 -51 -26 -51 -10 0 6 -7 10 -15 10 -8 0 -15 -9 -15 -20 0 -10 -5 -31 -12 -45 -8 -18 -8 -31 0 -49 8 -19 7 -34 -6 -70 -10 -25 -21 -48 -25 -52 -4 -4 -7 -15 -7 -24 0 -10 -9 -29 -20 -42 -10 -14 -16 -29 -12 -32 4 -4 0 -6 -8 -4 -8 2 -14 -4 -15 -12 0 -8 -7 -15 -15 -15 -27 -1 -60 -16 -55 -26 3 -5 -1 -6 -10 -3 -12 5 -16 2 -13 -12 2 -15 -2 -18 -23 -16 -39 4 -129 -96 -129 -143 0 -18 -14 -67 -30 -108 -17 -42 -30 -84 -30 -94 0 -21 -34 -63 -51 -63 -6 0 -9 -6 -6 -13 5 -14 -17 -39 -27 -30 -3 4 -6 1 -6 -6 0 -7 -5 -9 -10 -6 -5 3 -10 1 -10 -4 0 -6 5 -11 11 -11 6 0 8 -7 5 -16 -3 -8 0 -25 6 -37 7 -12 11 -25 10 -29 -1 -5 3 -8 9 -8 7 0 9 -10 5 -25 -5 -18 -2 -27 9 -31 8 -4 15 -11 14 -18 -3 -15 20 -70 27 -64 2 3 0 17 -5 31 -8 19 -7 27 4 31 8 3 17 -4 21 -17 4 -12 12 -25 18 -29 7 -5 4 -8 -6 -8 -22 0 -23 -7 -4 -26 17 -16 36 -19 36 -4 0 6 9 10 19 10 11 0 23 4 26 10 7 11 59 4 92 -12 28 -14 51 -5 62 25 5 12 16 29 24 36 11 8 13 19 8 34 -15 43 -4 56 45 52 35 -2 44 1 40 11 -3 7 0 17 7 21 27 18 36 49 24 84 -7 19 -16 40 -20 47 -11 17 -17 67 -22 180 -2 51 -6 128 -9 172 -5 60 -3 80 6 80 9 0 9 3 0 12 -16 16 -15 33 2 71 7 18 18 44 24 60 7 15 19 27 29 27 14 0 15 2 4 9 -11 7 -11 15 -2 43 11 32 14 35 49 32 20 -1 40 -2 44 -3 4 -1 5 -8 1 -17 -4 -10 -1 -15 8 -14 30 5 38 -1 42 -32 2 -19 4 -9 4 22 0 66 -14 130 -28 130 -7 0 -8 14 -4 40 8 45 1 48 -34 20z"/>
<path d="M157 1693 c-14 -13 -6 -33 13 -33 11 0 20 4 20 9 0 13 -26 32 -33 24z"/>
<path d="M200 1563 c0 -5 4 -14 9 -22 8 -12 14 -13 36 -3 14 7 23 17 20 22 -7 12 -65 14 -65 3z"/>
<path d="M255 1447 c-11 -7 -22 -13 -25 -15 -3 -2 2 -9 10 -16 19 -15 43 -56 36 -63 -9 -9 -26 8 -26 26 0 25 -26 45 -47 37 -12 -5 -14 -9 -5 -18 7 -7 12 -20 12 -30 0 -10 8 -22 18 -25 9 -4 22 -13 28 -21 5 -8 21 -12 35 -10 18 2 24 9 23 26 0 18 5 22 28 22 17 0 28 5 28 14 0 8 3 21 6 30 5 12 -1 16 -25 16 -20 0 -34 7 -41 20 -12 23 -26 24 -55 7z"/>
<path d="M730 1451 c-27 -5 -36 -11 -38 -28 -2 -13 1 -23 7 -23 6 0 11 -7 11 -16 0 -8 -4 -12 -10 -9 -20 12 -10 -34 13 -57 15 -16 17 -17 7 -3 -15 20 -15 20 7 1 16 -13 21 -26 17 -41 -3 -14 1 -27 13 -36 17 -13 17 -13 3 6 -14 19 -14 19 3 6 9 -7 16 -21 15 -30 -3 -13 8 -16 62 -16 36 -1 85 5 110 12 25 7 67 13 93 13 45 0 47 -1 32 -17 -12 -11 -15 -25 -10 -49 4 -22 0 -44 -10 -63 -17 -34 -20 -65 -5 -56 14 9 12 -19 -2 -33 -7 -7 -20 -12 -30 -12 -10 0 -25 -14 -33 -31 -16 -30 -17 -31 -38 -12 l-21 18 21 -30 c11 -16 35 -61 53 -100 18 -38 47 -86 65 -105 17 -19 40 -57 49 -83 12 -31 23 -47 31 -43 8 3 16 -5 19 -20 5 -17 13 -24 29 -24 13 0 29 -6 36 -13 8 -8 11 -8 9 -1 -4 15 39 54 75 66 15 6 27 15 27 21 0 6 15 -2 33 -19 23 -21 21 -17 -8 14 -21 23 -45 42 -52 42 -8 0 -16 8 -20 18 -3 9 -13 25 -20 34 -8 9 -12 21 -9 26 3 5 -3 17 -14 27 -27 24 -25 43 5 51 26 6 32 18 15 29 -5 3 -7 25 -5 49 3 31 0 48 -10 56 -8 7 -15 18 -15 25 0 12 61 65 76 65 4 0 12 8 19 17 13 18 9 53 -7 53 -6 0 -8 9 -5 19 3 12 -1 22 -9 25 -8 3 -14 19 -14 36 0 16 -3 29 -7 28 -20 -5 -53 15 -53 32 0 11 -9 24 -21 31 -17 9 -20 17 -15 43 8 40 -2 51 -25 30 -24 -21 -42 -8 -36 25 3 15 1 33 -4 41 -7 11 -8 9 -7 -10 3 -22 0 -25 -24 -22 -16 2 -28 0 -28 -5 0 -5 -18 -8 -39 -8 -25 0 -47 -8 -60 -19 -20 -18 -23 -18 -73 -2 -28 9 -67 28 -85 42 -18 14 -33 22 -33 18 0 -4 -6 -1 -12 7 -9 11 -24 13 -48 10z"/>
<path d="M280 1266 c0 -14 5 -28 11 -31 14 -9 18 -4 21 25 2 16 -3 25 -14 28 -13 3 -18 -3 -18 -22z"/>
<path d="M1240 535 c0 -3 9 -14 20 -25 12 -12 20 -15 20 -7 0 7 -9 18 -20 25 -11 7 -20 10 -20 7z"/>
<path d="M1480 533 c0 -4 -14 -16 -30 -25 -35 -20 -40 -53 -10 -63 31 -10 24 -23 -16 -31 -22 -4 -38 -14 -41 -24 -7 -26 -51 -13 -68 21 -8 15 -19 31 -25 34 -6 3 3 -15 19 -42 15 -26 33 -47 39 -46 5 1 8 -6 5 -16 -5 -20 33 -55 49 -45 5 3 7 0 6 -8 -2 -8 5 -12 20 -11 15 2 21 -1 16 -8 -4 -8 1 -9 16 -4 14 4 20 3 16 -3 -8 -13 19 -23 41 -15 11 4 14 3 9 -5 -5 -8 1 -12 16 -12 16 0 19 3 10 9 -10 6 -7 12 13 25 14 9 30 14 34 11 14 -8 41 6 41 21 0 8 7 14 16 14 13 0 15 7 11 30 -4 17 -4 30 -1 30 10 0 68 -33 82 -46 7 -8 24 -14 38 -14 19 0 24 -5 24 -25 0 -14 -4 -33 -9 -43 -27 -49 -38 -82 -31 -87 5 -3 7 -19 3 -35 -3 -17 -1 -30 4 -30 15 0 53 31 53 44 0 33 126 96 191 96 24 0 28 4 27 29 -1 34 8 52 25 46 7 -3 18 -1 26 4 22 14 -5 44 -32 35 -11 -4 -17 -2 -14 3 4 6 -8 23 -26 39 -18 16 -38 38 -45 49 -9 15 -11 16 -12 4 0 -8 16 -30 36 -47 20 -18 35 -35 32 -37 -10 -10 -47 8 -51 26 -3 10 -13 22 -24 26 -10 4 -23 14 -30 22 -7 10 -12 11 -13 4 0 -16 -57 -43 -92 -43 -16 0 -45 7 -65 15 -19 8 -42 15 -50 15 -13 0 -13 -3 -3 -15 14 -16 10 -18 -34 -15 -28 2 -61 19 -96 48 -8 7 -30 24 -47 38 -18 14 -33 32 -33 39 0 8 -4 17 -10 20 -5 3 -10 3 -10 -2z"/>
</g>
<g id="layer113" fill="#b3e1b3" stroke="none">
<path d="M755 1455 c-5 -2 -22 -6 -37 -9 -19 -4 -28 -13 -28 -26 0 -11 5 -20 10 -20 6 0 10 -7 10 -16 0 -8 -4 -12 -10 -9 -20 12 -10 -34 13 -57 15 -16 17 -17 7 -3 -15 20 -15 20 7 1 16 -13 21 -26 17 -41 -3 -14 1 -27 13 -36 17 -13 17 -13 3 6 -14 19 -14 19 3 6 9 -7 16 -21 15 -30 -3 -13 8 -16 62 -16 36 -1 85 5 110 12 25 7 67 13 93 13 45 0 47 -1 32 -17 -12 -11 -15 -25 -10 -49 4 -22 0 -44 -10 -63 -17 -34 -20 -65 -5 -56 14 9 12 -19 -2 -33 -7 -7 -20 -12 -30 -12 -10 0 -25 -14 -33 -31 -16 -30 -17 -31 -38 -12 l-21 18 21 -30 c11 -16 35 -61 53 -100 18 -38 47 -86 65 -105 17 -19 40 -57 49 -83 12 -31 23 -47 31 -43 8 3 16 -5 19 -19 9 -34 57 -38 93 -7 15 13 40 29 56 34 15 6 27 15 27 21 0 6 15 -2 33 -19 23 -21 21 -17 -8 14 -21 23 -45 42 -52 42 -8 0 -16 8 -20 18 -3 9 -13 25 -20 34 -8 9 -12 21 -9 26 3 5 -3 17 -14 27 -27 24 -25 43 5 51 26 6 32 18 15 29 -5 3 -7 25 -5 49 3 31 0 48 -10 56 -8 7 -15 18 -15 25 0 12 61 65 76 65 4 0 12 8 19 17 13 18 9 53 -7 53 -6 0 -8 9 -5 19 3 12 -1 22 -9 25 -8 3 -14 19 -14 36 0 16 -3 29 -7 28 -20 -5 -53 15 -53 32 0 11 -9 24 -21 31 -17 9 -20 17 -15 43 8 40 -2 51 -25 30 -24 -21 -42 -8 -36 25 3 15 1 33 -4 41 -7 11 -8 9 -7 -10 3 -22 0 -25 -24 -22 -16 2 -28 0 -28 -5 0 -5 -18 -8 -39 -8 -25 0 -47 -8 -60 -19 -20 -18 -23 -18 -73 -2 -28 9 -67 28 -85 42 -18 14 -33 22 -33 18 0 -4 -6 -1 -12 8 -7 9 -17 14 -23 13z"/>
<path d="M2000 655 c0 -8 -6 -15 -14 -15 -7 0 -19 -7 -26 -15 -10 -12 -7 -12 19 1 17 9 31 22 31 30 0 8 -2 14 -5 14 -3 0 -5 -7 -5 -15z"/>
<path d="M1800 581 c0 -6 5 -13 12 -17 6 -4 8 -3 4 4 -3 6 2 13 11 15 14 4 13 5 -4 6 -13 0 -23 -3 -23 -8z"/>
<path d="M1480 533 c0 -4 -14 -16 -30 -25 -35 -20 -40 -53 -10 -63 31 -10 24 -23 -16 -31 -22 -4 -38 -14 -41 -24 -3 -12 -12 -15 -36 -12 -29 5 -31 3 -18 -11 7 -9 17 -15 21 -12 5 3 6 -3 3 -14 -5 -20 33 -55 49 -45 5 3 7 0 6 -8 -2 -8 5 -12 20 -11 15 2 21 -1 16 -8 -4 -8 1 -9 16 -4 14 4 20 3 16 -3 -8 -13 19 -23 41 -15 11 4 14 3 9 -5 -5 -8 1 -12 16 -12 16 0 19 3 10 9 -10 6 -7 12 13 25 14 9 30 14 34 11 14 -8 41 6 41 21 0 8 7 14 16 14 13 0 15 7 11 30 -4 17 -4 30 -1 30 10 0 68 -33 82 -46 7 -8 25 -14 38 -14 23 0 25 -4 22 -39 -1 -22 -5 -38 -10 -35 -4 3 -8 -1 -8 -8 0 -7 -7 -25 -14 -40 -9 -17 -11 -30 -5 -34 5 -3 7 -14 4 -24 -4 -12 1 -19 14 -23 21 -5 46 15 34 27 -9 9 33 47 43 38 4 -4 4 1 1 10 -7 19 20 32 47 22 9 -3 16 -1 16 6 0 6 5 8 10 5 6 -3 10 -2 10 4 0 6 7 7 17 4 12 -5 14 -3 8 6 -6 10 2 12 34 9 29 -2 41 0 41 10 0 7 -4 10 -10 7 -5 -3 -10 -1 -10 4 0 6 4 11 9 11 5 0 7 10 3 22 -3 14 -2 19 6 14 7 -4 12 -1 12 6 0 10 3 9 11 -2 8 -11 12 -12 16 -2 2 6 9 10 14 6 14 -8 10 12 -5 25 -7 6 -22 8 -31 4 -11 -4 -16 -3 -12 4 3 5 -8 23 -26 39 -18 16 -38 38 -45 49 -9 15 -11 16 -12 4 0 -8 16 -30 36 -47 20 -18 35 -35 32 -37 -10 -10 -47 9 -51 27 -4 13 -10 17 -18 12 -8 -4 -10 -3 -5 4 4 7 2 12 -5 12 -6 0 -18 8 -25 18 -7 9 -14 12 -14 5 0 -16 -57 -43 -92 -43 -16 0 -45 7 -65 15 -19 8 -42 15 -50 15 -13 0 -13 -3 -3 -15 14 -16 10 -18 -34 -15 -28 2 -61 19 -96 48 -8 7 -30 24 -47 38 -18 14 -33 32 -33 39 0 8 -4 17 -10 20 -5 3 -10 3 -10 -2z"/>
</g>
<g id="layer114" fill="#ffc389" stroke="none">
<path d="M200 1560 c0 -3 9 -11 21 -18 13 -9 18 -9 14 -2 -4 7 -1 10 8 8 9 -2 15 1 14 6 -2 10 -57 15 -57 6z"/>
<path d="M265 1450 c-4 -6 -1 -18 7 -27 11 -14 11 -16 -1 -9 -10 7 -12 3 -6 -15 4 -13 12 -30 17 -36 13 -16 -9 -46 -25 -36 -5 3 -7 1 -3 -5 10 -17 61 -7 64 13 2 9 0 15 -6 11 -5 -3 -9 6 -9 20 0 16 2 21 7 14 11 -18 60 -22 54 -5 -3 7 -1 16 5 20 20 12 11 22 -19 20 -16 -1 -30 2 -30 7 0 5 -5 6 -11 3 -6 -4 -9 0 -7 11 3 20 -26 32 -37 14z"/>
<path d="M230 1432 c0 -5 -10 -12 -22 -16 -18 -4 -20 -8 -10 -18 6 -6 12 -19 12 -28 0 -18 57 -43 66 -29 4 8 -8 13 -27 11 -3 -1 -5 10 -3 24 2 21 -1 25 -17 21 -10 -3 -22 -1 -25 4 -3 5 -2 9 3 8 4 -1 11 0 16 1 4 1 12 3 17 4 14 1 14 20 1 24 -6 2 -11 -1 -11 -6z"/>
<path d="M283 1262 c4 -29 26 -43 29 -18 0 9 1 21 2 28 1 6 -7 12 -17 14 -14 2 -17 -3 -14 -24z"/>
<path d="M1480 533 c0 -4 -14 -16 -30 -25 -35 -20 -40 -53 -10 -63 31 -10 24 -23 -16 -31 -22 -4 -38 -14 -41 -24 -3 -12 -12 -15 -36 -12 -29 5 -31 3 -18 -11 7 -9 17 -15 21 -12 5 3 6 -3 3 -14 -5 -20 33 -55 49 -45 5 3 7 0 6 -8 -2 -8 5 -12 20 -11 15 2 21 -1 16 -8 -4 -8 1 -9 16 -4 14 4 20 3 16 -3 -8 -13 19 -23 41 -15 11 4 14 3 9 -5 -5 -8 1 -12 16 -12 16 0 19 3 10 9 -10 6 -7 12 13 25 14 9 30 14 34 11 14 -8 41 6 41 21 0 8 7 14 16 14 13 0 15 7 11 30 -4 17 -4 30 -1 30 10 0 68 -33 82 -46 7 -8 25 -14 38 -14 23 0 25 -4 22 -39 -1 -22 -5 -38 -10 -35 -4 3 -8 -1 -8 -8 0 -7 -7 -25 -14 -40 -9 -17 -11 -30 -5 -34 5 -3 7 -14 4 -24 -4 -12 1 -19 14 -23 21 -5 46 15 34 27 -9 9 33 47 43 38 4 -4 4 1 1 10 -7 19 20 32 47 22 9 -3 16 -1 16 6 0 6 5 8 10 5 6 -3 10 -2 10 4 0 6 7 7 17 4 12 -5 14 -3 8 6 -6 10 2 12 34 9 29 -2 41 0 41 10 0 7 -4 10 -10 7 -5 -3 -10 -1 -10 4 0 6 4 11 9 11 5 0 7 10 3 22 -3 14 -2 19 6 14 7 -4 12 -1 12 6 0 10 3 9 11 -2 8 -11 12 -12 16 -2 2 6 9 10 14 6 5 -3 9 -1 9 5 0 16 -23 26 -52 22 -14 -1 -29 2 -33 8 -3 6 -14 11 -24 11 -11 0 -18 7 -17 16 0 9 -8 18 -18 20 -11 1 -23 10 -28 18 -8 13 -13 13 -44 -4 -41 -24 -82 -25 -131 -5 -19 8 -42 15 -50 15 -13 0 -13 -3 -3 -15 14 -16 10 -18 -34 -15 -28 2 -61 19 -96 48 -8 7 -30 24 -47 38 -18 14 -33 32 -33 39 0 8 -4 17 -10 20 -5 3 -10 3 -10 -2z"/>
</g>
<g id="layer115" fill="#aeaeef" stroke="none">
<path d="M1211 2650 c-25 -21 -51 -26 -51 -10 0 6 -7 10 -15 10 -8 0 -15 -9 -15 -20 0 -10 -5 -31 -12 -45 -8 -18 -8 -31 0 -49 8 -19 7 -34 -6 -70 -10 -25 -21 -48 -25 -52 -4 -4 -7 -15 -7 -24 0 -10 -9 -29 -20 -42 -10 -14 -16 -29 -12 -32 4 -4 0 -6 -8 -4 -8 2 -14 -4 -15 -12 0 -8 -7 -15 -15 -15 -27 -1 -60 -16 -55 -26 3 -5 -1 -6 -10 -3 -12 5 -16 2 -13 -12 2 -15 -2 -18 -23 -16 -39 4 -129 -96 -129 -143 0 -18 -14 -67 -30 -108 -17 -42 -30 -84 -30 -94 0 -21 -34 -63 -51 -63 -6 0 -9 -6 -6 -13 5 -14 -17 -39 -27 -30 -3 4 -6 1 -6 -6 0 -7 -5 -9 -10 -6 -5 3 -10 1 -10 -4 0 -6 5 -11 11 -11 6 0 8 -7 5 -16 -3 -8 0 -25 6 -37 7 -12 11 -25 10 -29 -1 -5 3 -8 9 -8 7 0 9 -10 5 -25 -5 -18 -2 -27 9 -31 8 -4 14 -13 13 -22 -2 -8 3 -17 11 -20 8 -2 11 0 7 6 -3 5 1 12 9 15 9 4 17 -2 21 -16 4 -12 12 -25 18 -29 7 -5 4 -8 -6 -8 -22 0 -23 -7 -4 -26 17 -16 36 -19 36 -4 0 6 9 10 19 10 11 0 23 4 26 10 7 11 59 4 92 -12 28 -14 51 -5 62 25 5 12 16 29 24 36 11 8 13 19 8 34 -15 43 -4 56 45 52 35 -2 44 1 40 11 -3 7 0 17 7 21 27 18 36 49 24 84 -7 19 -16 40 -20 47 -11 17 -17 67 -22 180 -2 51 -6 128 -9 172 -5 60 -3 80 6 80 9 0 9 3 0 12 -16 16 -15 33 2 71 7 18 18 44 24 60 7 15 19 27 29 27 14 0 15 2 4 9 -11 7 -11 15 -2 43 11 32 14 35 49 32 20 -1 40 -2 44 -3 4 -1 5 -8 1 -17 -4 -10 -1 -15 8 -14 30 5 38 -1 42 -32 2 -19 4 -9 4 22 0 66 -14 130 -28 130 -7 0 -8 14 -4 40 8 45 1 48 -34 20z"/>
<path d="M1253 2345 c0 -22 2 -30 4 -17 2 12 2 30 0 40 -3 9 -5 -1 -4 -23z"/>
<path d="M1731 2098 c0 -9 -9 -22 -18 -27 -10 -6 -13 -10 -8 -11 21 0 37 18 32 36 -4 16 -5 16 -6 2z"/>
<path d="M1543 1904 c9 -17 23 -37 33 -44 9 -8 4 3 -10 25 -35 51 -42 57 -23 19z"/>
<path d="M1657 1743 c-4 -3 -7 -18 -6 -32 1 -26 1 -25 10 3 9 31 7 41 -4 29z"/>
<path d="M755 1455 c-5 -2 -22 -6 -37 -9 -19 -4 -28 -13 -28 -26 0 -11 5 -20 10 -20 6 0 10 -7 10 -16 0 -8 -4 -12 -10 -9 -20 12 -10 -34 13 -57 15 -16 17 -17 7 -3 -15 20 -15 20 7 1 16 -13 21 -26 17 -41 -3 -14 1 -27 13 -36 17 -13 17 -13 3 6 -14 19 -14 19 3 6 9 -7 16 -21 15 -30 -3 -13 8 -16 62 -16 36 -1 85 5 110 12 25 7 67 13 93 13 45 0 47 -1 32 -17 -12 -11 -15 -25 -10 -49 4 -22 0 -44 -10 -63 -17 -34 -20 -65 -5 -56 14 9 12 -19 -2 -33 -7 -7 -20 -12 -30 -12 -10 0 -25 -14 -33 -31 -16 -30 -17 -31 -38 -12 l-21 18 21 -30 c12 -17 33 -57 47 -88 14 -31 30 -57 36 -57 6 0 8 -5 5 -10 -4 -6 11 -27 33 -48 21 -20 37 -43 34 -50 -2 -6 1 -12 7 -12 6 0 8 -7 5 -15 -4 -8 -1 -15 6 -15 6 0 8 -4 5 -10 -3 -5 -1 -10 5 -10 6 0 8 -5 4 -12 -5 -8 -2 -9 9 -5 11 4 17 1 17 -8 0 -8 5 -15 11 -15 5 0 7 -5 3 -11 -5 -8 1 -10 19 -5 14 3 27 1 29 -4 2 -5 17 2 33 16 17 15 42 31 58 36 15 6 27 15 27 21 0 6 15 -2 33 -19 23 -21 21 -17 -8 14 -21 23 -45 42 -52 42 -8 0 -16 8 -20 18 -3 9 -13 25 -20 34 -8 9 -12 21 -9 26 3 5 -3 17 -14 27 -27 24 -25 43 5 51 26 6 32 18 15 29 -5 3 -7 25 -5 49 3 31 0 48 -10 56 -8 7 -15 18 -15 25 0 12 61 65 76 65 4 0 12 8 19 17 13 18 9 53 -7 53 -6 0 -8 9 -5 19 3 12 -1 22 -9 25 -8 3 -14 19 -14 36 0 16 -3 29 -7 28 -20 -5 -53 15 -53 32 0 11 -9 24 -21 31 -17 9 -20 17 -15 43 8 40 -2 51 -25 30 -24 -21 -42 -8 -36 25 3 15 1 33 -4 41 -7 11 -8 9 -7 -10 3 -22 0 -25 -24 -22 -16 2 -28 0 -28 -5 0 -5 -18 -8 -39 -8 -25 0 -47 -8 -60 -19 -20 -18 -23 -18 -73 -2 -28 9 -67 28 -85 42 -18 14 -33 22 -33 18 0 -4 -6 -1 -12 8 -7 9 -17 14 -23 13z"/>
<path d="M1807 1124 c-3 -4 1 -17 10 -31 12 -18 13 -27 4 -36 -17 -17 -13 -42 12 -63 22 -19 22 -19 5 2 -21 24 -23 45 -7 61 9 9 8 20 -3 43 -8 16 -17 27 -21 24z"/>
<path d="M850 1078 c0 -8 9 -23 20 -33 11 -10 20 -15 20 -11 0 4 -9 19 -20 33 -13 17 -20 20 -20 11z"/>
<path d="M1480 533 c0 -4 -14 -16 -30 -25 -35 -20 -40 -53 -10 -63 31 -10 24 -23 -16 -31 -22 -4 -38 -14 -41 -24 -3 -12 -12 -15 -36 -12 -29 5 -31 3 -18 -11 7 -9 17 -15 21 -12 5 3 6 -3 3 -14 -5 -20 33 -55 49 -45 5 3 7 0 6 -8 -2 -8 5 -12 20 -11 15 2 21 -1 16 -8 -4 -8 1 -9 16 -4 14 4 20 3 16 -3 -8 -13 19 -23 41 -15 11 4 14 3 9 -5 -5 -8 1 -12 16 -12 16 0 19 3 10 9 -10 6 -7 12 13 25 14 9 30 14 34 11 14 -8 41 6 41 21 0 8 7 14 16 14 13 0 15 7 11 30 -4 17 -4 30 -1 30 10 0 68 -33 82 -46 7 -8 24 -14 38 -14 29 0 33 -31 9 -76 -8 -16 -15 -36 -14 -44 0 -13 21 23 23 42 1 3 4 10 9 14 4 4 7 18 7 32 0 21 4 23 24 18 18 -4 28 0 40 19 10 16 26 25 41 25 23 0 25 3 21 35 -7 52 -13 56 -52 35 -41 -24 -82 -25 -131 -5 -19 8 -42 15 -50 15 -13 0 -13 -3 -3 -15 14 -16 10 -18 -34 -15 -28 2 -61 19 -96 48 -8 7 -30 24 -47 38 -18 14 -33 32 -33 39 0 8 -4 17 -10 20 -5 3 -10 3 -10 -2z"/>
<path d="M1666 156 c3 -8 16 -22 30 -30 31 -21 22 3 -11 27 -19 14 -23 14 -19 3z"/>
</g>
<g id="layer116" fill="#c38aff" stroke="none">
<path d="M1211 2650 c-25 -21 -51 -26 -51 -10 0 6 -7 10 -15 10 -8 0 -15 -9 -15 -20 0 -10 -5 -31 -12 -45 -8 -18 -8 -31 0 -49 8 -19 7 -34 -6 -70 -10 -25 -21 -48 -25 -52 -4 -4 -7 -15 -7 -24 0 -10 -9 -29 -20 -42 -10 -14 -16 -29 -12 -32 4 -4 0 -6 -8 -4 -8 2 -14 -4 -15 -12 0 -8 -7 -15 -15 -15 -27 -1 -60 -16 -55 -26 3 -5 -1 -6 -10 -3 -12 5 -16 2 -13 -12 2 -15 -2 -18 -23 -16 -39 4 -129 -96 -129 -143 0 -18 -14 -67 -30 -108 -17 -42 -30 -84 -30 -94 0 -20 -34 -63 -50 -63 -6 0 -10 -5 -10 -11 0 -5 6 -7 13 -3 6 4 3 -2 -8 -13 -11 -11 -23 -19 -27 -16 -5 2 -8 -1 -8 -7 0 -6 -5 -8 -10 -5 -5 3 -10 1 -10 -4 0 -6 5 -11 11 -11 6 0 8 -7 5 -16 -3 -8 0 -25 6 -37 7 -12 11 -25 10 -29 -1 -5 3 -8 9 -8 7 0 9 -10 5 -25 -5 -18 -2 -27 9 -31 8 -4 14 -13 13 -22 -2 -8 3 -17 11 -20 8 -2 11 0 7 6 -3 5 1 12 9 15 9 4 17 -2 21 -16 4 -12 12 -25 18 -29 7 -5 4 -8 -6 -8 -22 0 -23 -7 -4 -26 17 -16 36 -19 36 -4 0 6 9 10 19 10 11 0 23 4 26 10 7 11 59 4 92 -12 28 -14 51 -5 62 25 5 12 16 29 24 36 11 8 13 19 8 34 -15 43 -4 56 45 52 35 -2 44 1 40 11 -3 7 0 17 7 21 27 18 36 49 24 84 -7 19 -16 40 -20 47 -11 17 -17 67 -22 180 -2 51 -6 128 -9 172 -5 60 -3 80 6 80 9 0 9 3 0 12 -16 16 -15 33 2 71 7 18 18 44 24 60 7 15 19 27 29 27 14 0 15 2 4 9 -11 7 -11 15 -2 43 11 32 14 35 49 32 53 -3 52 -3 46 -19 -8 -20 36 -14 49 6 11 18 -9 99 -24 99 -7 0 -8 14 -4 40 8 45 1 48 -34 20z"/>
</g>
<g id="layer117" fill="#ff8ac3" stroke="none">
<path d="M1211 2650 c-25 -21 -51 -26 -51 -10 0 6 -7 10 -15 10 -8 0 -15 -9 -15 -20 0 -10 -5 -31 -12 -45 -8 -18 -8 -31 0 -49 8 -19 7 -34 -6 -70 -10 -25 -21 -48 -25 -52 -4 -4 -7 -15 -7 -24 0 -10 -9 -29 -20 -42 -10 -14 -16 -29 -12 -32 4 -4 0 -6 -8 -4 -8 2 -14 -4 -15 -12 0 -8 -7 -15 -15 -15 -27 -1 -60 -16 -55 -26 3 -5 -1 -6 -10 -3 -12 5 -16 2 -13 -12 2 -15 -2 -18 -23 -16 -39 4 -129 -96 -129 -143 0 -18 -14 -67 -30 -108 -17 -42 -30 -84 -30 -94 0 -20 -34 -63 -50 -63 -6 0 -10 -5 -10 -12 0 -6 3 -9 6 -5 3 3 15 -3 27 -14 11 -10 29 -19 39 -19 10 0 23 -10 29 -22 17 -38 55 -61 79 -48 11 6 20 17 20 25 0 17 16 20 25 5 4 -6 14 -10 23 -9 30 3 43 -1 38 -10 -3 -5 5 -25 18 -44 13 -19 22 -38 19 -40 -2 -3 0 -14 5 -24 8 -15 6 -22 -9 -31 -10 -7 -19 -21 -19 -32 0 -29 -27 -36 -60 -16 -30 17 -75 21 -84 7 -9 -14 -65 -19 -59 -5 2 7 0 15 -6 19 -6 3 -11 15 -11 25 0 27 -18 34 -46 20 -22 -12 -24 -30 -3 -30 6 0 8 4 5 9 -3 5 1 11 9 14 9 4 17 -2 21 -16 4 -12 12 -25 18 -29 7 -5 4 -8 -6 -8 -22 0 -23 -7 -4 -26 17 -16 36 -19 36 -4 0 6 9 10 19 10 11 0 23 4 26 10 7 11 59 4 92 -12 28 -14 51 -5 62 25 5 12 16 29 24 36 11 8 13 19 8 34 -15 43 -4 56 45 52 35 -2 44 1 40 11 -3 7 0 17 7 21 27 18 36 49 24 84 -7 19 -16 40 -20 47 -11 17 -17 67 -22 180 -2 51 -6 128 -9 172 -5 60 -3 80 6 80 9 0 9 3 0 12 -16 16 -15 33 2 71 7 18 18 44 24 60 7 15 19 27 29 27 14 0 15 2 4 9 -11 7 -11 15 -2 43 11 32 14 35 49 32 53 -3 52 -3 46 -19 -8 -20 36 -14 49 6 11 18 -9 99 -24 99 -7 0 -8 14 -4 40 8 45 1 48 -34 20z"/>
<path d="M755 1455 c-5 -2 -22 -6 -37 -9 -19 -4 -28 -13 -28 -26 0 -11 5 -20 10 -20 6 0 10 -7 10 -16 0 -8 -4 -12 -10 -9 -20 12 -10 -34 13 -57 15 -16 17 -17 7 -3 -15 20 -15 20 7 1 16 -13 21 -26 17 -41 -3 -14 1 -27 13 -36 17 -13 17 -13 3 6 -14 19 -14 19 3 6 9 -7 16 -21 15 -29 -3 -14 9 -16 77 -13 44 2 87 6 95 11 26 13 124 21 140 10 13 -8 13 -10 -1 -10 -22 0 -29 -21 -22 -63 3 -22 -1 -46 -12 -67 -13 -24 -14 -35 -5 -40 19 -12 7 -45 -18 -48 -12 -2 -30 -16 -39 -30 -9 -15 -18 -29 -20 -31 -2 -2 -13 4 -25 15 l-22 19 21 -30 c12 -17 33 -57 47 -88 14 -31 30 -57 36 -57 6 0 8 -5 5 -10 -4 -6 11 -27 33 -48 21 -20 37 -43 34 -50 -2 -6 1 -12 7 -12 6 0 8 -7 5 -15 -4 -8 -1 -15 6 -15 6 0 8 -4 5 -10 -3 -5 -1 -10 5 -10 6 0 8 -5 4 -12 -5 -8 -2 -9 9 -5 11 4 17 1 17 -8 0 -8 5 -15 11 -15 5 0 7 -5 3 -11 -5 -8 1 -10 19 -5 14 3 27 1 29 -4 2 -5 17 2 33 16 17 15 42 31 58 36 15 6 27 15 27 21 0 6 15 -2 33 -19 23 -21 21 -17 -8 14 -21 23 -45 42 -52 42 -8 0 -16 8 -20 18 -3 9 -13 25 -20 34 -8 9 -12 21 -9 26 3 5 -3 17 -14 27 -27 24 -25 43 5 51 26 6 32 18 15 29 -5 3 -7 25 -5 49 3 31 0 48 -10 56 -8 7 -15 18 -15 25 0 12 61 65 76 65 4 0 12 8 19 17 13 18 9 53 -7 53 -6 0 -8 9 -5 19 3 12 -1 22 -9 25 -8 3 -14 19 -14 36 0 16 -3 29 -7 28 -20 -5 -53 15 -53 32 0 11 -9 24 -21 31 -17 9 -20 17 -15 43 8 40 -2 51 -25 30 -24 -21 -42 -8 -36 25 3 15 1 33 -4 41 -7 11 -8 9 -7 -10 3 -22 0 -25 -24 -22 -16 2 -28 0 -28 -5 0 -5 -18 -8 -39 -8 -25 0 -47 -8 -60 -19 -20 -18 -23 -18 -73 -2 -28 9 -67 28 -85 42 -18 14 -33 22 -33 18 0 -4 -6 -1 -12 8 -7 9 -17 14 -23 13z"/>
</g>
<g id="layer118" fill="#f0aeae" stroke="none">
<path d="M1211 2650 c-25 -21 -51 -26 -51 -10 0 6 -7 10 -15 10 -9 0 -15 -6 -13 -12 1 -7 -3 -28 -11 -46 -10 -25 -11 -39 -3 -57 8 -18 7 -34 -6 -69 -10 -25 -21 -48 -25 -52 -4 -4 -7 -15 -7 -24 0 -10 -9 -29 -20 -42 -10 -14 -16 -29 -12 -32 4 -4 0 -6 -8 -4 -8 2 -14 -4 -15 -12 0 -8 -7 -15 -15 -15 -27 -1 -60 -16 -55 -26 3 -5 -1 -6 -10 -3 -12 5 -16 2 -13 -12 2 -15 -2 -18 -23 -16 -39 4 -129 -96 -129 -143 0 -18 -14 -67 -30 -108 -17 -42 -30 -84 -30 -94 0 -20 -34 -63 -50 -63 -6 0 -10 -5 -10 -12 0 -6 3 -9 6 -5 3 3 15 -3 27 -14 11 -10 29 -19 39 -19 10 0 23 -10 29 -22 17 -38 55 -61 79 -48 11 6 20 17 20 25 0 17 16 20 25 5 4 -6 14 -10 23 -9 30 3 43 -1 38 -10 -3 -5 5 -25 18 -44 13 -19 22 -38 19 -40 -2 -3 0 -14 5 -24 8 -15 6 -22 -9 -31 -10 -7 -19 -21 -19 -32 0 -29 -27 -36 -60 -16 -30 17 -75 21 -84 7 -9 -14 -65 -19 -59 -5 2 7 0 15 -6 19 -6 3 -11 15 -11 25 0 27 -18 34 -46 20 -22 -12 -24 -30 -3 -30 6 0 8 4 5 9 -3 5 1 11 9 14 9 4 17 -2 21 -16 4 -12 12 -25 18 -29 7 -5 4 -8 -6 -8 -22 0 -23 -7 -4 -26 17 -16 36 -19 36 -4 0 6 9 10 19 10 11 0 23 4 26 10 7 11 59 4 92 -12 28 -14 51 -5 62 25 5 12 16 29 24 36 11 8 13 19 8 34 -15 43 -4 56 45 52 35 -2 44 1 40 11 -3 7 0 17 7 21 27 18 36 49 24 84 -7 19 -16 40 -20 47 -11 17 -17 67 -22 180 -2 51 -6 128 -9 172 -5 60 -3 80 6 80 9 0 9 3 0 12 -16 16 -15 33 2 71 7 18 18 44 24 60 7 15 19 27 29 27 14 0 15 2 4 9 -11 7 -11 15 -2 43 11 32 14 35 49 32 53 -3 52 -3 46 -19 -7 -16 19 -17 44 -2 14 9 17 47 3 47 -5 0 -7 8 -4 19 2 10 -3 25 -12 34 -12 12 -14 26 -9 52 7 40 -1 43 -35 15z"/>
<path d="M755 1455 c-5 -2 -22 -6 -37 -9 -19 -4 -28 -13 -28 -26 0 -11 5 -20 10 -20 6 0 10 -7 10 -16 0 -8 -4 -12 -10 -9 -20 12 -10 -34 13 -57 15 -16 17 -17 7 -3 -15 20 -15 20 7 1 16 -13 21 -26 17 -41 -3 -14 1 -27 13 -36 17 -13 17 -13 3 6 -14 19 -14 19 3 6 9 -7 16 -21 15 -29 -3 -14 9 -16 77 -13 44 2 87 6 95 11 24 12 116 21 135 13 18 -6 17 -7 -1 -14 -14 -6 -9 -8 21 -9 22 -2 45 -1 50 0 6 1 24 2 42 2 18 0 39 8 49 19 10 11 12 19 6 19 -7 0 -12 9 -12 20 0 10 -9 24 -21 31 -17 9 -20 17 -15 43 8 40 -2 51 -25 30 -24 -21 -42 -8 -36 25 3 15 1 33 -4 41 -7 11 -8 9 -7 -10 3 -22 0 -25 -24 -22 -16 2 -28 0 -28 -5 0 -5 -18 -8 -39 -8 -25 0 -47 -8 -60 -19 -20 -18 -23 -18 -73 -2 -28 9 -67 28 -85 42 -18 14 -33 22 -33 18 0 -4 -6 -1 -12 8 -7 9 -17 14 -23 13z"/>
<path d="M1071 1142 c-1 -13 -8 -37 -17 -54 -12 -23 -13 -32 -4 -38 19 -12 7 -45 -18 -48 -12 -2 -30 -16 -39 -30 -9 -15 -18 -29 -20 -31 -2 -2 -13 4 -25 15 l-22 19 21 -30 c12 -17 33 -57 47 -88 14 -31 30 -57 36 -57 6 0 8 -5 5 -10 -4 -6 11 -27 33 -48 21 -20 37 -43 34 -50 -2 -6 1 -12 7 -12 6 0 8 -7 5 -15 -4 -8 -1 -15 6 -15 6 0 8 -4 5 -10 -3 -5 -1 -10 5 -10 6 0 8 -5 4 -12 -5 -8 -2 -9 9 -5 11 4 17 1 17 -8 0 -8 5 -15 11 -15 5 0 7 -5 3 -11 -5 -8 1 -10 19 -5 14 3 27 1 29 -4 2 -5 17 2 33 16 17 15 42 31 58 36 15 6 27 15 27 21 0 6 15 -2 33 -19 23 -21 21 -17 -8 14 -21 23 -45 42 -52 42 -8 0 -18 11 -23 24 -5 13 -14 27 -20 31 -6 4 -9 13 -6 20 2 7 -4 21 -15 31 -26 23 -24 42 6 50 26 6 32 18 15 29 -5 3 -7 25 -5 49 3 31 0 48 -10 56 -22 18 -19 32 13 60 15 14 23 22 17 19 -5 -3 -24 -9 -41 -12 -25 -5 -36 -1 -54 19 -18 18 -34 24 -67 24 -24 0 -42 3 -39 8 2 4 1 23 -4 42 -6 25 -8 28 -9 12z"/>
<path d="M1480 533 c0 -4 -14 -16 -30 -25 -35 -20 -40 -53 -10 -63 31 -10 24 -23 -16 -31 -22 -4 -38 -14 -41 -24 -3 -12 -12 -15 -36 -12 -29 5 -31 3 -18 -11 7 -9 17 -15 21 -12 5 3 6 -3 3 -14 -5 -20 33 -55 49 -45 5 3 7 0 6 -8 -2 -8 5 -12 20 -11 15 2 21 -1 16 -8 -4 -8 1 -9 16 -4 14 4 20 3 16 -3 -8 -13 19 -23 41 -15 11 4 14 3 9 -5 -5 -8 1 -12 16 -12 19 0 20 2 8 10 -13 9 -13 11 0 20 8 6 26 13 40 16 48 11 52 13 45 34 -4 11 -2 20 4 20 6 0 11 -4 11 -10 0 -5 5 -10 11 -10 7 0 9 11 6 30 -8 38 7 39 57 5 20 -14 43 -25 51 -25 35 0 43 -11 35 -46 -5 -19 -4 -32 1 -28 5 3 9 17 9 31 0 22 3 24 24 19 18 -4 28 0 40 19 10 16 26 25 41 25 23 0 25 3 21 35 -7 52 -13 56 -52 35 -41 -24 -82 -25 -131 -5 -19 8 -42 15 -50 15 -13 0 -13 -3 -3 -15 14 -16 10 -18 -34 -15 -28 2 -61 19 -96 48 -8 7 -30 24 -47 38 -18 14 -33 32 -33 39 0 8 -4 17 -10 20 -5 3 -10 3 -10 -2z"/>
</g>
<g id="layer119" fill="#89ffc9" stroke="none">
<path d="M1211 2650 c-25 -21 -51 -26 -51 -10 0 6 -7 10 -15 10 -9 0 -15 -6 -13 -12 1 -7 -3 -28 -11 -46 -10 -25 -11 -39 -3 -57 8 -18 7 -34 -6 -69 -10 -25 -21 -48 -25 -52 -4 -4 -7 -15 -7 -24 0 -10 -9 -29 -20 -42 -10 -14 -16 -29 -12 -32 4 -4 0 -6 -8 -4 -8 2 -14 -4 -15 -12 0 -8 -7 -15 -15 -15 -27 -1 -60 -16 -55 -26 3 -5 -1 -6 -10 -3 -12 5 -16 2 -13 -12 2 -15 -2 -18 -23 -16 -39 4 -129 -96 -129 -143 0 -18 -14 -67 -30 -108 -17 -42 -30 -84 -30 -94 0 -20 -34 -63 -50 -63 -6 0 -10 -5 -10 -12 0 -6 3 -9 6 -5 3 3 15 -3 27 -14 11 -10 29 -19 39 -19 10 0 23 -10 29 -22 17 -38 55 -61 79 -48 11 6 20 17 20 25 0 17 16 20 25 5 4 -6 14 -10 23 -9 30 3 43 -1 38 -10 -3 -5 5 -24 17 -43 13 -18 22 -40 19 -48 -3 -13 -2 -13 6 -1 6 8 8 20 6 26 -5 13 30 27 40 17 12 -12 56 -8 52 5 -3 7 0 16 7 20 27 18 36 49 24 84 -7 19 -16 40 -20 47 -11 17 -17 67 -22 180 -2 51 -6 128 -9 172 -5 60 -3 80 6 80 9 0 9 3 0 12 -16 16 -15 33 2 71 7 18 18 44 24 60 7 15 19 27 29 27 14 0 15 2 4 9 -11 7 -11 15 -2 43 11 32 14 35 49 32 53 -3 52 -3 46 -19 -7 -16 19 -17 44 -2 14 9 17 47 3 47 -5 0 -7 8 -4 19 2 10 -3 25 -12 34 -12 12 -14 26 -9 52 7 40 -1 43 -35 15z"/>
<path d="M1071 1142 c-1 -13 -8 -37 -17 -54 -12 -23 -13 -32 -4 -38 19 -12 7 -45 -18 -48 -12 -2 -30 -16 -39 -30 -9 -15 -18 -29 -20 -31 -2 -2 -13 4 -25 15 l-22 19 21 -30 c12 -17 33 -57 47 -88 14 -31 30 -57 36 -57 6 0 8 -5 5 -10 -4 -6 11 -27 33 -48 21 -20 37 -43 34 -50 -2 -6 1 -12 7 -12 6 0 8 -7 5 -15 -4 -8 -1 -15 6 -15 6 0 8 -4 5 -10 -3 -5 -1 -10 5 -10 6 0 8 -5 4 -12 -5 -8 -2 -9 9 -5 11 4 17 1 17 -8 0 -8 5 -15 11 -15 5 0 7 -5 3 -11 -5 -9 1 -10 20 -5 17 4 26 2 26 -5 0 -7 10 -1 23 12 12 14 37 31 54 38 25 10 32 19 31 37 -1 13 -8 24 -15 24 -8 0 -18 11 -23 24 -5 13 -14 27 -20 31 -6 4 -9 13 -6 20 2 7 -4 21 -15 31 -26 23 -24 42 6 50 26 6 32 18 15 29 -5 3 -7 25 -5 49 3 31 0 48 -10 56 -22 18 -19 32 13 60 15 14 23 22 17 19 -5 -3 -24 -9 -41 -12 -25 -5 -36 -1 -54 19 -18 18 -34 24 -67 24 -24 0 -42 3 -39 8 2 4 1 23 -4 42 -6 25 -8 28 -9 12z"/>
</g>
<g id="layer120" fill="#c6c6c6" stroke="none">
<path d="M1211 2650 c-25 -21 -51 -26 -51 -10 0 6 -7 10 -15 10 -9 0 -15 -6 -13 -12 1 -7 -3 -28 -11 -46 -10 -25 -11 -39 -3 -57 8 -18 7 -34 -6 -69 -10 -25 -21 -48 -25 -52 -4 -4 -7 -15 -7 -24 0 -10 -9 -29 -20 -42 -10 -14 -16 -29 -12 -32 4 -4 0 -6 -8 -4 -8 2 -14 -4 -15 -12 0 -8 -7 -15 -15 -15 -27 -1 -60 -16 -55 -26 3 -5 -1 -6 -10 -3 -12 5 -16 2 -13 -12 2 -14 -4 -18 -27 -18 -21 -1 -29 -5 -27 -16 2 -8 0 -12 -4 -8 -10 11 -35 -12 -27 -25 3 -6 1 -7 -5 -3 -6 3 -22 -8 -35 -26 -19 -24 -25 -44 -24 -75 1 -22 0 -40 -3 -38 -10 6 -52 -113 -45 -126 5 -8 4 -10 -3 -5 -8 5 -12 -1 -12 -17 0 -23 -33 -67 -50 -67 -6 0 -10 -5 -10 -12 0 -6 3 -9 6 -5 3 3 15 -3 27 -14 11 -10 29 -19 39 -19 10 0 23 -10 29 -22 17 -38 55 -61 79 -48 11 6 20 17 20 25 0 17 16 20 25 5 4 -6 14 -10 23 -9 30 3 43 -1 38 -10 -3 -5 5 -24 17 -43 13 -18 22 -40 19 -48 -3 -13 -2 -13 6 -1 6 8 8 20 6 26 -5 13 30 27 40 17 12 -12 56 -8 52 5 -3 7 0 16 7 20 27 18 36 49 24 84 -7 19 -16 40 -20 47 -11 17 -17 67 -22 180 -2 51 -6 128 -9 172 -5 60 -3 80 6 80 9 0 9 3 0 12 -16 16 -15 33 2 71 7 18 18 44 24 60 7 15 19 27 29 27 14 0 15 2 4 9 -11 7 -11 15 -2 43 11 32 14 35 49 32 53 -3 52 -3 46 -19 -7 -16 19 -17 44 -2 14 9 17 47 3 47 -5 0 -7 8 -4 19 2 10 -3 25 -12 34 -12 12 -14 26 -9 52 7 40 -1 43 -35 15z"/>
<path d="M1272 2440 c0 -19 2 -27 5 -17 2 9 2 25 0 35 -3 9 -5 1 -5 -18z"/>
<path d="M857 2344 c-3 -3 -3 -12 0 -20 4 -12 8 -12 21 -2 12 10 14 10 8 1 -4 -7 -2 -13 3 -13 14 0 14 13 -1 28 -13 13 -22 15 -31 6z"/>
<path d="M708 1443 c-19 -5 -25 -43 -8 -43 6 0 10 -7 10 -16 0 -8 -4 -12 -10 -9 -20 12 -10 -34 13 -57 15 -16 17 -17 7 -3 -15 20 -15 20 7 1 16 -13 21 -26 17 -41 -3 -14 1 -27 13 -36 17 -13 17 -13 3 6 -14 19 -14 19 3 6 9 -7 16 -21 15 -29 -3 -14 9 -16 77 -13 44 2 87 6 95 11 24 12 116 21 135 13 18 -6 17 -7 -1 -14 -14 -6 -9 -8 21 -9 22 -2 45 -1 50 0 6 1 24 2 42 2 18 0 39 8 49 19 10 11 12 19 6 19 -7 0 -12 9 -12 20 0 10 -9 24 -21 31 -17 9 -20 17 -15 43 8 40 -2 51 -25 30 -20 -18 -39 -11 -39 13 0 13 -8 15 -46 9 -26 -3 -57 -6 -70 -6 -12 0 -30 -7 -39 -16 -28 -29 -135 2 -193 56 -20 19 -46 23 -84 13z"/>
<path d="M230 1431 c0 -5 -10 -11 -22 -14 -16 -5 -19 -9 -11 -19 6 -7 13 -22 16 -33 5 -20 5 -20 6 1 0 11 -4 25 -11 32 -9 9 -8 12 7 13 11 1 23 1 26 1 3 -1 6 6 6 14 0 8 -4 14 -9 14 -4 0 -8 -4 -8 -9z"/>
<path d="M265 1419 c-4 -6 -5 -13 -2 -16 7 -7 27 6 27 18 0 12 -17 12 -25 -2z"/>
<path d="M280 1380 c-12 -7 -12 -10 3 -16 21 -8 29 -3 19 13 -5 8 -13 9 -22 3z"/>
<path d="M243 1362 c1 -15 8 -22 22 -22 15 0 17 2 6 9 -7 5 -17 15 -22 22 -6 10 -8 7 -6 -9z"/>
<path d="M1291 1209 c0 -9 5 -29 13 -43 10 -20 15 -23 19 -12 3 8 0 17 -8 20 -7 2 -15 15 -18 28 -2 13 -5 16 -6 7z"/>
<path d="M1071 1142 c-1 -13 -8 -37 -17 -54 -12 -23 -13 -32 -4 -38 19 -12 7 -45 -18 -48 -12 -2 -30 -16 -39 -30 -9 -15 -18 -29 -20 -31 -2 -2 -13 4 -25 15 l-22 19 21 -30 c12 -17 33 -57 47 -88 22 -51 40 -75 33 -46 -1 6 5 14 13 19 8 4 30 15 48 24 35 19 72 14 72 -10 0 -18 8 -18 43 1 22 11 34 12 49 4 23 -13 35 -5 20 13 -6 8 -9 32 -7 55 3 28 0 45 -10 53 -22 18 -19 32 13 60 15 14 23 22 17 19 -5 -3 -24 -9 -41 -12 -25 -5 -36 -1 -54 19 -18 18 -34 24 -67 24 -24 0 -42 3 -39 8 2 4 1 23 -4 42 -6 25 -8 28 -9 12z"/>
<path d="M1822 1058 c-18 -18 -14 -43 11 -64 22 -19 22 -19 5 2 -21 24 -23 45 -6 62 7 7 10 12 7 12 -3 0 -10 -5 -17 -12z"/>
<path d="M1840 953 c0 -5 12 -20 28 -34 l27 -24 -25 30 c-14 17 -26 32 -27 34 -2 2 -3 0 -3 -6z"/>
<path d="M1223 824 c-3 -8 0 -21 6 -27 9 -9 11 -8 5 7 -4 11 -2 21 7 27 10 6 11 9 1 9 -7 0 -15 -7 -19 -16z"/>
<path d="M1934 807 c3 -10 6 -25 6 -32 0 -7 11 -23 24 -36 13 -13 22 -28 19 -35 -2 -6 3 -14 13 -18 13 -5 14 -4 6 7 -7 8 -10 16 -7 19 3 2 -6 15 -20 28 -14 13 -25 31 -25 39 0 9 -5 23 -11 31 -9 12 -10 12 -5 -3z"/>
<path d="M1277 713 c3 -10 15 -28 26 -40 20 -22 16 -43 -8 -43 -15 0 -75 -50 -75 -64 0 -5 10 2 23 15 12 14 37 31 54 38 25 10 32 19 31 37 -1 13 -8 24 -15 24 -8 0 -18 11 -23 25 -11 28 -23 35 -13 8z"/>
<path d="M1463 511 c-34 -17 -47 -61 -18 -61 28 0 15 -26 -20 -39 -19 -7 -35 -19 -35 -28 0 -11 -8 -14 -35 -11 -27 3 -32 1 -23 -9 5 -7 14 -11 18 -8 5 3 6 -3 3 -14 -5 -20 33 -55 49 -45 5 3 7 0 6 -8 -2 -8 5 -12 20 -11 15 2 21 -1 16 -8 -4 -8 1 -9 16 -4 14 4 20 3 16 -3 -8 -13 19 -23 41 -15 11 4 14 3 9 -5 -5 -8 1 -12 16 -12 19 0 20 2 8 10 -13 9 -13 11 0 20 8 6 26 13 40 16 48 11 52 13 45 34 -4 11 -2 20 4 20 6 0 11 -4 11 -10 0 -5 5 -10 11 -10 7 0 9 11 6 30 -8 38 7 39 57 5 20 -14 43 -25 51 -25 35 0 43 -11 35 -46 -5 -19 -4 -32 1 -28 5 3 9 17 9 31 0 22 3 24 24 19 18 -4 28 0 40 19 10 16 26 25 41 25 23 0 25 3 21 35 -7 52 -13 56 -52 35 -41 -24 -82 -25 -131 -5 -19 8 -42 15 -50 15 -13 0 -13 -3 -3 -15 14 -16 10 -18 -34 -15 -29 2 -64 20 -97 50 -10 8 -29 23 -44 33 -14 11 -29 27 -33 37 -7 16 -9 16 -39 1z"/>
<path d="M2065 339 c-18 -9 -18 -9 3 -5 13 3 26 -2 32 -12 5 -10 10 -12 10 -6 0 20 -24 32 -45 23z"/>
</g>
<g id="layer121" fill="#c9ff8a" stroke="none">
<path d="M863 2206 c-12 -13 -18 -28 -15 -32 4 -4 2 -4 -5 0 -22 12 -61 -54 -60 -101 1 -22 0 -40 -3 -38 -10 6 -52 -113 -45 -126 5 -8 4 -10 -3 -5 -8 5 -12 -1 -12 -17 0 -23 -33 -67 -50 -67 -6 0 -10 -5 -10 -12 0 -6 3 -9 6 -5 3 3 15 -3 27 -14 11 -10 29 -19 39 -19 10 0 23 -10 29 -22 17 -38 55 -61 79 -48 11 6 20 17 20 25 0 17 16 20 25 5 4 -6 14 -10 23 -9 30 3 43 -1 38 -10 -3 -5 5 -24 17 -43 13 -18 22 -40 19 -48 -3 -13 -2 -13 6 -1 6 8 8 20 6 26 -6 14 33 28 41 15 2 -4 16 -5 30 -3 13 3 22 9 20 14 -3 4 0 11 7 16 24 15 41 54 29 66 -6 6 -11 20 -11 32 0 12 -5 26 -11 32 -10 10 -16 44 -18 96 -1 10 -9 17 -19 17 -11 0 -27 9 -38 21 -13 15 -26 19 -46 15 -25 -5 -28 -2 -34 29 -3 18 -3 39 1 45 4 6 1 17 -5 25 -8 9 -10 28 -6 51 4 19 3 41 -2 47 -6 7 -12 23 -14 37 -4 33 -29 36 -55 6z"/>
<path d="M1071 1142 c-1 -13 -8 -37 -17 -54 -15 -29 -15 -32 0 -40 23 -13 5 -43 -34 -56 -16 -6 -30 -15 -30 -19 0 -4 -4 -15 -10 -23 -7 -12 -12 -11 -31 5 l-23 20 21 -30 c12 -17 33 -57 47 -88 22 -51 40 -75 33 -46 -1 6 5 14 13 19 8 4 30 15 48 24 35 19 72 14 72 -10 0 -18 8 -18 43 1 22 11 34 12 49 4 24 -13 35 -5 19 15 -7 8 -9 31 -6 55 2 22 1 41 -4 41 -13 0 -22 30 -16 51 4 11 12 19 19 19 8 0 20 8 27 18 12 15 12 16 -1 6 -8 -6 -29 -14 -46 -17 -25 -5 -36 -1 -54 19 -18 18 -34 24 -67 24 -24 0 -42 3 -39 8 2 4 1 23 -4 42 -6 25 -8 28 -9 12z"/>
</g>
<g id="layer122" fill="#dfb5db" stroke="none">
<path d="M1211 2650 c-25 -21 -51 -26 -51 -10 0 6 -7 10 -15 10 -9 0 -15 -6 -13 -12 1 -7 -3 -28 -11 -46 -10 -25 -11 -39 -3 -57 8 -18 7 -34 -6 -69 -10 -25 -21 -48 -25 -52 -4 -4 -7 -15 -7 -25 0 -10 -15 -35 -32 -56 -18 -21 -25 -32 -16 -25 9 8 21 11 26 8 5 -3 17 18 27 46 11 32 25 53 37 56 14 3 16 7 8 12 -10 6 -10 16 -1 42 11 32 14 35 49 32 53 -3 52 -3 46 -19 -7 -16 19 -17 44 -2 14 9 17 47 3 47 -5 0 -7 8 -4 19 2 10 -3 25 -12 34 -12 12 -14 26 -9 52 7 40 -1 43 -35 15z"/>
<path d="M863 2206 c-12 -13 -18 -28 -15 -32 4 -4 2 -4 -5 0 -22 12 -61 -54 -60 -101 1 -22 0 -40 -3 -38 -10 6 -52 -113 -45 -126 5 -8 4 -10 -3 -5 -8 5 -12 -1 -12 -17 0 -23 -33 -67 -50 -67 -6 0 -10 -5 -10 -12 0 -6 3 -9 6 -5 3 3 15 -3 27 -14 11 -10 29 -19 39 -19 10 0 23 -10 29 -22 17 -38 55 -61 79 -48 11 6 20 17 20 25 0 17 16 20 25 5 4 -6 14 -10 23 -9 30 3 43 -1 38 -10 -3 -5 5 -24 17 -43 13 -18 22 -40 19 -48 -3 -13 -2 -13 6 -1 6 8 8 20 6 26 -6 14 30 27 43 15 4 -4 19 -3 33 1 24 8 24 9 -3 5 -24 -3 -30 2 -42 32 -8 19 -15 47 -15 62 0 20 -10 35 -35 54 -19 15 -42 41 -51 57 -9 18 -21 29 -29 25 -16 -6 -40 47 -31 70 5 14 9 14 22 3 13 -11 17 -10 25 4 14 23 29 21 29 -4 0 -17 4 -20 28 -14 20 4 36 0 54 -15 14 -11 31 -20 36 -20 6 0 13 -6 15 -12 3 -8 6 -6 6 5 1 10 -6 17 -17 17 -11 0 -27 9 -38 21 -13 15 -26 19 -46 15 -25 -5 -28 -2 -34 29 -3 18 -3 39 1 45 4 6 1 17 -5 25 -8 9 -10 28 -6 51 4 19 3 41 -2 47 -6 7 -12 23 -14 37 -4 33 -29 36 -55 6z"/>
<path d="M687 1586 c-10 -8 -14 -17 -9 -20 6 -3 12 1 16 9 8 22 36 18 36 -4 0 -11 5 -23 11 -27 8 -5 8 -8 0 -14 -13 -8 -4 -40 11 -40 6 0 8 6 5 14 -4 10 0 12 14 9 11 -3 30 -1 42 5 12 6 33 13 47 15 21 4 20 5 -7 6 -17 0 -35 -3 -38 -9 -3 -5 -16 -10 -29 -10 -21 0 -35 18 -50 63 -6 20 -24 21 -49 3z"/>
<path d="M992 1595 c5 -5 -1 -14 -12 -22 -11 -8 -20 -23 -20 -34 0 -11 -10 -24 -22 -29 -20 -9 -20 -10 -3 -7 11 1 26 16 34 32 8 17 21 35 29 41 13 9 13 12 1 19 -8 5 -11 5 -7 0z"/>
<path d="M1231 1237 c-6 -8 -25 -14 -42 -15 -17 0 -33 -3 -36 -6 -3 -2 -15 -1 -27 3 -11 5 -30 5 -41 0 -15 -6 -11 -8 20 -9 22 -2 45 -1 50 0 6 1 24 2 42 2 30 0 63 22 51 33 -3 3 -10 -1 -17 -8z"/>
<path d="M1071 1142 c-1 -13 -8 -37 -17 -54 -15 -29 -15 -32 0 -40 23 -13 5 -43 -34 -56 -16 -6 -30 -15 -30 -19 0 -4 -4 -15 -10 -23 -7 -12 -12 -11 -31 5 -21 19 -21 19 2 -17 13 -20 28 -34 33 -31 5 4 6 1 2 -5 -7 -11 27 -102 38 -102 3 0 5 5 3 11 -1 6 5 14 13 19 8 4 30 15 48 24 35 19 72 14 72 -10 0 -18 8 -18 43 1 22 11 34 12 49 4 24 -13 35 -5 19 15 -7 8 -9 31 -6 55 2 22 1 41 -4 41 -13 0 -22 30 -16 51 4 11 12 19 19 19 8 0 20 8 27 18 12 15 12 16 -1 6 -8 -6 -29 -14 -46 -17 -25 -5 -36 -1 -54 19 -18 18 -34 24 -67 24 -24 0 -42 3 -39 8 2 4 1 23 -4 42 -6 25 -8 28 -9 12z"/>
<path d="M1892 408 c-39 -24 -90 -26 -133 -4 -41 20 -47 20 -45 -1 0 -10 -5 -18 -11 -18 -7 0 -13 -4 -13 -8 -1 -11 67 -57 85 -57 27 0 44 -12 38 -28 -4 -13 -3 -14 5 -3 6 8 18 11 29 7 15 -5 25 0 37 19 10 16 26 25 41 25 23 0 25 3 21 36 -6 50 -15 55 -54 32z"/>
</g>
<g id="layer123" fill="#d9e3b4" stroke="none">
<path d="M863 2206 c-12 -13 -18 -28 -15 -32 4 -4 2 -4 -5 0 -22 12 -61 -54 -60 -101 1 -22 0 -40 -3 -38 -10 6 -52 -113 -45 -126 5 -8 4 -10 -3 -5 -8 5 -12 -1 -12 -17 0 -25 -33 -67 -52 -67 -7 0 3 -11 22 -25 19 -14 42 -25 52 -25 10 0 18 -6 18 -13 0 -21 50 -58 73 -55 14 2 23 11 25 26 4 26 17 29 26 6 3 -8 14 -14 23 -13 33 3 39 -1 53 -36 15 -38 15 -38 45 -26 11 5 25 5 30 1 6 -4 21 -3 35 1 24 8 24 9 -3 5 -24 -3 -30 2 -42 32 -8 19 -15 47 -15 62 0 20 -10 35 -35 54 -19 15 -42 41 -51 57 -9 18 -21 29 -29 25 -16 -6 -40 47 -31 70 5 14 9 14 22 3 13 -11 17 -10 25 4 14 23 29 21 29 -4 0 -17 4 -20 28 -14 20 4 36 0 54 -15 14 -11 31 -20 36 -20 6 0 13 -6 15 -12 3 -8 6 -6 6 5 1 10 -6 17 -17 17 -11 0 -27 9 -38 21 -13 15 -26 19 -46 15 -25 -5 -28 -2 -34 29 -3 18 -3 39 1 45 4 6 1 17 -5 25 -8 9 -10 28 -6 51 4 19 3 41 -2 47 -6 7 -12 23 -14 37 -4 33 -29 36 -55 6z"/>
<path d="M230 1431 c0 -5 -9 -11 -21 -14 -18 -5 -19 -8 -7 -26 7 -11 14 -18 17 -16 2 3 -2 11 -9 20 -10 12 -9 15 6 16 11 1 22 1 25 1 3 -1 6 6 6 14 0 8 -4 14 -9 14 -4 0 -8 -4 -8 -9z"/>
<path d="M304 1283 c9 -16 -4 -44 -17 -36 -6 3 -7 1 -3 -5 4 -7 11 -12 15 -12 14 0 21 44 9 55 -8 7 -9 6 -4 -2z"/>
<path d="M1055 1090 c-16 -30 -16 -34 -1 -42 23 -13 5 -43 -34 -56 -16 -6 -30 -15 -30 -19 0 -4 -4 -15 -10 -23 -7 -12 -12 -11 -31 5 -21 19 -21 19 2 -17 13 -20 28 -34 33 -31 5 4 6 1 2 -5 -7 -11 27 -102 38 -102 3 0 5 5 3 11 -1 6 5 14 13 19 8 4 30 15 48 24 35 19 72 14 72 -10 0 -18 8 -18 43 1 22 11 34 12 49 4 24 -13 35 -5 19 15 -6 7 -9 30 -7 51 3 25 0 43 -10 53 -10 9 -13 24 -10 38 5 20 2 24 -15 24 -12 0 -30 11 -40 24 -16 21 -26 24 -65 21 -34 -3 -44 -1 -41 9 3 7 2 19 -3 26 -6 9 -13 4 -25 -20z"/>
<path d="M1880 403 c-47 -25 -70 -24 -124 3 -38 18 -44 18 -42 -3 0 -10 -4 -18 -11 -18 -18 0 -28 -15 -10 -15 9 0 17 -4 17 -10 0 -5 6 -10 14 -10 8 0 16 -6 19 -14 3 -8 21 -16 39 -18 26 -2 32 -7 30 -23 -2 -15 0 -17 6 -6 6 8 18 11 29 7 15 -5 25 0 37 19 10 16 26 25 41 25 23 0 25 3 21 36 -3 20 -8 40 -13 43 -4 4 -28 -4 -53 -16z"/>
</g>
<g id="layer124" fill="#b3eddb" stroke="none">
<path d="M863 2206 c-12 -13 -18 -28 -15 -32 4 -4 2 -4 -5 0 -22 12 -61 -54 -60 -101 1 -22 0 -40 -3 -38 -10 6 -52 -113 -45 -126 6 -8 4 -10 -5 -4 -9 5 -10 2 -5 -14 5 -16 1 -27 -12 -37 -10 -9 -11 -12 -3 -8 13 7 13 5 1 -9 -7 -9 -16 -15 -20 -13 -4 3 -13 0 -21 -6 -13 -8 -12 -9 2 -5 10 4 18 -1 21 -14 3 -11 17 -22 35 -25 18 -4 32 -14 35 -26 3 -11 15 -22 26 -25 11 -3 18 -10 15 -15 -4 -5 6 -8 22 -6 21 2 30 9 32 26 4 24 18 30 25 10 2 -7 13 -14 25 -14 12 -1 26 -2 30 -3 5 0 14 -17 22 -36 8 -20 19 -33 24 -30 6 3 19 8 28 11 16 6 16 9 2 36 -9 17 -14 44 -12 59 3 18 0 29 -8 29 -15 0 -84 76 -84 93 0 8 -10 13 -22 13 -20 -1 -23 4 -23 39 0 32 3 39 17 37 35 -6 84 77 57 94 -7 4 -9 21 -5 46 4 22 2 45 -3 52 -5 6 -11 22 -13 36 -4 33 -29 36 -55 6z"/>
<path d="M1056 1092 c-20 -39 -20 -42 0 -42 11 0 14 -5 10 -16 -3 -9 -6 -19 -6 -24 0 -5 -14 -11 -30 -15 -17 -4 -35 -16 -41 -28 -17 -32 -17 -32 -40 -11 -22 19 -22 19 -8 -3 8 -13 17 -23 21 -23 5 0 8 -7 8 -16 0 -9 5 -12 12 -8 8 5 9 2 5 -9 -4 -10 -2 -17 4 -17 6 0 8 -7 5 -16 -4 -10 -2 -13 6 -8 8 5 9 2 5 -9 -3 -10 -2 -17 4 -17 6 0 8 -4 4 -9 -3 -5 0 -13 6 -17 7 -4 10 -3 6 2 -8 13 19 46 35 43 7 -2 23 2 36 9 26 15 62 7 62 -14 0 -17 12 -18 28 -2 7 7 12 8 12 4 0 -5 6 -3 14 3 11 10 20 10 36 1 28 -15 37 -6 16 15 -18 18 -20 28 -9 39 13 13 8 51 -9 70 -13 15 -15 23 -6 39 9 17 8 19 -6 14 -11 -4 -25 4 -42 22 -22 25 -32 29 -67 26 -44 -3 -66 3 -49 14 7 4 7 12 2 20 -6 11 -12 6 -24 -17z"/>
<path d="M1294 631 c-35 -18 -71 -51 -55 -51 5 0 14 6 18 13 4 7 23 19 41 26 17 8 32 17 32 22 0 5 -1 9 -2 8 -2 -1 -17 -9 -34 -18z"/>
</g>
<g id="layer125" fill="#dad9d3" stroke="none">
<path d="M1221 2657 c-6 -8 -7 -17 -3 -22 4 -4 0 -6 -8 -3 -8 3 -21 -2 -27 -11 -11 -14 -15 -13 -32 8 l-19 24 3 -27 c2 -15 -3 -39 -11 -54 -8 -16 -10 -28 -4 -30 6 -2 8 -8 4 -13 -3 -5 4 -9 15 -9 12 0 21 -4 21 -9 0 -5 16 -8 35 -6 24 2 35 -1 35 -10 0 -7 7 -15 15 -19 9 -3 15 0 15 10 0 8 5 12 10 9 6 -3 10 3 10 14 0 12 -5 21 -11 21 -6 0 -9 7 -5 15 8 22 -3 45 -20 38 -10 -4 -13 2 -12 21 1 14 6 26 11 26 5 0 4 6 -2 14 -9 11 -9 15 1 19 8 3 8 6 2 6 -6 1 -17 -5 -23 -12z"/>
<path d="M1271 2363 c-1 -23 3 -44 7 -47 4 -2 6 12 4 32 -5 56 -10 62 -11 15z"/>
<path d="M874 2218 c-5 -7 -2 -9 7 -4 8 4 6 1 -5 -6 -37 -26 -76 -60 -75 -66 3 -18 -2 -33 -9 -28 -4 3 -7 -15 -7 -39 1 -24 -2 -42 -6 -39 -5 3 -6 -2 -3 -10 3 -9 1 -16 -6 -16 -6 0 -8 -4 -5 -10 3 -5 1 -10 -5 -10 -6 0 -8 -4 -5 -10 3 -5 2 -10 -4 -10 -6 0 -8 -7 -5 -15 4 -8 1 -15 -5 -15 -7 0 -8 -8 -1 -25 10 -25 -3 -36 -14 -12 -3 6 -3 2 0 -11 4 -16 0 -28 -13 -38 -10 -9 -11 -12 -3 -8 13 7 13 5 1 -9 -7 -9 -16 -15 -20 -13 -4 3 -13 0 -21 -6 -13 -8 -12 -9 2 -5 10 4 18 -1 21 -14 3 -11 17 -22 35 -25 18 -4 32 -14 35 -26 3 -11 15 -22 26 -25 11 -3 18 -10 15 -15 -4 -5 6 -8 22 -6 21 2 30 9 32 26 4 24 18 30 25 10 2 -7 13 -14 25 -14 12 -1 26 -2 30 -3 5 0 14 -17 22 -36 8 -20 19 -33 24 -30 6 3 19 8 28 11 16 6 16 9 2 36 -9 17 -14 44 -12 59 3 18 0 29 -8 29 -16 0 -84 76 -84 95 0 9 -6 12 -15 9 -8 -4 -22 -1 -30 6 -8 6 -20 9 -27 5 -7 -4 -6 -1 3 7 9 7 15 22 13 32 -3 23 22 53 29 33 6 -15 47 25 47 47 0 8 6 17 13 20 9 3 7 9 -5 19 -19 15 -25 57 -8 57 15 0 12 40 -4 46 -8 3 -12 13 -9 24 6 22 -31 47 -43 28z"/>
<path d="M989 1959 c14 -5 32 -15 40 -22 9 -6 8 -2 -3 11 -11 12 -29 22 -40 21 -19 0 -19 -1 3 -10z"/>
<path d="M1656 1735 c-3 -9 -6 -24 -5 -33 0 -9 5 -4 10 12 9 32 6 48 -5 21z"/>
<path d="M230 1431 c0 -5 -9 -11 -21 -14 -18 -5 -19 -8 -7 -26 7 -11 14 -18 17 -16 2 3 -2 11 -9 20 -10 12 -9 15 6 16 11 1 22 1 26 0 4 0 5 6 2 14 -7 17 -14 20 -14 6z"/>
<path d="M1056 1092 c-20 -39 -20 -42 0 -42 11 0 14 -5 10 -16 -3 -9 -6 -19 -6 -24 0 -5 -14 -11 -30 -15 -17 -4 -35 -16 -41 -28 -17 -32 -17 -32 -40 -11 -22 19 -22 19 -8 -3 8 -13 17 -23 21 -23 5 0 8 -7 8 -16 0 -9 5 -12 12 -8 8 5 9 2 5 -9 -4 -10 -2 -17 4 -17 6 0 8 -7 5 -16 -4 -10 -2 -13 6 -8 8 5 9 2 5 -9 -5 -12 -1 -17 13 -17 11 0 20 5 20 11 0 6 9 9 20 6 10 -3 24 1 31 9 20 24 79 14 79 -13 0 -13 3 -13 15 -3 8 7 15 9 15 5 0 -4 7 -2 15 5 8 6 23 9 35 5 20 -6 21 -5 10 14 -6 12 -8 27 -3 34 13 21 9 51 -9 71 -13 15 -15 23 -6 39 9 17 8 19 -6 14 -11 -4 -25 4 -42 22 -22 25 -32 29 -67 26 -44 -3 -66 3 -49 14 7 4 7 12 2 20 -6 11 -12 6 -24 -17z"/>
<path d="M851 1079 c-1 -9 9 -24 22 -35 22 -19 22 -19 6 1 -9 11 -19 27 -22 35 -5 13 -6 13 -6 -1z"/>
<path d="M1880 403 c-47 -25 -70 -24 -124 3 -38 18 -44 18 -42 -3 0 -10 -4 -18 -11 -18 -18 0 -28 -15 -10 -15 9 0 17 -4 17 -10 0 -5 6 -10 14 -10 8 0 16 -6 19 -14 3 -8 21 -16 39 -18 26 -2 32 -7 30 -23 -2 -15 0 -17 6 -6 6 8 18 11 29 7 14 -5 23 1 33 19 9 17 22 25 41 25 25 0 27 3 24 36 -2 20 -7 40 -12 43 -4 4 -28 -4 -53 -16z"/>
<path d="M1328 368 c7 -9 21 -14 32 -11 25 7 26 15 3 11 -10 -1 -25 2 -33 7 -13 7 -13 6 -2 -7z"/>
<path d="M1666 156 c5 -12 54 -52 54 -44 0 2 -14 16 -30 31 -17 16 -27 22 -24 13z"/>
</g>
<g id="layer126" fill="#feff8a" stroke="none">
<path d="M882 2222 c2 -4 -15 -25 -36 -47 -22 -22 -33 -31 -25 -20 13 18 13 19 -3 7 -10 -8 -17 -17 -16 -20 2 -20 -3 -32 -11 -27 -6 3 -7 -6 -2 -22 9 -35 3 -65 -11 -57 -6 4 -8 2 -4 -4 7 -12 -13 -62 -25 -62 -5 0 -6 -7 -3 -15 4 -8 2 -15 -4 -15 -6 0 -8 -9 -5 -20 5 -17 11 -20 42 -15 77 13 79 14 74 35 -7 26 15 54 31 40 16 -13 47 23 45 53 0 12 -1 45 -2 74 -1 28 -5 55 -9 59 -5 4 -8 17 -8 30 0 12 -7 24 -15 28 -8 3 -14 2 -13 -2z"/>
<path d="M725 1892 c7 -25 -20 -77 -35 -67 -4 3 -6 -4 -3 -15 4 -13 17 -23 36 -27 18 -4 36 -17 46 -34 9 -16 22 -29 29 -29 6 0 12 -4 12 -10 0 -21 31 -9 40 15 9 25 40 35 40 14 0 -7 9 -9 21 -6 12 3 28 0 36 -9 8 -8 12 -14 8 -14 -3 0 1 -13 10 -29 13 -26 17 -28 39 -18 23 11 23 13 10 39 -8 15 -14 38 -14 53 0 17 -13 37 -40 61 -21 19 -42 44 -45 55 -4 10 -14 19 -24 19 -9 0 -21 4 -27 9 -5 6 -33 5 -68 0 -46 -8 -61 -7 -68 3 -6 8 -7 5 -3 -10z"/>
<path d="M1058 1084 c-9 -20 -9 -27 1 -33 21 -14 3 -51 -28 -57 -15 -3 -34 -18 -43 -35 -15 -26 -15 -31 -2 -59 9 -16 12 -35 8 -41 -4 -8 -3 -9 4 -5 7 4 12 1 12 -8 0 -22 2 -21 67 12 33 17 80 15 91 -4 7 -13 13 -14 30 -5 11 6 30 11 42 11 16 0 20 4 16 16 -3 9 -3 21 1 27 13 21 9 51 -9 71 -13 14 -15 23 -7 38 9 17 8 19 -8 14 -13 -4 -27 2 -43 19 -19 20 -33 25 -72 25 -45 0 -49 2 -43 20 9 29 -3 25 -17 -6z"/>
</g>
<g id="layer127" fill="#8afffe" stroke="none">
<path d="M882 2222 c2 -4 -15 -25 -36 -47 -22 -22 -33 -31 -25 -20 13 18 13 19 -3 7 -10 -8 -17 -17 -16 -20 2 -20 -3 -32 -11 -27 -6 3 -7 -6 -2 -22 9 -35 3 -65 -11 -57 -6 4 -8 2 -4 -4 7 -12 -13 -62 -25 -62 -5 0 -6 -7 -3 -15 4 -8 2 -15 -4 -15 -18 0 -1 -38 19 -43 11 -3 17 -1 13 5 -4 7 8 9 34 6 22 -2 38 0 36 4 -3 5 -1 8 4 8 6 0 8 9 5 20 -7 26 15 54 31 40 16 -13 47 23 45 53 0 12 -1 45 -2 74 -1 28 -5 55 -9 59 -5 4 -8 17 -8 30 0 12 -7 24 -15 28 -8 3 -14 2 -13 -2z"/>
</g>
<g id="layer128" fill="#ff8afe" stroke="none">
<path d="M1219 2653 c-1 -4 -1 -12 0 -16 1 -5 -4 -7 -11 -5 -7 3 -19 -2 -25 -11 -11 -14 -15 -13 -32 8 l-19 24 3 -27 c2 -15 -3 -39 -11 -54 -8 -16 -10 -28 -4 -30 6 -2 8 -8 4 -13 -3 -5 4 -9 15 -9 12 0 21 -4 21 -9 0 -5 16 -8 35 -6 25 3 35 -1 35 -11 0 -8 7 -14 15 -14 8 0 15 5 15 11 0 5 5 7 10 4 6 -3 10 3 10 14 0 12 -5 21 -11 21 -6 0 -9 9 -6 20 3 13 1 18 -6 13 -6 -4 -8 0 -4 10 4 11 2 14 -9 10 -13 -5 -15 1 -10 30 3 20 1 39 -4 42 -6 3 -11 3 -11 -2z"/>
</g>
<g id="layer129" fill="#eff0af" stroke="none">
<path d="M1717 401 c4 -15 1 -21 -12 -21 -30 0 57 -56 99 -64 20 -4 43 -9 50 -12 7 -3 18 7 26 21 10 20 20 25 36 21 27 -7 37 3 21 22 -9 12 -9 16 0 19 10 4 9 8 -2 19 -13 13 -20 12 -57 -7 -41 -21 -43 -21 -92 -5 -28 10 -56 20 -63 22 -7 3 -10 -2 -6 -15z"/>
</g>
<g id="layer130" fill="#fdc7fd" stroke="none">
<path d="M1272 2360 c0 -19 2 -27 5 -17 2 9 2 25 0 35 -3 9 -5 1 -5 -18z"/>
<path d="M854 2338 c-5 -7 -3 -8 6 -3 8 5 18 1 27 -10 7 -11 13 -14 13 -9 0 12 -21 34 -31 34 -4 0 -11 -5 -15 -12z"/>
<path d="M1717 401 c4 -15 1 -21 -12 -21 -30 0 57 -56 99 -64 20 -4 43 -9 50 -12 7 -3 18 7 26 21 11 20 19 25 37 20 22 -5 23 -3 19 31 -3 20 -7 38 -9 41 -3 2 -24 -5 -48 -18 -42 -21 -44 -21 -93 -5 -28 10 -56 20 -63 22 -7 3 -10 -2 -6 -15z"/>
</g>


</svg>