<?xml version="1.0" encoding="utf-8"?>
<!-- Generator: Adobe Illustrator 16.0.0, SVG Export Plug-In . SVG Version: 6.00 Build 0)  -->
<!DOCTYPE svg PUBLIC "-//W3C//DTD SVG 1.1//EN" "http://www.w3.org/Graphics/SVG/1.1/DTD/svg11.dtd">
<svg version="1.1"
	 id="svg2" sodipodi:docname="1901_Taiwan.svg" inkscape:version="0.47 r22583" xmlns:dc="http://purl.org/dc/elements/1.1/" xmlns:svg="http://www.w3.org/2000/svg" xmlns:rdf="http://www.w3.org/1999/02/22-rdf-syntax-ns#" xmlns:cc="http://creativecommons.org/ns#" xmlns:inkscape="http://www.inkscape.org/namespaces/inkscape" xmlns:sodipodi="http://sodipodi.sourceforge.net/DTD/sodipodi-0.dtd"
	 xmlns="http://www.w3.org/2000/svg" xmlns:xlink="http://www.w3.org/1999/xlink" x="0px" y="0px" width="1000px" height="1250px"
	 viewBox="0 0 1000 1250" enable-background="new 0 0 1000 1250" xml:space="preserve">
<defs>
	
	
		<inkscape:perspective  id="perspective10" inkscape:persp3d-origin="372.04724 : 350.78739 : 1" inkscape:vp_z="744.09448 : 526.18109 : 1" inkscape:vp_y="0 : 1000 : 0" sodipodi:type="inkscape:persp3d" inkscape:vp_x="0 : 526.18109 : 1">
		</inkscape:perspective>
	
		<inkscape:perspective  id="perspective2824" inkscape:persp3d-origin="0.5 : 0.33333333 : 1" inkscape:vp_z="1 : 0.5 : 1" inkscape:vp_y="0 : 1000 : 0" sodipodi:type="inkscape:persp3d" inkscape:vp_x="0 : 0.5 : 1">
		</inkscape:perspective>
	
		<inkscape:perspective  id="perspective3689" inkscape:persp3d-origin="0.5 : 0.33333333 : 1" inkscape:vp_z="1 : 0.5 : 1" inkscape:vp_y="0 : 1000 : 0" sodipodi:type="inkscape:persp3d" inkscape:vp_x="0 : 0.5 : 1">
		</inkscape:perspective>
	
		<inkscape:perspective  id="perspective3714" inkscape:persp3d-origin="0.5 : 0.33333333 : 1" inkscape:vp_z="1 : 0.5 : 1" inkscape:vp_y="0 : 1000 : 0" sodipodi:type="inkscape:persp3d" inkscape:vp_x="0 : 0.5 : 1">
		</inkscape:perspective>
	
		<inkscape:perspective  id="perspective3738" inkscape:persp3d-origin="0.5 : 0.33333333 : 1" inkscape:vp_z="1 : 0.5 : 1" inkscape:vp_y="0 : 1000 : 0" sodipodi:type="inkscape:persp3d" inkscape:vp_x="0 : 0.5 : 1">
		</inkscape:perspective>
	
		<inkscape:perspective  id="perspective3761" inkscape:persp3d-origin="0.5 : 0.33333333 : 1" inkscape:vp_z="1 : 0.5 : 1" inkscape:vp_y="0 : 1000 : 0" sodipodi:type="inkscape:persp3d" inkscape:vp_x="0 : 0.5 : 1">
		</inkscape:perspective>
	
		<inkscape:perspective  id="perspective3786" inkscape:persp3d-origin="0.5 : 0.33333333 : 1" inkscape:vp_z="1 : 0.5 : 1" inkscape:vp_y="0 : 1000 : 0" sodipodi:type="inkscape:persp3d" inkscape:vp_x="0 : 0.5 : 1">
		</inkscape:perspective>
	
		<inkscape:perspective  id="perspective3809" inkscape:persp3d-origin="0.5 : 0.33333333 : 1" inkscape:vp_z="1 : 0.5 : 1" inkscape:vp_y="0 : 1000 : 0" sodipodi:type="inkscape:persp3d" inkscape:vp_x="0 : 0.5 : 1">
		</inkscape:perspective>
	
		<inkscape:perspective  id="perspective4582" inkscape:persp3d-origin="0.5 : 0.33333333 : 1" inkscape:vp_z="1 : 0.5 : 1" inkscape:vp_y="0 : 1000 : 0" sodipodi:type="inkscape:persp3d" inkscape:vp_x="0 : 0.5 : 1">
		</inkscape:perspective>
	
		<inkscape:perspective  id="perspective4614" inkscape:persp3d-origin="0.5 : 0.33333333 : 1" inkscape:vp_z="1 : 0.5 : 1" inkscape:vp_y="0 : 1000 : 0" sodipodi:type="inkscape:persp3d" inkscape:vp_x="0 : 0.5 : 1">
		</inkscape:perspective>
	
		<inkscape:perspective  id="perspective4637" inkscape:persp3d-origin="0.5 : 0.33333333 : 1" inkscape:vp_z="1 : 0.5 : 1" inkscape:vp_y="0 : 1000 : 0" sodipodi:type="inkscape:persp3d" inkscape:vp_x="0 : 0.5 : 1">
		</inkscape:perspective>
	
		<inkscape:perspective  id="perspective4660" inkscape:persp3d-origin="0.5 : 0.33333333 : 1" inkscape:vp_z="1 : 0.5 : 1" inkscape:vp_y="0 : 1000 : 0" sodipodi:type="inkscape:persp3d" inkscape:vp_x="0 : 0.5 : 1">
		</inkscape:perspective>
	
		<inkscape:perspective  id="perspective4683" inkscape:persp3d-origin="0.5 : 0.33333333 : 1" inkscape:vp_z="1 : 0.5 : 1" inkscape:vp_y="0 : 1000 : 0" sodipodi:type="inkscape:persp3d" inkscape:vp_x="0 : 0.5 : 1">
		</inkscape:perspective>
	
		<inkscape:perspective  id="perspective4708" inkscape:persp3d-origin="0.5 : 0.33333333 : 1" inkscape:vp_z="1 : 0.5 : 1" inkscape:vp_y="0 : 1000 : 0" sodipodi:type="inkscape:persp3d" inkscape:vp_x="0 : 0.5 : 1">
		</inkscape:perspective>
	
		<inkscape:perspective  id="perspective4733" inkscape:persp3d-origin="0.5 : 0.33333333 : 1" inkscape:vp_z="1 : 0.5 : 1" inkscape:vp_y="0 : 1000 : 0" sodipodi:type="inkscape:persp3d" inkscape:vp_x="0 : 0.5 : 1">
		</inkscape:perspective>
	
		<inkscape:perspective  id="perspective4756" inkscape:persp3d-origin="0.5 : 0.33333333 : 1" inkscape:vp_z="1 : 0.5 : 1" inkscape:vp_y="0 : 1000 : 0" sodipodi:type="inkscape:persp3d" inkscape:vp_x="0 : 0.5 : 1">
		</inkscape:perspective>
	
		<inkscape:perspective  id="perspective4779" inkscape:persp3d-origin="0.5 : 0.33333333 : 1" inkscape:vp_z="1 : 0.5 : 1" inkscape:vp_y="0 : 1000 : 0" sodipodi:type="inkscape:persp3d" inkscape:vp_x="0 : 0.5 : 1">
		</inkscape:perspective>
	
		<inkscape:perspective  id="perspective4802" inkscape:persp3d-origin="0.5 : 0.33333333 : 1" inkscape:vp_z="1 : 0.5 : 1" inkscape:vp_y="0 : 1000 : 0" sodipodi:type="inkscape:persp3d" inkscape:vp_x="0 : 0.5 : 1">
		</inkscape:perspective>
	
		<inkscape:perspective  id="perspective4829" inkscape:persp3d-origin="0.5 : 0.33333333 : 1" inkscape:vp_z="1 : 0.5 : 1" inkscape:vp_y="0 : 1000 : 0" sodipodi:type="inkscape:persp3d" inkscape:vp_x="0 : 0.5 : 1">
		</inkscape:perspective>
	
		<inkscape:perspective  id="perspective4856" inkscape:persp3d-origin="0.5 : 0.33333333 : 1" inkscape:vp_z="1 : 0.5 : 1" inkscape:vp_y="0 : 1000 : 0" sodipodi:type="inkscape:persp3d" inkscape:vp_x="0 : 0.5 : 1">
		</inkscape:perspective>
	
		<inkscape:perspective  id="perspective4879" inkscape:persp3d-origin="0.5 : 0.33333333 : 1" inkscape:vp_z="1 : 0.5 : 1" inkscape:vp_y="0 : 1000 : 0" sodipodi:type="inkscape:persp3d" inkscape:vp_x="0 : 0.5 : 1">
		</inkscape:perspective>
	
		<inkscape:perspective  id="perspective4904" inkscape:persp3d-origin="0.5 : 0.33333333 : 1" inkscape:vp_z="1 : 0.5 : 1" inkscape:vp_y="0 : 1000 : 0" sodipodi:type="inkscape:persp3d" inkscape:vp_x="0 : 0.5 : 1">
		</inkscape:perspective>
	
		<inkscape:perspective  id="perspective4927" inkscape:persp3d-origin="0.5 : 0.33333333 : 1" inkscape:vp_z="1 : 0.5 : 1" inkscape:vp_y="0 : 1000 : 0" sodipodi:type="inkscape:persp3d" inkscape:vp_x="0 : 0.5 : 1">
		</inkscape:perspective>
	
		<inkscape:perspective  id="perspective4950" inkscape:persp3d-origin="0.5 : 0.33333333 : 1" inkscape:vp_z="1 : 0.5 : 1" inkscape:vp_y="0 : 1000 : 0" sodipodi:type="inkscape:persp3d" inkscape:vp_x="0 : 0.5 : 1">
		</inkscape:perspective>
	
		<inkscape:perspective  id="perspective4973" inkscape:persp3d-origin="0.5 : 0.33333333 : 1" inkscape:vp_z="1 : 0.5 : 1" inkscape:vp_y="0 : 1000 : 0" sodipodi:type="inkscape:persp3d" inkscape:vp_x="0 : 0.5 : 1">
		</inkscape:perspective>
	
		<inkscape:perspective  id="perspective4996" inkscape:persp3d-origin="0.5 : 0.33333333 : 1" inkscape:vp_z="1 : 0.5 : 1" inkscape:vp_y="0 : 1000 : 0" sodipodi:type="inkscape:persp3d" inkscape:vp_x="0 : 0.5 : 1">
		</inkscape:perspective>
	
		<inkscape:perspective  id="perspective5033" inkscape:persp3d-origin="0.5 : 0.33333333 : 1" inkscape:vp_z="1 : 0.5 : 1" inkscape:vp_y="0 : 1000 : 0" sodipodi:type="inkscape:persp3d" inkscape:vp_x="0 : 0.5 : 1">
		</inkscape:perspective>
	
		<inkscape:perspective  id="perspective5058" inkscape:persp3d-origin="0.5 : 0.33333333 : 1" inkscape:vp_z="1 : 0.5 : 1" inkscape:vp_y="0 : 1000 : 0" sodipodi:type="inkscape:persp3d" inkscape:vp_x="0 : 0.5 : 1">
		</inkscape:perspective>
	
		<inkscape:perspective  id="perspective5081" inkscape:persp3d-origin="0.5 : 0.33333333 : 1" inkscape:vp_z="1 : 0.5 : 1" inkscape:vp_y="0 : 1000 : 0" sodipodi:type="inkscape:persp3d" inkscape:vp_x="0 : 0.5 : 1">
		</inkscape:perspective>
	
		<inkscape:perspective  id="perspective5104" inkscape:persp3d-origin="0.5 : 0.33333333 : 1" inkscape:vp_z="1 : 0.5 : 1" inkscape:vp_y="0 : 1000 : 0" sodipodi:type="inkscape:persp3d" inkscape:vp_x="0 : 0.5 : 1">
		</inkscape:perspective>
	
		<inkscape:perspective  id="perspective5127" inkscape:persp3d-origin="0.5 : 0.33333333 : 1" inkscape:vp_z="1 : 0.5 : 1" inkscape:vp_y="0 : 1000 : 0" sodipodi:type="inkscape:persp3d" inkscape:vp_x="0 : 0.5 : 1">
		</inkscape:perspective>
	
		<inkscape:perspective  id="perspective5154" inkscape:persp3d-origin="0.5 : 0.33333333 : 1" inkscape:vp_z="1 : 0.5 : 1" inkscape:vp_y="0 : 1000 : 0" sodipodi:type="inkscape:persp3d" inkscape:vp_x="0 : 0.5 : 1">
		</inkscape:perspective>
	
		<inkscape:perspective  id="perspective5177" inkscape:persp3d-origin="0.5 : 0.33333333 : 1" inkscape:vp_z="1 : 0.5 : 1" inkscape:vp_y="0 : 1000 : 0" sodipodi:type="inkscape:persp3d" inkscape:vp_x="0 : 0.5 : 1">
		</inkscape:perspective>
	
		<inkscape:perspective  id="perspective5200" inkscape:persp3d-origin="0.5 : 0.33333333 : 1" inkscape:vp_z="1 : 0.5 : 1" inkscape:vp_y="0 : 1000 : 0" sodipodi:type="inkscape:persp3d" inkscape:vp_x="0 : 0.5 : 1">
		</inkscape:perspective>
	
		<inkscape:perspective  id="perspective5236" inkscape:persp3d-origin="0.5 : 0.33333333 : 1" inkscape:vp_z="1 : 0.5 : 1" inkscape:vp_y="0 : 1000 : 0" sodipodi:type="inkscape:persp3d" inkscape:vp_x="0 : 0.5 : 1">
		</inkscape:perspective>
	
		<inkscape:perspective  id="perspective5259" inkscape:persp3d-origin="0.5 : 0.33333333 : 1" inkscape:vp_z="1 : 0.5 : 1" inkscape:vp_y="0 : 1000 : 0" sodipodi:type="inkscape:persp3d" inkscape:vp_x="0 : 0.5 : 1">
		</inkscape:perspective>
	
		<inkscape:perspective  id="perspective5282" inkscape:persp3d-origin="0.5 : 0.33333333 : 1" inkscape:vp_z="1 : 0.5 : 1" inkscape:vp_y="0 : 1000 : 0" sodipodi:type="inkscape:persp3d" inkscape:vp_x="0 : 0.5 : 1">
		</inkscape:perspective>
	
		<inkscape:perspective  id="perspective5307" inkscape:persp3d-origin="0.5 : 0.33333333 : 1" inkscape:vp_z="1 : 0.5 : 1" inkscape:vp_y="0 : 1000 : 0" sodipodi:type="inkscape:persp3d" inkscape:vp_x="0 : 0.5 : 1">
		</inkscape:perspective>
	
		<inkscape:perspective  id="perspective5330" inkscape:persp3d-origin="0.5 : 0.33333333 : 1" inkscape:vp_z="1 : 0.5 : 1" inkscape:vp_y="0 : 1000 : 0" sodipodi:type="inkscape:persp3d" inkscape:vp_x="0 : 0.5 : 1">
		</inkscape:perspective>
	
		<inkscape:perspective  id="perspective5353" inkscape:persp3d-origin="0.5 : 0.33333333 : 1" inkscape:vp_z="1 : 0.5 : 1" inkscape:vp_y="0 : 1000 : 0" sodipodi:type="inkscape:persp3d" inkscape:vp_x="0 : 0.5 : 1">
		</inkscape:perspective>
	
		<inkscape:perspective  id="perspective5376" inkscape:persp3d-origin="0.5 : 0.33333333 : 1" inkscape:vp_z="1 : 0.5 : 1" inkscape:vp_y="0 : 1000 : 0" sodipodi:type="inkscape:persp3d" inkscape:vp_x="0 : 0.5 : 1">
		</inkscape:perspective>
	
		<inkscape:perspective  id="perspective5400" inkscape:persp3d-origin="0.5 : 0.33333333 : 1" inkscape:vp_z="1 : 0.5 : 1" inkscape:vp_y="0 : 1000 : 0" sodipodi:type="inkscape:persp3d" inkscape:vp_x="0 : 0.5 : 1">
		</inkscape:perspective>
	
		<inkscape:perspective  id="perspective5426" inkscape:persp3d-origin="0.5 : 0.33333333 : 1" inkscape:vp_z="1 : 0.5 : 1" inkscape:vp_y="0 : 1000 : 0" sodipodi:type="inkscape:persp3d" inkscape:vp_x="0 : 0.5 : 1">
		</inkscape:perspective>
	
		<inkscape:perspective  id="perspective5464" inkscape:persp3d-origin="0.5 : 0.33333333 : 1" inkscape:vp_z="1 : 0.5 : 1" inkscape:vp_y="0 : 1000 : 0" sodipodi:type="inkscape:persp3d" inkscape:vp_x="0 : 0.5 : 1">
		</inkscape:perspective>
	
		<inkscape:perspective  id="perspective5487" inkscape:persp3d-origin="0.5 : 0.33333333 : 1" inkscape:vp_z="1 : 0.5 : 1" inkscape:vp_y="0 : 1000 : 0" sodipodi:type="inkscape:persp3d" inkscape:vp_x="0 : 0.5 : 1">
		</inkscape:perspective>
	
		<inkscape:perspective  id="perspective5510" inkscape:persp3d-origin="0.5 : 0.33333333 : 1" inkscape:vp_z="1 : 0.5 : 1" inkscape:vp_y="0 : 1000 : 0" sodipodi:type="inkscape:persp3d" inkscape:vp_x="0 : 0.5 : 1">
		</inkscape:perspective>
	
		<inkscape:perspective  id="perspective5533" inkscape:persp3d-origin="0.5 : 0.33333333 : 1" inkscape:vp_z="1 : 0.5 : 1" inkscape:vp_y="0 : 1000 : 0" sodipodi:type="inkscape:persp3d" inkscape:vp_x="0 : 0.5 : 1">
		</inkscape:perspective>
	
		<inkscape:perspective  id="perspective5558" inkscape:persp3d-origin="0.5 : 0.33333333 : 1" inkscape:vp_z="1 : 0.5 : 1" inkscape:vp_y="0 : 1000 : 0" sodipodi:type="inkscape:persp3d" inkscape:vp_x="0 : 0.5 : 1">
		</inkscape:perspective>
	
		<inkscape:perspective  id="perspective5581" inkscape:persp3d-origin="0.5 : 0.33333333 : 1" inkscape:vp_z="1 : 0.5 : 1" inkscape:vp_y="0 : 1000 : 0" sodipodi:type="inkscape:persp3d" inkscape:vp_x="0 : 0.5 : 1">
		</inkscape:perspective>
	
		<inkscape:perspective  id="perspective5617" inkscape:persp3d-origin="0.5 : 0.33333333 : 1" inkscape:vp_z="1 : 0.5 : 1" inkscape:vp_y="0 : 1000 : 0" sodipodi:type="inkscape:persp3d" inkscape:vp_x="0 : 0.5 : 1">
		</inkscape:perspective>
	
		<inkscape:perspective  id="perspective5641" inkscape:persp3d-origin="0.5 : 0.33333333 : 1" inkscape:vp_z="1 : 0.5 : 1" inkscape:vp_y="0 : 1000 : 0" sodipodi:type="inkscape:persp3d" inkscape:vp_x="0 : 0.5 : 1">
		</inkscape:perspective>
	
		<inkscape:perspective  id="perspective5664" inkscape:persp3d-origin="0.5 : 0.33333333 : 1" inkscape:vp_z="1 : 0.5 : 1" inkscape:vp_y="0 : 1000 : 0" sodipodi:type="inkscape:persp3d" inkscape:vp_x="0 : 0.5 : 1">
		</inkscape:perspective>
	
		<inkscape:perspective  id="perspective5689" inkscape:persp3d-origin="0.5 : 0.33333333 : 1" inkscape:vp_z="1 : 0.5 : 1" inkscape:vp_y="0 : 1000 : 0" sodipodi:type="inkscape:persp3d" inkscape:vp_x="0 : 0.5 : 1">
		</inkscape:perspective>
	
		<inkscape:perspective  id="perspective5712" inkscape:persp3d-origin="0.5 : 0.33333333 : 1" inkscape:vp_z="1 : 0.5 : 1" inkscape:vp_y="0 : 1000 : 0" sodipodi:type="inkscape:persp3d" inkscape:vp_x="0 : 0.5 : 1">
		</inkscape:perspective>
	
		<inkscape:perspective  id="perspective5735" inkscape:persp3d-origin="0.5 : 0.33333333 : 1" inkscape:vp_z="1 : 0.5 : 1" inkscape:vp_y="0 : 1000 : 0" sodipodi:type="inkscape:persp3d" inkscape:vp_x="0 : 0.5 : 1">
		</inkscape:perspective>
	
		<inkscape:perspective  id="perspective5758" inkscape:persp3d-origin="0.5 : 0.33333333 : 1" inkscape:vp_z="1 : 0.5 : 1" inkscape:vp_y="0 : 1000 : 0" sodipodi:type="inkscape:persp3d" inkscape:vp_x="0 : 0.5 : 1">
		</inkscape:perspective>
	
		<inkscape:perspective  id="perspective5783" inkscape:persp3d-origin="0.5 : 0.33333333 : 1" inkscape:vp_z="1 : 0.5 : 1" inkscape:vp_y="0 : 1000 : 0" sodipodi:type="inkscape:persp3d" inkscape:vp_x="0 : 0.5 : 1">
		</inkscape:perspective>
	
		<inkscape:perspective  id="perspective5806" inkscape:persp3d-origin="0.5 : 0.33333333 : 1" inkscape:vp_z="1 : 0.5 : 1" inkscape:vp_y="0 : 1000 : 0" sodipodi:type="inkscape:persp3d" inkscape:vp_x="0 : 0.5 : 1">
		</inkscape:perspective>
	
		<inkscape:perspective  id="perspective5829" inkscape:persp3d-origin="0.5 : 0.33333333 : 1" inkscape:vp_z="1 : 0.5 : 1" inkscape:vp_y="0 : 1000 : 0" sodipodi:type="inkscape:persp3d" inkscape:vp_x="0 : 0.5 : 1">
		</inkscape:perspective>
	
		<inkscape:perspective  id="perspective5852" inkscape:persp3d-origin="0.5 : 0.33333333 : 1" inkscape:vp_z="1 : 0.5 : 1" inkscape:vp_y="0 : 1000 : 0" sodipodi:type="inkscape:persp3d" inkscape:vp_x="0 : 0.5 : 1">
		</inkscape:perspective>
	
		<inkscape:perspective  id="perspective5877" inkscape:persp3d-origin="0.5 : 0.33333333 : 1" inkscape:vp_z="1 : 0.5 : 1" inkscape:vp_y="0 : 1000 : 0" sodipodi:type="inkscape:persp3d" inkscape:vp_x="0 : 0.5 : 1">
		</inkscape:perspective>
	
		<inkscape:perspective  id="perspective5900" inkscape:persp3d-origin="0.5 : 0.33333333 : 1" inkscape:vp_z="1 : 0.5 : 1" inkscape:vp_y="0 : 1000 : 0" sodipodi:type="inkscape:persp3d" inkscape:vp_x="0 : 0.5 : 1">
		</inkscape:perspective>
	
		<inkscape:perspective  id="perspective5923" inkscape:persp3d-origin="0.5 : 0.33333333 : 1" inkscape:vp_z="1 : 0.5 : 1" inkscape:vp_y="0 : 1000 : 0" sodipodi:type="inkscape:persp3d" inkscape:vp_x="0 : 0.5 : 1">
		</inkscape:perspective>
	
		<inkscape:perspective  id="perspective5946" inkscape:persp3d-origin="0.5 : 0.33333333 : 1" inkscape:vp_z="1 : 0.5 : 1" inkscape:vp_y="0 : 1000 : 0" sodipodi:type="inkscape:persp3d" inkscape:vp_x="0 : 0.5 : 1">
		</inkscape:perspective>
	
		<inkscape:perspective  id="perspective5969" inkscape:persp3d-origin="0.5 : 0.33333333 : 1" inkscape:vp_z="1 : 0.5 : 1" inkscape:vp_y="0 : 1000 : 0" sodipodi:type="inkscape:persp3d" inkscape:vp_x="0 : 0.5 : 1">
		</inkscape:perspective>
	
		<inkscape:perspective  id="perspective5997" inkscape:persp3d-origin="0.5 : 0.33333333 : 1" inkscape:vp_z="1 : 0.5 : 1" inkscape:vp_y="0 : 1000 : 0" sodipodi:type="inkscape:persp3d" inkscape:vp_x="0 : 0.5 : 1">
		</inkscape:perspective>
	
		<inkscape:perspective  id="perspective6020" inkscape:persp3d-origin="0.5 : 0.33333333 : 1" inkscape:vp_z="1 : 0.5 : 1" inkscape:vp_y="0 : 1000 : 0" sodipodi:type="inkscape:persp3d" inkscape:vp_x="0 : 0.5 : 1">
		</inkscape:perspective>
	
		<inkscape:perspective  id="perspective6043" inkscape:persp3d-origin="0.5 : 0.33333333 : 1" inkscape:vp_z="1 : 0.5 : 1" inkscape:vp_y="0 : 1000 : 0" sodipodi:type="inkscape:persp3d" inkscape:vp_x="0 : 0.5 : 1">
		</inkscape:perspective>
	
		<inkscape:perspective  id="perspective6066" inkscape:persp3d-origin="0.5 : 0.33333333 : 1" inkscape:vp_z="1 : 0.5 : 1" inkscape:vp_y="0 : 1000 : 0" sodipodi:type="inkscape:persp3d" inkscape:vp_x="0 : 0.5 : 1">
		</inkscape:perspective>
	
		<inkscape:perspective  id="perspective6091" inkscape:persp3d-origin="0.5 : 0.33333333 : 1" inkscape:vp_z="1 : 0.5 : 1" inkscape:vp_y="0 : 1000 : 0" sodipodi:type="inkscape:persp3d" inkscape:vp_x="0 : 0.5 : 1">
		</inkscape:perspective>
	
		<inkscape:perspective  id="perspective6114" inkscape:persp3d-origin="0.5 : 0.33333333 : 1" inkscape:vp_z="1 : 0.5 : 1" inkscape:vp_y="0 : 1000 : 0" sodipodi:type="inkscape:persp3d" inkscape:vp_x="0 : 0.5 : 1">
		</inkscape:perspective>
	
		<inkscape:perspective  id="perspective6137" inkscape:persp3d-origin="0.5 : 0.33333333 : 1" inkscape:vp_z="1 : 0.5 : 1" inkscape:vp_y="0 : 1000 : 0" sodipodi:type="inkscape:persp3d" inkscape:vp_x="0 : 0.5 : 1">
		</inkscape:perspective>
	
		<inkscape:perspective  id="perspective6160" inkscape:persp3d-origin="0.5 : 0.33333333 : 1" inkscape:vp_z="1 : 0.5 : 1" inkscape:vp_y="0 : 1000 : 0" sodipodi:type="inkscape:persp3d" inkscape:vp_x="0 : 0.5 : 1">
		</inkscape:perspective>
	
		<inkscape:perspective  id="perspective6183" inkscape:persp3d-origin="0.5 : 0.33333333 : 1" inkscape:vp_z="1 : 0.5 : 1" inkscape:vp_y="0 : 1000 : 0" sodipodi:type="inkscape:persp3d" inkscape:vp_x="0 : 0.5 : 1">
		</inkscape:perspective>
	
		<inkscape:perspective  id="perspective6208" inkscape:persp3d-origin="0.5 : 0.33333333 : 1" inkscape:vp_z="1 : 0.5 : 1" inkscape:vp_y="0 : 1000 : 0" sodipodi:type="inkscape:persp3d" inkscape:vp_x="0 : 0.5 : 1">
		</inkscape:perspective>
	
		<inkscape:perspective  id="perspective6231" inkscape:persp3d-origin="0.5 : 0.33333333 : 1" inkscape:vp_z="1 : 0.5 : 1" inkscape:vp_y="0 : 1000 : 0" sodipodi:type="inkscape:persp3d" inkscape:vp_x="0 : 0.5 : 1">
		</inkscape:perspective>
	
		<inkscape:perspective  id="perspective6256" inkscape:persp3d-origin="0.5 : 0.33333333 : 1" inkscape:vp_z="1 : 0.5 : 1" inkscape:vp_y="0 : 1000 : 0" sodipodi:type="inkscape:persp3d" inkscape:vp_x="0 : 0.5 : 1">
		</inkscape:perspective>
	
		<inkscape:perspective  id="perspective6279" inkscape:persp3d-origin="0.5 : 0.33333333 : 1" inkscape:vp_z="1 : 0.5 : 1" inkscape:vp_y="0 : 1000 : 0" sodipodi:type="inkscape:persp3d" inkscape:vp_x="0 : 0.5 : 1">
		</inkscape:perspective>
	
		<inkscape:perspective  id="perspective6302" inkscape:persp3d-origin="0.5 : 0.33333333 : 1" inkscape:vp_z="1 : 0.5 : 1" inkscape:vp_y="0 : 1000 : 0" sodipodi:type="inkscape:persp3d" inkscape:vp_x="0 : 0.5 : 1">
		</inkscape:perspective>
	
		<inkscape:perspective  id="perspective6325" inkscape:persp3d-origin="0.5 : 0.33333333 : 1" inkscape:vp_z="1 : 0.5 : 1" inkscape:vp_y="0 : 1000 : 0" sodipodi:type="inkscape:persp3d" inkscape:vp_x="0 : 0.5 : 1">
		</inkscape:perspective>
	
		<inkscape:perspective  id="perspective6348" inkscape:persp3d-origin="0.5 : 0.33333333 : 1" inkscape:vp_z="1 : 0.5 : 1" inkscape:vp_y="0 : 1000 : 0" sodipodi:type="inkscape:persp3d" inkscape:vp_x="0 : 0.5 : 1">
		</inkscape:perspective>
</defs>
<sodipodi:namedview  id="base" inkscape:window-maximized="1" inkscape:window-height="716" inkscape:pageopacity="0" inkscape:pageshadow="2" inkscape:document-units="px" inkscape:current-layer="layer2" inkscape:showpageshadow="false" inkscape:window-width="1360" inkscape:window-x="-4" inkscape:window-y="-4" inkscape:cx="265.74034" borderopacity="1.0" showgrid="false" inkscape:cy="658.48645" inkscape:zoom="0.35" borderlayer="true" bordercolor="#666666" pagecolor="#000000">
	</sodipodi:namedview>
<g id="layer2" sodipodi:insensitive="true" inkscape:groupmode="layer" inkscape:label="">
	<path id="path2831" fill="#97AD68" stroke="#000000" stroke-miterlimit="10" d="M808.938,46.063l-6.095,2.875l-9.28,1.406
		l-10.72,3.594l-5,3.563l-4.625,6.063l-6.78,1.095l-3.22,6.063l-0.719,5l-5.345,3.563l-2.875,6.438l1.063,5l-15,10.719
		l-11.063,4.281l-12.844,1.438l-7.5,1.405l-7.5,1.095l-13.595,0.688l-15.345,7.875l-10.719,3.563l-14.625,5l-20.375,14.655
		l-8.938,10l-1.78,8.906l-12.5,14.313L598.938,185l-6.781,13.938l-8.594,6.406l0.719,15.719l-3.563,13.594l-13.563,6.781
		l-1.813,8.219l-9.625,11.406l-9.281,1.781l-10,1.438l-5.719,10l2.125,6.438L525,283.563l-6.438-1.781l-5,9.656l-6.78,15
		l-6.063,19.625l-15,12.156l-2.875,2.844l-9.281,11.438l-3.219,13.22l-7.843,6.779l-5,10.345l0.344,8.219l-3.905,0.375l-0.72,7.125
		l-5,7.875l-2.875,10.344l-8.188,6.781l-1.094,6.78l-7.125,7.875l-5,7.5l-3.594,17.845L401.781,475l-10.344,11.438l-0.719,5.719
		l2.844,3.188l-6.406,5l-11.813,16.813l-1.406,8.188L366.063,535l-8.563,4.655l0.344,2.5l2.5,4.28l-7.844,6.406l-0.72,5.719
		l-3.219,4.656l-7.5,7.844l-1.406,7.156l-1.813,0.344l-0.345,9.656l-1.78,4.625l-6.063,1.094l-2.875,5l-8.938,12.125l-0.344,12.5
		l3.563,2.156l-0.344,7.5l-2.5,5.344l0.344,13.22l2.156,3.563L320,677.156l0.719,4.28l-1.438,1.781l1.063,9.625l2.5,1.438
		l-0.344,2.5l-5,3.219l-0.345,11.781l-8.938,6.78l-2.156,12.5l-6.781,6.095v10.688l-4.625,12.875l-5.375,6.063l2.156,7.156
		l-4.656,6.78l-2.125,6.781l-1.438,8.938l-1.438,6.405h7.5l5,3.22l6.063,5l2.5,4.28l1.813,8.22l8.563,2.5l7.125,6.094l7.875,11.063
		l2.5,11.063l2.125,11.063l7.875,25l17.5,40l2.5,10.72l-2.156,3.219l-2.844,3.22l1.063,7.155l5.719,10.688l19.281,22.156
		l12.5,13.563l13.938,9.656l9.625,0.344l4.313,3.938l3.905,6.438l7.875,3.563l6.063,4.28l17.5,8.938l15,10l5,8.938l8.563,7.5
		l5.375,7.5l1.063,13.905l11.063,15.72l0.719,5.719l3.22,5.345l2.844,12.875l4.313,9.625l1.781,9.313l-5.375,10l-5,9.28l1.438,4.625
		l4.281,5l5.375,8.22l-2.5,5l0.688,9.655l4.655,4.625l5.345,0.375v-9.28l5.719-4.655l5.72,3.938L545,1195l7.155,2.5l5,5.344
		l2.5,1.813l3.188,5h2.875l0.344-6.813l-6.78-10.344l-1.063-7.845l1.781-1.095l-0.72-7.844h5.375l2.845-2.5l1.78-6.781l2.5-2.5
		l3.938-10l1.063-12.875l0.719-3.563l-2.5-4.281v-3.563l1.438-7.5l0.345-21.813l2.155-6.063l-1.78-7.125v-30.375l5-6.781
		l0.688-7.844l2.5-3.594v-4.281l3.938-4.625l4.281-9.656l1.094-3.938l1.406-9.281l2.155-1.781v-6.438l3.563-3.22l0.719-6.063
		l3.22-1.438l1.78-9.281l8.563-6.063v-8.563l1.438-7.156l5-8.563l8.938-6.438l9.625-9.281l8.594-0.719l7.844-5l3.563-3.22
		l13.22-10.719l0.375-8.188l4.625-5l-3.563-10l0.719-6.094l2.845-3.22l6.78-3.905l7.156-0.72l6.438-4.28l0.345-7.5l4.28-2.875
		l3.563-5.72v-5l5-3.188l5.72-6.813l2.5-5l0.719-6.406l5-7.875l2.5-4.625v-3.938l7.156-13.938l7.844-1.781v-2.125l10.375-3.219
		l-6.101-6.431l-1.405-3.938l3.188-3.563l-0.345-6.78l-1.438-3.938v-5l1.781-5.72l4.313-10.344l5.688-13.563l5.375-7.875h5
		l1.781-2.125v-7.5l1.438-7.155l1.063-8.938l6.781-15.345l1.063-8.563l6.094-8.22l-3.938-5l-0.719-9.28l2.5-2.155v-6.781l4.655-6.78
		l3.22-10v-13.595l2.844-5l1.438-8.188l1.406-5.375l-1.406-3.22l0.345-3.905l2.875-1.813l-1.813-2.5V577.5l5.375-6.438l1.78-12.125
		l0.345-7.875l6.438-12.844h3.563l1.813-7.156L820.344,515l2.5-4.656l-2.5-2.5L820,503.938l1.78-3.595l4.281-5.345l3.938-1.063
		l0.344-2.155l4.656-3.22l-9.281-8.219l-4.281-6.406l1.781-10l2.5-8.938l8.219-4.655l5.345-6.781l-0.345-6.405L835.344,430
		l3.595-5.72l6.405-6.063l7.156-4.656l5-5.719L865,405l3.219-8.563l-0.375-4.656l7.875-6.438l0.345-13.906l3.594-7.5l2.125-6.094
		l1.063-12.5l4.313-3.563l2.845-2.125l2.844-6.438L905,326.063l-3.563-4.281L897.844,320l1.438-6.781l5.375-0.375L910.72,310
		l-1.063-12.5l-2.875-5.345l0.719-10.375l-7.5-8.938l0.345-6.781L897.5,262.5l0.719-13.22l-3.563-6.438l-1.438-8.188l-1.063-21.813
		l2.125-2.125v-8.563l3.219-9.313l6.438-8.188l10-5.375l2.845-8.219l9.28-4.281l2.156-6.063l7.125-2.5l14.313-5.719l5.345-6.063
		l-4.281-4.281l-6.438-1.094l-7.844,1.781l-6.781-4.281V127.5L925,123.219l-0.72-6.063l4.281-3.938l-2.125-3.938l1.78-3.563
		L920,108.563l-3.563-1.405l-18.219-0.72l-10.375-4.655l-14.625-7.5l-4.656,1.063l-13.219-3.563l-1.063-3.22l-6.063,0.375
		l-2.155-3.219l0.375-6.438l-5,0.375l-5.375-3.938l-2.5-5L830,68.938l-2.5-10.375l-11.063-9.281L808.938,46.063z M135,561.438
		l-1.781,5.719l-4.656,3.563L132.5,575l-1.438,3.938l2.156,5.344l7.125-3.563l1.438-4.655l-5.344-3.906l1.063-5.719L135,561.438z
		 M135.719,597.844l-10,1.813l-7.5,3.188l-1.438,5.719l2.156,2.5l3.906-2.844l5.375-0.375l1.781,6.813V620l7.844-3.563l3.594-8.594
		l0.344-4.281L135.719,597.844z M104.656,610.719l-5.719,5.72l0.719,7.125l1.406,6.78l-0.344,4.313L95,635.719l-3.938,3.563
		l5.719,1.781l9.281-2.845l4.656-6.063l-2.5-9.656l0.344-4.28l5-4.28L104.656,610.719z M148.219,618.938l-5,0.344l-5,3.219l0.344,5
		L135,633.563l-4.281-2.5l0.344-5h-5l-5.344,4.655L120.344,635l5.719,2.155l7.156,7.5v3.188l-7.5,2.875l-6.438-3.563l-3.563-4.313
		L107.844,650l7.5,1.78l6.438,2.875l3.938,5h6.781l5-2.875l1.063-8.22l10.72-8.219l7.155-0.344l5.72,3.938l8.188-4.655l-7.125-4.625
		l2.844-8.938l-2.5-5l-7.5,2.125l-5.719,0.719L148.219,618.938z M97.5,696.438l-1.063,4.625l0.344,5l-3.219,5l8.219-0.72
		l2.875-1.063l4.625,2.155l8.938-3.938l-5.375-4.28l-5.688-0.375l-3.594-5L97.5,696.438z M73.563,756.063l-3.905,3.219l1.063,5.375
		l4.625,5l2.5-3.594l3.594-5.345l1.063-4.655H73.563z M778.938,940.719l-5.188,0.875l-3.563,2.156l3.22,3.563l1.405,5.53
		l2.875,0.375l4.47,3.75l3.905-1.438l-2.5-3.938l1.97-4.813l0.53-4.625l-3.905,0.345L778.938,940.719z M398.406,1052.313
		l-2.875,1.25l-1.969,3.75l-1.781,3.405l-0.344,1.97l1.406,0.53l3.063,0.188l0.875-2.155l3.031-2.688l4.125-2.5l-0.375-3.75
		L398.406,1052.313L398.406,1052.313z M789.281,1141.063l-5.72,1.438l1.781,3.563l3.594,2.156l1.063,8.938l3.563,2.125l2.5,3.22
		l5,0.344l4.28,2.875l3.938,5.344l7.156-0.344l2.5-3.219l-0.72-4.281l-5.375-1.781l-4.28-2.5l-1.781-5.375l2.156-2.844l-0.375-7.156
		l-6.781-0.344l-5.719,1.063L789.281,1141.063L789.281,1141.063z M821.594,1186.688l-1.938,0.719l-0.28,2.063l1.438,1.688l2.5-0.188
		l1.345-1.875l-0.563-1.781L821.594,1186.688L821.594,1186.688z"/>
</g>
<path id="基隆廳" fill="#97AD68" stroke="#000000" stroke-miterlimit="10" d="M808.938,46.063l-3.845,1.813l0.75,5.344
	l3.281,2.78l1.781,3.53l-1.781,3.781l-2.53,4.313l-1,4.03l-1.75,4.531l-1.281,4.563l2.281,1.5l5.813,1.78l0.25,2.781l-1.28,3.281
	l0.78,1.781l2,0.5l2.28,4.78l2.031,2.531l2.78,3.031l-1.28,3.531l-1.75,2.28v2.281l1.25,1.75l2.03,0.25l3.031-0.5l1.5,2.781
	l1.53,3.281l-1.03,2.53l0.25,7.563l-2,2.781l0.75,3.28l5.563,2.531l6.375,1.063l4.03-0.406l1.22-0.125l2.345-3.125l1.5-1.531
	l3.219,1.156l1.97,2.156l1.063,5.094l1.5,3.813l5.313,1.25l2.031,4.281L859.625,156l3.813,2.03h5.28l3.813-1.53l2.781-2l4.28-0.781
	l4.53,4.063l-2.5,3.031l1,6.313l-1.28,3.281l-2.75,1.75l-2.03,1.78l1.5,2.531l3.563,1.5l1.155,4.5l2.875-0.188h4.28l4.063-0.53
	l2.25-1l5.063-4.031l1.5-4.563l-1.75-2v-4.063l0.25-3.781l4.78-1.5l4.313,1.25l3.531-0.25l4.53-2.281l4.22-3.375l5.344-0.188
	l2.5-1.313l3.219-1.969l3.031-0.281l5.719,0.095l3.75,1.03l0.281,0.22l3.125-1.25l5.344-6.063l-4.28-4.281l-6.438-1.094
	l-7.845,1.781l-6.78-4.281V127.5l-4.656-4.281l-0.719-6.063l4.28-3.938l-2.125-3.938l1.781-3.563l-8.219,2.844l-3.563-1.406
	l-18.22-0.719l-10.375-4.656l-14.625-7.5l-4.655,1.063l-13.22-3.563l-1.063-3.219l-6.063,0.375l-2.156-3.219l0.375-6.438l-5,0.375
	l-5.375-3.938l-2.5-5L830,68.935l-2.5-10.375l-11.063-9.281L808.938,46.063z"/>
<path id="宜蘭廳" fill="#97AD68" stroke="#000000" stroke-miterlimit="10" d="M936.781,152.406l-3.03,0.281l-3.22,1.969
	l-2.5,1.313l-5.345,0.188l-4.219,3.375l-4.531,2.28l-3.53,0.25l-4.313-1.25l-4.781,1.5l-0.25,3.781v4.063l1.75,2l-1.5,4.563
	l-5.063,4.031l-2.25,1l-4.063,0.531h-4.281l-3.781,0.25l-1.78,2.5l-0.75,3.313l-1.03,3.531l-2.5,3.031l-4.313,3.53l-4.78,1
	l-3.281,4.031l-0.5,4.563l2.25,3.78l-2.78,3.031l-5.28,1l-3.813,3.281l0.28,3.031l-5.563,3.813L843.969,230l-0.5,6.063l0.25,4.031
	l0.781,4.313l-1.281,3.28l-4.78,2.5l-3.531,2.031h-4.063l-4.28,2.031l-5.813,3.781l-2.531,5.313l1.281,3.531l2,0.25l4.813-1.531
	h3.78l1.5,1.531l6.063-1l7.844-4.563c0,0,3.27,0.776,4.531,1.281c1.263,0.505,8.094,4.781,8.094,4.781l4.531,5.063l4.313,2.25
	l11.344,1.781l8.095,3.031l5.063,5.063l7.563,5.281l4.688,1.281h3.03l0.125-0.375l0.625-9.219l-7.5-8.938l0.345-6.781L897.5,262.5
	l0.719-13.22l-3.563-6.438l-1.438-8.188l-1.063-21.813l2.125-2.125v-8.563l3.219-9.313l6.438-8.188l10-5.375l2.845-8.219l9.28-4.281
	l2.156-6.063l7.125-2.5l11.188-4.469l-0.28-0.22l-3.75-1.03L936.781,152.406L936.781,152.406z"/>
<path id="深坑廳" fill="#97AD68" stroke="#000000" stroke-miterlimit="10" d="M844.813,132.937l-1.5,1.531l-2.345,3.125
	l-1.219,0.125l0.03,0.25l-1.938,2.375h-11.78l-9.813,3.938l-10.905,0.375l-8.906,2.5l-5,8.031l-9.655,4.625l-9.47,6.094
	l-5.688,2.531l0.095,0.125l0.405,0.25l-0.813,0.125l3.5,3.375l2.5,1.094l1.844,0.25l3.344,0.438l2.156,3.75l2.125,4.469
	l-3.219,2.344l-3.75,2.313l0.188,2.125l1.438,2.156l3.563,1.594l2.688-0.156l7.5-3.75l4.28-1.78l1.781-2.875l6.438-2.313l3.75-0.188
	l5-2.844l6.594-1.781l5,0.875l3.406-2.313h7.655l6.095,0.719l6.78,0.531l4.095,5l5.53,1.781l7.688,3.563l5.375,2.688l5.156,3.563
	l1.094,0.72l0.875-0.563l1.531-1.844l1.03-3.531l0.75-3.313l1.781-2.5l0.905-0.063l-1.155-4.5l-3.563-1.5l-1.5-2.531l2.031-1.781
	l2.75-1.75l1.28-3.28l-1-6.313l2.5-3.031l-4.53-4.063l-4.281,0.781l-2.78,2l-3.813,1.53h-5.281l-3.813-2.03l0.281-5.313
	l-2.031-4.281l-5.313-1.25l-1.5-3.813l-1.063-5.094l-1.97-2.156L844.813,132.937z"/>
<path id="臺北廳" fill="#97AD68" stroke="#000000" stroke-miterlimit="10" d="M805.094,47.874l-2.25,1.063l-9.28,1.406
	l-10.72,3.594l-5,3.563l-4.625,6.063l-6.78,1.094l-3.22,6.063l-0.719,5l-5.345,3.563l-2.875,6.438l1.063,5l-15,10.719l-11.063,4.281
	l-12.844,1.438l-7.5,1.405l-7.5,1.095l-4.095,0.188l-0.03,0.25l1.72,3.219l1.25,2.531l0.625,3.969l4.438,0.375l2.345,2.656
	l3.563-1.594l2.844,1.594l1.25,2.344l1.625,2.125l4.094,1.25l3.22,0.906l4.469-1.969l6.595-0.344l5.563,3.188l2.845,4.125
	l0.188,6.063l-2.5,2.5l-2.5,1.969l-1.25,1.969l1.595,2.313l2.5,1.969l3.938,0.531l3.563-1.438l0.72-2.5l-1.438-2.844l1.095-1.969
	l4.625-1.25l3.563,3.563l0.563,4.313l-1.094,5.53l-1.063,4.095l-0.906,3.03l-3.03,2.345l-0.72,3.188l2.688,2.344l3.563,1.25
	l5.719-1.625l3.063-1.375l5.688-2.53l9.469-6.095l9.656-4.625l5-8.03l8.905-2.5l10.906-0.375l9.813-3.938h11.78l1.938-2.375
	l-0.031-0.25l-4.03,0.406l-6.375-1.063l-5.563-2.53l-0.75-3.281l2-2.781l-0.25-7.563l1.03-2.531l-1.53-3.281l-1.5-2.781l-3.031,0.5
	l-2.03-0.25l-1.25-1.75v-2.28l1.75-2.281l1.28-3.531l-2.78-3.031l-2.031-2.53l-2.28-4.781l-2-0.5l-0.78-1.781l1.28-3.281l-0.25-2.78
	l-5.813-1.781l-2.281-1.5l1.281-4.563l1.75-4.53l1-4.031l2.53-4.313l1.781-3.78l-1.781-3.531l-3.28-2.781L805.094,47.874
	L805.094,47.874z"/>
<path id="桃園廳" fill="#97AD68" stroke="#000000" stroke-miterlimit="10" d="M696.813,109.875l-8.97,0.469l-15.344,7.875
	l-10.72,3.563l-14.625,5l-20.375,14.655l-8.938,10l-1.78,8.906l-7.72,8.844l2.72,0.469l3.219-1.25l5.531-0.188l4.844-1.625
	l4.095,1.625l3.405,2.844l0.156,4.469l-0.531,3.563l2.313,3.406l4.844,0.53l4.095,1.781l6.25,0.375l1.063,2.313l2.155,2.313
	l3.22,0.531l2.5-1.781l3.938,0.375l5.345,3.22l-1.97,6.78l-2.844,4.095L656.781,205l-3.375,0.905l-3.595,1.25l-1.25,3.375l1.095,7.5
	l0.875,5.72l2.688,3.75l4.625-0.531l4.845,1.969l3.563,3.031l3.22,1.438l3.75,2.656l6.5,1.125l0.095,0.438l0.188-0.469l-1.438-5
	l5.719-3.938l1.781-4.656l6.78-7.844l10.72-6.063l10.719-3.938l5-3.938l2.156-5.719l3.219-4.625l4.281-1.094l8.563-6.406l4.28-0.719
	l4.655-3.563l5-2.875H760h5.719l5-0.719l3.438-2.406l-1.844-0.25l-2.5-1.094l-3.5-3.375l0.813-0.125l-0.405-0.25l-0.095-0.125
	l-3.063,1.375l-5.72,1.625l-3.563-1.25l-2.688-2.344l0.719-3.188l3.031-2.344l0.905-3.031l1.063-4.094l1.094-5.531l-0.563-4.313
	l-3.563-3.563l-4.625,1.25L748.563,145l1.438,2.844l-0.719,2.5l-3.563,1.438l-3.938-0.53l-2.5-1.97l-1.595-2.313l1.25-1.969
	l2.5-1.97l2.5-2.5l-0.188-6.063l-2.844-4.125l-5.563-3.188l-6.594,0.345l-4.47,1.969l-3.219-0.906l-4.095-1.25l-1.625-2.125
	l-1.25-2.344l-2.845-1.594l-3.563,1.594l-2.345-2.656l-4.438-0.375l-0.625-3.969l-1.25-2.531l-1.72-3.219L696.813,109.875z"/>
<path id="新竹廳" fill="#97AD68" stroke="#000000" stroke-miterlimit="10" d="M624.656,166.594l-4.845,1.625l-5.53,0.188
	l-3.22,1.25l-2.719-0.469l-4.781,5.469L598.938,185l-6.781,13.938l-8.594,6.406l0.719,15.719l-3.563,13.594l-13.563,6.781
	l-1.813,8.219l-9.625,11.406l-0.813,0.156l0.938,0.219l3.813,2.313l3.188,0.53l4.656,0.906l1.438,3.375l2.844,2.688l-0.531,4.469
	l2.5,1.438l4.095,0.345l3.595-0.72l3.219,2.688l-1.438,2.5l1.595,2.688l1.438,0.688l2.5-2.313l3.219-0.53l4.469,2.688
	c0,0,1.255,2.5,1.97,2.5c0.714,0,6.25,0.156,6.25,0.156l0.155,4.469l-3.03,4.125l-2.5,4.469l-1.438,3.031l-0.875,4.469l0.031,0.188
	l5.155-0.75l2.5-3.188l4.28-2.875l1.406-2.5l5-1.78l4.655-6.781l14.281-15l11.063-5l7.5-2.5l7.155-6.781l4.656-7.5l6.406-2.5
	l6.78-8.938l1.97-4.875l-0.095-0.438l-6.5-1.125l-3.75-2.656l-3.219-1.438l-3.563-3.031l-4.844-1.969l-4.625,0.531l-2.688-3.75
	l-0.875-5.72l-1.094-7.5l1.25-3.375l3.594-1.25l3.375-0.905l5.906-1.97l2.844-4.094l1.969-6.781l-5.344-3.219l-3.938-0.375
	l-2.5,1.781l-3.219-0.531l-2.156-2.313l-1.063-2.313l-6.25-0.375l-4.095-1.781l-4.844-0.53l-2.313-3.406l0.531-3.563l-0.156-4.469
	l-3.406-2.844L624.656,166.594z"/>
<path id="苗栗廳" fill="#97AD68" stroke="#000000" stroke-miterlimit="10" d="M554.906,261.218l-8.47,1.625l-10,1.438l-5.719,10
	l2.125,6.438L525,283.562l-6.438-1.781l-5,9.656l-6.78,15l-6.063,19.625l-15,12.156l-2.875,2.844l-9.281,11.438l-3.219,13.219
	l-7.845,6.781l-1.219,2.5l6.405,3.5l2.781,1.75l2.531,2.78l5.313,0.5l5.813,0.25l7.063,1.781l2.03,4.813l5.28,3.53l7.345,2.25
	l14.125-0.25l6.313-2.25l4.563-3.03l1.5-5.563l-2.281-3.531l3.313-2.28l3.531,2.03l2.5,2.25l4.813-0.5l3.78,0.25l2.031,3.031
	l3.781,3.781l3.28,2.03l3.281,0.25l2.28-1.5l4.281-1.03l6.313-1.25l6.219,1.938l0.125,0.25l0.063-0.063l2.844-3.938l-1.78-4.281
	l-7.5-0.719l-5.375-2.844l-5.345-0.719l-4.655-2.5L555,373.562l1.438-2.844L560,364.28l5.345-3.219l4.313-2.844l-0.375-6.063
	l7.155-2.5l-2.875-2.156l-1.405-3.938l-1.095-4.281l3.595-1.063l4.28-3.22v-5.344l6.063-1.094l2.155-3.219l-2.5-3.188l0.688-5
	l2.156-4.313l4.655-3.563l4.845-0.688l-0.031-0.188l0.875-4.469l1.438-3.031l2.5-4.469l3.03-4.125l-0.155-4.469
	c0,0-5.536-0.156-6.25-0.156c-0.715,0-1.97-2.5-1.97-2.5l-4.469-2.688l-3.219,0.53l-2.5,2.313l-1.438-0.688l-1.595-2.688l1.438-2.5
	l-3.219-2.688l-3.595,0.72l-4.095-0.345l-2.5-1.438l0.531-4.469l-2.844-2.688l-1.438-3.375l-4.656-0.906l-3.188-0.53l-3.813-2.313
	L554.906,261.218L554.906,261.218z"/>
<path id="臺中廳" fill="#97AD68" stroke="#000000" stroke-miterlimit="10" d="M461.281,374.998l-3.78,7.845l0.344,8.219
	l-3.906,0.375l-0.719,7.125l-5,7.875l-2.875,10.344l-8.188,6.781l-0.125,0.845l0.375,0.155l4.563,2.22l2.5,0.53l2.313,3.938
	l-0.188,2.156l3.406,4.813l1.78,4.094l0.905,3.406l2.656,4.094c0,0,3.035,1.979,3.75,2.156c0.714,0.179,13.063,1.438,13.063,1.438
	l6.938,4.438l2.875,4.655l1.781,4.813l0.188,3.031l-0.906,3.75l-4.281,2.5l-3.563,0.563l-2.345,2.125l4.47,9.813l4.125,9.125
	l3.563,5.719l2.938,4.813l0.031,0.031l4.219-7.063l1.781-4.531l-4.313-4.28l-1-3.563l2.531-3.281l6.313,2.531l4.813-1.75l8.563,1.25
	l1.78-1.531h4.531l3.53,1.781l3.03,1.25l6.063-0.25l6.063-5.813l6.313-6.813l2.53-5.531l2.031-2.53l2-1.53l7.094-0.25l7.313,2.28
	h5.313l3.438-0.188l0.095-0.313l-2.531-4.188l-4.281-3.906l-2.03-3.28l-1.375-4.78l1.063-5.345l6.095-3.22l0.719-5l2.125-2.5h3.938
	l2.844-2.875l-0.719-2.125l-2.5-0.719l-1.406-4.281l1.063-3.938l1.781-4.656l1.78-2.5l-2.125-2.844l-5.719-3.22l0.344-7.125
	l2.875-7.155l5.656-4.22l-0.125-0.25l-6.219-1.938l-6.313,1.25l-4.281,1.031l-2.28,1.5l-3.281-0.25l-3.28-2.031l-3.781-3.781
	L548,383.281l-3.781-0.25l-4.813,0.5l-2.5-2.25l-3.53-2.03l-3.313,2.28l2.28,3.531l-1.5,5.563l-4.563,3.03l-6.313,2.25l-14.125,0.25
	l-7.344-2.25l-5.281-3.53l-2.031-4.813l-7.063-1.781l-5.813-0.25l-5.313-0.5l-2.53-2.78l-2.781-1.75L461.281,374.998z"/>
<path id="彰化廳" fill="#97AD68" stroke="#000000" stroke-miterlimit="10" d="M437.031,424.406l-0.97,5.938l-7.125,7.875l-5,7.5
	l-3.594,17.845L401.781,475l-10.344,11.438l-0.719,5.719l2.844,3.188l-6.406,5l-11.813,16.813l-1.406,8.188L366.063,535
	l-8.563,4.655l0.344,2.5l2.5,4.28l-2.875,2.345l2,0.313l3.375-0.688l3.219,1.938l5,1.095l10.375,0.875l10.156-1.406l2.5-1.438
	l8.406-0.375l6.438,0.188l6.969,2.313l3.906,1.094l5.375,0.531l3.75,0.719l5.875,3.031l4.844,1.969l5.156,0.156l2.5,1.625
	l12.875,0.344l5.719,1.25l5.688,0.906h7.875l9.625-0.375l5.375-0.688l4.625-3.219l1.25-2.156l-0.531-3.125l0.095-0.155h-0.125
	L497,553.75l-4.031,0.5l-5.813-3.531l-3.28-5.813l-0.25-7.313l2-8.095l3.78-7.313l-2.5-7.063l0.75-5.813l0.313-0.53l-0.03-0.03
	L485,503.939l-3.563-5.72l-4.125-9.125l-4.469-9.813l2.344-2.125l3.563-0.563l4.28-2.5l0.906-3.75l-0.188-3.031l-1.78-4.813
	l-2.875-4.656l-6.938-4.438c0,0-12.349-1.259-13.063-1.438c-0.714-0.179-3.75-2.155-3.75-2.155l-2.655-4.095l-0.906-3.405
	l-1.78-4.093l-3.406-4.813l0.188-2.155l-2.313-3.938l-2.5-0.53l-4.563-2.22L437.031,424.406L437.031,424.406z"/>
<path id="南投廳" fill="#97AD68" stroke="#000000" stroke-miterlimit="10" d="M555.844,466.875l-7.094,0.25l-2,1.53l-2.031,2.53
	l-2.53,5.531l-6.313,6.813l-6.063,5.813l-6.063,0.25l-3.03-1.25l-3.53-1.78h-4.531l-1.78,1.53l-8.563-1.25l-4.813,1.75l-6.313-2.53
	l-2.531,3.28l1,3.563l4.313,4.281l-1.781,4.53l-4.53,7.595l-0.75,5.813l2.5,7.063l-3.78,7.313l-2,8.095l0.25,7.313l3.28,5.813
	l5.813,3.531l4.031-0.5l2.78-0.25l6.063,0.75l7.813-2.25l5.813-3.563l4.563,2.03l4.531,1.25l5.313,2.781l4.28-2.25l4.03,3.53
	l5.063-0.25l1.5-2.53l3.313-0.5l5.03,1.5l3.281,2.53l-1,4.28l3.03,2.031l2.781-1.25l2.78,1.5l2.25,1.781h3.813l4.031-1.281l1.25-2
	l2.53-1.031l3.78,1.281l3.813,2l3.281-1.75l-1.031-2.781l-0.75-1.53l-1-19.688l2.25-4.281l4.813-2.78h3.53l3.031-0.75l-0.25-2.281
	l-4.031-2.28l-2.03-2.03v-2l1.78-1.531l1-3.031l1.25-4.28l3.281-1l2.53,3.03h2.28l1-1.78l-0.25-7.563l-1.25-2.281l0.5-2.53
	l2.781-1.25l0.75-3.281l-4.781-4.063l-4.063-2.78l0.5-3.281l-2.5-3.28l-6.845-1l-7.063-3.28l-3.03-3.781l-4.781-4.813l-7.094-1
	l-4.781,0.25h-5.313L555.844,466.875z"/>
<path id="斗六廳" fill="#97AD68" stroke="#000000" stroke-miterlimit="10" d="M362.844,548.406l-3.375,0.688l-2-0.313
	l-4.969,4.063l-0.72,5.72l-3.219,4.655l-7.5,7.845l-1.406,7.155l-1.813,0.345l-0.345,9.655l-1.78,4.625l-6.063,1.095l-2.875,5
	l-8.938,12.125l-0.344,12.5l3.563,2.155l-0.344,7.5l-2.5,5.345l0.344,13.219l2.063,3.375h0.095l2.78-0.5l5.063,1.5l3.656,1.375
	l3.405,0.531l2.031-0.781l3.281-0.25l3.406,1.531l3.781,0.375l4.405-0.625l2.031-1.781l-0.75-3.78l-0.5-3.281l1.75-2.281l2.781-0.5
	l2.03,3.031l1.75,1.25l2.531-1.25l1-3.531l3.031-2.28l3.031-4.28l2.031-2.781l2.78,1.25l3.781-0.75l5.063-3.78l2.78-3.531
	l4.531-1.78l5.313-2.781l3.28-2.281l4.531-0.75l5.563,0.5l4.563-2.25l4.281-2.53l4.813-1.78l7.313,0.75l5.313-0.25l2.75-1l3.563,0.5
	l1,3.28l2.781,4.063l4.029,3.781l4.813,1.25h4.031l2.53,3.28l5.813,1.03l5.531-0.78l5.313,1.03l4.313-3.03l3.53-1.28l4.781,2.03
	l-0.25,4.53l3.531,1.531h7.594l4.281-0.75l1.25-1.531h2.781l2.029,2.031l1.563-0.625l3.5-1.406l2.25-5.813l-2-3.531l2.25-3.531
	l4.313-2.53l4.031-0.75l3.531,2.03l3.031,4.531l3.279,3.281l5.313,1.53l4.531-0.78l3.313-2.25l-1.531-6.313l-1.5-3.563l-2.78-10.844
	l-0.5-7.313l2.75-3.563l2.78-1.75l2.281-2.78l3.281-2.281h3.281l2.779-3.031l-2.529-1.5v-3.53l4.063-4.063l0.75-7.313l3.281-2.531
	l1.313-2.094l-1.813-1.438l-2.781-1.5l-2.781,1.25l-3.03-2.03l1-4.281l-3.28-2.53l-5.031-1.5l-3.313,0.5l-1.5,2.53l-5.063,0.25
	l-4.031-3.53l-4.28,2.25l-5.313-2.781l-4.531-1.25l-4.563-2.031l-5.813,3.563l-7.813,2.25l-5.938-0.75l-0.094,0.156l0.531,3.125
	l-1.25,2.155l-4.625,3.22l-5.375,0.688l-9.625,0.375h-7.875l-5.688-0.905l-5.719-1.25l-12.875-0.345l-2.5-1.625l-5.156-0.155
	l-4.844-1.97l-5.875-3.03l-3.75-0.72l-5.375-0.53l-3.906-1.095l-6.969-2.313l-6.438-0.188l-8.405,0.375l-2.5,1.438l-10.156,1.405
	l-10.375-0.875l-5-1.094L362.844,548.406z"/>
<path id="嘉義廳" fill="#97AD68" stroke="#000000" stroke-miterlimit="10" d="M439.906,615.875l-2.75,1l-5.313,0.25l-7.313-0.75
	l-4.813,1.78l-4.281,2.53l-4.563,2.25l-5.563-0.5l-4.531,0.75l-3.28,2.281l-5.313,2.781l-4.531,1.78l-2.78,3.531l-5.063,3.78
	l-3.781,0.75l-2.78-1.25l-2.031,2.781l-3.031,4.28l-3.031,2.28l-1,3.531l-2.531,1.25l-1.75-1.25l-2.03-3.031l-2.781,0.5l-1.75,2.281
	l0.5,3.281l0.75,3.78l-2.031,1.781l-4.405,0.625l-3.781-0.375l-3.406-1.531l-3.281,0.25l-2.031,0.781l-3.405-0.531l-3.656-1.375
	l-5.063-1.5l-2.78,0.5l-0.095,0.029l0.095,0.156L320,677.156l0.719,4.28l-1.438,1.781l1.063,9.625l2.5,1.438l-0.344,2.5l-5,3.219
	l-0.345,11.781l-7.25,5.5l0.845-0.25l3.03,1.75l3.531,0.5l0.375,1.625l3.031,2.313l2.125,2.313l2.688,1.25l4.281-1.25l2.875-5.188
	l-0.906-5.875l2.5-3.563v-4.313l1.781-3.031l2.156-2.5l3.563-0.875l1.781-1.969v-2.688l-2.844-1.78l-2.156,0.905h-2.313l-1.438-1.25
	l-3.031,0.345L330,692.312l0.719-3.219l2.688-1.406l2.5,0.875l2.656,0.188l1.969-1.97l0.719-1.78l-1.78-1.438l-1.625-1.595
	l0.188-3.22l3.22-1.594l4.28,2.313l0.188,3.938l1.063,3.75l1.969,1.595l2.845-0.188l2.155-1.25l4.095,0.719L360,690l3.219-1.063
	l2.688-0.719l5.344,5l3.406,3.75l1.594,3.375l2.688-0.531l2.125-3.563l3.219-0.53l15,0.188l5.72-2.345l5.344-3.75l3.063-2.655
	l2.84-2.155l3.405,0.344l1.938,0.375l2.688-1.063l3.219-0.188l5.72,1.969l1.594,4.47l5.375,2.655l0.72,3.75l-2.688,3.75l-2.313,3.75
	l1.063,2.875l3.938,0.345l3.03-0.72l2.313,2.875l-2.313,2.125L445.72,715l6.25,1.594l4.28,2.875l-1.25,2.688l-2.844,1.063
	l-1.813,2.688l-0.156,7.5l-3.03,3.75l0.155,1.595l3.595,2.5l1.405,1.969l-0.875,3.031l-2.875,2.844l-1.155,0.625l0.719,0.47
	l1.688,2.594l5.905,3.031l5.095,2.03l7.125,1.095l0.155,0.688l4.22-6.406l2.875-0.375l5.719,2.688h7.656l5.188-1.156v-2.219
	l-2.845-5.906l-1.97-4.28L490,732.16l0.905-1.813l2.125-1.063l1.063-2.688l1.625-2.313v-10.188l-1.25-2.125l-1.25-4.656l-2.313-3.03
	l-0.907-4.47l1.78-3.563l1.063-2.845l-1.063-3.595l3.405-6.594l2.656-1.063l3.219-4.655l3.22-2.156l2.313-3.906l5-1.25l0.906-5.719
	l0.905-1.438l2.125-0.875l1.438-5l3.375-9.469l2.5-4.281L521.781,640l-3.375-1.781l-3.405-1.78l-0.281-0.22l-1.563,0.625l-2.03-2.03
	h-2.781l-1.25,1.53l-4.28,0.75h-7.595l-3.53-1.53l0.25-4.531L487.156,629l-3.53,1.28l-4.313,3.03l-5.313-1.03l-5.531,0.78
	l-5.813-1.03l-2.53-3.28h-4.031l-4.813-1.25l-4.03-3.781l-2.781-4.063l-1-3.28L439.906,615.875z"/>
<path id="鹽水港廳" fill="#97AD68" stroke="#000000" stroke-miterlimit="10" d="M341.25,677.156l-3.22,1.595l-0.188,3.219
	l1.625,1.595L341.25,685l-0.72,1.78l-1.969,1.97l-2.656-0.188l-2.5-0.875l-2.688,1.406l-0.717,3.22l1.78,1.438l3.031-0.344
	l1.438,1.25h2.313l2.156-0.906l2.844,1.781v2.688l-1.781,1.969l-3.563,0.875l-2.156,2.5l-1.781,3.031v4.313l-2.5,3.563l0.906,5.875
	l-2.875,5.188l-4.281,1.25l-2.688-1.25l-2.125-2.313l-3.031-2.313l-0.375-1.625l-3.531-0.5l-3.031-1.75l-0.844,0.25l-1.688,1.28
	l-2.156,12.5l-6.781,6.095v10.688l-4.625,12.875l-5.375,6.063l2.156,7.156l-4.656,6.78l-2.125,6.78l-1.438,8.938l-1.438,6.405h7.5
	l5,3.22l6.063,5l2.5,4.28l1.813,8.22l1.781,0.53l6.063-6.405l1.97-2.5l3.563-2.345l4.47-0.875l1.438-2.313l4.813-2.5l4.813,0.155
	l6.625-0.53l2.5-2.5l2.313-2.5l2.313-1.97l1.969-3.219l-1.969-3.75l3.031-3.188l2.875-2.875l-0.531-1.438l1.594-2.655h6.25
	l3.031-2.156l2.5-2.5l0.188-3.219l1.595-1.595l2.5-0.72v-1.25h3.405l2.688,1.595h2.656l2.875,1.25l4.469,3.22l3.563,3.03
	l-1.25,3.063l-1.438,3.031l1.25,3.03l2.344,5.188l3.75,0.344l4.095,0.188l2.5,1.595l2.844-0.875l-1.063-1.97l-0.875-2.875v-3.03
	l1.25-1.438l2.313,1.25l2.125-1.063l-1.594-1.25l1.594-3.219l3.219,0.188l2.688,2.155l4.281,0.531l1.781,3.219l0.375,3.375
	l3.375-0.719l1.78-2.5l0.375-5.156l1.781-1.094l3.03,0.719l2.875-1.78l0.345-2.313l-2.313-1.25v-2.5l1.594-1.97v-2.688l1.438-3.03
	l3.031-2.156l3.405-4.438l-1.094-4.125l1.25-2.845l3.405-2.688l2.938-1.531l1.156-0.625l2.875-2.844l0.875-3.031l-1.406-1.969
	l-3.594-2.5l-0.156-1.595l3.031-3.75l0.155-7.5l1.813-2.688l2.845-1.063l1.25-2.688l-4.281-2.875l-6.25-1.594l-1.78-2.688
	l2.313-2.125l-2.313-2.875l-3.031,0.719l-3.938-0.344l-1.063-2.875l2.313-3.75l2.688-3.75l-0.719-3.75l-5.375-2.656l-1.595-4.469
	l-5.719-1.97l-3.22,0.188l-2.688,1.063l-1.938-0.375L416.25,685l-2.845,2.155l-3.063,2.655l-5.345,3.75l-5.719,2.345l-15-0.188
	l-3.219,0.53l-2.125,3.563l-2.688,0.531l-1.595-3.375l-3.405-3.75l-5.345-5l-2.688,0.719L360,690l-2.156-1.97l-4.094-0.72
	l-2.156,1.25l-2.844,0.188l-1.97-1.594l-1.063-3.75l-0.188-3.938L341.25,677.156z"/>
<path id="阿猴廳" fill="#97AD68" stroke="#000000" stroke-miterlimit="10" d="M490.406,872.623l-5.938,0.22l-6.781,2.688
	l-7.5,4.655l-6.094,6.97l-5.156,3.75l-9.125,0.688l-8.219-0.53l-4.625-1.97l-2.5-2.125l-3.031,0.875l-1.625,3.938l0.531,8.406
	l-2.5,5.155l-2.781,3.345v0.094L425,908.75l0.344,3.563l1.095,13.406l2.313,3.563l-2.156,6.438l-4.438,7.688l-0.375,5.875
	l-0.719,9.813l1.969,8.219l1.25,10.531l-5.531,9.125l-2.313,3.75l-2.5,4.625l0.156,4.313l1.969,2.125l-0.531,9.03l-0.03,0.156
	l2.344,0.096l4.313,3.938l3.906,6.438l7.875,3.563l6.063,4.28l17.5,8.938l15,10l4.345,7.75l10.813-3.219l-0.344,0.188l1.438-0.438
	l-2.156-2.845l-4.094-1.095l-1.595-7.5l2.845-4.28l0.53-7.5l4.813-4.28l-1.594-2.688l-5.188,1.095l-1.594-2.345l1.063-3.219
	l-0.53-2.125l1.594-6.25l-1.063-2.688l0.72-7.5l4.28-3.375l-2.5-2.155l-0.188-11.97l1.625-10.344l0.345-21.781l-0.345-8.219
	l1.97-2.5l0.155-2.156l3.405-1.063l0.72-3.938l-3.75-3.75l-0.53-8.031l-1.625-5l2.688-2.845l-0.345-3.063l-2.875-2.313l1.063-6.97
	l-1.405-2.655v-3.75l1.25-5l-1.25-4.845l0.875-4.28l4.469-3.938L490.406,872.623L490.406,872.623z M398.406,1052.312l-2.875,1.25
	l-1.969,3.75l-1.781,3.406l-0.344,1.969l1.406,0.531l3.063,0.188l0.875-2.155l3.031-2.688l4.125-2.5l-0.375-3.75H398.406
	L398.406,1052.312z"/>
<path id="臺南廳" fill="#97AD68" stroke="#000000" stroke-miterlimit="10" d="M447.406,749.718l-2.938,1.53l-3.406,2.688
	l-1.25,2.845l1.095,4.125l-3.405,4.438l-3.031,2.155l-1.438,3.031v2.688l-1.594,1.97v2.5l2.313,1.25l-0.345,2.313l-2.875,1.781
	l-3.03-0.719l-1.781,1.094l-0.375,5.156l-1.78,2.5l-3.375,0.719l-0.375-3.375l-1.781-3.219l-4.28-0.531l-2.688-2.156l-3.219-0.188
	l-1.594,3.219l1.594,1.25l-2.125,1.063l-2.313-1.25l-1.25,1.438v3.03l0.875,2.875l1.063,1.97l-2.844,0.875l-2.5-1.595l-4.095-0.188
	l-3.75-0.345l-2.344-5.188l-1.25-3.03l1.438-3.031l1.25-3.063l-3.563-3.03l-4.469-3.22l-2.875-1.25h-2.656l-2.688-1.594h-3.406v1.25
	l-2.5,0.719l-1.594,1.595l-0.188,3.219l-2.5,2.5l-3.031,2.156h-6.25l-1.594,2.655l0.531,1.438l-2.875,2.875l-3.031,3.188l1.969,3.75
	l-1.969,3.219L345,801.781l-2.313,2.5l-2.5,2.5l-6.625,0.53l-4.813-0.155l-4.813,2.5l-1.438,2.313l-4.47,0.875l-3.563,2.345
	l-1.97,2.5l-6.063,6.405l6.781,1.97l7.125,6.094l7.875,11.063l2.5,11.063l1.063,5.563l0.438-0.188l2.155-0.563l3.75,0.281
	l4.656,2.313l3.125,0.375l2.125-0.53l5.281,2.938l1.875,2.22l2.75,0.469l2.25-0.625l4,1.063l2.875-1.344l1.594-0.97l3.125-0.094
	l3.938,1.688l4.469,0.625l3.469,0.969l7.5,0.563l0.47-0.031l1.938-2.405l3.406-2.5l0.875-3.188l3.219-2.688l6.25,1.594l1.25,2.345
	l4.125-0.563l2.313-5.875l2.5-6.625l4.657-8.906l7.845-6.78l6.594-8.22l9.313-5.53l4.095-5.563l5-1.25l4.28-4.813l-1.595-1.78
	l-3.219-5.345l1.438-4.313l2.5-2.655l-1.25-8.031l1.063-5l5.531-8.063l3.405-6.78l0.345-5.531l0.594-0.905l-0.155-0.688
	l-7.125-1.095l-5.095-2.03l-5.905-3.031l-1.688-2.594L447.406,749.718L447.406,749.718z"/>
<path id="蕃薯廳" fill="#97AD68" stroke="#000000" stroke-miterlimit="10" d="M475.188,752.844l-2.875,0.375l-4.813,7.313
	l-0.345,5.531l-3.405,6.78l-5.531,8.063l-1.063,5l1.25,8.031l-2.5,2.655l-1.438,4.313l3.219,5.344l1.595,1.781l-4.28,4.813l-5,1.25
	l-4.095,5.563l-9.313,5.531l-6.593,8.22l-7.845,6.78l-4.655,8.906l-2.5,6.625l-2.313,5.875l-4.125,0.563l-1.25-2.345l-6.25-1.594
	l-3.219,2.688l-0.875,3.188l-3.406,2.5l-3.031,3.75l2.156,2.875l-3.031,5.72l-2.155,6.78l2.688,3.22l0.156,5.719l1.969,3.375
	l2.344,1.781l3.75,0.719l3.75-1.063l1.594-3.03l2.845-1.97l4.844,0.875l2.125,4.47l0.719,4.125l3.563,3.375l4.125,1.438H425
	l2.844-3.405l2.5-5.156l-0.53-8.405l1.625-3.938l3.03-0.875l2.5,2.125l4.625,1.969l8.22,0.531l9.125-0.688l5.155-3.75l6.095-6.969
	l7.5-4.656l6.78-2.688l5.938-0.22L490,864.094l3.938-6.938v-3.938l-2.688-3.75l-0.906-3.031l3.595-7.875l1.25-6.594l5.53-6.781
	l3.75-3.03l1.97-4.656l-0.906-5.719l-3.375-3.031l5.156-4.469l-1.063-5.345l3.563-1.78l4.655-3.75l-2.155-6.25l-5-3.595l-3.031-1.78
	L505,778.75l0.53-9.281l-2.688-1.438l-4.813,0.72l-3.029-1.97l-2.313-3.75l-0.375-2.313l1.438-3.031v-3.313l-5.188,1.156h-7.655
	L475.188,752.844z"/>
<path id="鳳山廳" fill="#97AD68" stroke="#000000" stroke-miterlimit="10" d="M334.375,859.094l-2.156,0.563l-0.469-0.063
	l1.094,5.75l7.875,25l17.5,40l2.5,10.72l-2.156,3.219l-2.844,3.22l1.063,7.155l5.719,10.688l19.281,22.156l12.5,13.563l13.938,9.656
	l7.28,0.25l0.031-0.156l0.531-9.031l-1.969-2.124l-0.156-4.313l2.5-4.625l2.313-3.75l5.531-9.125l-1.25-10.531l-1.97-8.219
	l0.72-9.813l0.375-5.875l4.438-7.688l2.155-6.438l-2.313-3.563l-1.094-13.406L425,908.75h-3.031l-4.125-1.438l-3.563-3.375
	l-0.719-4.125l-2.125-4.469l-4.844-0.875l-2.845,1.969l-1.594,3.031l-3.75,1.063l-3.75-0.72l-2.344-1.78l-1.969-3.375l-0.156-5.72
	l-2.688-3.219l2.155-6.781l3.031-5.719l-2.156-2.875l0.938-1.156l-0.313-0.155l-7.5-0.563l-3.469-0.97l-4.469-0.625l-3.938-1.688
	l-3.125,0.093l-1.594,0.97l-2.875,1.344l-4-1.063l-2.25,0.625l-2.75-0.47l-1.875-2.219l-5.281-2.938l-2.125,0.531l-3.125-0.375
	l-4.656-2.313L334.375,859.094L334.375,859.094z M425,908.75l0.063,0.029v-0.094L425,908.75z"/>
<path id="恆春廳" fill="#97AD68" stroke="#000000" stroke-miterlimit="10" d="M487.656,1052.75l-10.813,3.219l0.655,1.188
	l8.563,7.5l5.375,7.5l1.063,13.905l11.063,15.72l0.72,5.719l3.219,5.345l2.845,12.875l4.313,9.625l1.78,9.313l-5.375,10l-5,9.281
	l1.438,4.625l4.28,5l5.375,8.219l-2.5,5l0.688,9.656l4.656,4.625l5.344,0.375v-9.281l5.719-4.655l5.72,3.938L545,1195l7.155,2.5
	l5,5.344l2.5,1.813l3.188,5h2.875l0.344-6.813l-6.78-10.344l-1.063-7.845l1.781-1.095l-0.72-7.844h5.375l2.845-2.5l1.78-6.781
	l2.5-2.5l3.938-10l1.063-12.875l0.719-3.563l-2.5-4.281v-3.563l0.75-3.844l-5.625,1.438l-0.313,0.063h-2.75l-4.563-2.5l-0.906-2.313
	l-3.375,0.188l-2.688,3.031v2.688l2.688,3.188l0.188,4.845l-3.75,1.063l-2.344-2.5l-2.656,1.438l0.344,2.5l-6.438,1.97l-5.345-3.406
	l-6.25-2.844l-3.938,0.688l-1.97,1.25l-0.53,5.905l-1.063,1.97l-2.156,0.188l-3.905-4.655l-5.563-15.345l-3.031-12.688l-0.719-3.938
	l1.438-2.5l7.313-3.938l-7.313,0.188l-4.28-1.25l-6.25-9.281l-2.156-5.53l-2.313-3.75l-3.219-15l-6.406-7.155l-1.25-5.72
	l0.345,0.188L487.656,1052.75L487.656,1052.75z"/>
<path id="澎湖廳" fill="#97AD68" stroke="#000000" stroke-miterlimit="10" d="M135,561.437l-1.781,5.72l-4.656,3.563l3.938,4.28
	l-1.438,3.938l2.156,5.344l7.125-3.563l1.438-4.655l-5.345-3.906l1.063-5.719L135,561.437z M135.719,597.843l-10,1.813l-7.5,3.188
	l-1.438,5.72l2.156,2.5l3.906-2.845l5.375-0.375l1.781,6.813V620l7.844-3.563l3.594-8.595l0.344-4.28L135.719,597.843z
	 M104.656,610.718l-5.719,5.719l0.719,7.125l1.406,6.781l-0.344,4.313L95,635.718l-3.938,3.563l5.719,1.78l9.281-2.844l4.656-6.063
	l-2.5-9.655l0.344-4.281l5-4.281L104.656,610.718z M148.219,618.937l-5,0.345l-5,3.219l0.344,5L135,633.562l-4.281-2.5l0.344-5h-5
	l-5.344,4.656l-0.375,4.28l5.719,2.156l7.156,7.5v3.188l-7.5,2.875l-6.438-3.563l-3.563-4.313l-7.875,7.156l7.5,1.78l6.438,2.875
	l3.938,5h6.781l5-2.875l1.063-8.22l10.72-8.219l7.155-0.344l5.72,3.938l8.188-4.655l-7.125-4.625l2.844-8.938l-2.5-5l-7.5,2.125
	l-5.719,0.719L148.219,618.937z M97.5,696.437l-1.063,4.625l0.344,5l-3.219,5l8.219-0.719l2.875-1.063l4.625,2.156l8.938-3.938
	l-5.375-4.281l-5.688-0.375l-3.594-5L97.5,696.437z M73.563,756.062l-3.905,3.22l1.063,5.375l4.625,5l2.5-3.595l3.594-5.344
	l1.063-4.656H73.563z"/>
<path id="臺東廳" fill="#97AD68" stroke="#000000" stroke-miterlimit="10" d="M822.906,465.748l-5.438,2.125l-5.063,2.531
	l-5.813,4.813l-0.75,3.28l1,13.375l-0.75,8.095l-5.813,6.313l-1.75,3.53l-5.563,3.781l-4.031,2.03l-3.28,1.75l-3.53,3.813
	l-2.281,7.313l0.75,19.438l-0.75,6.313l-4.563,7.345l-5.813,10.844l-6.563,4.031l-0.75,6.313l-0.25,10.125l-2.531,6.313l-4.28,5.53
	l-6.563,5.563l-2.281,4.063l-3.78,5.031l-5.063,5.063l-3.031,3.03l-2.28,4.781v8.594l2.78,6.063l3.031,7.063l-0.5,5.063
	l-3.031,6.063l-3.53,2.781l-1.25,6.563l-1.531,3.53l-1.75,7.063l-2.78,3.813l-5.063,3.531l-1.75,4.53l-0.781,3.281l-0.75,5.063
	l-1.25,5.03l0.5,5.313l-5.813,8.095l-4.28,13.125L698,746.937l-8.313,16.156l-6.313,10.125l-6.063,5.28l-0.75,4.063l-0.25,7.063
	l1.75,6.313l-1,8.344l-2.531,5.813l-2.031,5.53l-6.563,4.063l-4.281,1.75l-3.281,3.781l-1.78,5.063v7.063l-2.53,8.345v17.938
	l-2.25,5.28l-0.25,6.845l-3.031,3.03l-1.28,9.345l-1.25,9.344l4.28,7.813l-2.28,7.309h-6.063l-5.78,3.813l-2.53,5.28L630.344,926
	l-6.813,2.53l-5.563,5.53l-3.781,6.845l-2.78,6.813l-4.063,6.813l-1.5,12.125l-4.313,9.094l-7.063,8.313l-5.563,5.813l-2.5,11.875
	l-4.563,16.405l-8.345,22.5l-5.78,12.125l0.75,19.938l0.75,11.875l1.53,9.095l0.75,14.625l-2.28,10.125l0.25,5.03l0.655,3.781
	l5.625-1.438l0.688-3.655l0.344-21.813l2.156-6.063l-1.781-7.125v-30.375l5-6.78l0.688-7.845l2.5-3.595v-4.28l3.938-4.625
	l4.28-9.655l1.095-3.938l1.405-9.28l2.156-1.781v-6.438l3.563-3.218l0.719-6.063l3.22-1.438l1.78-9.281l8.563-6.063v-8.563
	l1.438-7.154l5-8.563l8.938-6.438l9.625-9.281l8.595-0.719l7.844-5l3.563-3.22l13.219-10.719l0.375-8.188l4.625-5l-3.563-10
	l0.72-6.096l2.844-3.218l6.781-3.907l7.155-0.718l6.438-4.282l0.345-7.5l4.28-2.875l3.563-5.718v-5l5-3.188l5.719-6.813l2.5-5
	l0.72-6.406l5-7.875l2.5-4.625V812.5l7.155-13.938l7.845-1.78v-2.125l10.375-3.22L748.563,785l-1.406-3.938l3.188-3.563L750,770.719
	l-1.438-3.938v-5l1.781-5.72l4.313-10.344l5.688-13.563l5.375-7.875h5l1.781-2.125v-7.5l1.438-7.155l1.063-8.938l6.781-15.345
	l1.063-8.563l6.094-8.22l-3.938-5l-0.719-9.28l2.5-2.155v-6.781l4.656-6.78l3.219-10V612.84l2.844-5l1.438-8.188l1.406-5.375
	l-1.406-3.22l0.345-3.905l2.875-1.813l-1.813-2.5V577.5l5.375-6.438l1.78-12.125l0.345-7.875l6.438-12.844h3.563l1.813-7.156
	L820.344,515l2.5-4.656l-2.5-2.5L820,503.938l1.78-3.595l4.281-5.345l3.938-1.063l0.344-2.155l4.656-3.22l-9.281-8.219l-4.281-6.406
	L822.906,465.748L822.906,465.748z M778.938,940.718l-5.188,0.875l-3.563,2.155l3.22,3.563l1.405,5.531l2.875,0.375l4.47,3.75
	l3.905-1.438l-2.5-3.938l1.97-4.813l0.53-4.625l-3.905,0.345L778.938,940.718z M789.281,1141.062l-5.72,1.438l1.781,3.563
	l3.594,2.155l1.063,8.938l3.563,2.125l2.5,3.22l5,0.344l4.28,2.875l3.938,5.344l7.156-0.344l2.5-3.219l-0.72-4.281l-5.375-1.781
	l-4.28-2.5l-1.781-5.375l2.156-2.844l-0.375-7.156l-6.781-0.344l-5.719,1.063L789.281,1141.062L789.281,1141.062z M821.594,1186.687
	l-1.938,0.72l-0.28,2.063l1.438,1.688l2.5-0.188l1.345-1.875l-0.563-1.78L821.594,1186.687L821.594,1186.687z"/>
</svg>
