<?xml version="1.0" encoding="UTF-8" standalone="no"?>
<!-- Created with Inkscape (http://www.inkscape.org/) -->

<svg
   xmlns:dc="http://purl.org/dc/elements/1.1/"
   xmlns:cc="http://creativecommons.org/ns#"
   xmlns:rdf="http://www.w3.org/1999/02/22-rdf-syntax-ns#"
   xmlns:svg="http://www.w3.org/2000/svg"
   xmlns="http://www.w3.org/2000/svg"
   xmlns:sodipodi="http://sodipodi.sourceforge.net/DTD/sodipodi-0.dtd"
   xmlns:inkscape="http://www.inkscape.org/namespaces/inkscape"
   width="1000"
   height="1250"
   id="svg2"
   version="1.1"
   inkscape:version="0.47 r22583"
   sodipodi:docname="1901_Taiwan.svg"
   style="display:inline">
  <defs
     id="defs4">
    <inkscape:perspective
       sodipodi:type="inkscape:persp3d"
       inkscape:vp_x="0 : 526.18109 : 1"
       inkscape:vp_y="0 : 1000 : 0"
       inkscape:vp_z="744.09448 : 526.18109 : 1"
       inkscape:persp3d-origin="372.04724 : 350.78739 : 1"
       id="perspective10" />
    <inkscape:perspective
       id="perspective2824"
       inkscape:persp3d-origin="0.5 : 0.33333333 : 1"
       inkscape:vp_z="1 : 0.5 : 1"
       inkscape:vp_y="0 : 1000 : 0"
       inkscape:vp_x="0 : 0.5 : 1"
       sodipodi:type="inkscape:persp3d" />
    <inkscape:perspective
       id="perspective3689"
       inkscape:persp3d-origin="0.5 : 0.33333333 : 1"
       inkscape:vp_z="1 : 0.5 : 1"
       inkscape:vp_y="0 : 1000 : 0"
       inkscape:vp_x="0 : 0.5 : 1"
       sodipodi:type="inkscape:persp3d" />
    <inkscape:perspective
       id="perspective3714"
       inkscape:persp3d-origin="0.5 : 0.33333333 : 1"
       inkscape:vp_z="1 : 0.5 : 1"
       inkscape:vp_y="0 : 1000 : 0"
       inkscape:vp_x="0 : 0.5 : 1"
       sodipodi:type="inkscape:persp3d" />
    <inkscape:perspective
       id="perspective3738"
       inkscape:persp3d-origin="0.5 : 0.33333333 : 1"
       inkscape:vp_z="1 : 0.5 : 1"
       inkscape:vp_y="0 : 1000 : 0"
       inkscape:vp_x="0 : 0.5 : 1"
       sodipodi:type="inkscape:persp3d" />
    <inkscape:perspective
       id="perspective3761"
       inkscape:persp3d-origin="0.5 : 0.33333333 : 1"
       inkscape:vp_z="1 : 0.5 : 1"
       inkscape:vp_y="0 : 1000 : 0"
       inkscape:vp_x="0 : 0.5 : 1"
       sodipodi:type="inkscape:persp3d" />
    <inkscape:perspective
       id="perspective3786"
       inkscape:persp3d-origin="0.5 : 0.33333333 : 1"
       inkscape:vp_z="1 : 0.5 : 1"
       inkscape:vp_y="0 : 1000 : 0"
       inkscape:vp_x="0 : 0.5 : 1"
       sodipodi:type="inkscape:persp3d" />
    <inkscape:perspective
       id="perspective3809"
       inkscape:persp3d-origin="0.5 : 0.33333333 : 1"
       inkscape:vp_z="1 : 0.5 : 1"
       inkscape:vp_y="0 : 1000 : 0"
       inkscape:vp_x="0 : 0.5 : 1"
       sodipodi:type="inkscape:persp3d" />
    <inkscape:perspective
       id="perspective4582"
       inkscape:persp3d-origin="0.5 : 0.33333333 : 1"
       inkscape:vp_z="1 : 0.5 : 1"
       inkscape:vp_y="0 : 1000 : 0"
       inkscape:vp_x="0 : 0.5 : 1"
       sodipodi:type="inkscape:persp3d" />
    <inkscape:perspective
       id="perspective4614"
       inkscape:persp3d-origin="0.5 : 0.33333333 : 1"
       inkscape:vp_z="1 : 0.5 : 1"
       inkscape:vp_y="0 : 1000 : 0"
       inkscape:vp_x="0 : 0.5 : 1"
       sodipodi:type="inkscape:persp3d" />
    <inkscape:perspective
       id="perspective4637"
       inkscape:persp3d-origin="0.5 : 0.33333333 : 1"
       inkscape:vp_z="1 : 0.5 : 1"
       inkscape:vp_y="0 : 1000 : 0"
       inkscape:vp_x="0 : 0.5 : 1"
       sodipodi:type="inkscape:persp3d" />
    <inkscape:perspective
       id="perspective4660"
       inkscape:persp3d-origin="0.5 : 0.33333333 : 1"
       inkscape:vp_z="1 : 0.5 : 1"
       inkscape:vp_y="0 : 1000 : 0"
       inkscape:vp_x="0 : 0.5 : 1"
       sodipodi:type="inkscape:persp3d" />
    <inkscape:perspective
       id="perspective4683"
       inkscape:persp3d-origin="0.5 : 0.33333333 : 1"
       inkscape:vp_z="1 : 0.5 : 1"
       inkscape:vp_y="0 : 1000 : 0"
       inkscape:vp_x="0 : 0.5 : 1"
       sodipodi:type="inkscape:persp3d" />
    <inkscape:perspective
       id="perspective4708"
       inkscape:persp3d-origin="0.5 : 0.33333333 : 1"
       inkscape:vp_z="1 : 0.5 : 1"
       inkscape:vp_y="0 : 1000 : 0"
       inkscape:vp_x="0 : 0.5 : 1"
       sodipodi:type="inkscape:persp3d" />
    <inkscape:perspective
       id="perspective4733"
       inkscape:persp3d-origin="0.5 : 0.33333333 : 1"
       inkscape:vp_z="1 : 0.5 : 1"
       inkscape:vp_y="0 : 1000 : 0"
       inkscape:vp_x="0 : 0.5 : 1"
       sodipodi:type="inkscape:persp3d" />
    <inkscape:perspective
       id="perspective4756"
       inkscape:persp3d-origin="0.5 : 0.33333333 : 1"
       inkscape:vp_z="1 : 0.5 : 1"
       inkscape:vp_y="0 : 1000 : 0"
       inkscape:vp_x="0 : 0.5 : 1"
       sodipodi:type="inkscape:persp3d" />
    <inkscape:perspective
       id="perspective4779"
       inkscape:persp3d-origin="0.5 : 0.33333333 : 1"
       inkscape:vp_z="1 : 0.5 : 1"
       inkscape:vp_y="0 : 1000 : 0"
       inkscape:vp_x="0 : 0.5 : 1"
       sodipodi:type="inkscape:persp3d" />
    <inkscape:perspective
       id="perspective4802"
       inkscape:persp3d-origin="0.5 : 0.33333333 : 1"
       inkscape:vp_z="1 : 0.5 : 1"
       inkscape:vp_y="0 : 1000 : 0"
       inkscape:vp_x="0 : 0.5 : 1"
       sodipodi:type="inkscape:persp3d" />
    <inkscape:perspective
       id="perspective4829"
       inkscape:persp3d-origin="0.5 : 0.33333333 : 1"
       inkscape:vp_z="1 : 0.5 : 1"
       inkscape:vp_y="0 : 1000 : 0"
       inkscape:vp_x="0 : 0.5 : 1"
       sodipodi:type="inkscape:persp3d" />
    <inkscape:perspective
       id="perspective4856"
       inkscape:persp3d-origin="0.5 : 0.33333333 : 1"
       inkscape:vp_z="1 : 0.5 : 1"
       inkscape:vp_y="0 : 1000 : 0"
       inkscape:vp_x="0 : 0.5 : 1"
       sodipodi:type="inkscape:persp3d" />
    <inkscape:perspective
       id="perspective4879"
       inkscape:persp3d-origin="0.5 : 0.33333333 : 1"
       inkscape:vp_z="1 : 0.5 : 1"
       inkscape:vp_y="0 : 1000 : 0"
       inkscape:vp_x="0 : 0.5 : 1"
       sodipodi:type="inkscape:persp3d" />
    <inkscape:perspective
       id="perspective4904"
       inkscape:persp3d-origin="0.5 : 0.33333333 : 1"
       inkscape:vp_z="1 : 0.5 : 1"
       inkscape:vp_y="0 : 1000 : 0"
       inkscape:vp_x="0 : 0.5 : 1"
       sodipodi:type="inkscape:persp3d" />
    <inkscape:perspective
       id="perspective4927"
       inkscape:persp3d-origin="0.5 : 0.33333333 : 1"
       inkscape:vp_z="1 : 0.5 : 1"
       inkscape:vp_y="0 : 1000 : 0"
       inkscape:vp_x="0 : 0.5 : 1"
       sodipodi:type="inkscape:persp3d" />
    <inkscape:perspective
       id="perspective4950"
       inkscape:persp3d-origin="0.5 : 0.33333333 : 1"
       inkscape:vp_z="1 : 0.5 : 1"
       inkscape:vp_y="0 : 1000 : 0"
       inkscape:vp_x="0 : 0.5 : 1"
       sodipodi:type="inkscape:persp3d" />
    <inkscape:perspective
       id="perspective4973"
       inkscape:persp3d-origin="0.5 : 0.33333333 : 1"
       inkscape:vp_z="1 : 0.5 : 1"
       inkscape:vp_y="0 : 1000 : 0"
       inkscape:vp_x="0 : 0.5 : 1"
       sodipodi:type="inkscape:persp3d" />
    <inkscape:perspective
       id="perspective4996"
       inkscape:persp3d-origin="0.5 : 0.33333333 : 1"
       inkscape:vp_z="1 : 0.5 : 1"
       inkscape:vp_y="0 : 1000 : 0"
       inkscape:vp_x="0 : 0.5 : 1"
       sodipodi:type="inkscape:persp3d" />
    <inkscape:perspective
       id="perspective5033"
       inkscape:persp3d-origin="0.5 : 0.33333333 : 1"
       inkscape:vp_z="1 : 0.5 : 1"
       inkscape:vp_y="0 : 1000 : 0"
       inkscape:vp_x="0 : 0.5 : 1"
       sodipodi:type="inkscape:persp3d" />
    <inkscape:perspective
       id="perspective5058"
       inkscape:persp3d-origin="0.5 : 0.33333333 : 1"
       inkscape:vp_z="1 : 0.5 : 1"
       inkscape:vp_y="0 : 1000 : 0"
       inkscape:vp_x="0 : 0.5 : 1"
       sodipodi:type="inkscape:persp3d" />
    <inkscape:perspective
       id="perspective5081"
       inkscape:persp3d-origin="0.5 : 0.33333333 : 1"
       inkscape:vp_z="1 : 0.5 : 1"
       inkscape:vp_y="0 : 1000 : 0"
       inkscape:vp_x="0 : 0.5 : 1"
       sodipodi:type="inkscape:persp3d" />
    <inkscape:perspective
       id="perspective5104"
       inkscape:persp3d-origin="0.5 : 0.33333333 : 1"
       inkscape:vp_z="1 : 0.5 : 1"
       inkscape:vp_y="0 : 1000 : 0"
       inkscape:vp_x="0 : 0.5 : 1"
       sodipodi:type="inkscape:persp3d" />
    <inkscape:perspective
       id="perspective5127"
       inkscape:persp3d-origin="0.5 : 0.33333333 : 1"
       inkscape:vp_z="1 : 0.5 : 1"
       inkscape:vp_y="0 : 1000 : 0"
       inkscape:vp_x="0 : 0.5 : 1"
       sodipodi:type="inkscape:persp3d" />
    <inkscape:perspective
       id="perspective5154"
       inkscape:persp3d-origin="0.5 : 0.33333333 : 1"
       inkscape:vp_z="1 : 0.5 : 1"
       inkscape:vp_y="0 : 1000 : 0"
       inkscape:vp_x="0 : 0.5 : 1"
       sodipodi:type="inkscape:persp3d" />
    <inkscape:perspective
       id="perspective5177"
       inkscape:persp3d-origin="0.5 : 0.33333333 : 1"
       inkscape:vp_z="1 : 0.5 : 1"
       inkscape:vp_y="0 : 1000 : 0"
       inkscape:vp_x="0 : 0.5 : 1"
       sodipodi:type="inkscape:persp3d" />
    <inkscape:perspective
       id="perspective5200"
       inkscape:persp3d-origin="0.5 : 0.33333333 : 1"
       inkscape:vp_z="1 : 0.5 : 1"
       inkscape:vp_y="0 : 1000 : 0"
       inkscape:vp_x="0 : 0.5 : 1"
       sodipodi:type="inkscape:persp3d" />
    <inkscape:perspective
       id="perspective5236"
       inkscape:persp3d-origin="0.5 : 0.33333333 : 1"
       inkscape:vp_z="1 : 0.5 : 1"
       inkscape:vp_y="0 : 1000 : 0"
       inkscape:vp_x="0 : 0.5 : 1"
       sodipodi:type="inkscape:persp3d" />
    <inkscape:perspective
       id="perspective5259"
       inkscape:persp3d-origin="0.5 : 0.33333333 : 1"
       inkscape:vp_z="1 : 0.5 : 1"
       inkscape:vp_y="0 : 1000 : 0"
       inkscape:vp_x="0 : 0.5 : 1"
       sodipodi:type="inkscape:persp3d" />
    <inkscape:perspective
       id="perspective5282"
       inkscape:persp3d-origin="0.5 : 0.33333333 : 1"
       inkscape:vp_z="1 : 0.5 : 1"
       inkscape:vp_y="0 : 1000 : 0"
       inkscape:vp_x="0 : 0.5 : 1"
       sodipodi:type="inkscape:persp3d" />
    <inkscape:perspective
       id="perspective5307"
       inkscape:persp3d-origin="0.5 : 0.33333333 : 1"
       inkscape:vp_z="1 : 0.5 : 1"
       inkscape:vp_y="0 : 1000 : 0"
       inkscape:vp_x="0 : 0.5 : 1"
       sodipodi:type="inkscape:persp3d" />
    <inkscape:perspective
       id="perspective5330"
       inkscape:persp3d-origin="0.5 : 0.33333333 : 1"
       inkscape:vp_z="1 : 0.5 : 1"
       inkscape:vp_y="0 : 1000 : 0"
       inkscape:vp_x="0 : 0.5 : 1"
       sodipodi:type="inkscape:persp3d" />
    <inkscape:perspective
       id="perspective5353"
       inkscape:persp3d-origin="0.5 : 0.33333333 : 1"
       inkscape:vp_z="1 : 0.5 : 1"
       inkscape:vp_y="0 : 1000 : 0"
       inkscape:vp_x="0 : 0.5 : 1"
       sodipodi:type="inkscape:persp3d" />
    <inkscape:perspective
       id="perspective5376"
       inkscape:persp3d-origin="0.5 : 0.33333333 : 1"
       inkscape:vp_z="1 : 0.5 : 1"
       inkscape:vp_y="0 : 1000 : 0"
       inkscape:vp_x="0 : 0.5 : 1"
       sodipodi:type="inkscape:persp3d" />
    <inkscape:perspective
       id="perspective5400"
       inkscape:persp3d-origin="0.5 : 0.33333333 : 1"
       inkscape:vp_z="1 : 0.5 : 1"
       inkscape:vp_y="0 : 1000 : 0"
       inkscape:vp_x="0 : 0.5 : 1"
       sodipodi:type="inkscape:persp3d" />
    <inkscape:perspective
       id="perspective5426"
       inkscape:persp3d-origin="0.5 : 0.33333333 : 1"
       inkscape:vp_z="1 : 0.5 : 1"
       inkscape:vp_y="0 : 1000 : 0"
       inkscape:vp_x="0 : 0.5 : 1"
       sodipodi:type="inkscape:persp3d" />
    <inkscape:perspective
       id="perspective5464"
       inkscape:persp3d-origin="0.5 : 0.33333333 : 1"
       inkscape:vp_z="1 : 0.5 : 1"
       inkscape:vp_y="0 : 1000 : 0"
       inkscape:vp_x="0 : 0.5 : 1"
       sodipodi:type="inkscape:persp3d" />
    <inkscape:perspective
       id="perspective5487"
       inkscape:persp3d-origin="0.5 : 0.33333333 : 1"
       inkscape:vp_z="1 : 0.5 : 1"
       inkscape:vp_y="0 : 1000 : 0"
       inkscape:vp_x="0 : 0.5 : 1"
       sodipodi:type="inkscape:persp3d" />
    <inkscape:perspective
       id="perspective5510"
       inkscape:persp3d-origin="0.5 : 0.33333333 : 1"
       inkscape:vp_z="1 : 0.5 : 1"
       inkscape:vp_y="0 : 1000 : 0"
       inkscape:vp_x="0 : 0.5 : 1"
       sodipodi:type="inkscape:persp3d" />
    <inkscape:perspective
       id="perspective5533"
       inkscape:persp3d-origin="0.5 : 0.33333333 : 1"
       inkscape:vp_z="1 : 0.5 : 1"
       inkscape:vp_y="0 : 1000 : 0"
       inkscape:vp_x="0 : 0.5 : 1"
       sodipodi:type="inkscape:persp3d" />
    <inkscape:perspective
       id="perspective5558"
       inkscape:persp3d-origin="0.5 : 0.33333333 : 1"
       inkscape:vp_z="1 : 0.5 : 1"
       inkscape:vp_y="0 : 1000 : 0"
       inkscape:vp_x="0 : 0.5 : 1"
       sodipodi:type="inkscape:persp3d" />
    <inkscape:perspective
       id="perspective5581"
       inkscape:persp3d-origin="0.5 : 0.33333333 : 1"
       inkscape:vp_z="1 : 0.5 : 1"
       inkscape:vp_y="0 : 1000 : 0"
       inkscape:vp_x="0 : 0.5 : 1"
       sodipodi:type="inkscape:persp3d" />
    <inkscape:perspective
       id="perspective5617"
       inkscape:persp3d-origin="0.5 : 0.33333333 : 1"
       inkscape:vp_z="1 : 0.5 : 1"
       inkscape:vp_y="0 : 1000 : 0"
       inkscape:vp_x="0 : 0.5 : 1"
       sodipodi:type="inkscape:persp3d" />
    <inkscape:perspective
       id="perspective5641"
       inkscape:persp3d-origin="0.5 : 0.33333333 : 1"
       inkscape:vp_z="1 : 0.5 : 1"
       inkscape:vp_y="0 : 1000 : 0"
       inkscape:vp_x="0 : 0.5 : 1"
       sodipodi:type="inkscape:persp3d" />
    <inkscape:perspective
       id="perspective5664"
       inkscape:persp3d-origin="0.5 : 0.33333333 : 1"
       inkscape:vp_z="1 : 0.5 : 1"
       inkscape:vp_y="0 : 1000 : 0"
       inkscape:vp_x="0 : 0.5 : 1"
       sodipodi:type="inkscape:persp3d" />
    <inkscape:perspective
       id="perspective5689"
       inkscape:persp3d-origin="0.5 : 0.33333333 : 1"
       inkscape:vp_z="1 : 0.5 : 1"
       inkscape:vp_y="0 : 1000 : 0"
       inkscape:vp_x="0 : 0.5 : 1"
       sodipodi:type="inkscape:persp3d" />
    <inkscape:perspective
       id="perspective5712"
       inkscape:persp3d-origin="0.5 : 0.33333333 : 1"
       inkscape:vp_z="1 : 0.5 : 1"
       inkscape:vp_y="0 : 1000 : 0"
       inkscape:vp_x="0 : 0.5 : 1"
       sodipodi:type="inkscape:persp3d" />
    <inkscape:perspective
       id="perspective5735"
       inkscape:persp3d-origin="0.5 : 0.33333333 : 1"
       inkscape:vp_z="1 : 0.5 : 1"
       inkscape:vp_y="0 : 1000 : 0"
       inkscape:vp_x="0 : 0.5 : 1"
       sodipodi:type="inkscape:persp3d" />
    <inkscape:perspective
       id="perspective5758"
       inkscape:persp3d-origin="0.5 : 0.33333333 : 1"
       inkscape:vp_z="1 : 0.5 : 1"
       inkscape:vp_y="0 : 1000 : 0"
       inkscape:vp_x="0 : 0.5 : 1"
       sodipodi:type="inkscape:persp3d" />
    <inkscape:perspective
       id="perspective5783"
       inkscape:persp3d-origin="0.5 : 0.33333333 : 1"
       inkscape:vp_z="1 : 0.5 : 1"
       inkscape:vp_y="0 : 1000 : 0"
       inkscape:vp_x="0 : 0.5 : 1"
       sodipodi:type="inkscape:persp3d" />
    <inkscape:perspective
       id="perspective5806"
       inkscape:persp3d-origin="0.5 : 0.33333333 : 1"
       inkscape:vp_z="1 : 0.5 : 1"
       inkscape:vp_y="0 : 1000 : 0"
       inkscape:vp_x="0 : 0.5 : 1"
       sodipodi:type="inkscape:persp3d" />
    <inkscape:perspective
       id="perspective5829"
       inkscape:persp3d-origin="0.5 : 0.33333333 : 1"
       inkscape:vp_z="1 : 0.5 : 1"
       inkscape:vp_y="0 : 1000 : 0"
       inkscape:vp_x="0 : 0.5 : 1"
       sodipodi:type="inkscape:persp3d" />
    <inkscape:perspective
       id="perspective5852"
       inkscape:persp3d-origin="0.5 : 0.33333333 : 1"
       inkscape:vp_z="1 : 0.5 : 1"
       inkscape:vp_y="0 : 1000 : 0"
       inkscape:vp_x="0 : 0.5 : 1"
       sodipodi:type="inkscape:persp3d" />
    <inkscape:perspective
       id="perspective5877"
       inkscape:persp3d-origin="0.5 : 0.33333333 : 1"
       inkscape:vp_z="1 : 0.5 : 1"
       inkscape:vp_y="0 : 1000 : 0"
       inkscape:vp_x="0 : 0.5 : 1"
       sodipodi:type="inkscape:persp3d" />
    <inkscape:perspective
       id="perspective5900"
       inkscape:persp3d-origin="0.5 : 0.33333333 : 1"
       inkscape:vp_z="1 : 0.5 : 1"
       inkscape:vp_y="0 : 1000 : 0"
       inkscape:vp_x="0 : 0.5 : 1"
       sodipodi:type="inkscape:persp3d" />
    <inkscape:perspective
       id="perspective5923"
       inkscape:persp3d-origin="0.5 : 0.33333333 : 1"
       inkscape:vp_z="1 : 0.5 : 1"
       inkscape:vp_y="0 : 1000 : 0"
       inkscape:vp_x="0 : 0.5 : 1"
       sodipodi:type="inkscape:persp3d" />
    <inkscape:perspective
       id="perspective5946"
       inkscape:persp3d-origin="0.5 : 0.33333333 : 1"
       inkscape:vp_z="1 : 0.5 : 1"
       inkscape:vp_y="0 : 1000 : 0"
       inkscape:vp_x="0 : 0.5 : 1"
       sodipodi:type="inkscape:persp3d" />
    <inkscape:perspective
       id="perspective5969"
       inkscape:persp3d-origin="0.5 : 0.33333333 : 1"
       inkscape:vp_z="1 : 0.5 : 1"
       inkscape:vp_y="0 : 1000 : 0"
       inkscape:vp_x="0 : 0.5 : 1"
       sodipodi:type="inkscape:persp3d" />
    <inkscape:perspective
       id="perspective5997"
       inkscape:persp3d-origin="0.5 : 0.33333333 : 1"
       inkscape:vp_z="1 : 0.5 : 1"
       inkscape:vp_y="0 : 1000 : 0"
       inkscape:vp_x="0 : 0.5 : 1"
       sodipodi:type="inkscape:persp3d" />
    <inkscape:perspective
       id="perspective6020"
       inkscape:persp3d-origin="0.5 : 0.33333333 : 1"
       inkscape:vp_z="1 : 0.5 : 1"
       inkscape:vp_y="0 : 1000 : 0"
       inkscape:vp_x="0 : 0.5 : 1"
       sodipodi:type="inkscape:persp3d" />
    <inkscape:perspective
       id="perspective6043"
       inkscape:persp3d-origin="0.5 : 0.33333333 : 1"
       inkscape:vp_z="1 : 0.5 : 1"
       inkscape:vp_y="0 : 1000 : 0"
       inkscape:vp_x="0 : 0.5 : 1"
       sodipodi:type="inkscape:persp3d" />
    <inkscape:perspective
       id="perspective6066"
       inkscape:persp3d-origin="0.5 : 0.33333333 : 1"
       inkscape:vp_z="1 : 0.5 : 1"
       inkscape:vp_y="0 : 1000 : 0"
       inkscape:vp_x="0 : 0.5 : 1"
       sodipodi:type="inkscape:persp3d" />
    <inkscape:perspective
       id="perspective6091"
       inkscape:persp3d-origin="0.5 : 0.33333333 : 1"
       inkscape:vp_z="1 : 0.5 : 1"
       inkscape:vp_y="0 : 1000 : 0"
       inkscape:vp_x="0 : 0.5 : 1"
       sodipodi:type="inkscape:persp3d" />
    <inkscape:perspective
       id="perspective6114"
       inkscape:persp3d-origin="0.5 : 0.33333333 : 1"
       inkscape:vp_z="1 : 0.5 : 1"
       inkscape:vp_y="0 : 1000 : 0"
       inkscape:vp_x="0 : 0.5 : 1"
       sodipodi:type="inkscape:persp3d" />
    <inkscape:perspective
       id="perspective6137"
       inkscape:persp3d-origin="0.5 : 0.33333333 : 1"
       inkscape:vp_z="1 : 0.5 : 1"
       inkscape:vp_y="0 : 1000 : 0"
       inkscape:vp_x="0 : 0.5 : 1"
       sodipodi:type="inkscape:persp3d" />
    <inkscape:perspective
       id="perspective6160"
       inkscape:persp3d-origin="0.5 : 0.33333333 : 1"
       inkscape:vp_z="1 : 0.5 : 1"
       inkscape:vp_y="0 : 1000 : 0"
       inkscape:vp_x="0 : 0.5 : 1"
       sodipodi:type="inkscape:persp3d" />
    <inkscape:perspective
       id="perspective6183"
       inkscape:persp3d-origin="0.5 : 0.33333333 : 1"
       inkscape:vp_z="1 : 0.5 : 1"
       inkscape:vp_y="0 : 1000 : 0"
       inkscape:vp_x="0 : 0.5 : 1"
       sodipodi:type="inkscape:persp3d" />
    <inkscape:perspective
       id="perspective6208"
       inkscape:persp3d-origin="0.5 : 0.33333333 : 1"
       inkscape:vp_z="1 : 0.5 : 1"
       inkscape:vp_y="0 : 1000 : 0"
       inkscape:vp_x="0 : 0.5 : 1"
       sodipodi:type="inkscape:persp3d" />
    <inkscape:perspective
       id="perspective6231"
       inkscape:persp3d-origin="0.5 : 0.33333333 : 1"
       inkscape:vp_z="1 : 0.5 : 1"
       inkscape:vp_y="0 : 1000 : 0"
       inkscape:vp_x="0 : 0.5 : 1"
       sodipodi:type="inkscape:persp3d" />
    <inkscape:perspective
       id="perspective6256"
       inkscape:persp3d-origin="0.5 : 0.33333333 : 1"
       inkscape:vp_z="1 : 0.5 : 1"
       inkscape:vp_y="0 : 1000 : 0"
       inkscape:vp_x="0 : 0.5 : 1"
       sodipodi:type="inkscape:persp3d" />
    <inkscape:perspective
       id="perspective6279"
       inkscape:persp3d-origin="0.5 : 0.33333333 : 1"
       inkscape:vp_z="1 : 0.5 : 1"
       inkscape:vp_y="0 : 1000 : 0"
       inkscape:vp_x="0 : 0.5 : 1"
       sodipodi:type="inkscape:persp3d" />
    <inkscape:perspective
       id="perspective6302"
       inkscape:persp3d-origin="0.5 : 0.33333333 : 1"
       inkscape:vp_z="1 : 0.5 : 1"
       inkscape:vp_y="0 : 1000 : 0"
       inkscape:vp_x="0 : 0.5 : 1"
       sodipodi:type="inkscape:persp3d" />
    <inkscape:perspective
       id="perspective6325"
       inkscape:persp3d-origin="0.5 : 0.33333333 : 1"
       inkscape:vp_z="1 : 0.5 : 1"
       inkscape:vp_y="0 : 1000 : 0"
       inkscape:vp_x="0 : 0.5 : 1"
       sodipodi:type="inkscape:persp3d" />
    <inkscape:perspective
       id="perspective6348"
       inkscape:persp3d-origin="0.5 : 0.33333333 : 1"
       inkscape:vp_z="1 : 0.5 : 1"
       inkscape:vp_y="0 : 1000 : 0"
       inkscape:vp_x="0 : 0.5 : 1"
       sodipodi:type="inkscape:persp3d" />
  </defs>
  <sodipodi:namedview
     id="base"
     pagecolor="#000000"
     bordercolor="#666666"
     borderopacity="1.0"
     inkscape:pageopacity="0"
     inkscape:pageshadow="2"
     inkscape:zoom="0.35"
     inkscape:cx="265.74034"
     inkscape:cy="658.48645"
     inkscape:document-units="px"
     inkscape:current-layer="layer2"
     showgrid="false"
     borderlayer="true"
     inkscape:showpageshadow="false"
     inkscape:window-width="1360"
     inkscape:window-height="716"
     inkscape:window-x="-4"
     inkscape:window-y="-4"
     inkscape:window-maximized="1" />
  <metadata
     id="metadata7">
    <rdf:RDF>
      <cc:Work
         rdf:about="">
        <dc:format>image/svg+xml</dc:format>
        <dc:type
           rdf:resource="http://purl.org/dc/dcmitype/StillImage" />
        <dc:title></dc:title>
      </cc:Work>
    </rdf:RDF>
  </metadata>
  <g
     inkscape:groupmode="layer"
     id="layer2"
     inkscape:label="臺灣"
     style="display:inline"
     sodipodi:insensitive="true">
    <path
       style="fill:#000000;fill-opacity:1;stroke:#ffffff;stroke-width:2;stroke-linecap:butt;stroke-linejoin:miter;stroke-miterlimit:0;stroke-opacity:1;stroke-dasharray:none"
       d="m 808.9375,46.0625 -6.09375,2.875 -9.28125,1.40625 -10.71875,3.59375 -5,3.5625 -4.625,6.0625 -6.78125,1.09375 -3.21875,6.0625 -0.71875,5 -5.34375,3.5625 -2.875,6.4375 1.0625,5 -15,10.71875 -11.0625,4.28125 -12.84375,1.4375 -7.5,1.40625 -7.5,1.09375 -13.59375,0.6875 -15.34375,7.875 -10.71875,3.5625 -14.625,5 -20.375,14.65625 -8.9375,10 -1.78125,8.90625 -12.5,14.3125 -4.625,10.34375 -6.78125,13.9375 -8.59375,6.40625 0.71875,15.71875 -3.5625,13.59375 -13.5625,6.78125 -1.8125,8.21875 -9.625,11.40625 -9.28125,1.78125 -10,1.4375 -5.71875,10 2.125,6.4375 -7.84375,2.84375 -6.4375,-1.78125 -5,9.65625 -6.78125,15 -6.0625,19.625 -15,12.15625 -2.875,2.84375 L 473.5625,352.5 470.34375,365.71875 462.5,372.5 l -5,10.34375 0.34375,8.21875 -3.90625,0.375 -0.71875,7.125 -5,7.875 -2.875,10.34375 -8.1875,6.78125 -1.09375,6.78125 -7.125,7.875 -5,7.5 -3.59375,17.84375 -18.5625,11.4375 -10.34375,11.4375 -0.71875,5.71875 2.84375,3.1875 -6.40625,5 -11.8125,16.8125 -1.40625,8.1875 -7.875,9.65625 -8.5625,4.65625 0.34375,2.5 2.5,4.28125 -7.84375,6.40625 -0.71875,5.71875 -3.21875,4.65625 -7.5,7.84375 -1.40625,7.15625 -1.8125,0.34375 -0.34375,9.65625 -1.78125,4.625 -6.0625,1.09375 -2.875,5 -8.9375,12.125 -0.34375,12.5 3.5625,2.15625 -0.34375,7.5 -2.5,5.34375 0.34375,13.21875 2.15625,3.5625 -0.71875,21.8125 0.71875,4.28125 -1.4375,1.78125 1.0625,9.625 2.5,1.4375 -0.34375,2.5 -5,3.21875 -0.34375,11.78125 -8.9375,6.78125 -2.15625,12.5 -6.78125,6.09375 0,10.6875 -4.625,12.875 -5.375,6.0625 2.15625,7.15625 -4.65625,6.78125 -2.125,6.78125 -1.4375,8.9375 -1.4375,6.40625 7.5,0 5,3.21875 6.0625,5 2.5,4.28125 1.8125,8.21875 8.5625,2.5 7.125,6.09375 7.875,11.0625 2.5,11.0625 2.125,11.0625 7.875,25 17.5,40 2.5,10.71875 -2.15625,3.21875 -2.84375,3.21875 1.0625,7.15625 5.71875,10.6875 19.28125,22.15625 12.5,13.5625 13.9375,9.6563 9.625,0.3437 4.3125,3.9375 3.90625,6.4375 7.875,3.5625 6.0625,4.2812 17.5,8.9376 15,10 5,8.9374 8.5625,7.5 5.375,7.5 1.0625,13.9063 11.0625,15.7187 0.71875,5.7188 3.21875,5.3438 2.84375,12.875 4.3125,9.625 1.78125,9.3124 -5.375,10 -5,9.2813 1.4375,4.625 4.28125,5 5.375,8.2187 -2.5,5 0.6875,9.6563 4.65625,4.625 5.34375,0.375 0,-9.2813 5.71875,-4.6562 5.71875,3.9375 L 545,1195 l 7.15625,2.5 5,5.3438 2.5,1.8124 3.1875,5 2.875,0 0.34375,-6.8124 -6.78125,-10.3438 -1.0625,-7.8438 1.78125,-1.0937 -0.71875,-7.8437 5.375,0 2.84375,-2.5 1.78125,-6.7813 2.5,-2.5 3.9375,-10 1.0625,-12.875 0.71875,-3.5625 -2.5,-4.2812 0,-3.5626 1.4375,-7.5 0.34375,-21.8124 2.15625,-6.0626 -1.78125,-7.125 0,-30.375 5,-6.7812 0.6875,-7.8438 2.5,-3.5937 0,-4.2813 3.9375,-4.625 4.28125,-9.6562 1.09375,-3.9375 1.40625,-9.2813 2.15625,-1.7812 0,-6.4375 3.5625,-3.21875 0.71875,-6.0625 3.21875,-1.4375 1.78125,-9.28125 8.5625,-6.0625 0,-8.5625 1.4375,-7.15625 5,-8.5625 8.9375,-6.4375 9.625,-9.28125 8.59375,-0.71875 7.84375,-5 3.5625,-3.21875 13.21875,-10.71875 0.375,-8.1875 4.625,-5 -3.5625,-10 0.71875,-6.09375 2.84375,-3.21875 6.78125,-3.90625 7.15625,-0.71875 6.4375,-4.28125 0.34375,-7.5 4.28125,-2.875 3.5625,-5.71875 0,-5 5,-3.1875 5.71875,-6.8125 2.5,-5 0.71875,-6.40625 5,-7.875 2.5,-4.625 0,-3.9375 7.15625,-13.9375 7.84375,-1.78125 0,-2.125 10.375,-3.21875 L 748.5625,785 747.15625,781.0625 750.34375,777.5 750,770.71875 l -1.4375,-3.9375 0,-5 1.78125,-5.71875 4.3125,-10.34375 5.6875,-13.5625 5.375,-7.875 5,0 1.78125,-2.125 0,-7.5 1.4375,-7.15625 1.0625,-8.9375 6.78125,-15.34375 1.0625,-8.5625 6.09375,-8.21875 -3.9375,-5 -0.71875,-9.28125 2.5,-2.15625 0,-6.78125 4.65625,-6.78125 3.21875,-10 0,-13.59375 2.84375,-5 1.4375,-8.1875 1.40625,-5.375 -1.40625,-3.21875 0.34375,-3.90625 2.875,-1.8125 -1.8125,-2.5 0,-5.34375 5.375,-6.4375 1.78125,-12.125 0.34375,-7.875 6.4375,-12.84375 3.5625,0 1.8125,-7.15625 0.6875,-16.0625 2.5,-4.65625 -2.5,-2.5 L 820,503.9375 821.78125,500.34375 826.0625,495 830,493.9375 830.34375,491.78125 835,488.5625 l -9.28125,-8.21875 -4.28125,-6.40625 1.78125,-10 2.5,-8.9375 8.21875,-4.65625 5.34375,-6.78125 -0.34375,-6.40625 -3.59375,-7.15625 3.59375,-5.71875 6.40625,-6.0625 7.15625,-4.65625 5,-5.71875 L 865,405 l 3.21875,-8.5625 -0.375,-4.65625 7.875,-6.4375 0.34375,-13.90625 3.59375,-7.5 2.125,-6.09375 1.0625,-12.5 4.3125,-3.5625 2.84375,-2.125 2.84375,-6.4375 L 905,326.0625 901.4375,321.78125 897.84375,320 l 1.4375,-6.78125 5.375,-0.375 6.0625,-2.84375 -1.0625,-12.5 -2.875,-5.34375 0.71875,-10.375 -7.5,-8.9375 0.34375,-6.78125 L 897.5,262.5 l 0.71875,-13.21875 -3.5625,-6.4375 -1.4375,-8.1875 -1.0625,-21.8125 2.125,-2.125 0,-8.5625 3.21875,-9.3125 6.4375,-8.1875 10,-5.375 2.84375,-8.21875 9.28125,-4.28125 2.15625,-6.0625 7.125,-2.5 14.3125,-5.71875 5.34375,-6.0625 -4.28125,-4.28125 -6.4375,-1.09375 -7.84375,1.78125 -6.78125,-4.28125 0,-11.0625 -4.65625,-4.28125 -0.71875,-6.0625 4.28125,-3.9375 -2.125,-3.9375 1.78125,-3.5625 -8.21875,2.84375 -3.5625,-1.40625 -18.21875,-0.71875 -10.375,-4.65625 -14.625,-7.5 -4.65625,1.0625 -13.21875,-3.5625 -1.0625,-3.21875 -6.0625,0.375 -2.15625,-3.21875 0.375,-6.4375 -5,0.375 -5.375,-3.9375 -2.5,-5 L 830,68.9375 l -2.5,-10.375 -11.0625,-9.28125 -7.5,-3.21875 z M 135,561.4375 l -1.78125,5.71875 -4.65625,3.5625 L 132.5,575 l -1.4375,3.9375 2.15625,5.34375 7.125,-3.5625 1.4375,-4.65625 -5.34375,-3.90625 1.0625,-5.71875 -2.5,-5 z m 0.71875,36.40625 -10,1.8125 -7.5,3.1875 -1.4375,5.71875 2.15625,2.5 3.90625,-2.84375 5.375,-0.375 1.78125,6.8125 0,5.34375 7.84375,-3.5625 3.59375,-8.59375 0.34375,-4.28125 -6.0625,-5.71875 z m -31.0625,12.875 -5.71875,5.71875 0.71875,7.125 1.40625,6.78125 -0.34375,4.3125 -5.71875,1.0625 -3.9375,3.5625 5.71875,1.78125 9.28125,-2.84375 4.65625,-6.0625 -2.5,-9.65625 0.34375,-4.28125 5,-4.28125 -8.90625,-3.21875 z m 43.5625,8.21875 -5,0.34375 -5,3.21875 0.34375,5 -3.5625,6.0625 -4.28125,-2.5 0.34375,-5 -5,0 -5.34375,4.65625 -0.375,4.28125 5.71875,2.15625 7.15625,7.5 0,3.1875 -7.5,2.875 -6.4375,-3.5625 -3.5625,-4.3125 -7.875,7.15625 7.5,1.78125 6.4375,2.875 3.9375,5 6.78125,0 5,-2.875 1.0625,-8.21875 10.71875,-8.21875 7.15625,-0.34375 5.71875,3.9375 8.1875,-4.65625 -7.125,-4.625 2.84375,-8.9375 -2.5,-5 -7.5,2.125 -5.71875,0.71875 -2.125,-4.625 z m -50.71875,77.5 -1.0625,4.625 0.34375,5 -3.21875,5 8.21875,-0.71875 2.875,-1.0625 4.625,2.15625 8.9375,-3.9375 -5.375,-4.28125 -5.6875,-0.375 -3.59375,-5 L 97.5,696.4375 z m -23.9375,59.625 -3.90625,3.21875 1.0625,5.375 4.625,5 2.5,-3.59375 3.59375,-5.34375 1.0625,-4.65625 -8.9375,0 z m 705.375,184.65625 -5.1875,0.875 -3.5625,2.15625 3.21875,3.5625 1.40625,5.53125 2.875,0.375 4.46875,3.75 3.90625,-1.4375 -2.5,-3.9375 1.96875,-4.8125 0.53125,-4.625 -3.90625,0.34375 -3.21875,-1.78125 z m -380.53125,111.59375 -2.875,1.25 -1.96875,3.75 -1.78125,3.4063 -0.34375,1.9687 1.40625,0.5313 3.0625,0.1874 0.875,-2.1562 3.03125,-2.6875 4.125,-2.5 -0.375,-3.75 -5.15625,0 z m 390.875,88.75 -5.71875,1.4375 1.78125,3.5625 3.59375,2.1563 1.0625,8.9374 3.5625,2.125 2.5,3.2188 5,0.3438 4.28125,2.875 3.9375,5.3437 7.15625,-0.3437 2.5,-3.2188 -0.71875,-4.2812 -5.375,-1.7813 -4.28125,-2.5 -1.78125,-5.375 2.15625,-2.8437 -0.375,-7.1563 -6.78125,-0.3437 -5.71875,1.0624 -6.78125,-3.2187 z m 32.3125,45.625 -1.9375,0.7187 -0.28125,2.0626 1.4375,1.6874 2.5,-0.1874 1.34375,-1.875 -0.5625,-1.7813 -2.5,-0.625 z"
       id="path2831" />
  </g>
  <g
     inkscape:groupmode="layer"
     id="layer3"
     inkscape:label="廳界"
     style="display:inline"
     sodipodi:insensitive="true">
    <path
       style="fill:#ffc389;fill-opacity:1;stroke:none;display:inline"
       d="m 808.938,46.062746 -3.84375,1.8125 0.75,5.34375 3.28125,2.78125 1.78125,3.53125 -1.78125,3.78125 -2.53125,4.3125 -1,4.03125 -1.75,4.53125 -1.28125,4.562504 2.28125,1.5 5.8125,1.78125 0.25,2.78125 -1.28125,3.28125 0.78125,1.78125 2,0.5 2.28125,4.78125 2.03125,2.53125 2.78125,3.03125 -1.28125,3.53125 -1.75,2.28125 0,2.28125 1.25,1.75 2.03125,0.25 3.03125,-0.5 1.5,2.78125 1.53125,3.28125 -1.03125,2.53125 0.25,7.5625 -2,2.78125 0.75,3.28125 5.5625,2.53125 6.375,1.0625 4.03125,-0.40625 1.21875,-0.125 2.34375,-3.125 1.5,-1.53125 3.21875,1.15625 1.96875,2.15625 1.0625,5.09375 1.5,3.8125 5.3125,1.25 2.03125,4.28125 -0.28125,5.3125 3.8125,2.03125 5.28125,0 3.8125,-1.53125 2.78125,-2 4.28125,-0.78125 4.53125,4.0625 -2.5,3.03125 1,6.3125 -1.28125,3.28125 -2.75,1.75 -2.03125,1.78125 1.5,2.53125 3.5625,1.5 1.15625,4.5 2.875,-0.1875 4.28125,0 4.0625,-0.53125 2.25,-1 5.0625,-4.03125 1.5,-4.5625 -1.75,-2 0,-4.0625 0.25,-3.78125 4.78125,-1.5 4.3125,1.25 3.53125,-0.25 4.53125,-2.28125 4.21875,-3.375 5.34375,-0.1875 2.5,-1.3125 3.21875,-1.96875 3.03125,-0.28125 5.71875,0.0937 3.75,1.03125 0.28125,0.21875 3.125,-1.25 5.34375,-6.0625 -4.28125,-4.28125 -6.4375,-1.09375 -7.84375,1.78125 -6.78125,-4.28125 0,-11.0625 -4.65625,-4.28125 -0.71875,-6.0625 4.28125,-3.9375 -2.125,-3.9375 1.78125,-3.5625 -8.21875,2.84375 -3.5625,-1.40625 -18.21875,-0.71875 -10.375,-4.65625 -14.625,-7.5 -4.65625,1.0625 -13.21875,-3.5625 -1.0625,-3.21875 -6.0625,0.375 -2.15625,-3.21875 0.375,-6.4375 -5,0.375 -5.375,-3.937504 -2.5,-5 -3.5625,-1.7812 -2.5,-10.375 -11.0625,-9.28125 -7.5,-3.21875 z"
       id="rect6245" />
    <path
       style="fill:#89ff89;fill-opacity:1;stroke:none;display:inline"
       d="m 936.7815,152.40625 -3.03125,0.28125 -3.21875,1.96875 -2.5,1.3125 -5.34375,0.1875 -4.21875,3.375 -4.53125,2.28125 -3.53125,0.25 -4.3125,-1.25 -4.78125,1.5 -0.25,3.78125 0,4.0625 1.75,2 -1.5,4.5625 -5.0625,4.03125 -2.25,1 -4.0625,0.53125 -4.28125,0 -3.78125,0.25 -1.78125,2.5 -0.75,3.3125 -1.03125,3.53125 -2.5,3.03125 -4.3125,3.53125 -4.78125,1 -3.28125,4.03125 -0.5,4.5625 2.25,3.78125 -2.78125,3.03125 -5.28125,1 -3.8125,3.28125 0.28125,3.03125 -5.5625,3.8125 -4.0625,4.03125 -0.5,6.0625 0.25,4.03125 0.78125,4.3125 -1.28125,3.28125 -4.78125,2.5 -3.53125,2.03125 -4.0625,0 -4.28125,2.03125 -5.8125,3.78125 -2.53125,5.3125 1.28125,3.53125 2,0.25 4.8125,-1.53125 3.78125,0 1.5,1.53125 6.0625,-1 7.84375,-4.5625 c 0,0 3.26856,0.77618 4.53125,1.28125 1.26269,0.50508 8.09375,4.78125 8.09375,4.78125 l 4.53125,5.0625 4.3125,2.25 11.34375,1.78125 8.09375,3.03125 5.0625,5.0625 7.5625,5.28125 4.6875,1.28125 3.03125,0 0.125,-0.375 0.625,-9.21875 -7.5,-8.9375 0.34375,-6.78125 -2.84375,-3.5625 0.71875,-13.21875 -3.5625,-6.4375 -1.4375,-8.1875 -1.0625,-21.8125 2.125,-2.125 0,-8.5625 3.21875,-9.3125 6.4375,-8.1875 10,-5.375 2.84375,-8.21875 9.28125,-4.28125 2.15625,-6.0625 7.125,-2.5 11.1875,-4.46875 -0.28125,-0.21875 -3.75,-1.03125 -5.71875,-0.0937 z"
       id="rect6197" />
    <path
       style="fill:#ffc4ff;fill-opacity:1;stroke:none;display:inline"
       d="m 844.8131,132.93725 -1.5,1.53125 -2.34375,3.125 -1.21875,0.125 0.0312,0.25 -1.9375,2.375 -11.78125,0 -9.8125,3.9375 -10.90625,0.375 -8.90625,2.5 -5,8.03125 -9.65625,4.625 -9.46875,6.09375 -5.6875,2.53125 0.0937,0.125 0.40625,0.25 -0.8125,0.125 3.5,3.375 2.5,1.09375 1.84375,0.25 3.34375,0.4375 2.15625,3.75 2.125,4.46875 -3.21875,2.34375 -3.75,2.3125 0.1875,2.125 1.4375,2.15625 3.5625,1.59375 2.6875,-0.15625 7.5,-3.75 4.28125,-1.78125 1.78125,-2.875 6.4375,-2.3125 3.75,-0.1875 5,-2.84375 6.59375,-1.78125 5,0.875 3.40625,-2.3125 7.65625,0 6.09375,0.71875 6.78125,0.53125 4.09375,5 5.53125,1.78125 7.6875,3.5625 5.375,2.6875 5.15625,3.5625 1.09375,0.71875 0.875,-0.5625 1.53125,-1.84375 1.03125,-3.53125 0.75,-3.3125 1.78125,-2.5 0.90625,-0.0625 -1.15625,-4.5 -3.5625,-1.5 -1.5,-2.53125 2.03125,-1.78125 2.75,-1.75 1.28125,-3.28125 -1,-6.3125 2.5,-3.03125 -4.53125,-4.0625 -4.28125,0.78125 -2.78125,2 -3.8125,1.53125 -5.28125,0 -3.8124,-2.03125 0.28125,-5.3125 -2.03125,-4.28125 -5.3125,-1.25 -1.5,-3.8125 -1.0625,-5.09375 -1.96875,-2.15625 -3.21875,-1.15625 z"
       id="rect6080" />
    <path
       style="fill:#8989ff;fill-opacity:1;stroke:none;display:inline"
       d="m 805.0942,47.874505 -2.25,1.0625 -9.28125,1.40625 -10.71875,3.59375 -5,3.5625 -4.625,6.0625 -6.78125,1.09375 -3.21875,6.0625 -0.71875,5 -5.34375,3.5625 -2.875,6.4375 1.0625,5 -15,10.718745 -11.0625,4.28125 -12.84375,1.4375 -7.5,1.40625 -7.5,1.09375 -4.09375,0.1875 -0.0312,0.25 1.71875,3.21875 1.25,2.53125 0.625,3.96875 4.4375,0.375 2.34375,2.65625 3.5625,-1.59375 2.84375,1.59375 1.25,2.34375 1.625,2.125 4.09375,1.25 3.21875,0.90625 4.46875,-1.96875 6.59375,-0.34375 5.5625,3.1875 2.84375,4.125 0.1875,6.0625 -2.5,2.5 -2.5,1.96875 -1.25,1.96875 1.59375,2.3125 2.5,1.96875 3.9375,0.53125 3.5625,-1.4375 0.71875,-2.5 -1.4375,-2.84375 1.09375,-1.96875 4.625,-1.25 3.5625,3.5625 0.5625,4.3125 -1.09375,5.53125 -1.0625,4.09375 -0.90625,3.03125 -3.03125,2.34375 -0.71875,3.1875 2.6875,2.34375 3.5625,1.25 5.71875,-1.625 3.0625,-1.375 5.6875,-2.53125 9.46875,-6.09375 9.65625,-4.625 5,-8.03125 8.90625,-2.5 10.90625,-0.375 9.8125,-3.9375 11.78125,0 1.9375,-2.375 -0.0312,-0.25 -4.03125,0.40625 -6.375,-1.0625 -5.5625,-2.53125 -0.75,-3.28125 2,-2.78125 -0.25,-7.5625 1.03125,-2.53125 -1.53125,-3.28125 -1.5,-2.78125 -3.03125,0.5 -2.03125,-0.25 -1.25,-1.75 0,-2.28125 1.75,-2.28125 1.28125,-3.53125 -2.78125,-3.031245 -2.03125,-2.53125 -2.28125,-4.78125 -2,-0.5 -0.78125,-1.78125 1.28125,-3.28125 -0.25,-2.78125 -5.8125,-1.78125 -2.28125,-1.5 1.28125,-4.5625 1.75,-4.53125 1,-4.03125 2.53125,-4.3125 1.78125,-3.78125 -1.78125,-3.53125 -3.28125,-2.78125 -0.75,-5.34375 z"
       id="rect5986" />
    <path
       style="fill:#c4c4c4;fill-opacity:1;stroke:none;display:inline"
       d="m 696.8125,109.875 -8.96875,0.46875 -15.34375,7.875 -10.71875,3.5625 -14.625,5 -20.375,14.65625 -8.9375,10 -1.78125,8.90625 -7.71875,8.84375 2.71875,0.46875 3.21875,-1.25 5.53125,-0.1875 4.84375,-1.625 4.09375,1.625 3.40625,2.84375 0.15625,4.46875 -0.53125,3.5625 2.3125,3.40625 4.84375,0.53125 4.09375,1.78125 6.25,0.375 1.0625,2.3125 2.15625,2.3125 3.21875,0.53125 2.5,-1.78125 3.9375,0.375 5.34375,3.21875 -1.96875,6.78125 -2.84375,4.09375 -5.90625,1.96875 -3.375,0.90625 -3.59375,1.25 -1.25,3.375 1.09375,7.5 0.875,5.71875 2.6875,3.75 4.625,-0.53125 4.84375,1.96875 3.5625,3.03125 3.21875,1.4375 3.75,2.65625 6.5,1.125 0.0937,0.4375 0.1875,-0.46875 -1.4375,-5 5.71875,-3.9375 1.78125,-4.65625 6.78125,-7.84375 10.71875,-6.0625 10.71875,-3.9375 5,-3.9375 2.15625,-5.71875 3.21875,-4.625 4.28125,-1.09375 8.5625,-6.40625 4.28125,-0.71875 4.65625,-3.5625 5,-2.875 8.5625,0 5.71875,0 5,-0.71875 3.4375,-2.40625 -1.84375,-0.25 -2.5,-1.09375 -3.5,-3.375 0.8125,-0.125 -0.40625,-0.25 -0.0937,-0.125 -3.0625,1.375 -5.71875,1.625 -3.5625,-1.25 -2.6875,-2.34375 0.71875,-3.1875 3.03125,-2.34375 0.90625,-3.03125 1.0625,-4.09375 1.09375,-5.53125 -0.5625,-4.3125 -3.5625,-3.5625 -4.625,1.25 L 748.5625,145 750,147.84375 l -0.71875,2.5 -3.5625,1.4375 -3.9375,-0.53125 -2.5,-1.96875 -1.59375,-2.3125 1.25,-1.96875 2.5,-1.96875 2.5,-2.5 -0.1875,-6.0625 -2.84375,-4.125 -5.5625,-3.1875 -6.59375,0.34375 -4.46875,1.96875 -3.21875,-0.90625 -4.09375,-1.25 -1.625,-2.125 -1.25,-2.34375 -2.84375,-1.59375 -3.5625,1.59375 -2.34375,-2.65625 -4.4375,-0.375 -0.625,-3.96875 -1.25,-2.53125 -1.71875,-3.21875 -0.5,-0.21875 z"
       id="rect5866" />
    <path
       style="fill:#ff8989;fill-opacity:1;stroke:none;display:inline"
       d="m 624.656,166.594 -4.84375,1.625 -5.53125,0.1875 -3.21875,1.25 -2.71875,-0.46875 -4.78125,5.46875 -4.625,10.34375 -6.78125,13.9375 -8.59375,6.40625 0.71875,15.71875 -3.5625,13.59375 -13.5625,6.78125 -1.8125,8.21875 -9.625,11.40625 -0.8125,0.15625 0.9375,0.21875 3.8125,2.3125 3.1875,0.53125 4.65625,0.90625 1.4375,3.375 2.84375,2.6875 -0.53125,4.46875 2.5,1.4375 4.09375,0.34375 3.59375,-0.71875 3.21875,2.6875 -1.4375,2.5 1.59375,2.6875 1.4375,0.6875 2.5,-2.3125 3.21875,-0.53125 4.46875,2.6875 c 0,0 1.25446,2.5 1.96875,2.5 0.71428,0 6.25,0.15625 6.25,0.15625 l 0.15625,4.46875 -3.03125,4.125 -2.5,4.46875 -1.4375,3.03125 -0.875,4.46875 0.0312,0.1875 5.15625,-0.75 2.5,-3.1875 4.28125,-2.875 1.40625,-2.5 5,-1.78125 4.65625,-6.78125 14.28125,-15 11.0625,-5 7.5,-2.5 7.15625,-6.78125 4.65625,-7.5 6.40625,-2.5 6.78125,-8.9375 1.96875,-4.875 -0.0937,-0.4375 -6.5,-1.125 -3.75,-2.65625 -3.21875,-1.4375 -3.5625,-3.03125 -4.84375,-1.96875 -4.625,0.53125 -2.6875,-3.75 -0.875,-5.71875 -1.09375,-7.5 1.25,-3.375 3.59375,-1.25 3.375,-0.90625 5.90625,-1.96875 2.84375,-4.09375 1.96875,-6.78125 -5.34375,-3.21875 -3.9375,-0.375 -2.5,1.78125 -3.21875,-0.53125 -2.15625,-2.3125 -1.0625,-2.3125 -6.25,-0.375 -4.09375,-1.78125 -4.84375,-0.53125 -2.3125,-3.40625 0.53125,-3.5625 -0.15625,-4.46875 -3.40625,-2.84375 -4.09375,-1.625 z"
       id="rect5772" />
    <path
       style="fill:#89ffc9;fill-opacity:1;stroke:none;display:inline"
       d="m 554.906,261.2185 -8.46875,1.625 -10,1.4375 -5.71875,10 2.125,6.4375 -7.84375,2.84375 -6.4375,-1.78125 -5,9.65625 -6.78125,15 -6.0625,19.625 -15,12.15625 -2.875,2.84375 -9.28125,11.4375 -3.21875,13.21875 -7.84375,6.78125 -1.21875,2.5 6.40625,3.5 2.78125,1.75 2.53125,2.78125 5.3125,0.5 5.8125,0.25 7.0625,1.78125 2.03125,4.8125 5.28125,3.53125 7.34375,2.25 14.125,-0.25 6.3125,-2.25 4.5625,-3.03125 1.5,-5.5625 -2.28125,-3.53125 3.3125,-2.28125 3.53125,2.03125 2.5,2.25 4.8125,-0.5 3.78125,0.25 2.03125,3.03125 3.78125,3.78125 3.28125,2.03125 3.28125,0.25 2.28125,-1.5 4.28125,-1.03125 6.3125,-1.25 6.21875,1.9375 0.125,0.25 0.0625,-0.0625 2.84375,-3.9375 -1.78125,-4.28125 -7.5,-0.71875 -5.375,-2.84375 -5.34375,-0.71875 -4.65625,-2.5 -2.84375,-2.15625 1.4375,-2.84375 3.5625,-6.4375 5.34375,-3.21875 4.3125,-2.84375 -0.375,-6.0625 7.15625,-2.5 -2.875,-2.15625 -1.40625,-3.9375 -1.09375,-4.28125 3.59375,-1.0625 4.28125,-3.21875 0,-5.34375 6.0625,-1.09375 2.15625,-3.21875 -2.5,-3.1875 0.6875,-5 2.15625,-4.3125 4.65625,-3.5625 4.84375,-0.6875 -0.0312,-0.1875 0.875,-4.46875 1.4375,-3.03125 2.5,-4.46875 3.03125,-4.125 -0.15625,-4.46875 c 0,0 -5.53572,-0.15625 -6.25,-0.15625 -0.71429,0 -1.96875,-2.5 -1.96875,-2.5 l -4.46875,-2.6875 -3.21875,0.53125 -2.5,2.3125 -1.4375,-0.6875 -1.59375,-2.6875 1.4375,-2.5 -3.21875,-2.6875 -3.59375,0.71875 -4.09375,-0.34375 -2.5,-1.4375 0.53125,-4.46875 -2.84375,-2.6875 -1.4375,-3.375 -4.65625,-0.90625 -3.1875,-0.53125 -3.8125,-2.3125 -0.9375,-0.21875 z"
       id="rect5678" />
    <path
       style="fill:#feff89;fill-opacity:1;stroke:none;display:inline"
       d="m 461.281,374.9998 -3.78125,7.84375 0.34375,8.21875 -3.90625,0.375 -0.71875,7.125 -5,7.875 -2.875,10.34375 -8.1875,6.78125 -0.125,0.84375 0.375,0.15625 4.5625,2.21875 2.5,0.53125 2.3125,3.9375 -0.1875,2.15625 3.40625,4.8125 1.78125,4.09375 0.90625,3.40625 2.65625,4.09375 c 0,0 3.03572,1.97768 3.75,2.15625 0.71429,0.17858 13.0625,1.4375 13.0625,1.4375 l 6.9375,4.4375 2.875,4.65625 1.78125,4.8125 0.1875,3.03125 -0.90625,3.75 -4.28125,2.5 -3.5625,0.5625 -2.34375,2.125 4.46875,9.8125 4.125,9.125 3.5625,5.71875 2.9375,4.8125 0.0312,0.0312 4.21875,-7.0625 1.78125,-4.53125 -4.3125,-4.28125 -1,-3.5625 2.53125,-3.28125 6.3125,2.53125 4.8125,-1.75 8.5625,1.25 1.78125,-1.53125 4.53125,0 3.53125,1.78125 3.03125,1.25 6.0625,-0.25 6.0625,-5.8125 6.3125,-6.8125 2.53125,-5.53125 2.03125,-2.53125 2,-1.53125 7.09375,-0.25 7.3125,2.28125 5.3125,0 3.4375,-0.1875 0.0937,-0.3125 -2.53125,-4.1875 -4.28125,-3.90625 -2.03125,-3.28125 -1.375,-4.78125 1.0625,-5.34375 6.09375,-3.21875 0.71875,-5 2.125,-2.5 3.9375,0 2.84375,-2.875 -0.71875,-2.125 -2.5,-0.71875 -1.40615,-4.2812 1.0625,-3.9375 1.78125,-4.65625 1.78125,-2.5 -2.125,-2.84375 -5.71875,-3.21875 0.34375,-7.125 2.875,-7.15625 5.65625,-4.21875 -0.125,-0.25 -6.21875,-1.9375 -6.3125,1.25 -4.28125,1.03125 -2.28125,1.5 -3.28125,-0.25 -3.28125,-2.03125 -3.78125,-3.78125 -2.03125,-3.03125 -3.78125,-0.25 -4.8125,0.5 -2.5,-2.25 -3.53125,-2.03125 -3.3125,2.28125 2.28125,3.53125 -1.5,5.5625 -4.5625,3.03125 -6.3125,2.25 -14.125,0.25 -7.34375,-2.25 -5.28125,-3.53125 -2.03125,-4.8125 -7.0625,-1.78125 -5.8125,-0.25 -5.3125,-0.5 -2.53125,-2.78125 -2.78125,-1.75 -6.40625,-3.5 z"
       id="rect5547" />
    <path
       style="fill:#8989ff;fill-opacity:1;stroke:none;display:inline"
       d="m 437.0315,424.4065 -0.96875,5.9375 -7.125,7.875 -5,7.5 -3.59375,17.84375 -18.5625,11.4375 -10.34375,11.4375 -0.71875,5.71875 2.84375,3.1875 -6.40625,5 -11.8125,16.8125 -1.40625,8.1875 -7.875,9.65625 -8.5625,4.65625 0.34375,2.5 2.5,4.28125 -2.875,2.34375 2,0.3125 3.375,-0.6875 3.21875,1.9375 5,1.09375 10.375,0.875 10.15625,-1.40625 2.5,-1.4375 8.40625,-0.375 6.4375,0.1875 6.96875,2.3125 3.90625,1.09375 5.375,0.53125 3.75,0.71875 5.875,3.03125 4.84375,1.96875 5.15625,0.15625 2.5,1.625 12.875,0.34375 5.71875,1.25 5.6875,0.90625 7.875,0 9.625,-0.375 5.375,-0.6875 4.625,-3.21875 1.25,-2.15625 -0.53125,-3.125 0.0937,-0.15625 -0.125,0 -2.78125,0.25 -4.03125,0.5 -5.8125,-3.53125 -3.28125,-5.8125 -0.25,-7.3125 2,-8.09375 3.78125,-7.3125 -2.5,-7.0625 0.75,-5.8125 0.3125,-0.53125 -0.0312,-0.0312 -2.9375,-4.8125 -3.5625,-5.71875 -4.125,-9.125 -4.46875,-9.8125 2.34375,-2.125 3.5625,-0.5625 4.28125,-2.5 0.90625,-3.75 -0.1875,-3.03125 -1.78125,-4.8125 -2.875,-4.65625 -6.9375,-4.4375 c 0,0 -12.34821,-1.25892 -13.0625,-1.4375 -0.71428,-0.17857 -3.75,-2.15625 -3.75,-2.15625 l -2.65625,-4.09375 -0.90625,-3.40625 -1.78125,-4.09375 -3.40625,-4.8125 0.1875,-2.15625 -2.3125,-3.9375 -2.5,-0.53125 -4.5625,-2.21875 -0.375,-0.15625 z"
       id="rect5440" />
    <path
       style="fill:#ff89c3;fill-opacity:1;stroke:none;display:inline"
       d="m 555.84375,466.875 -7.09375,0.25 -2,1.53125 -2.03125,2.53125 -2.53125,5.53125 -6.3125,6.8125 -6.0625,5.8125 -6.0625,0.25 -3.03125,-1.25 -3.53125,-1.78125 -4.53125,0 -1.78125,1.53125 -8.5625,-1.25 -4.8125,1.75 -6.3125,-2.53125 -2.53125,3.28125 1,3.5625 4.3125,4.28125 -1.78125,4.53125 -4.53125,7.59375 -0.75,5.8125 2.5,7.0625 -3.78125,7.3125 -2,8.09375 0.25,7.3125 3.28125,5.8125 5.8125,3.53125 4.03125,-0.5 2.78125,-0.25 6.0625,0.75 7.8125,-2.25 5.8125,-3.5625 4.5625,2.03125 4.53125,1.25 5.3125,2.78125 4.28125,-2.25 4.03125,3.53125 5.0625,-0.25 1.5,-2.53125 3.3125,-0.5 5.03125,1.5 3.28125,2.53125 -1,4.28125 3.03125,2.03125 2.78125,-1.25 2.78125,1.5 2.25,1.78125 3.8125,0 4.03125,-1.28125 1.25,-2 2.53125,-1.03125 3.78125,1.28125 3.8125,2 3.28125,-1.75 -1.03125,-2.78125 -0.75,-1.53125 -1,-19.6875 2.25,-4.28125 4.8125,-2.78125 3.53125,0 3.03125,-0.75 -0.25,-2.28125 -4.03125,-2.28125 -2.03125,-2.03125 0,-2 1.78125,-1.53125 1,-3.03125 1.25,-4.28125 3.28125,-1 2.53125,3.03125 2.28125,0 1,-1.78125 -0.25,-7.5625 -1.25,-2.28125 0.5,-2.53125 2.78125,-1.25 0.75,-3.28125 -4.78125,-4.0625 -4.0625,-2.78125 0.5,-3.28125 -2.5,-3.28125 -6.84375,-1 -7.0625,-3.28125 -3.03125,-3.78125 -4.78125,-4.8125 -7.09375,-1 -4.78125,0.25 -5.3125,0 -7.3125,-2.28125 z"
       id="rect5414" />
    <path
       style="fill:#c4c4c4;fill-opacity:1;stroke:none;display:inline"
       d="m 362.84375,548.40575 -3.375,0.6875 -2,-0.3125 -4.96875,4.0625 -0.71875,5.71875 -3.21875,4.65625 -7.5,7.84375 -1.40625,7.15625 -1.8125,0.34375 -0.34375,9.65625 -1.78125,4.625 -6.0625,1.09375 -2.875,5 -8.9375,12.125 -0.34375,12.5 3.5625,2.15625 -0.34375,7.5 -2.5,5.34375 0.34375,13.21875 2.0625,3.375 0.0937,0 2.78125,-0.5 5.0625,1.5 3.65625,1.375 3.40625,0.53125 2.03125,-0.78125 3.28125,-0.25 3.40625,1.53125 3.78125,0.375 4.40625,-0.625 2.03125,-1.78125 -0.75,-3.78125 -0.5,-3.28125 1.75,-2.28125 2.78125,-0.5 2.03125,3.03125 1.75,1.25 2.53125,-1.25 1,-3.53125 3.03125,-2.28125 3.03125,-4.28125 2.03125,-2.78125 2.78125,1.25 3.78125,-0.75 5.0625,-3.78125 2.78125,-3.53125 4.53125,-1.78125 5.3125,-2.78125 3.28125,-2.28125 4.53125,-0.75 5.5625,0.5 4.5625,-2.25 4.28125,-2.53125 4.8125,-1.78125 7.3125,0.75 5.3125,-0.25 2.75,-1 3.5625,0.5 1,3.28125 2.78125,4.0625 4.03125,3.78125 4.8125,1.25 4.03125,0 2.53125,3.28125 5.8125,1.03125 5.53125,-0.78125 5.3125,1.03125 4.3125,-3.03125 3.53125,-1.28125 4.78125,2.03125 -0.25,4.53125 3.53125,1.53125 7.59375,0 4.28125,-0.75 1.25,-1.53125 2.78125,0 2.03125,2.03125 1.5625,-0.625 3.5,-1.40625 2.25,-5.8125 -2,-3.53125 2.25,-3.53125 4.3125,-2.53125 4.03125,-0.75 3.53125,2.03125 3.03125,4.53125 3.28125,3.28125 5.3125,1.53125 4.53125,-0.78125 3.3125,-2.25 -1.53125,-6.3125 -1.5,-3.5625 -2.78125,-10.84375 -0.5,-7.3125 2.75,-3.5625 2.78125,-1.75 2.28125,-2.78125 3.28125,-2.28125 3.28125,0 2.78125,-3.03125 -2.53125,-1.5 0,-3.53125 4.0625,-4.0625 0.75,-7.3125 3.28125,-2.53125 1.3125,-2.09375 -1.8125,-1.4375 -2.78125,-1.5 -2.78125,1.25 -3.03125,-2.03125 1,-4.28125 -3.28125,-2.53125 -5.03125,-1.5 -3.3125,0.5 -1.5,2.53125 -5.0625,0.25 -4.03125,-3.53125 -4.28125,2.25 -5.3125,-2.78125 -4.53125,-1.25 -4.5625,-2.03125 -5.8125,3.5625 -7.8125,2.25 -5.9375,-0.75 -0.0937,0.15625 0.53125,3.125 -1.25,2.15625 -4.625,3.21875 -5.375,0.6875 -9.625,0.375 -7.875,0 -5.6875,-0.90625 -5.71875,-1.25 -12.875,-0.34375 -2.5,-1.625 -5.15625,-0.15625 -4.84375,-1.96875 -5.875,-3.03125 -3.75,-0.71875 -5.375,-0.53125 -3.90625,-1.09375 -6.96875,-2.3125 -6.4375,-0.1875 -8.40625,0.375 -2.5,1.4375 -10.15625,1.40625 -10.375,-0.875 -5,-1.09375 -3.21875,-1.9375 z"
       id="rect5296" />
    <path
       style="fill:#ff8989;fill-opacity:1;stroke:none;display:inline"
       d="m 439.906,615.875 -2.75,1 -5.3125,0.25 -7.3125,-0.75 -4.8125,1.78125 -4.28125,2.53125 -4.5625,2.25 -5.5625,-0.5 -4.53125,0.75 -3.28125,2.28125 -5.3125,2.78125 -4.53125,1.78125 -2.78125,3.53125 -5.0625,3.78125 -3.78125,0.75 -2.78125,-1.25 -2.03125,2.78125 -3.03125,4.28125 -3.03125,2.28125 -1,3.53125 -2.53125,1.25 -1.75,-1.25 -2.03125,-3.03125 -2.78125,0.5 -1.75,2.28125 0.5,3.28125 0.75,3.78125 -2.03125,1.78125 -4.40625,0.625 -3.78125,-0.375 -3.40625,-1.53125 -3.28125,0.25 -2.03125,0.78125 -3.40625,-0.53125 -3.65625,-1.375 -5.0625,-1.5 -2.78125,0.5 -0.0937,0.0312 0.0937,0.15625 -0.71875,21.8125 0.71875,4.28125 -1.4375,1.78125 1.0625,9.625 2.5,1.4375 -0.34375,2.5 -5,3.21875 -0.34375,11.78125 -7.25,5.5 0.84375,-0.25 3.03125,1.75 3.53125,0.5 0.375,1.625 3.03125,2.3125 2.125,2.3125 2.6875,1.25 4.28125,-1.25 2.875,-5.1875 -0.90625,-5.875 2.5,-3.5625 0,-4.3125 1.78125,-3.03125 2.15625,-2.5 3.5625,-0.875 1.78125,-1.96875 0,-2.6875 -2.84375,-1.78125 -2.15625,0.90625 -2.3125,0 -1.4375,-1.25 -3.03125,0.34375 -1.78125,-1.4375 0.71875,-3.21875 2.6875,-1.40625 2.5,0.875 2.65625,0.1875 1.96875,-1.96875 0.71875,-1.7812 -1.78125,-1.4375 -1.625,-1.59375 0.1875,-3.21875 3.21875,-1.59375 4.28125,2.3125 0.1875,3.9375 1.0625,3.75 1.96875,1.59375 2.84375,-0.1875 2.15625,-1.25 4.09375,0.71875 2.15625,1.96875 3.21875,-1.0625 2.6875,-0.71875 5.34375,5 3.40625,3.75 1.59375,3.375 2.6875,-0.53125 2.125,-3.5625 3.21875,-0.53125 15,0.1875 5.71875,-2.34375 5.34375,-3.75 3.0625,-2.65625 2.84375,-2.15625 3.40625,0.34375 1.9375,0.375 2.6875,-1.0625 3.21875,-0.1875 5.71875,1.96875 1.59375,4.46875 5.375,2.65625 0.71875,3.75 -2.6875,3.75 -2.3125,3.75 1.0625,2.875 3.9375,0.34375 3.03125,-0.71875 2.3125,2.875 -2.3125,2.125 1.78125,2.6875 6.25,1.59375 4.28125,2.875 -1.25,2.6875 -2.84375,1.0625 -1.8125,2.6875 -0.15625,7.5 -3.03125,3.75 0.15625,1.59375 3.59375,2.5 1.40625,1.96875 -0.875,3.03125 -2.875,2.84375 -1.15625,0.625 0.71875,0.46875 1.6875,2.59375 5.90625,3.03125 5.09375,2.03125 7.125,1.09375 0.15625,0.6875 4.21875,-6.40625 2.875,-0.375 5.71875,2.6875 7.65625,0 5.1875,-1.15625 0,-2.21875 -2.84375,-5.90625 -1.96875,-4.28125 1.0625,-9.8125 0.90625,-1.8125 2.125,-1.0625 1.0625,-2.6875 1.625,-2.3125 0,-10.1875 -1.25,-2.125 -1.25,-4.65625 -2.3125,-3.03125 -0.90625,-4.46875 1.78125,-3.5625 1.0625,-2.84375 -1.0625,-3.59375 3.40625,-6.59375 2.65625,-1.0625 3.21875,-4.65625 3.21875,-2.15625 2.3125,-3.90625 5,-1.25 0.90625,-5.71875 0.90625,-1.4375 2.125,-0.875 1.4375,-5 3.375,-9.46875 2.5,-4.28125 L 521.781,640 l -3.375,-1.78125 -3.40625,-1.78125 -0.28125,-0.21875 -1.5625,0.625 -2.03125,-2.03125 -2.78125,0 -1.25,1.53125 -4.28125,0.75 -7.59375,0 -3.53125,-1.53125 0.25,-4.53125 L 487.156,629 l -3.53125,1.28125 -4.3125,3.03125 -5.3125,-1.03125 -5.53125,0.78125 -5.8125,-1.03125 -2.53125,-3.28125 -4.03125,0 -4.8125,-1.25 -4.03125,-3.78125 -2.78125,-4.0625 -1,-3.28125 -3.5625,-0.5 z"
       id="rect5143" />
    <path
       style="fill:#c389ff;fill-opacity:1;stroke:none;display:inline"
       d="m 341.24975,677.1565 -3.21875,1.59375 -0.1875,3.21875 1.625,1.59375 1.78125,1.4375 -0.71875,1.78125 -1.96875,1.96875 -2.65625,-0.1875 -2.5,-0.875 -2.6875,1.40625 -0.71875,3.21875 1.78125,1.4375 3.03125,-0.34375 1.4375,1.25 2.3125,0 2.15625,-0.90625 2.84375,1.78125 0,2.6875 -1.78125,1.96875 -3.5625,0.875 -2.15625,2.5 -1.78125,3.03125 0,4.3125 -2.5,3.5625 0.90625,5.875 -2.875,5.1875 -4.28125,1.25 -2.6875,-1.25 -2.125,-2.3125 -3.03125,-2.3125 -0.375,-1.625 -3.53125,-0.5 -3.03125,-1.75 -0.84375,0.25 -1.6875,1.28125 -2.15625,12.5 -6.78125,6.09375 0,10.6875 -4.625,12.875 -5.375,6.0625 2.15625,7.15625 -4.65625,6.78125 -2.125,6.78125 -1.4375,8.9375 -1.4375,6.40625 7.5,0 5,3.21875 6.0625,5 2.5,4.28125 1.8125,8.21875 1.78125,0.53125 6.0625,-6.40625 1.96875,-2.5 3.5625,-2.34375 4.46875,-0.875 1.4375,-2.3125 4.8125,-2.5 4.8125,0.15625 6.625,-0.53125 2.5,-2.5 2.3125,-2.5 2.3125,-1.96875 1.96875,-3.21875 -1.96875,-3.75 3.03125,-3.1875 2.875,-2.875 -0.53125,-1.4375 1.59375,-2.65625 6.25,0 3.03125,-2.15625 2.5,-2.5 0.1875,-3.21875 1.59375,-1.59375 2.5,-0.71875 0,-1.25 3.40625,0 2.6875,1.59375 2.65625,0 2.875,1.25 4.46875,3.21875 3.5625,3.03125 -1.25,3.0625 -1.4375,3.03125 1.25,3.03125 2.34375,5.1875 3.75,0.34375 4.09375,0.1875 2.5,1.59375 2.84375,-0.875 -1.0625,-1.96875 -0.875,-2.875 0,-3.03125 1.25,-1.4375 2.3125,1.25 2.125,-1.0625 -1.59375,-1.25 1.59375,-3.21875 3.21875,0.1875 2.6875,2.15625 4.28125,0.53125 1.78125,3.21875 0.375,3.375 3.375,-0.71875 1.78125,-2.5 0.375,-5.15625 1.78125,-1.09375 3.03125,0.71875 2.875,-1.78125 0.34375,-2.3125 -2.3125,-1.25 0,-2.5 1.59375,-1.96875 0,-2.6875 1.4375,-3.03125 3.03125,-2.15625 3.40625,-4.4375 -1.09375,-4.125 1.25,-2.84375 3.40625,-2.6875 2.9375,-1.53125 1.15625,-0.625 2.875,-2.84375 0.875,-3.03125 -1.40625,-1.96875 -3.59375,-2.5 -0.15625,-1.59375 3.03125,-3.75 0.15625,-7.5 1.8125,-2.6875 2.84375,-1.0625 1.25,-2.6875 -4.28125,-2.875 -6.25,-1.59375 -1.78125,-2.6875 2.3125,-2.125 -2.3125,-2.875 -3.03125,0.71875 -3.9375,-0.34375 -1.0625,-2.875 2.3125,-3.75 2.6875,-3.75 -0.71875,-3.75 -5.375,-2.65625 -1.59375,-4.46875 -5.71875,-1.96875 -3.21875,0.1875 -2.6875,1.0625 -1.9375,-0.375 -3.40625,-0.34375 -2.84375,2.15625 -3.0625,2.65625 -5.34375,3.75 -5.71875,2.34375 -15,-0.1875 -3.21875,0.53125 -2.125,3.5625 -2.6875,0.53125 -1.59375,-3.375 -3.40625,-3.75 -5.34375,-5 -2.6875,0.71875 -3.21875,1.0625 -2.15625,-1.96875 -4.09375,-0.71875 -2.15625,1.25 -2.84375,0.1875 -1.96875,-1.59375 -1.0625,-3.75 -0.1875,-3.9375 -4.28125,-2.3125 z"
       id="rect5047" />
    <path
       style="fill:#c4c4c4;fill-opacity:1;stroke:none"
       d="m 490.40675,872.6248 -5.9375,0.21875 -6.78125,2.6875 -7.5,4.65625 -6.09375,6.96875 -5.15625,3.75 -9.125,0.6875 -8.21875,-0.53125 -4.625,-1.96875 -2.5,-2.125 -3.03125,0.875 -1.625,3.9375 0.53125,8.40625 -2.5,5.15625 -2.78125,3.34375 0,0.0937 -0.0625,-0.0312 0.34375,3.5625 1.09375,13.40625 2.3125,3.5625 -2.15625,6.4375 -4.4375,7.6875 -0.375,5.875 -0.71875,9.8125 1.96875,8.21875 1.25,10.53125 -5.53125,9.125 -2.3125,3.75 -2.5,4.625 0.15625,4.3125 1.96875,2.12495 -0.53125,9.0313 -0.0312,0.1563 2.34375,0.094 4.3125,3.9375 3.90625,6.4375 7.875,3.5625 6.0625,4.2812 17.5,8.9376 15,10 4.34375,7.75 10.8125,-3.2188 -0.34375,0.1875 1.4375,-0.4375 -2.15625,-2.8438 -4.09375,-1.0937 -1.59375,-7.5 2.84375,-4.2813 0.53125,-7.5 4.8125,-4.2812 -1.59375,-2.6875 -5.1875,1.0937 -1.59375,-2.3437 1.0625,-3.2187 -0.53125,-2.125 1.59375,-6.25 -1.0625,-2.6876 0.71875,-7.49995 4.28125,-3.375 -2.5,-2.15625 -0.1875,-11.96875 1.625,-10.34375 0.34375,-21.78125 -0.34375,-8.21875 1.96875,-2.5 0.15625,-2.15625 3.40625,-1.0625 0.71875,-3.9375 -3.75,-3.75 -0.5313,-8.03155 -1.625,-5 2.6875,-2.84375 -0.34375,-3.0625 -2.875,-2.3125 1.0625,-6.96875 -1.40625,-2.65625 0,-3.75 1.25,-5 -1.25,-4.84375 0.875,-4.28125 4.46875,-3.9375 -0.125,-2.71875 z m -92,179.6875 -2.875,1.25 -1.96875,3.75 -1.78125,3.4063 -0.34375,1.9687 1.40625,0.5313 3.0625,0.1874 0.875,-2.1562 3.03125,-2.6875 4.125,-2.5 -0.375,-3.75 -5.15625,0 z"
       id="rect4603" />
    <path
       style="fill:#feff89;fill-opacity:1;stroke:none"
       d="m 447.40675,749.71845 -2.9375,1.53125 -3.40625,2.6875 -1.25,2.84375 1.09375,4.125 -3.40625,4.4375 -3.03125,2.15625 -1.4375,3.03125 0,2.6875 -1.59375,1.96875 0,2.5 2.3125,1.25 -0.34375,2.3125 -2.875,1.78125 -3.03125,-0.71875 -1.78125,1.09375 -0.375,5.15625 -1.78125,2.5 -3.375,0.71875 -0.375,-3.375 -1.78125,-3.21875 -4.28125,-0.53125 -2.6875,-2.15625 -3.21875,-0.1875 -1.59375,3.21875 1.59375,1.25 -2.125,1.0625 -2.3125,-1.25 -1.25,1.4375 0,3.03125 0.875,2.875 1.0625,1.96875 -2.84375,0.875 -2.5,-1.59375 -4.09375,-0.1875 -3.75,-0.34375 -2.34375,-5.1875 -1.25,-3.03125 1.4375,-3.03125 1.25,-3.0625 -3.5625,-3.03125 -4.46875,-3.21875 -2.875,-1.25 -2.65625,0 -2.6875,-1.59375 -3.40625,0 0,1.25 -2.5,0.71875 -1.59375,1.59375 -0.1875,3.21875 -2.5,2.5 -3.03125,2.15625 -6.25,0 -1.59375,2.65625 0.53125,1.4375 -2.875,2.875 -3.03125,3.1875 1.96875,3.75 -1.96875,3.21875 -2.3125,1.96875 -2.3125,2.5 -2.5,2.5 -6.625,0.53125 -4.8125,-0.15625 -4.8125,2.5 -1.4375,2.3125 -4.46875,0.875 -3.5625,2.34375 -1.96875,2.5 -6.0625,6.40625 6.78125,1.96875 7.125,6.09375 7.875,11.0625 2.5,11.0625 1.0625,5.5625 0.4375,-0.1875 2.15625,-0.5625 3.75,0.28125 4.65625,2.3125 3.125,0.375 2.125,-0.53125 5.28125,2.9375 1.875,2.21875 2.75,0.46875 2.25,-0.625 4,1.0625 2.875,-1.34375 1.59375,-0.96875 3.125,-0.0937 3.9375,1.6875 4.46875,0.625 3.46875,0.96875 7.5,0.5625 0.46875,-0.0312 1.9375,-2.40625 3.40625,-2.5 0.875,-3.1875 3.21875,-2.6875 6.25,1.59375 1.25,2.34375 4.125,-0.5625 2.3125,-5.875 2.5,-6.625 4.65625,-8.90625 7.84375,-6.78125 6.59375,-8.21875 9.3125,-5.53125 4.09375,-5.5625 5,-1.25 4.28125,-4.8125 -1.59375,-1.78125 -3.21875,-5.34375 1.4375,-4.3125 2.5,-2.65625 -1.25,-8.03125 1.0625,-5 5.53125,-8.0625 3.40625,-6.78125 0.34375,-5.53125 0.59375,-0.90625 -0.15625,-0.6875 -7.125,-1.09375 -5.09375,-2.03125 -5.90625,-3.03125 -1.6875,-2.59375 -0.71875,-0.46875 z"
       id="rect4893" />
    <path
       style="fill:#c9ff89;fill-opacity:1;stroke:none"
       d="m 475.1875,752.84375 -2.875,0.375 -4.8125,7.3125 -0.34375,5.53125 -3.40625,6.78125 -5.53125,8.0625 -1.0625,5 1.25,8.03125 -2.5,2.65625 -1.4375,4.3125 3.21875,5.34375 1.59375,1.78125 -4.28125,4.8125 -5,1.25 -4.09375,5.5625 -9.3125,5.53125 -6.59375,8.21875 -7.84375,6.78125 -4.65625,8.90625 -2.5,6.625 -2.3125,5.875 -4.125,0.5625 -1.25,-2.34375 -6.25,-1.59375 -3.21875,2.6875 -0.875,3.1875 -3.40625,2.5 -3.03125,3.75 2.15625,2.875 -3.03125,5.71875 -2.15625,6.78125 2.6875,3.21875 0.15625,5.71875 1.96875,3.375 2.34375,1.78125 3.75,0.71875 3.75,-1.0625 1.59375,-3.03125 2.84375,-1.96875 4.84375,0.875 2.125,4.46875 0.71875,4.125 3.5625,3.375 4.125,1.4375 3.03125,0 2.84375,-3.40625 2.5,-5.15625 -0.53125,-8.40625 1.625,-3.9375 3.03125,-0.875 2.5,2.125 4.625,1.96875 8.21875,0.53125 9.125,-0.6875 5.15625,-3.75 6.09375,-6.96875 7.5,-4.65625 6.78125,-2.6875 5.9375,-0.21875 -0.40625,-8.53125 3.9375,-6.9375 0,-3.9375 -2.6875,-3.75 -0.90625,-3.03125 3.59375,-7.875 1.25,-6.59375 5.53125,-6.78125 3.75,-3.03125 1.96875,-4.65625 -0.90625,-5.71875 -3.375,-3.03125 5.15625,-4.46875 -1.0625,-5.34375 3.5625,-1.78125 4.65625,-3.75 -2.15625,-6.25 -5,-3.59375 -3.03125,-1.78125 L 505,778.75 l 0.53125,-9.28125 -2.6875,-1.4375 -4.8125,0.71875 -3.03125,-1.96875 -2.3125,-3.75 -0.375,-2.3125 1.4375,-3.03125 0,-3.3125 -5.1875,1.15625 -7.65625,0 -5.71875,-2.6875 z"
       id="rect4845" />
    <path
       style="fill:#89fffe;fill-opacity:1;stroke:none"
       d="m 334.375,859.09375 -2.15625,0.5625 -0.46875,-0.0625 1.09375,5.75 7.875,25 17.5,40 2.5,10.71875 -2.15625,3.21875 -2.84375,3.21875 1.0625,7.15625 5.71875,10.6875 19.28125,22.15625 12.5,13.5625 13.9375,9.6563 7.28125,0.25 0.0312,-0.1563 0.53125,-9.0313 -1.96875,-2.12495 -0.15625,-4.3125 2.5,-4.625 2.3125,-3.75 5.53125,-9.125 -1.25,-10.53125 -1.96875,-8.21875 0.71875,-9.8125 0.375,-5.875 4.4375,-7.6875 2.15625,-6.4375 -2.3125,-3.5625 -1.0937,-13.40625 L 425,908.75 l -3.03125,0 -4.125,-1.4375 -3.5625,-3.375 -0.71875,-4.125 -2.125,-4.46875 -4.84375,-0.875 -2.84375,1.96875 -1.59375,3.03125 -3.75,1.0625 -3.75,-0.71875 -2.34375,-1.78125 -1.96875,-3.375 -0.15625,-5.71875 -2.6875,-3.21875 2.15625,-6.78125 3.03125,-5.71875 -2.15625,-2.875 0.9375,-1.15625 -0.3125,-0.15625 -7.5,-0.5625 -3.46875,-0.96875 -4.46875,-0.625 -3.9375,-1.6875 -3.125,0.0937 -1.59375,0.96875 -2.875,1.34375 -4,-1.0625 -2.25,0.625 -2.75,-0.46875 -1.875,-2.21875 -5.28125,-2.9375 -2.125,0.53125 -3.125,-0.375 -4.65625,-2.3125 -3.75,-0.28125 z M 425,908.75 l 0.0625,0.0312 0,-0.0937 L 425,908.75 z"
       id="rect4722" />
    <path
       style="fill:#ff89fe;fill-opacity:1;stroke:none"
       d="m 487.65625,1052.75 -10.8125,3.2188 0.65625,1.1874 8.5625,7.5 5.375,7.5 1.0625,13.9063 11.0625,15.7187 0.71875,5.7188 3.21875,5.3438 2.84375,12.875 4.3125,9.625 1.78125,9.3124 -5.375,10 -5,9.2813 1.4375,4.625 4.28125,5 5.375,8.2187 -2.5,5 0.6875,9.6563 4.65625,4.625 5.34375,0.375 0,-9.2813 5.71875,-4.6562 5.71875,3.9375 L 545,1195 l 7.15625,2.5 5,5.3438 2.5,1.8124 3.1875,5 2.875,0 0.34375,-6.8124 -6.78125,-10.3438 -1.0625,-7.8438 1.78125,-1.0937 -0.71875,-7.8437 5.375,0 2.84375,-2.5 1.78125,-6.7813 2.5,-2.5 3.9375,-10 1.0625,-12.875 0.71875,-3.5625 -2.5,-4.2812 0,-3.5626 0.75,-3.8437 -5.625,1.4375 -0.3125,0.062 -2.75,0 -4.5625,-2.5 -0.90625,-2.3125 -3.375,0.1875 -2.6875,3.0313 0,2.6874 2.6875,3.1876 0.1875,4.8437 -3.75,1.0625 -2.34375,-2.5 -2.65625,1.4375 0.34375,2.5 -6.4375,1.9687 -5.34375,-3.4062 -6.25,-2.8438 -3.9375,0.6876 -1.96875,1.25 -0.53125,5.9062 -1.0625,1.9688 -2.15625,0.1874 -3.90625,-4.6562 -5.5625,-15.3438 -3.03125,-12.6874 -0.71875,-3.9376 1.4375,-2.5 7.3125,-3.9374 -7.3125,0.1874 -4.28125,-1.25 -6.25,-9.2812 -2.15625,-5.5312 -2.3125,-3.75 -3.21875,-15 -6.40625,-7.1563 -1.25,-5.7187 0.34375,0.1874 2.65625,-1.5312 z"
       id="rect3775" />
    <path
       style="fill:#ffc389;fill-opacity:1;stroke:none"
       d="m 134.99975,561.43725 -1.78125,5.71875 -4.65625,3.5625 3.9375,4.28125 -1.4375,3.9375 2.15625,5.34375 7.125,-3.5625 1.4375,-4.65625 -5.34375,-3.90625 1.0625,-5.71875 -2.5,-5 z m 0.71875,36.40625 -10,1.8125 -7.5,3.1875 -1.4375,5.71875 2.15625,2.5 3.90625,-2.84375 5.375,-0.375 1.78125,6.8125 0,5.34375 7.84375,-3.5625 3.59375,-8.59375 0.34375,-4.28125 -6.0625,-5.71875 z m -31.0625,12.875 -5.71875,5.71875 0.71875,7.125 1.40625,6.78125 -0.34375,4.3125 -5.71875,1.0625 -3.9375,3.5625 5.71875,1.78125 9.28125,-2.84375 4.65625,-6.0625 -2.5,-9.65625 0.34375,-4.28125 5,-4.28125 -8.90625,-3.21875 z m 43.5625,8.21875 -5,0.34375 -5,3.21875 0.34375,5 -3.5625,6.0625 -4.28125,-2.5 0.34375,-5 -5,0 -5.34375,4.65625 -0.375,4.28125 5.71875,2.15625 7.15625,7.5 0,3.1875 -7.5,2.875 -6.4375,-3.5625 -3.5625,-4.3125 -7.875,7.15625 7.5,1.78125 6.4375,2.875 3.9375,5 6.78125,0 5,-2.875 1.0625,-8.21875 10.71875,-8.21875 7.15625,-0.34375 5.71875,3.9375 8.1875,-4.65625 -7.125,-4.625 2.84375,-8.9375 -2.5,-5 -7.5,2.125 -5.71875,0.71875 -2.125,-4.625 z m -50.71875,77.5 -1.0625,4.625 0.34375,5 -3.21875,5 8.21875,-0.71875 2.875,-1.0625 4.625,2.15625 8.9375,-3.9375 -5.375,-4.28125 -5.6875,-0.375 -3.59375,-5 -6.0625,-1.40625 z m -23.9375,59.625 -3.90625,3.21875 1.0625,5.375 4.625,5 2.5,-3.59375 3.59375,-5.34375 1.0625,-4.65625 -8.9375,0 z"
       id="rect3678" />
    <path
       style="fill:#8989ff;fill-opacity:1;stroke:none"
       d="m 822.9065,465.74984 -5.4375,2.125 -5.0625,2.53125 -5.8125,4.8125 -0.75,3.28125 1,13.375 -0.75,8.09375 -5.8125,6.3125 -1.75,3.53125 -5.5625,3.78125 -4.03125,2.03125 -3.28125,1.75 -3.53125,3.8125 -2.28125,7.3125 0.75,19.4375 -0.75,6.3125 -4.5625,7.34375 -5.8125,10.84375 -6.5625,4.03125 -0.75,6.3125 -0.25,10.125 -2.53125,6.3125 -4.28125,5.53125 -6.5625,5.5625 -2.28125,4.0625 -3.78125,5.03125 -5.0625,5.0625 -3.03125,3.03125 -2.28125,4.78125 0,8.59375 2.78125,6.0625 3.03125,7.0625 -0.5,5.0625 -3.03125,6.0625 -3.53125,2.78125 -1.25,6.5625 -1.53125,3.53125 -1.75,7.0625 -2.78125,3.8125 -5.0625,3.53125 -1.75,4.53125 -0.78125,3.28125 -0.75,5.0625 -1.25,5.03125 0.5,5.3125 -5.8125,8.09375 -4.28125,13.125 -6.34375,10.09375 -8.3125,16.15625 -6.3125,10.125 -6.0625,5.28125 -0.75,4.0625 -0.25,7.0625 1.75,6.3125 -1,8.34375 -2.53125,5.8125 -2.03125,5.53125 -6.5625,4.0625 -4.28125,1.75 -3.28125,3.78125 -1.78125,5.0625 0,7.0625 -2.53125,8.34371 0,17.9375 -2.25,5.2813 -0.25,6.8437 -3.03125,3.0313 -1.28125,9.3437 -1.25,9.3438 4.28125,7.8125 -2.28125,7.3125 -6.0625,0 -5.78125,3.8125 -2.53125,5.2812 -3.28125,4.3125 -6.8125,2.5313 -5.5625,5.5312 -3.78125,6.8438 -2.78125,6.8125 -4.0625,6.8125 -1.5,12.125 -4.3125,9.0937 -7.0625,8.3125 -5.5625,5.8125 -2.5,11.875 -4.5625,16.4062 -8.34375,22.5 -5.78125,12.125 0.75,19.9376 0.75,11.875 1.53125,9.0937 0.75,14.625 -2.28125,10.125 0.25,5.0313 0.65625,3.7812 5.625,-1.4375 0.6875,-3.6563 0.34375,-21.8124 2.15625,-6.0626 -1.78125,-7.125 0,-30.375 5,-6.7812 0.6875,-7.8438 2.5,-3.5937 0,-4.2813 3.9375,-4.625 4.28125,-9.6562 1.09375,-3.9375 1.40625,-9.2813 2.15625,-1.7812 0,-6.4375 3.5625,-3.2187 0.71875,-6.0625 3.21875,-1.4375 1.78125,-9.2813 8.5625,-6.0625 0,-8.5625 1.4375,-7.1562 5,-8.5625 8.9375,-6.4375 9.625,-9.2813 8.59375,-0.7187 7.84375,-5 3.5625,-3.2188 13.21875,-10.7187 0.375,-8.1875 4.625,-5 -3.5625,-10 0.71875,-6.0938 2.84375,-3.2187 6.78125,-3.9063 7.15625,-0.7187 6.4375,-4.2813 0.34375,-7.5 4.28125,-2.875 3.5625,-5.7187 0,-5 5,-3.1875 5.71875,-6.81251 2.5,-5 0.71875,-6.40625 5,-7.875 2.5,-4.625 0,-3.9375 7.15625,-13.9375 7.84375,-1.78125 0,-2.125 10.375,-3.21875 -6.09375,-6.4375 -1.40625,-3.9375 3.1875,-3.5625 -0.34375,-6.78125 -1.4375,-3.9375 0,-5 1.78125,-5.71875 4.3125,-10.34375 5.6875,-13.5625 5.375,-7.875 5,0 1.78125,-2.125 0,-7.5 1.4375,-7.15625 1.0625,-8.9375 6.78125,-15.34375 1.0625,-8.5625 6.09375,-8.21875 -3.9375,-5 -0.71875,-9.28125 2.5,-2.15625 0,-6.78125 4.65625,-6.78125 3.21875,-10 0,-13.59375 2.84375,-5 1.4375,-8.1875 1.40625,-5.375 -1.40625,-3.21875 0.34375,-3.90625 2.875,-1.8125 -1.8125,-2.5 0,-5.34375 5.375,-6.4375 1.78125,-12.125 0.34375,-7.875 6.4375,-12.84375 3.5625,0 1.8125,-7.15625 0.6875,-16.0625 2.5,-4.65625 -2.5,-2.5 -0.34375,-3.90625 1.78125,-3.59375 4.28125,-5.34375 3.9375,-1.0625 0.34375,-2.15625 4.65625,-3.21875 -9.28125,-8.21875 -4.28125,-6.40625 1.46875,-8.1875 z m -43.96875,474.96876 -5.1875,0.875 -3.5625,2.1562 3.21875,3.5625 1.40625,5.5313 2.875,0.375 4.46875,3.75 3.90625,-1.4375 -2.5,-3.9375 1.96875,-4.8125 0.53125,-4.625 -3.90625,0.3437 -3.21875,-1.7812 z m 10.34375,200.3437 -5.71875,1.4375 1.78125,3.5625 3.59375,2.1563 1.0625,8.9374 3.5625,2.125 2.5,3.2188 5,0.3438 4.28125,2.875 3.9375,5.3437 7.15625,-0.3437 2.5,-3.2188 -0.71875,-4.2812 -5.375,-1.7813 -4.28125,-2.5 -1.78125,-5.375 2.15625,-2.8437 -0.375,-7.1563 -6.78125,-0.3437 -5.71875,1.0624 -6.78125,-3.2187 z m 32.3125,45.625 -1.9375,0.7187 -0.28125,2.0626 1.4375,1.6874 2.5,-0.1874 1.34375,-1.875 -0.5625,-1.7813 -2.5,-0.625 z"
       id="rect3703" />
    <path
       style="fill:none;stroke:#ffffff;stroke-width:2.5;stroke-linecap:butt;stroke-linejoin:miter;stroke-miterlimit:0;stroke-opacity:1;stroke-dasharray:none"
       d="m 576.07143,1125.7143 -6.25,1.6071 -2.76786,0 -4.55357,-2.5 -0.89286,-2.3214 -3.39285,0.1786 -2.67857,3.0357 0,2.6786 2.67857,3.2142 0.17857,4.8215 -3.75,1.0714 -2.32143,-2.5 -2.67857,1.4286 0.35714,2.5 -6.42857,1.9643 -5.35714,-3.3929 -6.25,-2.8571 -3.92857,0.7142 -1.96429,1.25 -0.53571,5.8929 -1.07143,1.9643 -2.14286,0.1786 -3.92857,-4.6429 -5.53572,-15.3571 -3.03571,-12.6786 -0.71429,-3.9286 1.42858,-2.5 7.32142,-3.9286 -7.32142,0.1786 -4.28572,-1.25 -6.25,-9.2857 -2.14286,-5.5357 -2.32142,-3.75 -3.21429,-15 -6.42857,-7.1429 -1.25,-5.7143"
       id="path3636" />
    <path
       style="fill:none;stroke:#ffffff;stroke-width:2.5;stroke-linecap:butt;stroke-linejoin:miter;stroke-miterlimit:0;stroke-opacity:1;stroke-dasharray:none"
       d="m 477.05357,1056.1607 4.73215,-1.5178 6.96428,-2.1429 -2.14286,-2.8571 -4.10714,-1.0715 -1.60714,-7.5 2.85714,-4.2857 0.53572,-7.5 4.82142,-4.2857 -1.60714,-2.6786 -5.17857,1.0715 -1.60714,-2.3215 1.07143,-3.2143 -0.53572,-2.1428 1.60714,-6.25 -1.07142,-2.6786 0.71428,-7.49999 4.28572,-3.39285 -2.5,-2.14286 -0.17858,-11.96429 1.60715,-10.35714 0.35714,-21.78571 -0.35714,-8.21429 1.96428,-2.5 0.17857,-2.14286 3.39286,-1.07142 0.71429,-3.92858 -3.75,-3.75 -0.53572,-8.03571 -1.60714,-5 2.67857,-2.85714 -0.35714,-3.03572 -2.85714,-2.32143 1.07142,-6.96428 -1.42857,-2.67857 0,-3.75 1.25,-5 -1.25,-4.82143 0.89286,-4.28572 4.46429,-3.92857 -0.53572,-11.25 3.92857,-6.96428 0,-3.92858 -2.67857,-3.75 -0.89286,-3.03571 3.57143,-7.85714 1.25,-6.60715 5.53572,-6.78571 3.75,-3.03571 1.96428,-4.64286 -0.89285,-5.71429 -3.39286,-3.03571 5.17857,-4.46429 -1.07143,-5.35714 3.57143,-1.78571 4.64286,-3.75 -2.14286,-6.25 -5,-3.57143 -3.03571,-1.78572 L 505,778.75 l 0.53572,-9.28572 -2.67858,-1.42857 -4.82142,0.71429 -3.03572,-1.96429 -2.32143,-3.75 -0.35714,-2.32143 1.42857,-3.03571 0,-5.53571 -2.85714,-5.89286 -1.96429,-4.28572 1.07143,-9.82142 0.89286,-1.78572 2.14286,-1.07143 1.07142,-2.67857 1.60715,-2.32143 0,-10.17857 -1.25,-2.14286 -1.25,-4.64285 -2.32143,-3.03572 -0.89286,-4.46428 1.78572,-3.57143 1.07142,-2.85714 -1.07142,-3.57143 3.39285,-6.60715 2.67857,-1.07142 3.21429,-4.64286 3.21429,-2.14286 2.32142,-3.92857 5,-1.25 0.89286,-5.71429 0.89286,-1.42857 2.14286,-0.89285 1.42857,-5 3.39285,-9.46429 2.5,-4.28571 L 521.78572,640 518.39286,638.21428 515,636.42857"
       id="path3638" />
    <path
       style="fill:none;stroke:#ffffff;stroke-width:2.5;stroke-linecap:butt;stroke-linejoin:miter;stroke-miterlimit:0;stroke-opacity:1;stroke-dasharray:none"
       d="m 415.53572,1010.8036 0.53571,-9.0179 -1.96429,-2.14284 -0.17857,-4.28572 2.5,-4.64285 2.32143,-3.75 5.53572,-9.10715 -1.25,-10.53571 -1.96429,-8.21429 0.71429,-9.82143 0.35714,-5.89285 4.46428,-7.67857 2.14286,-6.42858 -2.32143,-3.57142 -1.07143,-13.39286 L 425,908.75"
       id="path3640" />
    <path
       style="fill:none;stroke:#ffffff;stroke-width:2.5;stroke-linecap:butt;stroke-linejoin:miter;stroke-miterlimit:0;stroke-opacity:1;stroke-dasharray:none"
       d="m 494.21713,754.26764 -5.6457,1.26807 -7.67857,0 -5.71429,-2.67857 -2.85714,0.35714 -4.82143,7.32143 -0.35714,5.53572 -3.39286,6.78571 -5.53571,8.03572 -1.07143,5 1.25,8.03571 -2.5,2.67857 -1.42857,4.28572 3.21428,5.35714 1.60715,1.78571 -4.28572,4.82143 -5,1.25 -4.10714,5.53572 -9.28572,5.53571 -6.60714,8.21429 -7.85714,6.78571 -4.64286,8.92857 -2.5,6.60714 -2.32143,5.89286 -4.10714,0.53572 -1.25,-2.32143 -6.25,-1.60715 -3.21429,2.67858 -0.89285,3.21428 -3.39286,2.5 -3.03571,3.75 2.14285,2.85714 -3.03571,5.71429 -2.14286,6.78571 2.67857,3.21429 0.17857,5.71429 1.96429,3.39285 2.32143,1.78572 3.75,0.71428 3.75,-1.07143 1.60714,-3.03571 2.85714,-1.96429 4.82143,0.89286 2.14286,4.46429 0.71429,4.10714 3.57142,3.39286 4.10715,1.42857 3.03571,0 2.85714,-3.39286 2.5,-5.17857 -0.53571,-8.39286 1.60714,-3.92857 3.03572,-0.89286 2.5,2.14286 4.64285,1.96429 8.21429,0.53571 9.10714,-0.71428 5.17857,-3.75 6.07143,-6.96429 7.5,-4.64286 6.78572,-2.67857 6.20535,-0.22321"
       id="path3642" />
    <path
       style="fill:none;stroke:#ffffff;stroke-width:2.5;stroke-linecap:butt;stroke-linejoin:miter;stroke-miterlimit:0;stroke-opacity:1;stroke-dasharray:none"
       d="m 332.23214,859.64286 2.14286,-0.53572 3.75,0.26786 4.64286,2.32143 3.125,0.35714 2.14286,-0.53571 5.26785,2.94642 1.875,2.23215 2.76786,0.44643 2.23214,-0.625 4.01786,1.07142 2.85714,-1.33928 1.60715,-0.98214 3.125,-0.0893 3.92857,1.69643 4.46428,0.625 3.48215,0.98214 7.5,0.53572"
       id="path3644" />
    <path
       style="fill:none;stroke:#ffffff;stroke-width:2.5;stroke-linecap:butt;stroke-linejoin:miter;stroke-miterlimit:0;stroke-opacity:1;stroke-dasharray:none"
       d="m 310.74818,717.01826 3.03045,1.76777 3.5428,0.49968 0.35714,1.60715 3.03572,2.32142 2.14285,2.32143 2.67857,1.25 4.28572,-1.25 2.85714,-5.17857 -0.89286,-5.89286 2.5,-3.57142 0,-4.28572 1.78572,-3.03571 2.14286,-2.5 3.57143,-0.89286 1.78571,-1.96429 0,-2.67857 -2.85714,-1.78571 -2.14286,0.89286 -2.32143,0 -1.42857,-1.25 -3.03572,0.35714 -1.78571,-1.42857 0.71429,-3.21429 2.67857,-1.42857 2.5,0.89286 2.67857,0.17857 1.96429,-1.96429 L 341.25,685 l -1.78571,-1.42857 -1.60715,-1.60715 0.17857,-3.21428 3.21429,-1.60714 4.28572,2.32142 0.17857,3.92858 1.07143,3.75 1.96428,1.60714 2.85714,-0.17857 2.14286,-1.25 4.10714,0.71428 L 360,690 l 3.21429,-1.07143 2.67857,-0.71429 5.35714,5 3.39286,3.75 1.60714,3.39286 2.67857,-0.53571 2.14286,-3.57143 3.21429,-0.53572 15,0.17858 5.71428,-2.32143 5.35714,-3.75 3.03572,-2.67857 L 416.25,685 l 3.39286,0.35714 1.96428,0.35714 2.67858,-1.07142 3.21428,-0.17858 5.71429,1.96429 1.60714,4.46429 5.35714,2.67857 0.71429,3.75 -2.67857,3.75 -2.32143,3.75 1.07143,2.85714 3.92857,0.35714 3.03571,-0.71428 2.32143,2.85714 -2.32143,2.14286 1.78572,2.67857 6.25,1.60714 4.28571,2.85714 -1.25,2.67858 -2.85714,1.07142 -1.78572,2.67858 -0.17857,7.5 -3.03571,3.75 0.17857,1.60714 3.57143,2.5 1.42857,1.96428 -0.89286,3.03572 -2.85714,2.85714 -4.10714,2.14286 -3.39286,2.67857 -1.25,2.85714 1.07143,4.10715 -3.39286,4.46428 -3.03571,2.14286 -1.42857,3.03571 0,2.67857 -1.60715,1.96429 0,2.5 2.32143,1.25 -0.35714,2.32143 -2.85714,1.78571 -3.03572,-0.71428 -1.78571,1.07143 -0.35715,5.17857 -1.78571,2.5 -3.39286,0.71428 -0.35714,-3.39285 -1.78571,-3.21429 -4.28572,-0.53571 -2.67857,-2.14286 -3.21429,-0.17857 -1.60714,3.21428 1.60714,1.25 -2.14285,1.07143 -2.32143,-1.25 -1.25,1.42857 0,3.03572 0.89286,2.85714 1.07142,1.96429 -2.85714,0.89285 -2.5,-1.60714 -4.10714,-0.17857 -3.75,-0.35714 -2.32143,-5.17858 -1.25,-3.03571 1.42857,-3.03571 1.25,-3.03572 -3.57143,-3.03571 -4.46428,-3.21429 -2.85715,-1.25 -2.67857,0 -2.67857,-1.60714 -3.39286,0 0,1.25 -2.5,0.71428 -1.60714,1.60715 -0.17857,3.21428 -2.5,2.5 -3.03571,2.14286 -6.25,0 -1.60715,2.67857 0.53572,1.42857 -2.85715,2.85715 -3.03571,3.21428 1.96429,3.75 -1.96429,3.21429 -2.32143,1.96428 -2.32143,2.5 -2.5,2.5 -6.60714,0.53572 -4.82143,-0.17857 -4.82143,2.5 -1.42857,2.32142 -4.46429,0.89286 -3.57142,2.32143 -1.96429,2.5 -6.16071,6.51786"
       id="path3646" />
    <path
       style="fill:none;stroke:#ffffff;stroke-width:2.5;stroke-linecap:butt;stroke-linejoin:miter;stroke-miterlimit:0;stroke-opacity:1;stroke-dasharray:none"
       d="m 448.125,750.17857 1.69643,2.58929 5.89286,3.03571 5.08928,2.05357 7.14286,1.07143"
       id="path3648" />
    <path
       style="fill:none;stroke:#ffffff;stroke-width:2.5;stroke-linecap:butt;stroke-linejoin:miter;stroke-miterlimit:0;stroke-opacity:1;stroke-dasharray:none"
       d="m 320.72343,655.14642 2.77792,-0.50508 5.05077,1.51523 3.6618,1.38896 3.40926,0.50508 2.02031,-0.75762 3.28299,-0.25254 3.40927,1.51523 3.78807,0.37881 4.41942,-0.63134 2.0203,-1.76777 -0.75761,-3.78807 -0.50508,-3.283 1.76777,-2.27284 2.77792,-0.50508 2.0203,3.03046 1.76777,1.26269 2.52538,-1.26269 1.01016,-3.53553 3.03045,-2.27285 3.03046,-4.29315 2.02031,-2.77792 2.77792,1.2627 3.78807,-0.75762 5.05076,-3.78807 2.77792,-3.53554 4.54569,-1.76776 5.3033,-2.77792 3.28299,-2.27285 4.54569,-0.75761 5.55584,0.50508 4.54568,-2.27285 4.29315,-2.52538 4.79823,-1.76776 7.3236,0.75761 5.3033,-0.25254 2.77792,-1.01015 3.53554,0.50508 1.01015,3.28299 2.77792,4.04061 4.04061,3.78807 4.79822,1.26269 4.04061,0 2.52539,3.283 5.80837,1.01015 5.55584,-0.75761 5.3033,1.01015 4.29315,-3.03046 3.53554,-1.26269 4.79822,2.02031 -0.25254,4.54568 3.53554,1.51523 7.57614,0 4.29315,-0.75761 1.26269,-1.51523 2.77792,0 2.0203,2.0203 5.05077,-2.0203 2.27284,-5.80838 -2.02031,-3.53553 2.27285,-3.53554 4.29315,-2.52538 4.04061,-0.75761 3.53553,2.0203 3.03046,4.54569 3.28299,3.283 5.3033,1.51522 4.54569,-0.75761 3.283,-2.27284 -1.51523,-6.31346 -1.51523,-3.53553 -2.77792,-10.85914 -0.50508,-7.32361 2.77792,-3.53553 2.77792,-1.76777 2.27285,-2.77792 3.28299,-2.27284 3.283,0 2.77792,-3.03046 -2.52538,-1.51523 0,-3.53553 4.04061,-4.04061 0.75761,-7.32361 3.283,-2.52538 1.76776,-2.77792"
       id="path3650" />
    <path
       style="fill:none;stroke:#ffffff;stroke-width:2.5;stroke-linecap:butt;stroke-linejoin:miter;stroke-miterlimit:0;stroke-opacity:1;stroke-dasharray:none"
       d="m 492.95444,554.25743 -5.80837,-3.53553 -3.283,-5.80838 -0.25254,-7.3236 2.02031,-8.08122 3.78807,-7.32361 -2.52538,-7.07107 0.75761,-5.80837 4.54569,-7.57615 1.76777,-4.54569 -4.29315,-4.29314 -1.01016,-3.53554 2.52539,-3.28299 6.31345,2.52538 4.79822,-1.76777 8.5863,1.26269 1.76777,-1.51523 4.54568,0 3.53554,1.76777 3.03046,1.26269 6.06091,-0.25254 6.06092,-5.80837 6.31345,-6.81853 2.52538,-5.55584 2.02031,-2.52538 2.0203,-1.51523 7.07107,-0.25254 7.3236,2.27284 5.30331,0 4.79822,-0.25254 7.07107,1.01016 4.79822,4.79822 3.03046,3.78807 7.07107,3.283 6.81853,1.01015 2.52538,3.283 -0.50508,3.28299 4.04061,2.77792 4.79823,4.04061 -0.75762,3.283 -2.77792,1.26269 -0.50507,2.52538 1.26269,2.27284 0.25254,7.57615 -1.01016,1.76776 -2.27284,0 -2.52538,-3.03045 -3.283,1.01015 -1.26269,4.29315 -1.01015,3.03046 -1.76777,1.51522 0,2.02031 2.02031,2.0203 4.04061,2.27285 0.25254,2.27284 -3.03046,0.75762 -3.53554,0 -4.79822,2.77791 -2.27284,4.29315 1.01015,19.69798 0.75761,1.51523 1.01016,2.77792 -3.283,1.76776 -3.78807,-2.0203 -3.78807,-1.26269 -2.52538,1.01015 -1.2627,2.0203 -4.04061,1.2627 -3.78807,0 -2.27284,-1.76777 -2.77792,-1.51523 -2.77792,1.26269 -3.03046,-2.0203 1.01016,-4.29315 -3.283,-2.52538 -5.05076,-1.51523 -3.283,0.50507 -1.51523,2.52538 -5.05076,0.25254 -4.04061,-3.53553 -4.29315,2.27284 -5.3033,-2.77792 -4.54569,-1.26269 -4.54568,-2.0203 -5.80838,3.53553 -7.82868,2.27284 -6.06092,-0.75761 -2.77792,0.25254 -4.04061,0.50507 z"
       id="path3652" />
    <path
       style="fill:none;stroke:#ffffff;stroke-width:2.5;stroke-linecap:butt;stroke-linejoin:miter;stroke-miterlimit:0;stroke-opacity:1;stroke-dasharray:none"
       d="m 357.32143,548.75 2.14286,0.35714 3.39285,-0.71428 3.21429,1.96428 5,1.07143 10.35714,0.89286 10.17857,-1.42857 2.5,-1.42858 8.39286,-0.35714 6.42857,0.17857 6.96429,2.32143 3.92857,1.07143 5.35714,0.53571 3.75,0.71429 5.89286,3.03571 4.82143,1.96429 5.17857,0.17857 2.5,1.60714 12.85714,0.35715 5.71429,1.25 5.71428,0.89285 7.85715,0 9.64285,-0.35714 5.35715,-0.71428 4.64285,-3.21429 1.25,-2.14286 -0.53571,-3.125"
       id="path3654" />
    <path
       style="fill:none;stroke:#ffffff;stroke-width:2.5;stroke-linecap:butt;stroke-linejoin:miter;stroke-miterlimit:0;stroke-opacity:1;stroke-dasharray:none"
       d="m 437.41072,424.55357 4.55357,2.23214 2.5,0.53572 2.32143,3.92857 -0.17858,2.14286 3.39286,4.82142 1.78572,4.10715 0.89285,3.39285 2.67857,4.10715 c 0,0 3.03572,1.96428 3.75,2.14285 0.71429,0.17858 13.03572,1.42858 13.03572,1.42858 l 6.96428,4.46428 2.85715,4.64286 1.78571,4.82143 0.17857,3.03571 -0.89285,3.75 -4.28572,2.5 -3.57143,0.53572 -2.32143,2.14285 4.46429,9.82143 4.10714,9.10714 3.57143,5.71429 2.94643,4.82143"
       id="path3656" />
    <path
       style="fill:none;stroke:#ffffff;stroke-width:2.5;stroke-linecap:butt;stroke-linejoin:miter;stroke-miterlimit:0;stroke-opacity:1;stroke-dasharray:none"
       d="m 571.99888,468.647 -2.52538,-4.16687 -4.29315,-3.91435 -2.02031,-3.28299 -1.37432,-4.78279 1.07142,-5.35714 6.07143,-3.21429 0.71429,-5 2.14286,-2.5 3.92857,0 2.85714,-2.85714 -0.71429,-2.14286 -2.5,-0.71429 -1.42857,-4.28571 L 575,422.5 l 1.78572,-4.64286 1.78571,-2.5 -2.14286,-2.85714 -5.71428,-3.21429 0.35714,-7.14285 2.85714,-7.14286 5.71429,-4.28572 2.85714,-3.92857 -1.78571,-4.28571 -7.5,-0.71429 -5.35715,-2.85714 -5.35714,-0.71429 -4.64286,-2.5 -2.85714,-2.14285 1.42857,-2.85715 3.57143,-6.42857 5.35714,-3.21428 4.28572,-2.85715 -0.35714,-6.07142 7.14285,-2.5 -2.85714,-2.14286 -1.42857,-3.92857 -1.07143,-4.28572 3.57143,-1.07143 4.28571,-3.21428 0,-5.35714 6.07143,-1.07143 2.14286,-3.21429 -2.5,-3.21428 0.71428,-5 2.14286,-4.28572 4.64286,-3.57143 10,-1.42857 2.5,-3.21428 4.28571,-2.85715 1.42857,-2.5 5,-1.78571 4.64286,-6.78572 14.28572,-15 11.07142,-5 7.5,-2.5 7.14286,-6.78571 4.64286,-7.5 6.42857,-2.5 6.78571,-8.92857 2.14286,-5.35714 -1.42857,-5 5.71429,-3.92858 1.78571,-4.64285 6.78571,-7.85715 10.71429,-6.07142 10.71429,-3.92858 5,-3.92857 2.14285,-5.71428 3.21429,-4.64286 4.28571,-1.07143 8.57143,-6.42857 4.28572,-0.71429 4.64285,-3.57142 5,-2.85715 8.57143,0 5.71429,0 5,-0.71428 3.57143,-2.5"
       id="path3658" />
    <path
       style="fill:none;stroke:#ffffff;stroke-width:2.5;stroke-linecap:butt;stroke-linejoin:miter;stroke-miterlimit:0;stroke-opacity:1;stroke-dasharray:none"
       d="m 461.26091,374.95536 6.43972,3.53553 2.77792,1.76777 2.52538,2.77792 5.3033,0.50507 5.80838,0.25254 7.07107,1.76777 2.0203,4.79822 5.3033,3.53554 7.32361,2.27284 14.14213,-0.25254 6.31346,-2.27284 4.54568,-3.03046 1.51523,-5.55584 -2.27284,-3.53553 3.28299,-2.27285 3.53554,2.02031 2.52538,2.27284 4.79822,-0.50507 3.78808,0.25254 2.0203,3.03045 3.78807,3.78807 3.283,2.02031 3.283,0.25254 2.27284,-1.51523 4.29315,-1.01015 6.31345,-1.26269 6.20272,1.94329"
       id="path3660" />
    <path
       style="fill:none;stroke:#ffffff;stroke-width:2.5;stroke-linecap:butt;stroke-linejoin:miter;stroke-miterlimit:0;stroke-opacity:1;stroke-dasharray:none"
       d="m 555.83644,261.43946 3.80642,2.31054 3.21428,0.53571 4.64286,0.89286 1.42857,3.39286 2.85715,2.67857 -0.53572,4.46428 2.5,1.42858 4.10714,0.35714 3.57143,-0.71429 3.21429,2.67857 -1.42857,2.5 1.60714,2.67858 1.42857,0.71428 2.5,-2.32143 3.21429,-0.53571 4.46428,2.67857 c 0,0 1.25,2.5 1.96429,2.5 0.71428,0 6.25,0.17857 6.25,0.17857 l 0.17857,4.46429 -3.03571,4.10714 -2.5,4.46429 -1.42858,3.03571 -0.89285,4.46429"
       id="path3662" />
    <path
       style="fill:none;stroke:#ffffff;stroke-width:2.5;stroke-linecap:butt;stroke-linejoin:miter;stroke-miterlimit:0;stroke-opacity:1;stroke-dasharray:none"
       d="m 607.85714,169.10714 3.21429,0.53571 3.21429,-1.25 5.53571,-0.17857 4.82143,-1.60714 4.10714,1.60714 3.39286,2.85715 0.17857,4.46428 -0.53571,3.57143 2.32142,3.39286 4.82143,0.53571 4.10715,1.78572 6.25,0.35714 1.07142,2.32143 2.14286,2.32143 3.21429,0.53571 2.5,-1.78571 3.92857,0.35714 5.35714,3.21428 -1.96428,6.78572 -2.85715,4.10714 -5.89285,1.96429 -3.39286,0.89285 -3.57143,1.25 -1.25,3.39286 1.07143,7.5 0.89286,5.71429 2.67857,3.75 4.64285,-0.53572 4.82143,1.96429 3.57143,3.03571 3.21429,1.42857 3.75,2.67858 6.49211,1.12437"
       id="path3664" />
    <path
       style="fill:none;stroke:#ffffff;stroke-width:2.5;stroke-linecap:butt;stroke-linejoin:miter;stroke-miterlimit:0;stroke-opacity:1;stroke-dasharray:none"
       d="m 697.32143,110.08928 1.70413,3.23657 1.26269,2.52538 0.60461,3.9702 4.46428,0.35714 2.32143,2.67857 3.57143,-1.60714 2.85714,1.60714 1.25,2.32143 1.60715,2.14286 4.10714,1.25 3.21429,0.89285 4.46428,-1.96428 6.60714,-0.35715 5.53572,3.21429 2.85714,4.10714 0.17857,6.07143 -2.5,2.5 -2.5,1.96429 -1.25,1.96428 1.60715,2.32143 2.5,1.96429 3.92857,0.53571 3.57143,-1.42857 0.71428,-2.5 -1.42857,-2.85714 1.07143,-1.96429 4.64286,-1.25 3.57142,3.57143 0.53572,4.28571 -1.07143,5.53572 -1.07143,4.10714 -0.89286,3.03572 -3.03571,2.32142 -0.71429,3.21429 2.67858,2.32143 3.57142,1.25 5.71429,-1.60714 8.75,-3.92858 9.46429,-6.07142 9.64285,-4.64286 5,-8.03572 8.92857,-2.5 10.89286,-0.35714 9.82143,-3.92857 11.78571,0 1.91199,-2.3954"
       id="path3666"
       sodipodi:nodetypes="ccccccccccccccccccccccccccccccccccccccccccccccc" />
    <path
       style="fill:none;stroke:#ffffff;stroke-width:2.5;stroke-linecap:butt;stroke-linejoin:miter;stroke-miterlimit:0;stroke-opacity:1;stroke-dasharray:none"
       d="m 805.08929,47.85714 0.7599,5.364631 3.283,2.777919 1.76777,3.535534 -1.76777,3.788072 -2.52538,4.293148 -1.01015,4.040611 -1.76777,4.545686 -1.26269,4.545687 2.27284,1.515228 5.80838,1.767767 0.25254,2.77792 -1.26269,3.282996 0.75761,1.767767 2.02031,0.505076 2.27284,4.798224 2.0203,2.525382 2.77792,3.030462 -1.26269,3.53553 -1.76776,2.27284 0,2.27285 1.26269,1.76776 2.0203,0.25254 3.03046,-0.50508 1.51523,2.77792 1.51523,3.283 -1.01016,2.52538 0.25254,7.57615 -2.0203,2.77791 0.75761,3.283 5.55584,2.52538 6.37905,1.06057 5.26786,-0.53572 2.32142,-3.125 1.51786,-1.51785 3.21429,1.16071 L 850,136.25 l 1.05352,5.10758 1.51523,3.78807 5.3033,1.26269 2.02031,4.29315 -0.25254,5.3033 3.78807,2.02031 5.3033,0 3.78807,-1.51523 2.77792,-2.02031 4.29315,-0.75761 4.54569,4.04061 -2.52539,3.03046 1.01016,6.31345 -1.26269,3.283 -2.77792,1.76776 -2.02031,1.76777 1.51523,2.52538 3.53553,1.51523 1.2627,4.79822"
       id="path3668" />
    <path
       style="fill:none;stroke:#ffffff;stroke-width:2.5;stroke-linecap:butt;stroke-linejoin:miter;stroke-miterlimit:0;stroke-opacity:1;stroke-dasharray:none"
       d="m 766.32698,168.94737 3.49445,3.37406 2.5,1.07142 5.17857,0.71429 2.14286,3.75 2.14286,4.46429 -3.21429,2.32142 -3.75,2.32143 0.17857,2.14286 1.42857,2.14286 3.57143,1.60714 2.67857,-0.17857 7.5,-3.75 4.28572,-1.78572 1.78571,-2.85714 6.42857,-2.32143 3.75,-0.17857 5,-2.85714 6.60715,-1.78572 5,0.89286 3.39285,-2.32143 7.67857,0 6.07143,0.71429 6.78572,0.53571 4.10714,5 5.53571,1.78572 7.67858,3.57143 5.35714,2.67857 5.17857,3.57143 1.07143,0.71428"
       id="path3670" />
    <path
       style="fill:none;stroke:#ffffff;stroke-width:2.5;stroke-linecap:butt;stroke-linejoin:miter;stroke-miterlimit:0;stroke-opacity:1;stroke-dasharray:none"
       d="M 946.6183,153.81697 946.25598,153.52348 942.5,152.5 l -5.71428,-0.0893 -3.03572,0.26786 -3.21428,1.96428 -2.5,1.33929 -5.35715,0.17857 -4.19737,3.37962 -4.54568,2.27284 -3.53554,0.25254 -4.29315,-1.26269 -4.79822,1.51523 -0.25254,3.78807 0,4.04061 1.76777,2.0203 -1.51523,4.54569 -5.05076,4.04061 -2.27285,1.01015 -4.04061,0.50508 -4.29314,0 -3.78808,0.25254 -1.76776,2.52538 -0.75762,3.28299 -1.01015,3.53554 -2.52538,3.03046 -4.29315,3.53553 -4.79823,1.01015 -3.28299,4.04061 -0.50508,4.54569 2.27285,3.78807 -2.77792,3.03046 -5.3033,1.01015 -3.78808,3.283 0.25254,3.03045 -5.55584,3.78808 -4.04061,4.04061 -0.50507,6.06091 0.25253,4.04061 0.75762,4.29315 -1.26269,3.283 -4.79823,2.52538 -3.53553,2.0203 -4.04061,0 -4.29315,2.02031 -5.80838,3.78807 -2.52538,5.3033 1.26269,3.53553 2.02031,0.25254 4.79822,-1.51523 3.78808,0 1.51522,1.51523 6.06092,-1.01015 7.82868,-4.54569 c 0,0 3.283,0.75762 4.54569,1.26269 1.26269,0.50508 8.08122,4.79823 8.08122,4.79823 l 4.54568,5.05076 4.29315,2.27284 11.36422,1.76777 8.08122,3.03046 5.05076,5.05076 7.57615,5.3033 4.67195,1.26269 3.03046,0"
       id="path3672"
       sodipodi:nodetypes="ccccccccccccccccccccccccccccccccccccccccccccccccccccccsccccccccc" />
    <path
       style="fill:none;stroke:#ffffff;stroke-width:2.5;stroke-linecap:butt;stroke-linejoin:miter;stroke-miterlimit:0;stroke-opacity:1;stroke-dasharray:none"
       d="m 822.89552,465.74282 -5.42957,2.14657 -5.05076,2.52538 -5.80838,4.79823 -0.75762,3.28299 1.01016,13.38452 -0.75762,8.08122 -5.80838,6.31346 -1.76776,3.53553 -5.55584,3.78807 -4.04061,2.02031 -3.283,1.76777 -3.53553,3.78807 -2.27284,7.3236 0.75761,19.44544 -0.75761,6.31345 -4.54569,7.32361 -5.80838,10.85914 -6.56599,4.04061 -0.75761,6.31345 -0.25254,10.10153 -2.52538,6.31345 -4.29315,5.55584 -6.56599,5.55584 -2.27285,4.04061 -3.78807,5.05076 -5.05076,5.05077 -3.03046,3.03045 -2.27284,4.79823 0,8.58629 2.77792,6.06092 3.03046,7.07107 -0.50508,5.05076 -3.03046,6.06092 -3.53553,2.77792 -1.26269,6.56599 -1.51523,3.53553 -1.76777,7.07107 -2.77792,3.78807 -5.05076,3.53553 -1.76777,4.54569 -0.75761,3.283 -0.75762,5.05076 -1.26269,5.05076 0.50508,5.3033 -5.80838,8.08122 -4.29315,13.13199 -6.31345,10.10152 -8.33376,16.16244 -6.31345,10.10153 -6.06092,5.3033 -0.75761,4.04061 -0.25254,7.07107 1.76777,6.31345 -1.01016,8.33376 -2.52538,5.80838 -2.0203,5.55584 -6.56599,4.04061 -4.29315,1.76776 -3.283,3.78807 -1.76776,5.05077 0,7.07106 -2.52539,8.33376 0,17.93021 -2.27284,5.3033 -0.25254,6.81853 -3.03046,3.03046 -1.26269,9.34391 -1.26269,9.34391 4.29315,7.82868 -2.27284,7.32361 -6.06092,0 -5.80837,3.78807 -2.52539,5.3033 -3.28299,4.29315 -6.81853,2.52538 -5.55584,5.55584 -3.78807,6.81853 -2.77792,6.81853 -4.04061,6.81853 -1.51523,12.12183 -4.29315,9.09137 -7.07107,8.33376 -5.55584,5.80838 -2.52538,11.86928 -4.54568,16.415 -8.33376,22.4759 -5.80838,12.1218 0.75762,19.9505 0.75761,11.8693 1.51523,9.0914 0.75761,14.6472 -2.27284,10.1015 0.25254,5.0508 0.69448,3.9775"
       id="path3674" />
  </g>
</svg>
