<?xml version="1.0" encoding="utf-8"?>
<!-- Generator: Adobe Illustrator 16.0.0, SVG Export Plug-In . SVG Version: 6.00 Build 0)  -->
<!DOCTYPE svg PUBLIC "-//W3C//DTD SVG 1.1//EN" "http://www.w3.org/Graphics/SVG/1.1/DTD/svg11.dtd">
<svg version="1.1" id="圖層_1" xmlns="http://www.w3.org/2000/svg" xmlns:xlink="http://www.w3.org/1999/xlink" x="0px" y="0px"
	 width="200px" height="200px" viewBox="0 0 200 200" enable-background="new 0 0 200 200" xml:space="preserve">
<path fill-rule="evenodd" clip-rule="evenodd" fill="#346657" d="M200,100C200,44.771,155.229,0,100,0S0,44.771,0,100
	c0,52.971,41.188,96.313,93.282,99.771V200H200v-31.904h-26.776C189.835,150.241,200,126.31,200,100z M112.599,114.54
	c-0.669-1.38-0.505-2.394,0.497-3.127c0.651-0.477,1.826-0.691,2.604-0.465c4.419,1.282,7.586,4.378,10.579,7.676
	c0.492,0.543,0.965,1.438,1.531,1.509c1.138,0.145,2.585,0.207,3.447-0.374c1.318-0.89,1.302-2.499,0.274-3.741
	c-4.157-5.023-8.817-9.373-15.447-10.915c-0.185-0.043-0.354-0.154-0.648-0.285c0-1.367,0-2.758,0-4.192
	c6.21-2.119,20.589,0.667,28.662,11.787c8.678,11.951,7.758,28.295-2.282,39.001c-9.626,10.267-26.031,12.8-37.397,5.573
	c4.989-4.709,8.501-10.18,10.334-16.636C117.269,131.492,116.616,122.84,112.599,114.54z M160.049,80.72
	c5.254,12.015,1.989,27.385-7.023,34.393c-2.732-3.521-5.115-7.39-8.26-10.485c-8.318-8.19-18.495-11.485-30.106-10.014
	c-1.418,0.18-2.312-0.251-2.673-1.367c-0.23-0.71-0.015-1.814,0.424-2.452c2.44-3.546,6.084-5.542,9.877-7.303
	c0.545-0.254,1.115-0.454,1.66-0.707c1.719-0.797,2.401-2.191,1.824-3.697c-0.618-1.612-2.129-2.242-3.952-1.647
	c-5.879,1.918-11.398,6.083-15.19,11.516c-1.555-0.48-3.008-0.928-4.448-1.372c1.006-11.729,12.185-22.663,25.319-24.811
	C140.904,60.583,154.53,68.096,160.049,80.72z M109.656,103.083c0.005,5.371-4.316,9.724-9.662,9.733
	c-5.476,0.01-9.789-4.335-9.757-9.83c0.031-5.354,4.417-9.697,9.755-9.658C105.354,93.368,109.652,97.707,109.656,103.083z
	 M70.198,63.874C72.456,50.583,83.97,40.118,97.576,38.99c13.009-1.079,26.542,6.847,30.298,17.75
	c-2.259,0.544-4.579,0.904-6.763,1.661c-13.523,4.683-21.809,14.082-24.713,28.083c-0.353,1.701-1.351,2.095-2.523,2.234
	c-0.598,0.071-1.506-0.644-1.93-1.245c-2.468-3.502-3.293-7.565-3.683-11.73c-0.287-3.063-1.345-4.513-3.317-4.298
	c-1.916,0.208-2.673,1.666-2.446,4.702c0.485,6.473,2.177,11.124,5.967,16.373c-0.918,1.33-1.746,2.531-2.568,3.721
	C74.718,91.322,67.921,77.273,70.198,63.874z M38.122,85.975c2.76-12.771,14.52-23.457,26.364-23.739
	c-0.174,1.94-0.443,3.723-0.479,5.508c-0.288,14.854,6.076,25.988,18.804,33.578c0.685,0.408,1.333,1.185,1.597,1.932
	c0.668,1.894-0.382,2.758-2.166,3.154c-4.433,0.985-8.765,0.386-13.129-0.515c-0.947-0.194-2.303,0.167-3.029,0.789
	c-0.582,0.499-0.917,1.972-0.6,2.664c0.406,0.885,1.479,1.797,2.433,2.045c6.179,1.609,12.386,2.172,18.571-0.381
	c0.877,1.099,1.742,2.183,2.602,3.259c-6.555,7.268-20.913,12.149-34.362,5.686C42.029,113.851,35.143,99.763,38.122,85.975z
	 M62.956,155.607c-10.396-6.938-16.461-21.786-12.935-31.036c3.958,1.22,7.816,2.866,11.839,3.56
	c11.757,2.029,22.158-1.175,30.915-9.274c1.407-1.302,2.698-1.293,3.868-0.526c0.691,0.453,1.072,1.902,1.023,2.874
	c-0.229,4.464-2.168,8.349-4.36,12.153c-0.508,0.882-0.758,2.217-0.48,3.15c0.22,0.734,1.474,1.677,2.199,1.621
	c1.025-0.079,2.314-0.752,2.921-1.587c3.762-5.172,5.604-11.528,5.488-18.219c1.241-0.47,2.524-0.956,3.793-1.437
	c4.911,8.726,5.139,24.513-6.147,35.331C90.732,162.136,74.848,163.542,62.956,155.607z"/>
</svg>
